<?xml version="1.0" standalone="no"?>
<!DOCTYPE svg PUBLIC "-//W3C//DTD SVG 1.1//EN" "http://www.w3.org/Graphics/SVG/1.1/DTD/svg11.dtd" >
<svg xmlns="http://www.w3.org/2000/svg" xmlns:xlink="http://www.w3.org/1999/xlink" version="1.1">
<metadata>
Created by FontForge 20201107 at Thu Oct  8 20:45:56 2009
 By 
Published by FontShop International for the FontFont library.
</metadata>
<defs>
<font id="MisterK" horiz-adv-x="554" >
  <font-face 
    font-family="MisterK "
    font-weight="400"
    font-stretch="normal"
    units-per-em="2000"
    panose-1="2 0 5 6 5 0 0 2 0 2"
    ascent="1600"
    descent="-400"
    x-height="282"
    cap-height="855"
    bbox="-467 -1014 1568 1371"
    underline-thickness="50"
    underline-position="-100"
    unicode-range="U+0020-2116"
  />
<missing-glyph horiz-adv-x="531" 
d="M120 669h291v-669h-291v669zM356 55v559h-181v-559h181z" />
    <glyph glyph-name=".notdef" horiz-adv-x="531" 
d="M120 669h291v-669h-291v669zM356 55v559h-181v-559h181z" />
    <glyph glyph-name=".null" horiz-adv-x="0" 
 />
    <glyph glyph-name="nonmarkingreturn" horiz-adv-x="574" 
 />
    <glyph glyph-name="space" unicode=" " horiz-adv-x="574" 
 />
    <glyph glyph-name="space" unicode="&#xa0;" horiz-adv-x="574" 
 />
    <glyph glyph-name="exclam" unicode="!" horiz-adv-x="656" 
d="M361 314q-1 -13 -3.5 -17t-17.5 -4q-11 0 -19.5 27t-15.5 73t-13 106.5t-12.5 128.5t-14 139t-16.5 137q-1 5 -3.5 28.5t-2.5 48.5q0 22 3.5 38.5t12.5 16.5q19 0 30.5 -15.5t18.5 -40t10 -54t5 -57.5q4 -52 10.5 -123t12.5 -147.5t10.5 -151t4.5 -133.5zM348 -2
q0 28 17 39.5t34 11.5q11 0 18.5 -8t12 -19t6 -21.5t1.5 -16.5q0 -12 -6 -22.5t-28 -10.5q-6 0 -15.5 2t-18.5 7.5t-15 14.5t-6 23z" />
    <glyph glyph-name="quotedbl" unicode="&#x22;" horiz-adv-x="672" 
d="M252 596q-10 0 -10 4q0 6 7 22.5t15 38.5t15 47t7 48q0 34 -19 48.5t-41.5 20.5t-41 9.5t-18.5 15.5q0 27 20 37.5t46 10.5q28 0 49 -13.5t34.5 -36t20 -51t6.5 -57.5q0 -14 -5.5 -38t-17 -47.5t-28.5 -41t-39 -17.5zM396 646q7 13 15.5 30t16 36t12 38t4.5 36
q0 26 -12 47t-36 35q-10 5 -25 10t-29.5 10t-25 11.5t-10.5 14.5q0 23 15.5 27.5t36.5 4.5q32 0 58.5 -12.5t45 -33.5t28.5 -49t10 -59q0 -20 -5 -47.5t-15.5 -52.5t-27.5 -42.5t-40 -17.5q-6 0 -11 2.5t-5 7.5v4v0z" />
    <glyph glyph-name="dollar" unicode="$" 
d="M287 614v-15.5t-1 -15.5q9 1 18 1h17q16 0 35 -1.5t35.5 -4.5t27 -8.5t10.5 -12.5q0 -5 -6 -10.5t-14.5 -10t-17 -8t-12.5 -3.5q-12 0 -28.5 1t-33.5 1q-14 0 -27 -3q0 -28 -0.5 -42t-1 -22.5t-0.5 -15.5v-21q0 -16 1.5 -45t2.5 -84l11 -10q27 -20 55 -40.5t50.5 -42
t36.5 -44t14 -46.5q0 -34 -16.5 -59t-41 -43.5t-53 -31.5t-51.5 -22q0 -14 1 -30t1 -30q0 -21 -3.5 -32t-9 -16.5t-12 -6.5t-11.5 -1q-7 0 -9 19.5t-2 76.5v7q-51 -14 -87.5 -23t-47.5 -9q-9 0 -16 1.5t-7 5.5q0 12 10.5 20t30.5 15.5t49.5 15.5t67.5 21q0 17 -0.5 39
t-1 52.5t-2 71t-2.5 95.5v19l-60 42t-53.5 43t-38 44.5t-14.5 46.5q0 20 13 40t35 37.5t51.5 31.5t63.5 23q0 15 1 30t1.5 27t2 20t3.5 8q21 0 28 -12.5t8 -32.5zM143 447q-2 -10 -2 -14q0 -20 11.5 -35.5t28 -28t34.5 -23t32 -20.5v60q0 31 -0.5 64t-2.5 68
q-16 -2 -33 -8.5t-31 -16.5t-24 -22t-13 -24zM397 111q0 27 -28 58t-76 66v-227l6 4q15 9 32 19t31.5 22t24 26.5t10.5 31.5z" />
    <glyph glyph-name="ampersand" unicode="&#x26;" horiz-adv-x="1153" 
d="M1057 175q-3 -23 -22.5 -29t-44.5 -6q-20 0 -44.5 1.5t-65.5 12.5q-10 -45 -49.5 -82t-96.5 -63.5t-124 -41t-131 -14.5q-55 0 -103.5 10.5t-84.5 31t-57 50t-21 68.5q0 27 9.5 57.5t32 65.5t61 76t96.5 90q-42 64 -42 128q0 72 27.5 131.5t72 102.5t101 66.5t115.5 23.5
q24 0 46 -8t38 -22.5t25.5 -34t9.5 -43.5q0 -31 -25 -68.5t-68.5 -82.5t-102 -96.5t-124.5 -111.5q4 -10 20 -31.5t38 -49.5t48 -59t50 -59.5t42.5 -51.5t26.5 -35q1 -2 1 -5q0 -6 -5.5 -7.5t-10.5 -1.5q-23 0 -54.5 27.5t-64.5 66.5t-64.5 81.5t-52.5 72.5l-17 25
q-78 -62 -123 -122t-45 -114q0 -23 10.5 -44t34.5 -37t62 -26t94 -10q61 0 123.5 13.5t113.5 36t83 52t32 61.5q-35 11 -50 27t-17 30q0 20 15 34t38 14q22 0 42.5 -16t29.5 -58q12 -10 34.5 -13.5t47.5 -4.5t49.5 -2t40.5 -6zM679 782q-44 0 -90 -18t-83 -50t-60.5 -75
t-23.5 -92q0 -50 40 -109q69 65 120 109t84 76.5t49 58.5t16 55q0 23 -9.5 34t-42.5 11z" />
    <glyph glyph-name="quotesingle" unicode="'" horiz-adv-x="350" 
d="M148 626q13 7 24.5 19.5t19 28t12 32.5t4.5 34q0 26 -13 47.5t-43 26.5q-11 2 -26.5 4t-29.5 5t-24 8t-10 13q0 23 19.5 32.5t52.5 9.5q31 0 55.5 -13t42 -35.5t27 -52t9.5 -63.5q0 -16 -9 -37t-22.5 -40t-30 -32t-32.5 -13q-1 0 -5 0.5t-8.5 3t-8.5 7.5t-4 15z" />
    <glyph glyph-name="parenleft" unicode="(" horiz-adv-x="422" 
d="M358 -384q-60 94 -104 192.5t-72.5 197t-42.5 196t-14 190.5q0 91 11.5 172t33 150t51.5 123.5t67 91.5l9 9t13 11.5t14 9.5t13 4t8 -5t2 -19q0 -17 -12.5 -37.5t-30.5 -48.5t-40 -65t-40 -86.5t-30.5 -114.5t-12.5 -148q0 -120 16 -225.5t40.5 -194.5t52.5 -160.5
t52.5 -124.5t40.5 -87t16 -46q0 -4 -4 -6t-8 -2t-11 3t-18 20z" />
    <glyph glyph-name="parenright" unicode=")" horiz-adv-x="414" 
d="M98 994q57 -88 97 -193t65.5 -214.5t37 -217.5t11.5 -201q0 -88 -12 -170t-31.5 -152.5t-44.5 -125.5t-52 -88q-2 -3 -6.5 -9t-10.5 -11.5t-12.5 -10t-12.5 -4.5t-8 5t-2 19q0 17 10.5 37.5t25.5 48.5t33.5 65t33.5 86.5t25.5 114.5t10.5 148q0 119 -14.5 226.5
t-36.5 201t-47.5 170.5t-47.5 136t-36.5 97t-14.5 54q0 13 8 13q7 0 16.5 -8t14.5 -17z" />
    <glyph glyph-name="plus" unicode="+" horiz-adv-x="708" 
d="M353 436q2 -16 2.5 -38t2.5 -48q1 -23 3 -50.5t4 -61.5q33 2 67 3.5t71 1.5q54 0 87 -4.5t33 -9.5q0 -23 -14 -28.5t-30 -5.5q-79 -5 -121.5 -8t-62 -4.5t-22.5 -2.5l-3 -1q1 -11 1 -25v-31q0 -25 -1 -51.5t-2.5 -49t-5 -37t-7.5 -14.5q-20 1 -27.5 10t-7.5 23v22
q-2 35 -4.5 74t-5.5 77q-39 -3 -74 -6.5t-62 -6.5t-44.5 -5.5t-22.5 -2.5q-14 0 -19.5 6.5t-5.5 16.5q0 22 15.5 31.5t44.5 13.5t70.5 5t94.5 6q-5 63 -9 114t-9 78q-2 7 -3 11.5t-1 7.5q0 13 7 18.5t18 5.5q15 0 28 -8.5t15 -25.5z" />
    <glyph glyph-name="comma" unicode="," horiz-adv-x="459" 
d="M304 85q0 -42 -10 -80.5t-15 -58.5q-4 -14 -11 -36.5t-15.5 -48t-18.5 -51.5t-19.5 -47t-18 -34.5t-14.5 -13.5q-5 0 -16 7.5t-11 20.5q0 11 5 22t7 17q35 106 50 181t15 113q0 20 10 28t23 8q14 0 26.5 -7.5t12.5 -19.5z" />
    <glyph glyph-name="hyphen" unicode="-" horiz-adv-x="800" 
d="M193 218q41 8 77.5 13t75.5 7.5t84.5 3.5t105.5 1q27 0 51 -1t42 -3t29 -4.5t11 -5.5q0 -19 -20 -26.5t-52 -7.5q-59 -4 -118 -8.5t-111.5 -9t-95 -9t-68.5 -8.5q-12 -4 -22 -4q-14 0 -19.5 6.5t-5.5 16.5q0 13 6.5 23.5t29.5 15.5z" />
    <glyph glyph-name="period" unicode="." horiz-adv-x="518" 
d="M207 25q0 14 6.5 24t16 16t20 8.5t19.5 2.5q11 0 18 -8t11.5 -18.5t6.5 -21.5t2 -17q0 -12 -6 -23t-28 -11q-4 0 -15 2.5t-22 8t-20 14.5t-9 23z" />
    <glyph glyph-name="slash" unicode="/" horiz-adv-x="301" 
d="M290 788q-9 -37 -30 -124.5t-49.5 -214t-64 -285t-72.5 -337.5q-5 -24 -10 -46t-11 -39.5t-12.5 -28t-15.5 -10.5q-25 0 -25 23q0 9 3 25t9 45q6 27 13.5 62t19.5 89t29 132t42 190q7 31 17.5 74.5t22.5 94.5t24.5 106.5t24.5 111.5q2 9 6.5 28.5t10 43t11.5 48t12 44.5
t10.5 33t6.5 13q17 0 23.5 -18t6.5 -37q0 -7 -0.5 -12.5t-1.5 -10.5z" />
    <glyph glyph-name="zero" unicode="0" horiz-adv-x="492" 
d="M78 440q0 -19 1.5 -45t6.5 -55v26q0 48 14.5 92t39.5 77.5t59.5 53.5t74.5 20q44 0 76.5 -28t54 -73t32 -101.5t10.5 -114.5q0 -69 -12 -127t-35.5 -99.5t-57.5 -65t-78 -23.5q-42 0 -76 23t-59.5 59.5t-43.5 83t-29.5 93t-17 88.5t-5.5 71q0 23 5.5 42t22.5 19
q7 0 12 -2.5t5 -13.5zM129 189q-5 0 -9 3q11 -33 25.5 -62t32.5 -50.5t39 -34.5t47 -13q33 0 56.5 21.5t39 56.5t23 79.5t7.5 89.5q0 57 -8.5 106t-24 84t-37 55t-47.5 20q-29 0 -53.5 -16.5t-42 -44t-27.5 -62.5t-10 -72q0 -25 1 -41.5t2.5 -29.5t3 -25t1.5 -27
q0 -17 -5.5 -27t-13.5 -10z" />
    <glyph glyph-name="one" unicode="1" horiz-adv-x="527" 
d="M296 -50q-21 6 -26 52.5t-5 117.5q0 77 5.5 154t5.5 159q0 23 -5 23q-2 0 -5 -7q-20 -46 -43 -82t-44.5 -61t-40 -38t-30.5 -13q-13 0 -20 6.5t-7 16.5q0 7 10.5 20t28.5 34.5t43 53t55 75.5q10 15 19 34.5t17 36.5t15 28.5t13 11.5t13 -1.5t13 -8.5t10.5 -22t4.5 -42
q0 -54 -1 -97.5t-1 -81.5q0 -65 1.5 -113t3.5 -87.5t4 -75t3 -75.5q0 -13 -4.5 -17t-11.5 -4q-11 0 -21 3z" />
    <glyph glyph-name="two" unicode="2" horiz-adv-x="555" 
d="M134 65q0 40 24.5 89t54 99.5t54 99t24.5 87.5q0 23 -24 23q-18 0 -44 -10.5t-50.5 -23.5t-42 -23.5t-18.5 -10.5q-25 0 -43 8t-18 15q0 18 22.5 38t55 37t70 28.5t67.5 11.5q19 0 38 -5.5t34 -15t24.5 -23t9.5 -29.5q0 -27 -13.5 -59.5t-33 -67.5t-43 -71.5t-43 -71.5
t-33 -67.5t-13.5 -59.5q0 -26 12 -35t42 -9q39 0 72 6t66 12.5t67 12.5t74 6q8 0 10.5 -4t2.5 -9t-1 -8t-1 -5q0 -14 -29 -25.5t-74 -20.5t-99.5 -14t-105.5 -5q-48 0 -71.5 27.5t-23.5 72.5z" />
    <glyph glyph-name="three" unicode="3" horiz-adv-x="522" 
d="M155 -140q-18 0 -18 11t17 27t42.5 35.5t55 43t55 50t42.5 55t17 59.5q0 27 -18 42t-43.5 23t-54.5 10t-51 2q-15 0 -30.5 0.5t-28 4.5t-20 11.5t-7.5 21.5q0 12 22.5 34.5t51 50t54.5 57t32 56.5q0 5 -7.5 8.5t-20 5.5t-29 3t-33.5 1q-34 0 -64 -2t-37 -2q-10 2 -17 7
t-12 12.5t-5 21.5q0 10 10.5 16.5t28 10.5t38.5 6t42 2q51 0 85 -7t54.5 -18.5t29 -27t8.5 -32.5q0 -26 -22 -56t-49 -57t-49 -48t-22 -28q0 -1 17.5 -2t43.5 -4t57 -9.5t57 -18t43.5 -30.5t17.5 -47q0 -37 -18.5 -74t-47.5 -69.5t-63.5 -61t-66 -49t-55.5 -32.5t-32 -13z
" />
    <glyph glyph-name="four" unicode="4" 
d="M388 -46q0 18 2.5 41t2.5 54t-2.5 43.5t-12.5 12.5q-12 0 -29.5 -6t-37 -15t-40 -18.5t-38.5 -16.5q-27 -11 -40 -14.5t-23 -3.5q-24 0 -42.5 15t-18.5 50q0 25 3.5 72t9 103t13 114.5t16.5 106t18.5 78t19.5 30.5q2 0 8 0.5t11 0.5q8 0 15 -3.5t7 -17.5q0 -1 -3 -13.5
t-7 -29.5t-8 -35t-6 -30q-2 -11 -8.5 -52t-14.5 -93t-14 -104t-6 -84q0 -38 26 -38q7 0 32 8.5t55.5 19t60.5 20.5t48 14q0 35 -3.5 66t-7.5 58.5t-7.5 54t-3.5 52.5q0 8 2 19t14 11q8 0 15 -3.5t9 -11.5q5 -18 10 -48t9 -63.5t7 -65.5t5 -52l3 -35q0 -9 1 -18t2.5 -31.5
t2.5 -65.5t1 -120q0 -18 -7.5 -25.5t-19.5 -7.5q-14 0 -21.5 18t-7.5 59z" />
    <glyph glyph-name="five" unicode="5" horiz-adv-x="513" 
d="M409 85q0 -33 -17 -65t-44 -57t-61 -40.5t-68 -15.5q-11 0 -20 4t-9 16q0 7 6 11q3 2 6 3q23 3 49.5 13.5t49 28t37.5 41.5t15 55q0 24 -22.5 40.5t-55.5 30.5t-72.5 28t-72.5 33t-55.5 46.5t-22.5 68.5q0 38 13 67t31 52t36 40.5t27 31.5q4 7 7 18t7.5 22t12.5 19t23 8
q4 0 12.5 -4.5t11.5 -12.5q5 -11 8.5 -17t8.5 -10.5t13 -8.5t22 -10q20 -9 49.5 -16t57.5 -15t47.5 -18.5t19.5 -26.5q0 -12 -3.5 -17t-18.5 -5q-42 0 -85.5 4t-86.5 17q-22 6 -38.5 13.5t-34.5 13.5q-8 -1 -22 -13.5t-28 -33t-24.5 -47t-10.5 -54.5q0 -30 22.5 -50
t56 -35.5t72.5 -29t72.5 -30t56 -38.5t22.5 -55z" />
    <glyph glyph-name="six" unicode="6" horiz-adv-x="613" 
d="M528 181q0 -29 -15 -65.5t-47 -68t-83.5 -53t-123.5 -21.5q-15 0 -43 7t-55 26t-47.5 53t-20.5 89q0 43 12.5 93.5t34.5 101.5t51.5 98.5t63 85t70 61t72.5 25.5q5 -1 11 -4.5t6 -10.5t-6.5 -15.5t-25.5 -19.5q0 -1 -8.5 -6t-23 -16.5t-34.5 -30.5t-44 -47
q-16 -19 -38 -50.5t-42.5 -72t-34.5 -88.5t-14 -99q0 -12 3 -27t8 -29t11.5 -24.5t12.5 -13.5q12 45 37.5 85t59 70.5t73.5 48t81 17.5q13 0 30 -2.5t32.5 -12.5t26 -30t10.5 -54zM229 36q0 -3 1.5 -5.5t7 -4.5t16 -3t27.5 -1q33 0 65 10t56.5 29.5t40 47.5t15.5 64
q0 21 -11.5 29.5t-28.5 8.5q-28 0 -61 -13t-61.5 -36.5t-47.5 -55.5t-19 -70z" />
    <glyph glyph-name="seven" unicode="7" horiz-adv-x="548" 
d="M176 -163q-10 0 -10 14q10 50 19 93t19 85t22 86.5t28 98.5q0 2 1 5t1 6t-3 5q-14 -3 -31 -6q-14 -2 -33 -4t-41 -2q-25 0 -25 13q0 15 22 24t49 14t51 9t27 9q4 8 20 64.5t38 158.5q0 5 -3 5q-14 0 -29 -5t-33 -11.5t-38.5 -11.5t-45.5 -5q-15 0 -33 1t-34 7t-26.5 18.5
t-10.5 35.5q0 17 13 24q35 -6 69.5 -9.5t54.5 -3.5q27 0 57 7.5t72 21.5q29 -1 35 -9t6 -31q0 -2 -4 -21.5t-11.5 -49.5t-17.5 -67t-22 -76q-5 -18 -5 -29q0 -6 5 -7.5t15 -1.5q52 0 84.5 -5t51.5 -12.5t26 -16.5t7 -16q0 -8 -4 -20.5t-15 -12.5q-23 8 -57 17.5t-87 9.5
q-18 0 -27.5 -1.5t-15 -5t-8 -10t-5.5 -16.5q-9 -29 -16 -58t-12.5 -54.5t-9.5 -45t-6 -29.5l-14 -69q-5 -23 -9 -43t-10.5 -35t-16 -23.5t-24.5 -8.5z" />
    <glyph glyph-name="eight" unicode="8" 
d="M268 646q31 0 50.5 -13.5t30.5 -32t15 -39t4 -33.5q0 -27 -15 -64t-45 -90q0 -5 22 -18.5t49 -37.5t49 -61.5t22 -90.5q0 -38 -17 -68t-46 -51t-68.5 -32t-84.5 -11q-24 0 -48 4.5t-43 15t-31 27t-12 41.5q0 24 9 48.5t22.5 48t30 46t32 41.5t27.5 35t17 27q0 8 -18.5 19
t-40.5 27.5t-40.5 41.5t-18.5 62q0 13 4 30.5t13 36.5t23 37t34 32q1 4 4.5 8t11 7t21.5 5t37 2zM264 304q-18 -25 -37 -52t-34 -52.5t-25 -47t-10 -34.5q0 -26 23 -44t67 -18q29 0 56.5 8t48.5 24t34 40.5t13 57.5q0 28 -15 51.5t-35.5 41.5t-41 29.5t-30.5 13.5zM262 598
h-12t-12 -2l-10 -6q-21 -14 -41.5 -34t-20.5 -50q0 -19 10 -38.5t25 -35.5t31 -26t28 -10q4 0 12 13t16.5 32t15 41t6.5 40q0 12 -2.5 25.5t-8 24.5t-15 18.5t-22.5 7.5z" />
    <glyph glyph-name="nine" unicode="9" horiz-adv-x="513" 
d="M170 -127q4 6 21.5 25.5t41 50.5t49.5 72t48.5 90t37 104.5t15.5 115.5q0 17 -1 33.5t-4 33.5q-14 -39 -36.5 -67t-50.5 -47t-58.5 -28t-59.5 -9q-51 0 -87 26.5t-36 79.5q0 38 20 70t52.5 54.5t72.5 35t80 12.5q28 0 55.5 -5t36.5 -13q12 -2 28 -12t21 -36q1 -7 4 -20
t6 -29.5t5.5 -35.5t2.5 -37q0 -52 -13 -107.5t-35.5 -109.5t-51.5 -104.5t-60 -92.5t-63 -73.5t-59 -46.5q-18 3 -18 17q0 9 9.5 20t26.5 33zM346 454q0 2 -2 6t-9.5 8.5t-21 7.5t-36.5 3q-24 0 -53 -8t-54.5 -22.5t-43 -34.5t-17.5 -44q0 -31 19.5 -45t44.5 -14
q24 0 50.5 10.5t51 29.5t44 45.5t27.5 57.5z" />
    <glyph glyph-name="colon" unicode=":" horiz-adv-x="585" 
d="M286 -50q-8 8 -8 23q0 20 12.5 37t32.5 17q4 0 11.5 -1.5t15 -5.5t13 -11t5.5 -17q0 -2 -3 -9.5t-10.5 -16t-19.5 -15t-30 -6.5q-6 0 -11.5 1t-7.5 4zM225 243q-13 6 -18 19t-5 27q0 21 10.5 37t34.5 16q5 0 7 -1q1 -1 7 -2t12.5 -4t11.5 -8.5t5 -15.5q0 -5 -4 -16
t-11.5 -23t-18.5 -21t-26 -9q-4 0 -5 1z" />
    <glyph glyph-name="equal" unicode="=" horiz-adv-x="655" 
d="M105 355q12 7 32.5 8t43.5 3q21 1 54 3.5t72 5.5t80.5 5t78.5 2q22 0 42 -1t35 -2.5t23.5 -3.5t8.5 -4q0 -14 -6 -22t-14 -12t-17 -5t-15 -1q-48 0 -105.5 -2.5t-114.5 -6t-107 -8.5t-82 -11q-5 -1 -12 -3.5t-12 -2.5q-6 0 -10 4.5t-4 17.5q0 14 8 25t21 11zM513 228
q9 0 19.5 0.5t18.5 0.5q11 0 20 -11t9 -22q0 -20 -26.5 -25t-80.5 -6t-136 -3.5t-193 -17.5q-8 0 -17.5 -2.5t-22.5 -2.5q-11 0 -18.5 5.5t-7.5 28.5q0 6 27 12.5t69 12.5t93 11.5t99.5 9.5t88 6.5t58.5 2.5z" />
    <glyph glyph-name="question" unicode="?" horiz-adv-x="684" 
d="M238 332q1 27 13.5 60t30 67.5t37.5 69.5t37 68t28.5 62t11.5 51q0 17 -13 23t-31 6t-38.5 -3t-40 -6.5t-36.5 -6.5t-29 -3q-5 0 -12 1t-13 4t-10 8t-4 13q0 6 13.5 13.5t37 13.5t54.5 10t66 4q19 0 40 -2.5t38 -9t28.5 -17t11.5 -25.5q0 -29 -13 -64.5t-32.5 -73.5
t-42 -76.5t-42 -74t-32.5 -66t-13 -51.5q0 -20 10.5 -29.5t36.5 -9.5q4 0 21 2.5t39.5 7t46.5 12t42 17.5q16 7 23 7q8 0 10 -5t2 -7q0 -21 -19.5 -39t-45.5 -30.5t-53 -19.5t-42 -7q-55 0 -85.5 26.5t-30.5 79.5zM362 14q0 28 11 38.5t38 10.5q17 0 24 -8t7 -20t-5 -24.5
t-13.5 -23t-19.5 -17t-23 -6.5q-14 0 -16.5 14.5t-2.5 35.5z" />
    <glyph glyph-name="A" unicode="A" horiz-adv-x="972" 
d="M3 -101q-46 -3 -72 -6.5t-48 -3.5q-17 0 -23.5 7t-6.5 10q0 9 15 15t37 10t47.5 6.5t46.5 5.5q35 4 75 11t82.5 21.5t85.5 39.5t83.5 66t77 100t66.5 142q0 7 -4 13.5t-9 13.5t-9 15.5t-4 19.5q0 8 6.5 15t15 12t17 9.5t11.5 7.5q7 3 15.5 28t17.5 63.5t17.5 86
t17.5 97.5l15 86q0 46 7 93.5t15 94.5q2 10 3 25.5t3.5 29t8 23.5t16.5 10q10 -2 17 -14t11 -31.5t6.5 -44.5t4.5 -53q11 -138 23.5 -242.5t25 -184.5t25.5 -139t26 -107q13 -3 29 -5t31 -3t28 -1.5t20 -0.5q12 0 28.5 1t34.5 3.5t35.5 6t32.5 8.5l14 4t10 2q5 0 7 -4.5
t2 -9.5q-2 -18 -24 -29.5t-51 -18t-59 -9.5t-47 -3q-8 0 -20.5 0.5t-24.5 1t-21 1l-9 0.5q10 -38 19 -69.5t18.5 -58t19.5 -49.5t21 -45q1 -2 1 -7q0 -9 -7.5 -14t-18.5 -5q-12 0 -19 5q-6 3 -18.5 32.5t-27 69t-28.5 81t-23 70.5q-45 9 -81 23t-61.5 27.5t-40.5 23.5
t-19 10q-42 -86 -85.5 -154.5t-101 -118t-136.5 -79t-193 -37.5zM553 375q0 -21 15.5 -38t38.5 -31t49.5 -24t49.5 -16q0 4 -1 6q-3 13 -7.5 40.5t-10.5 64t-13 78.5t-13 84l-11.5 80.5t-8.5 68.5q-1 2 -6 8.5t-7 6.5q-29 -107 -45.5 -194t-29.5 -134z" />
    <glyph glyph-name="B" unicode="B" horiz-adv-x="884" 
d="M696 16q43 -55 94 -115.5t95 -121.5t73.5 -118.5t29.5 -106.5q0 -46 -31.5 -82t-77 -60.5t-96.5 -37t-91 -12.5q-16 0 -25 3.5t-9 19.5q0 23 5.5 28t28.5 5q48 0 89.5 13.5t72.5 34t49 44t18 43.5q0 32 -17.5 71.5t-46 83.5t-63.5 89.5t-70 90t-66.5 84.5t-52.5 73
q-42 66 -66.5 107.5t-37.5 77.5t-16.5 74.5t-3.5 98.5q0 52 15.5 101t34 99t34 103.5t15.5 115.5q0 41 -14 64.5t-35 35.5t-47 15t-50 3q-30 0 -67.5 -3.5t-72.5 -8t-62.5 -9.5t-36.5 -8q43 -131 71 -235t45.5 -189.5t26.5 -155.5t14 -132.5t8 -121.5t8 -121q0 -4 0.5 -8
t0.5 -7q0 -8 -3.5 -12.5t-14.5 -4.5q-22 0 -38.5 24t-16.5 71q0 66 -6.5 140t-17.5 149t-25 149t-28 141q-33 158 -76 313q0 -2 -19.5 -8t-48 -12.5t-60 -11.5t-56.5 -5q-9 0 -21 6t-22.5 15t-17.5 20t-7 20q0 18 24.5 34.5t55.5 29.5t59 21.5t36 9.5q33 6 58.5 9.5
t54.5 5.5t67 3t95 1q54 0 108.5 -5.5t97.5 -27.5t70 -66t27 -120q0 -75 -16 -132.5t-34.5 -107.5t-34.5 -97t-16 -101q0 -61 6 -104.5t22.5 -83.5t46.5 -83.5t78 -104.5z" />
    <glyph glyph-name="C" unicode="C" horiz-adv-x="683" 
d="M548 11q16 0 31.5 1t32.5 5q33 7 51.5 15t20.5 8q11 0 18 -11.5t7 -16.5q0 -6 -23.5 -17t-57.5 -19q-24 -6 -49.5 -8.5t-38.5 -2.5q-113 0 -199 47.5t-143.5 130t-86.5 192.5t-29 235q0 61 8.5 129t25.5 135t42.5 128t58.5 107.5t74.5 74t90.5 27.5q33 0 61 -21t51 -57
t41 -85.5t30 -106t18.5 -118.5t6.5 -123q0 -78 -10.5 -151t-33 -129t-57 -89.5t-81.5 -33.5q-27 0 -48 18.5t-36 47.5t-25.5 65t-16.5 71.5t-8.5 66t-2.5 48.5q0 12 0.5 25t3 24t7.5 18.5t13 7.5q7 0 13.5 -14.5t12 -36t8.5 -45t3 -41.5q0 -16 5 -47t15 -62t25 -54.5
t34 -23.5q32 0 55.5 28t39.5 74.5t23.5 107t7.5 125.5q0 78 -10.5 155.5t-31.5 139.5t-52 100.5t-71 38.5q-38 0 -69.5 -26t-57.5 -69t-45.5 -99.5t-32.5 -116.5t-19.5 -120t-6.5 -111q0 -61 10.5 -125t32 -124.5t54.5 -113.5t78.5 -92.5t103 -62.5t128.5 -23z" />
    <glyph glyph-name="D" unicode="D" horiz-adv-x="970" 
d="M850 141q12 -2 28 -9t16 -16q0 -6 -5.5 -11t-12.5 -8t-12 -5l-5 -2q-29 0 -59 10.5t-61 20.5q-3 -26 -10 -66t-19 -77.5t-30.5 -64t-44.5 -26.5q-29 0 -53 21t-43.5 54.5t-35 75t-27.5 81.5t-21.5 75t-16.5 55q-84 56 -151.5 122t-115 143t-73.5 166t-26 192
q0 63 13.5 125.5t44.5 112.5t81 81.5t123 31.5q85 0 149 -38.5t111 -103.5t78 -151t49.5 -180t26 -190.5t7.5 -183.5q0 -58 -2.5 -111t-5.5 -98l24 -6t17 -4.5t22 -6t40 -9.5zM489 275q32 -18 67 -35q30 -14 67.5 -30t75.5 -26q2 0 5 36t3 100q0 71 -5 161t-19 184
t-39.5 184t-66.5 160t-100 113t-139 43q-64 0 -106 -28t-67 -73t-35 -102.5t-10 -117.5q0 -94 30.5 -176.5t77 -150t102 -119.5t105.5 -86q-9 77 -15 127t-9 92t-4 86.5t-1 110.5q0 32 1.5 71t7 72.5t15 56.5t26.5 23q8 0 14.5 -7t11.5 -17.5t7.5 -23.5t2.5 -26
q0 -26 -10 -39q-21 -29 -27 -62.5t-6 -69.5q0 -22 2 -62.5t5.5 -88t7.5 -96.5t8.5 -89.5t9 -67t7.5 -27.5zM504 213q5 -36 18 -82.5t30 -88t35 -70.5t33 -30q18 0 29.5 19.5t19.5 48t13.5 61.5t10.5 61q-31 11 -55.5 20t-46 17.5t-42.5 19t-45 24.5z" />
    <glyph glyph-name="E" unicode="E" horiz-adv-x="691" 
d="M311 119q0 -35 19 -58t48.5 -37t65 -19.5t69.5 -5.5q35 0 64.5 5t45.5 10q32 11 49 18.5t19 7.5q10 0 17 -10.5t8 -17.5q1 -5 -26 -17.5t-65 -23.5q-28 -8 -64.5 -13.5t-76.5 -5.5q-44 0 -87.5 9t-78 28.5t-56 51t-21.5 77.5q0 36 25.5 71.5t64 69t83 65t83 59t64 50.5
t25.5 41q0 9 -13.5 19.5t-36 21.5t-50.5 22t-57 21t-56.5 18.5t-47.5 14.5q-23 -27 -63 -57.5t-81 -56t-76.5 -42t-50.5 -16.5q-7 0 -8 3t-1 8q0 9 4.5 17t7.5 10q32 22 62.5 39t58 34t52 36.5t45.5 46.5q-20 12 -36.5 25t-28 30.5t-17.5 39.5t-6 52q0 31 16 69t42.5 71
t60.5 55.5t71 22.5q45 0 66 -26.5t21 -68.5q0 -27 -8 -58t-22.5 -63.5t-34 -65.5t-42.5 -63q64 -19 120 -38.5t98 -39.5t66 -41t24 -44q0 -24 -26 -50t-65.5 -53t-85.5 -56t-85.5 -60t-65.5 -64t-26 -68zM241 756q0 -42 20.5 -67t46.5 -37q28 31 47 66t30.5 66.5t16.5 57
t5 39.5q0 21 -9.5 32t-20.5 11q-28 0 -53 -16.5t-43.5 -41t-29 -54t-10.5 -56.5z" />
    <glyph glyph-name="F" unicode="F" horiz-adv-x="876" 
d="M462 310q-30 0 -52 -6t-50 -6q-12 0 -27.5 4t-29.5 11.5t-23.5 19t-9.5 25.5q0 17 11.5 26.5t27.5 14.5t33.5 7t29.5 4q4 1 19.5 3.5t32 5.5t29.5 7.5t13 11.5q0 3 -1 5.5t-1 4.5q0 5 -4 28.5t-10 54.5t-13 66t-14.5 64.5t-14 49t-10.5 19.5q-81 -8 -157 -17t-159 -9
q-23 0 -45.5 2t-40.5 9.5t-29 23t-11 41.5q0 12 10 23t22 13q13 1 35 3t49.5 5t58.5 5.5t61 4.5q13 1 40 1t54.5 2t50 7t27.5 16q2 7 3 16.5t3 17t7.5 13t16.5 5.5q9 0 13.5 -7.5t9 -17.5t10.5 -19.5t17 -13.5q12 0 42.5 -2t64.5 -4.5t64 -4.5t41 -3q18 -2 49 -9t61 -19.5
t52 -30t22 -39.5q0 -5 -1 -10.5t-9 -5.5t-19 5t-22 11.5t-21.5 12t-17.5 7.5q-14 2 -28.5 4t-29.5 2q-28 0 -68 -3t-77 -9t-63 -14t-26 -18q4 -22 11 -57.5t16 -76t17.5 -82.5t15.5 -76q13 -9 24.5 -13.5t22.5 -7t23.5 -5t29.5 -6.5q13 -4 28 -9.5t27.5 -10.5t21 -8.5
t9.5 -3.5q10 -5 21 -8.5t20 -8.5t15 -13.5t6 -23.5q0 -10 -14 -10q-11 0 -24.5 4.5l-28.5 9.5t-32.5 9.5t-36.5 4.5q-14 0 -28.5 -0.5t-26.5 -3.5t-19.5 -9.5t-7.5 -18.5q0 -1 3 -25.5t7 -54.5t7 -54.5t3 -25.5q0 -3 1 -7t3 -23.5t6 -62t10 -121.5q0 -8 -5 -12t-13 -4
q-12 0 -18 12q-2 4 -5.5 25.5t-8.5 53.5t-10.5 71l-11 78t-10.5 74.5t-8 61.5q-2 11 -12 17.5t-24 6.5z" />
    <glyph glyph-name="G" unicode="G" horiz-adv-x="911" 
d="M830 -156q9 0 20.5 1t35.5 1q117 0 193.5 -28t120.5 -79q2 -3 2 -8q0 -14 -6 -15q-6 0 -13 3.5t-21 11.5q-66 36 -128.5 52t-143.5 16q-24 0 -35 -1.5t-20 -1.5q1 -16 2.5 -41t1.5 -53q0 -26 -3 -52t-10.5 -47t-22 -34t-36.5 -13q-23 0 -52.5 10t-55.5 29t-44.5 44.5
t-18.5 57.5q0 28 16 51.5t42 42t60.5 30.5t70.5 18q-2 38 -10 91t-21.5 111t-32 115t-42 102.5t-51.5 73.5t-60 28q-28 0 -58.5 -20t-59.5 -46t-54.5 -52.5t-42.5 -39.5q-9 -43 -25.5 -100t-39 -117t-49 -118.5t-54.5 -104.5t-56 -74t-53 -28q-21 0 -21 9q0 6 9.5 16
t24 27.5t32.5 42.5t36 60q17 34 36.5 75t38 88.5t35 100.5t26.5 111q-8 -5 -16 -5.5t-13 -0.5q-27 0 -60 22.5t-61.5 72t-47.5 128.5t-19 192q0 54 8.5 104.5t28 90t51 63.5t78.5 24q44 0 72.5 -27t45 -71t23 -100t6.5 -115q0 -41 -2.5 -82.5t-6.5 -79.5t-8.5 -70.5
t-7.5 -55.5l25 24q23 22 46 43t46.5 37t48 26t50.5 10q40 0 73 -33.5t59.5 -86.5t47 -118.5t35 -129.5t23 -119.5t12.5 -88.5zM790 -210q-24 -2 -48.5 -9.5t-44.5 -20t-32.5 -30t-12.5 -38.5t12.5 -35.5t30 -23.5t35.5 -13t29 -4q10 0 16.5 11t10 29t4.5 39.5t1 42.5
q0 15 -0.5 28t-0.5 24zM232 828q-26 0 -45 -21t-32 -56t-19 -81t-6 -96q0 -57 9.5 -115.5t27.5 -106t45 -77.5t62 -30q6 0 12.5 1t13.5 4q6 12 12 41t11 68t8 84.5t3 90.5q0 54 -4.5 107t-16 94.5t-29.5 67t-45 25.5h-7z" />
    <glyph glyph-name="H" unicode="H" horiz-adv-x="1077" 
d="M438 26q57 0 80.5 22t23.5 64v10.5t-1 11.5q-8 60 -16.5 112.5t-25.5 99.5q-16 -9 -42 -23t-56 -31.5t-62 -38t-61.5 -42.5t-54 -45t-39.5 -45q-4 -4 -4 -10q0 -13 25.5 -28t63.5 -27.5t83.5 -21t85.5 -8.5zM897 842q-63 0 -110 -27t-77.5 -71t-46 -100t-15.5 -115
q0 -6 0.5 -12t2.5 -11q37 28 63.5 47.5t50 40t48 47t57.5 67.5q29 36 45 64t16 45q0 25 -34 25zM993 -22q-56 0 -103.5 21t-87 55.5t-70.5 80t-55 94t-40.5 97t-25.5 90.5q-19 -13 -26.5 -18l-12 -8l-10.5 -7t-22 -15l7 -28q6 -23 13 -52.5t13.5 -61t11 -61.5t4.5 -53
q0 -68 -30 -100t-98 -32q-19 0 -52.5 3.5t-72.5 10.5t-80 16.5t-74 21.5t-54 26.5t-21 31.5q0 23 21 50.5t51.5 54.5t65.5 51.5t63 42.5q13 8 38.5 23.5t52.5 32t50.5 31t32.5 20.5q-2 6 -9 34t-17.5 69t-23 89.5t-24 95.5t-21.5 87.5t-15 66.5l-23 -8t-58.5 -17.5
t-78.5 -17.5t-83 -8q-13 0 -45.5 6t-74 16.5t-86.5 24.5t-82.5 29t-61.5 30.5t-24 29.5t6.5 22t17.5 11.5t25 4.5t29 1q25 0 63 -10t92.5 -21.5t127.5 -21.5t168 -10q29 0 49 10.5t34.5 26t25 33.5t22 33.5t25.5 26t34 10.5t23 -5.5t3 -27.5q0 -34 -21.5 -66t-47.5 -63
q5 -42 12 -89t17.5 -102.5t25 -122t35.5 -145.5l78 52q-4 20 -5 40.5t-1 40.5q0 64 19 124.5t56.5 107.5t93 76t128.5 29q43 0 69.5 -11.5t26.5 -47.5q0 -35 -23 -77t-57.5 -84t-76 -81t-77.5 -69.5t-61.5 -48.5t-29.5 -18q0 -15 10 -53t29.5 -85.5t48.5 -99t66.5 -94.5
t84.5 -70.5t102 -27.5q14 0 27 3t23.5 6.5t17 6.5t8.5 3q9 0 17 -10.5t8 -16.5t-11.5 -12t-28.5 -11t-36 -8.5t-34 -3.5z" />
    <glyph glyph-name="I" unicode="I" horiz-adv-x="752" 
d="M181 1115q-25 0 -43.5 -11t-32 -27t-24 -35t-19 -35t-16.5 -27t-17 -11q-19 0 -19 25q0 22 14 55t36.5 64t50.5 53.5t57 22.5q55 0 94.5 -34.5t68.5 -87t49.5 -115.5t37.5 -121q12 -40 24.5 -103t24.5 -138t23 -156t20 -157.5t16.5 -144t11.5 -114.5q11 -122 19 -206
t13 -138.5t8 -84.5t4 -44.5t1.5 -17.5t0.5 -4q0 -15 -0.5 -29t-3 -24.5t-8.5 -16.5t-17 -6q-14 0 -22 10.5t-12 27t-5 36t-1 36.5q0 94 -7 210t-20 245t-30 267t-36 275q-16 111 -39.5 213t-54 179t-67.5 123t-80 46z" />
    <glyph glyph-name="J" unicode="J" horiz-adv-x="796" 
d="M872 -454q0 9 6 12.5t12 3.5t11 -3t5 -9q0 -35 -14.5 -80.5t-40 -87t-61 -70t-78.5 -28.5q-31 0 -56.5 36.5t-46 102.5t-35 157t-24.5 199t-15 229.5t-5 249.5q0 116 -7.5 214.5t-31.5 182t-70 153t-123 128.5q-47 35 -93.5 61t-95 46t-100.5 36t-109 31q-6 3 -7 7t-1 7
v6q11 12 19 19t19 7h4.5t5.5 -2q121 -27 220.5 -68t173.5 -98q44 -35 79 -71t62 -79.5t47 -96.5t33 -121t19 -154t6 -194q0 -23 0.5 -75t2.5 -121.5t6.5 -150.5t11.5 -161.5t17.5 -155.5t25 -133t34 -92.5t44.5 -34.5q27 0 53.5 22t47.5 53.5t34.5 65.5t14.5 57z" />
    <glyph glyph-name="K" unicode="K" horiz-adv-x="1107" 
d="M1024 -20q-65 0 -115 31t-88.5 78.5t-67.5 104t-51.5 106.5t-41 86t-35.5 43q-19 8 -40 8q-16 0 -34 -4t-33 -13t-24.5 -22.5t-9.5 -31.5q0 -5 1 -7q2 -5 6.5 -36.5t9 -71t8 -78t3.5 -59.5q0 -26 -3 -51.5t-11.5 -46t-23 -33.5t-38.5 -13q-22 0 -47 18t-46.5 43.5
t-36 54.5t-14.5 50q0 8 2 11.5t11 3.5t16 -4t18 -23.5t26.5 -41t34.5 -38.5t42 -17q7 0 12.5 8t8.5 19.5t4.5 24.5t1.5 24v9q-5 95 -28 181t-52.5 169t-58.5 166t-47 172q-4 17 -14.5 23.5t-30.5 6.5q-29 0 -70.5 -8t-85.5 -8q-26 0 -51 7t-45 20.5t-32.5 33t-12.5 44.5
q0 6 1 16.5t4 21t8.5 18.5t15.5 8q13 0 27.5 -13t31 -29t35.5 -29t42 -13q21 0 44 3.5t45 8t42.5 8.5t38.5 4q20 0 31 -1t16.5 -5t6.5 -13t1 -25v-22.5t2 -29.5q4 -18 11.5 -48t17 -64.5t20.5 -70.5t21.5 -66t20.5 -50.5t18 -23.5q13 -5 22 -5q13 0 26 6t29 13t36 13t48 6
q8 0 15.5 -1t15.5 -1q15 0 34 25.5t40.5 72t45 111.5t47.5 145q7 25 15 49.5t17 43.5t20.5 31t25.5 12q27 0 27 -17q0 -11 -8 -27.5t-18 -34.5t-19 -35t-12 -29q-19 -86 -44.5 -152t-48.5 -113.5t-40 -78t-18 -46.5q-1 -2 -1 -9q0 -3 6 -24t17 -54t28 -74.5t38.5 -84t48 -83
t57 -72t66 -51t74.5 -19.5q14 0 27 3t23.5 6.5t17 6.5t8.5 3q9 0 17 -10.5t8 -16.5t-11 -11.5t-27.5 -10.5t-35.5 -8t-35 -3z" />
    <glyph glyph-name="L" unicode="L" horiz-adv-x="836" 
d="M470 22q45 -15 86.5 -22.5t83.5 -7.5q40 0 75 7.5t61.5 16.5t42 16.5t17.5 7.5q9 0 17.5 -11t8.5 -17q0 -5 -20.5 -15.5t-53.5 -22t-75 -20t-85 -8.5q-38 0 -76 6t-71.5 13t-61.5 13t-47 6q-35 0 -91.5 -9t-124.5 -9q-41 0 -66.5 16.5t-25.5 43.5q0 13 9.5 23t25.5 17.5
t36 11.5t41 4q38 0 77 -6t70.5 -13t53 -13t25.5 -6q6 0 20 5t29 18t26 34.5t11 54.5q0 26 -23.5 102.5t-74.5 191.5q-30 -39 -61.5 -70.5t-59.5 -53.5t-49.5 -34t-31.5 -12q-12 0 -19 5.5t-7 8.5q0 14 4.5 20t15.5 14l8 6q44 33 76.5 63t53.5 54t31.5 40t10.5 21q0 2 -1 2
t-1 2l-8 24q-6 16 -16.5 40t-20.5 57t-17.5 76t-7.5 97q0 19 5.5 55t19.5 72t38.5 62.5t62.5 26.5q35 0 58.5 -16t37.5 -40t20 -51.5t6 -50.5q0 -56 -8.5 -106t-23 -95t-34.5 -86t-42 -81q22 -55 43 -102.5t37.5 -90.5t26 -82.5t9.5 -78.5q0 -27 -7.5 -47t-19 -35t-25 -25
t-24.5 -17zM414 966q-21 0 -34.5 -19.5t-21 -46.5t-10 -56t-2.5 -48q0 -57 15 -118t41 -114q19 42 34 78.5t24.5 72t14.5 72t5 77.5q0 12 -2 29.5t-8.5 33.5t-20 27.5t-35.5 11.5z" />
    <glyph glyph-name="M" unicode="M" horiz-adv-x="1183" 
d="M11 -38q-6 9 -16 24.5t-20 32t-17 32t-7 25.5q0 8 5 14t16 6q13 0 24 -10t21.5 -25.5t19.5 -34.5t17 -37q3 -8 16 -31t29.5 -48.5t35.5 -45t34 -19.5q16 0 33 36t33.5 96t33 137.5t32 161.5t30.5 167.5t27.5 155t23.5 125t20 76.5q0 7 1 19.5t4.5 25.5t11 22.5t20.5 9.5
q16 0 18.5 -9t2.5 -27q0 -5 1 -16.5t1.5 -24.5t1.5 -25t1 -16q0 -12 2.5 -47.5t7.5 -85t11.5 -109t14 -119.5t16.5 -116.5t18 -100t18 -70t17 -26.5q16 0 36 33.5t41 88t42 124t40.5 141t37 139.5t30.5 120q2 11 5 20.5t5 17.5l16 63q1 7 12 7q9 0 21 -10t12 -40
q0 -40 -9.5 -81t-9.5 -87q0 -45 4.5 -107.5t14.5 -130t27.5 -134.5t43 -119.5t61 -85.5t81.5 -33q15 0 32.5 4.5t32.5 10t25 10t12 4.5q9 0 17.5 -10.5t8.5 -18.5q0 -3 -13 -10.5t-34 -15t-46 -13t-49 -5.5q-51 0 -89 25.5t-65.5 67t-46.5 94t-31.5 107.5t-19.5 107.5
t-11 93.5q-2 17 -3.5 28.5t-1.5 15.5l-3 2q-5 0 -12.5 -21.5t-18 -56.5t-23.5 -79.5t-28.5 -91t-33.5 -91t-38 -79.5t-42.5 -56.5t-46.5 -21.5q-15 0 -28.5 27t-25.5 71t-22.5 100.5t-19 116t-15 117.5t-11 104.5t-7 77t-2.5 35.5q-17 -65 -32.5 -155.5t-32 -188t-35 -193.5
t-40.5 -172t-48 -123t-58 -47q-23 0 -46.5 19.5t-45.5 48t-41 59.5t-32 54z" />
    <glyph glyph-name="N" unicode="N" horiz-adv-x="946" 
d="M726 -90q-39 0 -72 28t-62.5 77.5t-56.5 118t-53 150.5q-20 60 -33 113t-23 100t-19 88.5t-19 78.5q-13 -89 -23.5 -182.5t-20.5 -188.5t-20.5 -190.5t-23.5 -186.5q-1 -20 -4.5 -49.5t-10.5 -62t-17.5 -65.5t-25.5 -59t-34 -42t-42 -16q-20 0 -39.5 17.5t-36 44
t-30.5 57.5t-23.5 58.5t-15 46.5t-5.5 22q0 17 6.5 23.5t15.5 6.5q6 0 11 -3t7 -9q4 -16 14.5 -51t25.5 -71t34 -63t40 -27q13 0 25 21t22 54.5t18 73.5t14 78.5t9.5 70.5t5.5 48q7 98 19 197.5t26.5 207t29.5 226t29 255.5q1 5 4 8.5t7 6.5q4 4 9 7q7 0 12 -5t8 -11.5
t4.5 -13t1.5 -10.5l18 -126q14 -98 33 -210t57 -222l10 -32q15 -47 34 -104.5t41 -107.5t46 -84t49 -34q28 0 49 29t34.5 78t20 113.5t6.5 135.5q0 139 -11.5 260.5t-27 216.5t-32.5 160.5t-27 94.5q-8 11 -8 20q0 11 7.5 17.5t16.5 6.5q17 0 33 -29t31 -80.5t28 -121.5
t22 -152.5t14.5 -174t5.5 -184.5q0 -96 -7.5 -178t-24 -142t-43 -94t-63.5 -34z" />
    <glyph glyph-name="O" unicode="O" horiz-adv-x="791" 
d="M445 -117q-51 0 -108 40t-104.5 121.5t-79 206.5t-31.5 296q0 53 6.5 114t18 113t27.5 86.5t35 34.5q8 0 15.5 -7.5t7.5 -19.5q0 -27 -4 -48.5t-10 -41.5t-13 -41t-13 -48t-10 -61.5t-4 -82.5q0 -129 22 -240t59 -192t85 -127t100 -46q37 0 67.5 24.5t53 72t35 116
t12.5 157.5q0 68 -13.5 151.5t-38 171.5t-59 175t-76.5 162q-9 17 -18 35.5t-15.5 36t-10.5 32.5t-4 26q0 13 6 20.5t13.5 11.5t15 5t10.5 1q15 0 24 -10.5t15 -26t10 -34.5t9.5 -36t14 -30.5t23.5 -17.5q8 -3 16.5 -3.5t16.5 -0.5q35 0 73.5 14t70.5 31t54 31.5t24 15.5
q7 3 15 3q13 0 21.5 -6.5t8.5 -13.5q0 -5 -26 -25.5t-66 -43.5t-86.5 -41.5t-88.5 -18.5q-7 0 -18 2t-17 4q33 -85 61.5 -167.5t49.5 -162.5t33 -158.5t12 -154.5q0 -86 -14 -160t-42.5 -128.5t-71 -85.5t-99.5 -31z" />
    <glyph glyph-name="P" unicode="P" horiz-adv-x="745" 
d="M568 377q-35 7 -35 21q0 6 6 14q25 33 47.5 75t39.5 83t26.5 77.5t9.5 59.5q0 43 -12 76.5t-46.5 56t-97 34t-163.5 11.5q-41 0 -77.5 -4.5t-75.5 -11t-86 -13t-109 -10.5h-9q-38 0 -52.5 15t-14.5 32q0 11 4 19q6 14 31 26.5t60.5 22.5t76.5 18t79.5 13t70 8t47.5 3
q39 0 70 3t63 3q31 0 67 -5.5t86 -21.5q49 -16 79 -42t46.5 -58t22 -68t5.5 -72q0 -32 -10 -78.5t-26.5 -94.5t-38 -90.5t-43.5 -66.5q-11 -11 -18.5 -18t-12.5 -11q-6 -4 -10 -6zM455 126q-12 48 -23.5 88t-22.5 78.5t-22.5 79.5t-24.5 91q-4 15 -11.5 47t-15 67.5t-13 68
t-5.5 49.5q0 5 7 15.5t16 10.5t16 -13.5t13 -35.5t11.5 -49.5t10.5 -56t11 -54.5t13 -45q15 -41 27.5 -93t24 -105.5t21.5 -104t20 -88.5q14 -55 29.5 -105t15.5 -84q0 -7 -6 -11t-14 -4q-13 0 -21 16t-15 48t-16.5 79.5t-25.5 110.5z" />
    <glyph glyph-name="Q" unicode="Q" horiz-adv-x="1097" 
d="M438 1086q-13 2 -21 11.5t-8 20.5q0 19 36 22q67 -11 123.5 -51.5t101 -102t78 -139.5t55.5 -163t33 -173.5t11 -170.5q0 -69 -7.5 -130t-22.5 -111q30 -40 69 -77.5t78 -70t73.5 -57.5t55.5 -39q0 -26 -15 -26q-6 0 -13.5 3t-15.5 8q-65 35 -105.5 63t-67.5 51
t-45.5 42.5t-38.5 37.5q-21 -45 -47.5 -76t-54 -49.5t-54 -26.5t-46.5 -8q-61 0 -109.5 37.5t-86 99t-64 141.5t-43.5 165t-25 168.5t-8 153.5q0 83 10 145.5t21 118.5q5 10 11.5 15t18.5 5q9 0 13 -3t10 -12q-6 -30 -11.5 -51t-10 -45.5t-7 -59t-2.5 -91.5q0 -90 10 -179
t28.5 -170t44.5 -150t57 -120t66 -80t72 -29q17 0 37.5 5.5t42.5 20.5t43.5 42t40.5 71q0 1 -10.5 13t-25.5 30t-32 39.5t-30 42.5q-3 5 -5.5 10.5t-2.5 9.5q0 8 8.5 12.5t17.5 4.5q19 0 43.5 -22t61.5 -70q11 32 16 77t5 99q0 73 -10 156.5t-29.5 166.5t-49 160.5t-69 139
t-89.5 100.5t-110 45z" />
    <glyph glyph-name="R" unicode="R" horiz-adv-x="1072" 
d="M971 -194q-10 41 -24 90.5t-29.5 102.5t-32 106.5t-31.5 103.5q-37 117 -76 238q-23 52 -50.5 81.5t-55 44t-53 18t-43.5 3.5q-15 0 -37.5 -1t-46 -6t-45 -16t-35.5 -31q4 -62 14.5 -115t23.5 -102t28 -98t30 -104q8 -29 15.5 -55.5t7.5 -48.5q0 -14 -5.5 -25t-17.5 -11
q-9 0 -17 6t-10 15q0 29 -6 53.5t-14.5 47.5t-18 46.5t-16.5 49.5q-13 51 -21.5 91.5t-14.5 75t-11.5 66t-12.5 63.5q-3 14 -7.5 36t-9.5 48.5t-10 55t-10 55.5q-11 64 -25 137q-5 17 -20.5 32t-32.5 15q-45 0 -85.5 -9.5t-80.5 -20.5t-80.5 -20.5t-84.5 -9.5
q-8 0 -17.5 -0.5t-20.5 -0.5q-13 0 -26.5 1.5t-24 6t-17.5 13.5t-7 23q0 17 15 32.5t33 20.5q175 51 315.5 78.5t234.5 27.5q36 0 79.5 -4.5t87.5 -13.5t85.5 -23.5t73 -35t51 -47t19.5 -60.5q0 -17 -13 -34t-33.5 -33.5t-46.5 -32.5t-51.5 -30.5t-48.5 -27t-37 -22.5
q6 -1 12.5 -1h13.5q21 -1 43 -3t44.5 -12t46.5 -31t49 -60t51.5 -98.5t54.5 -146.5t47.5 -145.5t32.5 -97t21 -63.5t13.5 -46t10 -43t11.5 -56q7 -41 21.5 -108t29 -141.5t25 -146.5t10.5 -123q0 -36 -6.5 -57.5t-22.5 -21.5q-10 0 -18 25.5t-15.5 68.5t-15 99t-16 118
t-19 125t-24.5 119zM369 832q0 -24 1 -47t5 -50.5t10 -61.5t17 -79q14 12 44.5 31t67.5 41t76 46.5t71.5 46.5t53 41t20.5 31q0 10 -15 20.5t-39 19t-55 16t-63 13t-63 8.5t-54 3q-18 0 -32.5 -3t-24 -11.5t-15 -24t-5.5 -40.5z" />
    <glyph glyph-name="S" unicode="S" horiz-adv-x="632" 
d="M518 -466q0 3 1 14t2 23t2 22t1 13v6q-6 57 -31.5 108.5t-56.5 99.5q-84 131 -148 244.5t-112 227.5q-25 58 -42.5 108.5t-29 101.5t-16.5 107t-5 124q0 20 5 51.5t14.5 66.5t23.5 71t32.5 64.5t41 46.5t49.5 18q4 0 10 -0.5t12 -3t10 -7t4 -12.5q0 -15 -8.5 -21
t-22.5 -11q-38 -14 -60 -52t-33.5 -84.5t-15 -95.5t-3.5 -85q0 -67 12 -130t31.5 -122t44.5 -115.5t51 -110.5q8 -16 23.5 -43.5t35 -61.5t41.5 -71t42.5 -72t38 -65.5t28.5 -49.5q39 -69 65 -125.5t26 -113.5q0 -8 -3.5 -26t-9 -36t-12.5 -32t-15 -14q-10 0 -16.5 8.5
t-6.5 34.5z" />
    <glyph glyph-name="T" unicode="T" horiz-adv-x="580" 
d="M420 -114q0 -5 -5.5 -5.5t-10.5 -0.5q-17 0 -23.5 6.5t-8.5 9.5q-20 105 -34 199.5t-22 167.5q-11 85 -16 159q-5 58 -9.5 115t-9.5 102t-11.5 74.5t-13.5 34.5q-5 1 -11 2t-19 1.5t-34.5 0.5h-55.5q-27 0 -55.5 2t-51.5 11t-38 27t-15 50q0 24 30 32t86 8q7 0 26 -0.5
t44 -1.5t53 -2t54.5 -2.5t48 -2.5t32.5 -1q31 -3 73.5 -10t87.5 -17.5t88.5 -22t78 -23t55.5 -21t21 -14.5q0 -2 -14.5 -6t-49.5 -4q-60 0 -121.5 10t-124.5 10q-20 0 -42.5 -1t-41.5 -5.5t-31.5 -12.5t-12.5 -21q0 -33 2.5 -59.5t6.5 -55t8 -62.5t7 -81q7 -94 20.5 -184.5
t27 -168.5t23 -139.5t9.5 -97.5z" />
    <glyph glyph-name="U" unicode="U" horiz-adv-x="872" 
d="M658 332q0 58 -1.5 114.5t-3 103l-2.5 77.5t-1 39q-12 -43 -28 -93q-14 -44 -32.5 -101.5t-41.5 -125.5q-19 -55 -34 -96.5t-28 -75.5t-25 -63t-25.5 -59.5t-29 -65t-34.5 -78.5q-5 -10 -11.5 -15t-14 -7.5t-13.5 -3t-9 -0.5q-17 0 -29.5 15.5t-21 38t-13.5 47.5t-8 43
q-11 66 -20 146.5t-17 168t-14.5 178.5t-12 179.5t-10 170t-8.5 149.5q0 3 -1 6t-1 8q0 33 10 51.5t30 18.5q18 0 23 -17.5t5 -38.5v-62q0 -26 1.5 -73t4.5 -108.5t7 -133.5t9.5 -146.5t11 -148.5t12 -140t13 -120.5t13.5 -89.5q0 -15 9 -32.5t21 -17.5q4 0 21 36t40 92
t49 123t49.5 129.5t41 112t23.5 69.5q13 42 25 84.5t21 77t15 56.5t7 22q4 16 6.5 37.5t6.5 41t10 33.5t17 14h4.5t7.5 -1t7 -3t3 -6q3 -71 5 -147.5t4 -156.5t4 -162t5 -162q0 -14 1.5 -34.5t4.5 -42.5t7.5 -43.5t10.5 -37.5q12 -38 19 -63.5t7 -42.5q0 -23 -7.5 -29.5
t-18.5 -6.5q-5 0 -17.5 20.5t-25 65t-22.5 114.5t-11 168z" />
    <glyph glyph-name="V" unicode="V" horiz-adv-x="828" 
d="M246 812q-6 16 -14 16q-15 0 -38 -33.5t-50 -86.5q-11 -21 -26.5 -53.5t-32 -62.5t-31 -52t-24.5 -22q-5 0 -12.5 7t-7.5 27q0 15 7 41t25 65q28 60 53.5 110.5t48.5 86.5t45 56.5t45 20.5q28 0 50 -39t39 -103.5t30 -146.5t24.5 -168t21.5 -168t21.5 -147t25 -105
t30.5 -41q7 -1 19 27.5t26.5 75.5t31 106t32 120t29.5 118.5t24 100.5q10 44 20.5 85t21 81.5t21.5 82.5t23 89l38 152q5 14 11 25t21 11q26 0 26 -28q0 -8 -2 -12q-23 -109 -62 -247t-78 -295q-8 -31 -20 -85.5t-27.5 -117.5t-33.5 -127.5t-37.5 -117t-41 -85.5t-42.5 -33
q-29 0 -49.5 30.5t-35 77t-24.5 100t-17 100.5q-11 69 -19 139t-18.5 140.5t-26 142t-40.5 142.5z" />
    <glyph glyph-name="W" unicode="W" horiz-adv-x="949" 
d="M749 532q0 109 5 195t25 146t61 91.5t113 31.5q69 0 112 -20t67.5 -46t33 -52.5t8.5 -39.5q0 -5 -3.5 -17t-12.5 -12q-5 0 -8.5 9t-10 23t-16.5 29.5t-28 29.5t-45.5 23t-68.5 9q-66 0 -101.5 -27t-52 -75.5t-19 -115t-2.5 -145.5v-374q0 -54 -1.5 -108.5t-9.5 -98.5
t-25 -71.5t-48 -27.5q-35 0 -68 27.5t-62.5 68.5t-54.5 88.5t-46 88.5t-36.5 68.5t-24.5 27.5t-21 -21t-27 -53t-32 -69t-35 -69t-37.5 -53t-38.5 -21q-24 0 -40.5 18t-27.5 44t-17 55t-9 51q-6 48 -12.5 115t-13 139.5t-13 143.5t-13.5 127.5t-14.5 91.5t-14.5 35
q-10 0 -30 -6.5t-44 -16t-50.5 -21t-50.5 -21t-44 -16t-31 -6.5q-17 0 -33 3q-11 3 -21.5 12.5t-18.5 22.5t-13 26.5t-5 23.5q0 15 11 15q63 4 105 10t71.5 13t50.5 15.5t40 17.5t40.5 19t53.5 21q4 0 6.5 0.5t5.5 0.5q13 0 19.5 -10t9.5 -26q1 -32 5 -80.5t9 -106
t10.5 -121t11 -126.5t10 -122t7.5 -108q1 -16 3.5 -44t8 -55t14.5 -47t21 -20q9 0 17 5t18 20.5t23.5 45.5t34.5 80q10 24 20 48.5t22.5 44t30 31.5t43.5 12q20 0 40.5 -28t41.5 -70t43 -90.5t46 -90.5t49.5 -70t53.5 -28q12 0 18.5 18.5t9.5 45.5t3.5 57t0.5 53
q0 82 -1 185.5t-1 223.5z" />
    <glyph glyph-name="X" unicode="X" horiz-adv-x="822" 
d="M402 430q28 50 58.5 108.5t55 119.5t40.5 121.5t16 116.5q0 20 -3 36.5t-3 33.5q0 8 5.5 15t12.5 11.5t13.5 7t8.5 2.5q10 0 16.5 -14t11 -32t6.5 -35.5t2 -24.5q0 -39 -10 -83t-25.5 -88.5t-33 -86t-33 -74t-26.5 -53t-12 -23.5q-14 -33 -35.5 -66t-38.5 -62
q15 -37 33.5 -76t43 -79t56.5 -80t73 -77q28 -24 53.5 -37.5t45 -21t31.5 -12t12 -9.5q0 -6 -3.5 -12.5t-12.5 -11.5q-71 0 -130 34t-105.5 86.5t-81.5 115t-59 118.5q-27 -49 -63 -98.5t-72 -93t-69 -78.5t-54 -54l-21.5 -21.5t-13 -11.5t-11.5 -6t-18 -3q-11 0 -14.5 6.5
t-3.5 17.5q0 22 16 35t34 31q71 72 139 155.5t127 184.5q-6 17 -11.5 31.5t-10.5 26.5q-59 144 -102.5 232t-73 137.5t-44 70t-14.5 30.5q0 3 6 12.5t18 9.5q25 0 56 -37t65.5 -100.5t71.5 -148t75 -178.5z" />
    <glyph glyph-name="Y" unicode="Y" horiz-adv-x="962" 
d="M442 150q-41 0 -71.5 32t-54.5 84t-42.5 118.5t-36.5 135.5t-36 135.5t-40.5 118.5t-50.5 84t-66 32q-42 0 -99.5 -41t-142.5 -121q-7 -6 -16.5 -15t-19.5 -18t-19 -15t-15 -6q-5 0 -11.5 7.5t-6.5 22.5q0 12 6.5 22.5t15.5 19.5q39 40 72.5 79.5t71 71t83 51.5t107.5 20
q41 0 73.5 -32.5t58 -86t46 -121.5t38.5 -139t34.5 -139t34.5 -121.5t38.5 -86t46.5 -32.5q18 0 33.5 28t29 76t25 112t21 135.5t16.5 146.5t13 146q2 25 5.5 40t9 22.5t14 9.5t21.5 2q21 0 40 -36t37 -97.5t33.5 -143t28.5 -172.5t24 -185t18 -181t11 -161.5t4 -125.5
q0 -165 -16 -268t-39 -160t-48.5 -77.5t-44.5 -20.5q-11 0 -28.5 3.5t-35 12.5t-30 24.5t-12.5 39.5q0 7 1.5 15.5t5.5 16t10 13t15 5.5q12 0 18.5 -7t11.5 -16t11.5 -16t18.5 -7q19 0 38.5 26.5t35.5 79t26 132t10 186.5q0 110 -8.5 227.5t-22 229.5t-29.5 211.5t-31 174.5
t-27.5 119t-17.5 44q-3 0 -3 -22.5t-3 -51.5q-2 -8 -3 -17t-1 -21q-4 -39 -10.5 -95.5t-16 -118t-23.5 -122t-33 -108.5t-44 -78t-57 -30z" />
    <glyph glyph-name="Z" unicode="Z" horiz-adv-x="828" 
d="M14 -24q0 46 22 76.5t52 48.5t62.5 25.5t53.5 7.5q13 0 28.5 -1t30.5 -2.5t28 -4t21 -4.5q40 51 81.5 117t80.5 136.5t73 140t59.5 129.5t40.5 105t15 66q0 12 -10.5 18t-25.5 6q-17 0 -40 -4.5t-47.5 -9.5t-49 -9.5t-45.5 -4.5q-37 0 -81.5 7t-89.5 19t-87.5 29.5
t-75.5 38.5q-6 3 -9 11t-3 19q0 14 5 25t19 11q13 0 22 -6q25 -16 71 -29t98.5 -22.5t104.5 -15t90 -5.5q35 0 61.5 2t56.5 2q16 0 33 -3t30.5 -11.5t22 -23t8.5 -36.5q-3 -29 -20.5 -80t-44.5 -114t-62 -134t-74 -141t-80.5 -135t-80.5 -116q39 -17 87.5 -33.5t97.5 -30
t94 -22t77 -8.5q18 0 34.5 3t49.5 15q11 3 19.5 7.5t10.5 4.5q11 0 18.5 -10t7.5 -18q0 -4 -7 -8.5t-17 -9t-20.5 -8.5t-17.5 -6q-23 -8 -48.5 -11t-67.5 -3q-29 0 -71 7t-90.5 19t-99 27t-95.5 31q-17 -20 -42.5 -44.5t-55.5 -45.5t-62.5 -35.5t-63.5 -14.5
q-14 0 -28.5 2.5t-26.5 10t-19.5 20.5t-7.5 33zM82 -10q0 -8 5.5 -15t16.5 -7q16 0 40 10t48 25t44 32t30 31q-14 2 -26.5 3t-23.5 1q-20 0 -43.5 -5t-43.5 -15.5t-33.5 -25.5t-13.5 -34z" />
    <glyph glyph-name="a" unicode="a" horiz-adv-x="675" 
d="M692 3q-22 -12 -50 -17.5t-54 -5.5q-41 0 -70 12t-49.5 30.5t-34 40t-23.5 40t-18.5 31t-17.5 13.5q-8 -31 -27.5 -60t-44 -51.5t-52.5 -36t-53 -13.5q-55 0 -81 35t-26 98q0 37 10.5 76.5t32.5 71.5t54 53t76 21q18 0 32 -5t26 -14.5t24.5 -24.5t28.5 -35q5 -7 11 -9
t11.5 -4.5t10.5 -7t9 -15.5q7 -23 22 -57.5t37 -67.5t49.5 -56.5t59.5 -23.5q46 0 66 9.5t25 9.5q9 0 17 -10t8 -17q0 -4 -3.5 -6t-5.5 -4zM139 143q0 -18 3 -35.5t9.5 -31t16 -21.5t22.5 -8q21 0 45.5 15.5t46 40.5t35.5 55.5t14 60.5q0 11 -5.5 22t-15 20t-21.5 15t-25 6
q-52 0 -87 -38.5t-38 -100.5z" />
    <glyph glyph-name="b" unicode="b" horiz-adv-x="643" 
d="M103 262q-12 73 -12 157q0 96 14 191.5t40 172t64 124t85 47.5q22 0 40.5 -13t31.5 -34t20.5 -48.5t7.5 -56.5q0 -71 -23.5 -148t-59 -150.5t-76.5 -139t-76 -114.5q8 -48 22.5 -89t36 -71t50 -46.5t64.5 -16.5q25 0 50 9t45 30t33 54t15 81q-31 10 -52 27t-34 37.5
t-18.5 41t-5.5 36.5q0 23 14.5 40t41.5 17q24 0 42.5 -13t31.5 -34.5t20.5 -50.5t10.5 -60q8 -5 18 -7t22 -2q21 0 43.5 5t42 11.5t34 12t17.5 5.5q5 0 6.5 -5.5t1.5 -10.5q-1 -16 -17 -28t-38.5 -19.5t-48.5 -11.5t-48 -4q-20 0 -32 3q-8 -59 -25 -100.5t-41.5 -67.5
t-57 -37.5t-70.5 -11.5q-42 0 -76 16t-61 45.5t-46.5 70t-32.5 89.5l-5 -7q-12 -15 -21 -15q-13 0 -13 23q0 15 6 29zM288 878q-32 0 -58 -40.5t-44.5 -106.5t-29 -149t-10.5 -167v-39.5t2 -38.5q5 9 11 17.5t12 17.5q30 46 59.5 94.5t53.5 101t39 110t15 121.5q0 39 -15 59
t-35 20zM426 346q-13 0 -13 -10q0 -6 4.5 -17t12 -22.5t18.5 -22t24 -15.5q0 6 -3.5 20.5t-10 29.5t-15 26t-17.5 11z" />
    <glyph glyph-name="c" unicode="c" horiz-adv-x="503" 
d="M147 177q0 -43 21 -75t52.5 -53.5t68 -32.5t68.5 -11q33 0 59 5.5t45 12t30 12t15 5.5q7 0 15 -9t8 -17t-19 -17t-46 -16t-58 -11.5t-55 -4.5q-20 0 -47 3.5t-56 12.5t-57 24.5t-50.5 39.5t-36.5 58.5t-14 80.5q0 31 9 64t28.5 60t49 44t71.5 17q32 0 64 -11.5
t57.5 -34.5t41 -57t15.5 -79q0 -11 -4.5 -30.5t-15 -39t-27.5 -33.5t-41 -14q-25 0 -46.5 14.5t-37 39t-24.5 56.5t-9 67q0 15 4 29.5t22 14.5q12 0 20.5 -7t13.5 -17.5t7.5 -22t2.5 -21.5q0 -20 -5.5 -29t-5.5 -20q0 -24 18 -37.5t39 -13.5q15 0 28 16t13 46q0 32 -11 56.5
t-29 41t-41 25t-46 8.5q-29 0 -49 -13t-32 -33.5t-17.5 -45t-5.5 -47.5z" />
    <glyph glyph-name="d" unicode="d" horiz-adv-x="872" 
d="M823 -17q-8 -1 -15.5 -1.5t-10.5 -0.5q-36 0 -65 18.5t-52.5 48.5t-41.5 69t-31 79t-22 79t-13 70q-6 42 -7 70t-4 29q-6 0 -16.5 -24.5t-21.5 -57.5l-22.5 -67.5t-19.5 -53.5q5 -9 13.5 -26t16.5 -37t14 -40t6 -33q0 -15 -6 -16q-16 1 -26 13t-17.5 27t-14.5 29.5
t-17 21.5q-4 -6 -13.5 -24t-24.5 -42.5t-35 -51t-45.5 -48.5t-55.5 -36.5t-64 -14.5q-38 0 -64 15t-42.5 39.5t-24 56t-7.5 64.5q0 45 15.5 80t44 58.5t68 36t88.5 12.5q37 0 76.5 -11.5t70.5 -32.5q7 7 19 37t26 72t29 89.5t28 91t22.5 77t12.5 45.5q4 15 9.5 41t11.5 55
t11.5 57t9.5 48q2 15 8.5 21.5t13.5 6.5q11 0 15 -13.5t4 -28.5q0 -10 -3.5 -33.5t-8.5 -55.5t-11 -68.5t-11 -70.5t-8.5 -62.5t-3.5 -44.5q0 -93 14.5 -186t40 -168t61.5 -121.5t80 -46.5q27 0 44 8.5t22 8.5q9 0 17 -9.5t8 -17.5q0 -5 -7 -9.5t-18 -8.5t-24 -7t-26 -5z
M128 152q0 -27 4.5 -52t15.5 -43.5t28.5 -30t44.5 -11.5q18 0 39 13t41 33.5t39 45.5t34 48.5t25.5 43t13.5 28.5q-33 31 -60.5 41t-57.5 10q-38 0 -67.5 -11t-50.5 -29t-33 -40.5t-16 -45.5z" />
    <glyph glyph-name="e" unicode="e" horiz-adv-x="407" 
d="M433 12q0 -5 -13.5 -12t-34 -13t-43.5 -10t-41 -4q-39 0 -69 11t-52.5 29t-37.5 40.5t-24.5 45.5t-13.5 44t-4 36q0 36 7 69.5t22.5 60t40 42t60.5 15.5q30 0 49.5 -22t19.5 -53q0 -21 -5.5 -47t-19.5 -51.5t-38.5 -47.5t-62.5 -35q7 -25 22.5 -43t34.5 -29.5t39 -17
t36 -5.5q20 0 38 4t31.5 8.5t22.5 8.5t11 4q10 0 17.5 -10t7.5 -18zM242 269q0 7 -4 20.5t-19 13.5q-18 0 -30.5 -10.5t-20 -27t-10.5 -35.5t-3 -35t3 -28t6 -12q10 0 23.5 10t25.5 26t20.5 36.5t8.5 41.5z" />
    <glyph glyph-name="f" unicode="f" horiz-adv-x="474" 
d="M267 6q-10 86 -17 169.5t-10 158.5q-13 -25 -36.5 -61.5t-48.5 -70t-46.5 -57t-28.5 -23.5q-5 0 -9.5 4.5t-4.5 18.5q0 17 12 34t34 45.5t51.5 74.5t64.5 121q0 21 -1.5 57.5t-1.5 85.5q0 60 4.5 126.5t18.5 123t39.5 93t68.5 36.5q37 0 53 -28.5t16 -76.5
q0 -42 -11.5 -96t-31 -112t-44 -117t-51.5 -111l2 -31q6 -98 13.5 -192t19.5 -176h7q33 0 61 7.5t54 18.5q2 1 6.5 3t10 4t10 3.5t5.5 1.5q9 0 16.5 -9.5t7.5 -17.5q0 -5 -12 -12q-35 -20 -73 -31.5t-84 -19.5q3 -18 6 -39.5t6 -43.5t6.5 -43t6.5 -38q19 -104 39 -199
t35.5 -175t25.5 -143.5t10 -104.5q0 -14 -8 -18t-17 -4q-13 0 -31.5 24.5t-32.5 69.5q0 1 -5 29t-13 77.5t-19 117t-22.5 146.5t-23 166t-21.5 176q-32 1 -62 9.5t-53.5 23.5t-37.5 34.5t-14 43.5q0 29 13 42t27 13q9 0 16 -6t7 -18q0 -37 20.5 -53.5t57.5 -26.5zM367 837
q0 8 -3 18t-15 10q-14 0 -26.5 -16.5t-23 -54t-16.5 -98.5t-6 -149q0 -3 0.5 -11l1 -16t1 -14.5l0.5 -6.5q21 44 37 91.5t27 93t17 85t6 68.5z" />
    <glyph glyph-name="g" unicode="g" horiz-adv-x="522" 
d="M398 -915q28 0 47.5 26.5t32.5 69.5t19 98.5t6 112.5q0 58 -5.5 115t-14 109t-19 96.5t-20.5 76.5q-22 -57 -42 -130t-35.5 -149.5t-24.5 -150.5t-9 -133q0 -70 18 -105.5t47 -35.5zM125 88q0 -16 2 -33t7.5 -31t15 -23t24.5 -9q17 0 30 8t23 20t18.5 27t16.5 29l6 12
l3 6l1 3q-4 1 -14 6.5t-10 22.5q0 5 2 13t4 14q5 16 9.5 34.5t8.5 37.5t6 37.5t2 33.5q0 25 -6.5 41.5t-22.5 16.5q-29 0 -49.5 -15t-34.5 -38.5t-22.5 -53t-12.5 -59t-5.5 -56.5t-1.5 -44zM499 -75q-1 -2 -4 -9.5t-6.5 -16.5t-6.5 -17t-3 -11q38 -125 61.5 -246t23.5 -246
q0 -71 -10 -136t-31.5 -114.5t-55 -78.5t-79.5 -29q-31 0 -52 15.5t-34 45t-18.5 71.5t-5.5 95q0 69 10.5 149t29.5 162t44.5 161.5t54.5 147.5q-33 84 -53.5 139.5t-32.5 75.5q-11 -12 -25.5 -35t-34 -47t-44 -44t-53.5 -25q-29 0 -48.5 18t-31 44t-16.5 54t-5 48
q0 23 3 54.5t11 66t21 68.5t33 61t47 43.5t63 16.5q43 0 62 -38t19 -93q0 -49 -14 -103q2 0 8 -1.5t14.5 -7.5t17 -16.5t16.5 -28.5q1 0 6.5 -13.5t14 -33.5t18 -44t17 -44.5t13 -34.5t5.5 -15q10 21 22 47t23 48t19 36.5t11 14.5q1 0 2 0.5t3 0.5q5 0 11 -2t10 -7
q6 -6 6 -23q0 -2 -5 -13t-13 -27.5t-18 -38t-20 -44.5z" />
    <glyph glyph-name="h" unicode="h" horiz-adv-x="651" 
d="M298 889q-20 0 -35.5 -21t-26.5 -56.5t-19 -83t-13 -101t-7.5 -109.5t-2.5 -109q25 53 50.5 112.5t45.5 116.5t32.5 107.5t12.5 85.5q0 27 -8.5 42.5t-28.5 15.5zM566 -20q-37 0 -65.5 16.5t-49.5 41t-36.5 53.5t-27.5 53.5t-21.5 41t-18.5 16.5q-11 0 -20.5 -18
t-19.5 -45t-20 -58t-21 -58t-23.5 -45t-27.5 -18q-31 0 -47.5 68t-21.5 203q-21 -30 -28 -30t-12 10t-5 21q0 12 14 31.5t28 46.5v81q0 133 9.5 237t29 176t49 109.5t69.5 37.5q45 0 64 -29t19 -78q0 -53 -18.5 -122.5t-46.5 -142.5t-61 -143t-63 -124q1 -52 4.5 -99t7 -83
t8 -57t9.5 -21q4 0 10 16.5t14.5 41.5t19 54t22 54t24.5 41.5t27 16.5q28 0 46 -19t32.5 -47t27 -61.5t29.5 -61.5t40 -47t59 -19q32 0 52.5 9.5t25.5 9.5q9 0 17 -10t8 -18q0 -5 -11 -10.5t-27.5 -10.5t-36 -8t-36.5 -3z" />
    <glyph glyph-name="i" unicode="i" horiz-adv-x="369" 
d="M154 253q12 -7 21 -10t9 -19q0 -17 -6.5 -37.5t-6.5 -36.5q0 -30 10.5 -53.5t27 -40.5t36.5 -26t40 -9q21 0 36 3t24.5 6.5t15.5 6.5t9 3q10 0 17.5 -10.5t7.5 -17.5q0 -4 -9.5 -9.5t-26 -10.5t-38.5 -8.5t-46 -3.5q-52 0 -85 20t-52 51.5t-26.5 69.5t-7.5 74
q0 20 7.5 38t34.5 20h8zM83 517q0 10 9.5 15.5t23.5 5.5q17 0 34.5 -11.5t22.5 -37.5q0 -17 -10.5 -27.5t-30.5 -10.5q-9 0 -18 7t-16 17.5t-11 21.5t-4 20z" />
    <glyph glyph-name="j" unicode="j" horiz-adv-x="569" 
d="M381 -449q-12 -34 -28 -87.5t-29.5 -112t-23 -116t-9.5 -99.5q0 -28 5.5 -45t17.5 -17q9 0 19.5 41.5t19.5 108.5t16.5 152.5t11.5 174.5zM213 777q0 7 5.5 12t13 8t16 4.5t15.5 1.5q19 0 27.5 -10t8.5 -42q0 -19 -9 -29.5t-30 -10.5q-12 0 -20.5 7.5t-14.5 18t-9 21.5
t-3 19zM500 -57q10 21 21 45t21 44.5t17.5 33.5t10.5 13q1 0 2 0.5t3 0.5q5 0 11 -2t10 -7q6 -6 6 -23q0 -2 -5 -13t-13 -27.5t-18 -38t-20 -44.5q-29 -63 -59.5 -132.5t-58.5 -136.5q0 -9 0.5 -23.5t0.5 -30.5t0.5 -31.5t0.5 -24.5q0 -103 -6 -203t-18 -179.5t-31.5 -128.5
t-46.5 -49q-26 0 -44 11t-29.5 31t-16.5 47t-5 60q0 61 14.5 134t35.5 146.5t46 140.5t46 117q-8 84 -15.5 163t-16.5 149t-19.5 128t-24 100t-30.5 65.5t-38 23.5q-15 0 -29.5 -13t-28 -32.5t-26.5 -42t-23.5 -42t-19 -32.5t-14.5 -13q-5 0 -7.5 5.5t-4 13.5t-2 16t-0.5 14
q0 7 7.5 23.5t19.5 38t28 44.5t33.5 41.5t35 31t33.5 12.5q32 0 58 -27.5t45.5 -74t34 -107.5t24.5 -128.5t15.5 -136.5t8.5 -132q20 45 40.5 90t40.5 92z" />
    <glyph glyph-name="k" unicode="k" horiz-adv-x="796" 
d="M406 378q-5 0 -14 -8t-9 -21q0 -8 5.5 -11t13.5 -3q6 0 13 1t13 5q-2 9 -6.5 22t-15.5 15zM408 457q-1 -2 8 -6t21 -13.5t23 -25.5t14 -42q20 14 35.5 34t26.5 42t17 45t6 43q0 33 -9.5 48t-25.5 15q-14 0 -31 -11t-33 -30t-30 -44.5t-22 -54.5zM731 23q26 0 44 8.5
t22 8.5q9 0 17 -10.5t8 -16.5t-11.5 -12t-27 -10.5t-31.5 -7t-26 -2.5q-59 0 -106 26t-82.5 68.5t-60.5 97t-40 111.5l-5.5 -2t-14.5 -4.5t-20.5 -5t-23.5 -2.5q-11 0 -24 9q-5 -1 -10.5 -20t-13.5 -47.5t-18.5 -61.5t-24.5 -61t-32.5 -47t-41.5 -19q-21 0 -37 28t-28 75.5
t-20.5 111t-13.5 134.5t-7 146.5t-2 146.5q0 73 4.5 137.5t13.5 113.5t22.5 77.5t31.5 28.5q19 0 19 -20q0 -2 -0.5 -3t-0.5 -3q-9 -47 -15 -89t-9.5 -95.5t-4.5 -124.5t-1 -176q0 -72 3.5 -146t10.5 -133.5t18.5 -97t28.5 -37.5q7 0 14.5 9.5t15.5 25.5t16 36t15 41
q17 49 34 112q2 36 11.5 64t28.5 62q16 54 38.5 94.5t47 67t49.5 39.5t47 13q32 0 55 -27.5t23 -82.5q0 -28 -9 -59t-25.5 -62t-41 -60.5t-54.5 -53.5q9 -49 30.5 -101t53 -94.5t72 -70t89.5 -27.5z" />
    <glyph glyph-name="l" unicode="l" horiz-adv-x="447" 
d="M356 -22q-54 0 -95 19t-71 51.5t-50 76.5t-32 93.5t-17 102t-5 103.5q0 102 15.5 194.5t39 162.5t52 111t54.5 41q22 0 38.5 -11.5t27 -31.5t15.5 -46.5t5 -55.5q0 -71 -14.5 -150t-38.5 -155t-56 -141.5t-67 -108.5q10 -45 28.5 -83.5t44 -67t58.5 -45t72 -16.5
q22 0 37.5 3t26 6.5t16 6.5t8.5 3q8 0 16.5 -9.5t8.5 -18.5q0 -5 -12 -11t-30 -11t-38.5 -8.5t-36.5 -3.5zM241 864q-14 -2 -27 -25.5t-25 -61t-22.5 -86t-18 -100.5t-11.5 -103.5t-4 -94.5q0 -29 2 -53t7 -41q12 11 26.5 41.5t29.5 72t29 91t25.5 100t18 97.5t6.5 84
q0 36 -8 57.5t-28 21.5z" />
    <glyph glyph-name="m" unicode="m" horiz-adv-x="1018" 
d="M928 -20q-33 0 -56 14t-38.5 35t-25 45t-16.5 45t-13 35t-13 14q-10 0 -21.5 -14t-25.5 -35t-29 -46t-33 -46t-37.5 -35t-41.5 -14q-27 0 -46 14.5t-32.5 36.5t-22.5 47t-16.5 47t-14.5 36.5t-17 14.5q-9 0 -20.5 -13.5t-25 -34t-28.5 -44.5t-31 -44.5t-32 -34t-31 -13.5
q-34 0 -53.5 27t-32 61.5t-22 67t-22.5 44.5q-26 23 -35.5 43t-9.5 34q0 17 8 26t14 9q18 0 34 -18t29.5 -45.5t25.5 -59.5t22.5 -59.5t19.5 -45.5t18 -18q13 0 27 15.5t29 38.5t30 50t31 50t32 38.5t32 15.5q15 0 27.5 -17.5t23 -43t20 -56t19 -56t19 -43t20.5 -17.5
q22 0 40 15.5t33.5 38.5t30 49.5t31 49.5t36.5 38.5t45 15.5q18 0 29.5 -16t20 -40t17 -52.5t20 -52.5t28 -40t41.5 -16q35 0 55 9.5t25 9.5q9 0 17 -10t8 -18q0 -4 -9.5 -9.5t-26 -10.5t-37.5 -8.5t-43 -3.5z" />
    <glyph glyph-name="n" unicode="n" horiz-adv-x="676" 
d="M390 247q32 0 54 -21t39.5 -50.5t33.5 -62t36 -55.5q13 -14 28.5 -24.5t37.5 -10.5q8 0 17.5 2.5t18 6t15 6t8.5 2.5q9 0 16.5 -10.5t7.5 -18.5q0 -4 -9 -8.5t-22.5 -9t-29 -7.5t-29.5 -3q-36 0 -61.5 14t-44.5 35.5t-33 46.5t-27.5 46.5t-28 35.5t-33.5 14
q-29 0 -51.5 -12.5t-41.5 -31.5t-34.5 -41t-30 -41t-27.5 -31.5t-27 -12.5q-15 0 -33 24.5t-34 59t-26.5 72.5t-10.5 66q0 17 10 26.5t22 9.5q10 0 18 -7.5t8 -24.5q0 -9 4 -33.5t11 -50.5t17 -46.5t21 -20.5t21.5 12.5t22.5 31t26.5 40t34.5 40t45.5 31t60.5 12.5z" />
    <glyph glyph-name="o" unicode="o" horiz-adv-x="484" 
d="M95 211q0 12 3.5 25t10.5 24.5t17.5 18.5t25.5 7q7 0 11 -7.5t4 -18.5q0 -9 -2.5 -23t-2.5 -32q0 -25 2.5 -55.5t11.5 -56.5t26.5 -44t47.5 -18q17 0 31.5 10.5t25 26t16.5 34.5t6 37q0 17 -2 29.5t-5 21.5q-66 13 -99 43.5t-33 62.5q0 23 16.5 39t49.5 16q18 0 34.5 -9
t31 -24t25.5 -35t19 -42q1 -6 15 -6q26 0 53 5t50 11t39.5 11t20.5 5q5 0 6.5 -5.5t1.5 -10.5q0 -19 -24 -31t-54.5 -19t-59 -10t-38.5 -4q2 -11 2 -19.5v-22.5q0 -29 -7.5 -58.5t-22.5 -53.5t-37.5 -39.5t-52.5 -15.5q-44 0 -75 25t-50.5 61t-28.5 76.5t-9 70.5zM258 301
q-5 0 -10 -1.5t-5 -6.5q0 -12 18.5 -29.5t48.5 -22.5q-8 21 -22.5 40.5t-29.5 19.5z" />
    <glyph glyph-name="p" unicode="p" horiz-adv-x="880" 
d="M440 286q48 0 82 -19.5t60.5 -49.5t48.5 -64t45.5 -64t52 -49.5t67.5 -19.5t61 10t25 10q6 0 15 -9.5t9 -18.5q0 -5 -9.5 -10.5t-24.5 -10t-34.5 -8t-39.5 -3.5q-48 0 -82.5 17t-61.5 42t-48.5 55t-43.5 55t-47.5 42t-58.5 17q-32 0 -56 -28.5t-41.5 -78.5t-29.5 -118
t-19.5 -147.5t-10.5 -166.5t-3 -175q0 -32 0.5 -76.5t0.5 -90.5t0.5 -88.5t0.5 -70.5q0 -32 -4 -45t-12 -13q-18 0 -32 27t-14 71q0 163 -6 290t-16 225t-23.5 170.5t-28.5 126.5t-31.5 92.5t-32.5 69t-31 56.5t-27 54v4q0 9 11 15.5t19 6.5q3 0 9.5 -1t14 -4t14.5 -7
t10 -10q48 -92 74 -175t38.5 -146.5t16 -101t7.5 -37.5q3 0 6.5 33.5t10 83.5t17.5 108t30.5 108t49 83.5t72.5 33.5z" />
    <glyph glyph-name="q" unicode="q" horiz-adv-x="720" 
d="M126 148q-2 -8 -3 -18t-1 -22q0 -30 9 -49t35 -19t55.5 17.5t54.5 44t41.5 58t16.5 60.5q0 23 -20 37.5t-50 14.5q-19 0 -40.5 -6.5t-41 -21t-35 -38.5t-21.5 -58zM698 -76q-32 -72 -63.5 -150.5t-60 -160t-52.5 -165.5t-40 -166q-8 -38 -14 -78t-12 -73t-11.5 -54
t-12.5 -21q-15 0 -24.5 13t-15.5 34t-8 47t-2 52q0 63 2.5 113.5t6.5 95.5l8 90t8 98.5t6.5 120t2.5 154.5q0 27 -3 66.5t-8.5 75.5t-14 62t-18.5 26q-2 0 -5.5 -1.5t-6.5 -4.5q-13 -28 -33.5 -50.5t-45 -39t-51 -25.5t-50.5 -9q-57 0 -85.5 33t-28.5 81q0 39 13.5 82.5
t39 79.5t62 60t81.5 24q26 0 46 -8.5t35 -22t25 -31t18 -36.5q6 -5 9.5 -7.5t6 -4t4.5 -4t6 -8.5q13 -21 24 -63t18.5 -91t11.5 -97.5t4 -82.5q0 -73 -4 -152t-9.5 -153.5t-11 -139.5t-7.5 -109q36 160 89.5 314.5t122.5 303.5q10 21 21.5 45t22 44.5t18 34t10.5 12.5l1 1
q1 0 1.5 0.5t1.5 0.5q5 0 11 -2.5t11 -7.5q6 -6 6 -22q0 -2 -5 -13t-13 -28t-18 -38.5t-20 -44.5z" />
    <glyph glyph-name="r" unicode="r" horiz-adv-x="420" 
d="M355 -18q-58 0 -86.5 25t-28.5 61q0 24 5.5 48.5t5.5 46.5q0 12 -6.5 17.5t-16.5 5.5q-23 0 -47 -6t-46 -6q-15 0 -28.5 3.5t-23 13.5t-15.5 27t-6 43q0 7 1 17.5t5 20.5t12 17t22 7t22 -7.5t8 -12.5q0 -14 -6.5 -28.5t-6.5 -24.5q0 -14 12 -17.5t23 -3.5q13 0 28 3.5
t30.5 8t30 8t25.5 3.5q17 0 30.5 -16.5t13.5 -47.5q0 -26 -10 -54.5t-10 -56.5q0 -23 13.5 -38.5t53.5 -15.5q21 0 40 8.5t22 8.5q10 0 17.5 -9.5t7.5 -17.5q0 -5 -9.5 -10.5t-23 -10t-29.5 -7.5t-29 -3z" />
    <glyph glyph-name="s" unicode="s" horiz-adv-x="444" 
d="M282 326q20 0 28 -4.5t8 -13.5q0 -12 -11 -19.5t-27 -12.5t-35 -9t-35 -8.5t-27 -11.5t-11 -17q0 -17 14 -26.5t35 -16.5t46 -13t46 -17t35 -28.5t14 -46.5q0 -25 -17 -44t-43 -32.5t-57.5 -20.5t-60.5 -7q-35 0 -58.5 9.5t-23.5 32.5q0 8 3 15t11 7q6 0 24.5 -7t47.5 -7
q20 0 41 3t38 9.5t28 17t11 24.5q0 15 -14.5 25.5t-36.5 19t-47 16.5t-47 19.5t-36.5 28t-14.5 41.5q0 19 16.5 36t42 30t56 20.5t57.5 7.5z" />
    <glyph glyph-name="t" unicode="t" horiz-adv-x="455" 
d="M361 -20q-71 0 -116 27t-72.5 71.5t-41 101.5t-20 116.5t-10.5 116.5t-12 103q-1 7 -12 11.5t-23.5 8.5t-23 9t-10.5 12q0 19 11 29t25.5 17t27 13t15.5 17q5 19 6.5 38.5t4.5 35t8.5 25.5t19.5 10q10 0 14.5 -28.5t12.5 -65.5q3 0 13 -0.5t21 -1.5t21 -1.5t13 -0.5
q38 0 66 0.5t55.5 2t58.5 2.5t75 3q69 4 136 8q57 4 120.5 9t111.5 11q29 3 64.5 8t72.5 10t72.5 10t63.5 8.5t46 6t21 2.5q13 0 24 -5.5t11 -17.5q0 -6 -1 -11.5t-7 -7.5q-37 -9 -82.5 -17t-92 -15t-90 -13t-75.5 -12q-15 -3 -45.5 -8.5t-70.5 -13t-86 -15.5t-93 -15.5
t-91.5 -14t-81.5 -9.5q-38 -4 -70 -8t-61 -7.5t-57 -6.5t-57 -5q-6 -2 -9 -10.5t-5 -20t-2.5 -25.5t-0.5 -26q0 -98 11.5 -175.5t38 -132t68.5 -83.5t102 -29q39 0 58.5 9.5t24.5 9.5q9 0 17 -10t8 -18q0 -4 -9 -9.5t-25 -10.5t-38 -8.5t-48 -3.5z" />
    <glyph glyph-name="u" unicode="u" horiz-adv-x="667" 
d="M595 -19q-33 0 -58 12t-43 32t-30.5 46t-22.5 55q-14 -28 -35 -53t-47 -44.5t-56 -31t-62 -11.5q-39 0 -66.5 13.5t-45 35.5t-27 49t-14 53t-5.5 49t-1 37q0 29 9.5 44t22.5 15q25 0 32.5 -10.5t7.5 -25.5q0 -11 -1.5 -22t-1.5 -20q0 -31 1.5 -61.5t11 -55t29.5 -40
t56 -15.5q24 0 49 14t47 37t39 54t25 65q5 17 15 26.5t20 9.5q14 0 20.5 -4.5t9.5 -11t3.5 -15t2.5 -17.5q6 -32 16 -61.5t25.5 -53t37.5 -37.5t51 -14q20 0 37 8t21 8q9 0 17 -10t8 -18q0 -5 -10.5 -10.5t-26 -10t-32.5 -7.5t-29 -3z" />
    <glyph glyph-name="v" unicode="v" horiz-adv-x="578" 
d="M359 232q-17 16 -29 42t-12 49q0 21 9 35.5t28 14.5q10 0 21 -7t20 -20.5t15 -33t6 -43.5q0 -8 9 -13.5t22 -9t28 -5t27 -1.5q22 0 45 4t42.5 9t32.5 9.5t16 4.5q5 0 6 -5.5t1 -10.5q0 -14 -14 -25t-35.5 -18t-47 -10.5t-47.5 -3.5q-17 0 -40 3t-47 11q-5 -27 -13.5 -66
t-24 -74.5t-40.5 -61t-61 -25.5q-26 0 -45 13t-33.5 34t-25.5 46.5t-20 51.5t-16.5 48.5t-15.5 36.5q-7 13 -17 25t-19 23.5t-15 23t-6 23.5q0 11 19 11q8 0 20.5 -3t26 -12t26 -25t21.5 -42q16 -46 27 -82t21 -61.5t21.5 -39t28.5 -13.5q16 0 31.5 13.5t27.5 38.5t19 61
t7 80z" />
    <glyph glyph-name="w" unicode="w" horiz-adv-x="746" 
d="M688 198q-25 0 -50 4t-48 4q-27 0 -31.5 -12.5t-4.5 -38.5q0 -29 9 -57t9 -59q0 -30 -11 -46.5t-41 -16.5q-12 0 -33 17t-45.5 38t-51 38t-49.5 17q-22 0 -41 -13t-37.5 -29t-37.5 -29t-40 -13q-26 0 -44.5 24t-31 59.5t-20 76t-11.5 72.5q-4 35 -8.5 52t-4.5 30
q0 14 4 22t18 8t23 -20.5t14.5 -51.5t10 -67t11 -67t16.5 -51.5t26 -20.5q18 0 36 11.5t36.5 25.5t39.5 25.5t45 11.5q31 0 53.5 -14.5t40.5 -32.5t35.5 -32.5t38.5 -14.5q4 0 5 0.5t1 5.5q0 28 -7.5 58t-7.5 68q0 12 1.5 27t5.5 28t11.5 22t18.5 9q16 0 25 -3.5t14 -3.5
q32 -8 56.5 -11t50.5 -3q23 0 43 3.5t36 7.5t26.5 7.5t13.5 3.5q5 0 6.5 -5.5t1.5 -10.5q0 -17 -15 -27.5t-36 -16t-42 -7.5t-33 -2z" />
    <glyph glyph-name="x" unicode="x" horiz-adv-x="544" 
d="M452 -22q-35 0 -65.5 9.5t-56 23.5t-45.5 31t-33 32l-6 8q-29 -29 -50 -57.5t-38.5 -51t-32.5 -36t-31 -13.5q-14 0 -17 5t-3 11q0 10 13.5 30t33.5 45.5t43.5 52.5t43.5 50l6 6q-33 37 -54.5 66t-34.5 51.5t-18 40t-5 32.5q0 24 16 24q15 0 20.5 -8.5t13.5 -23.5
q11 -21 20.5 -36t20.5 -30t25 -33t34 -45q36 35 67.5 66.5t58.5 55t50.5 37t43.5 13.5q12 0 12 -10q0 -13 -8.5 -20.5t-31 -25t-61 -53t-97.5 -103.5l4 -6q15 -18 33.5 -35.5t40.5 -31t47 -21.5t53 -8q35 0 56 10t26 10q9 0 16.5 -9t7.5 -17t-14.5 -15t-34 -11.5t-39.5 -7
t-30 -2.5z" />
    <glyph glyph-name="y" unicode="y" horiz-adv-x="646" 
d="M557 -102q4 8 9 19.5t11 25.5q10 21 21 45t21 44.5t17.5 33.5t10.5 13q1 0 2 0.5t3 0.5q5 0 11 -2t10 -7q6 -6 6 -23q0 -2 -5 -13t-13 -27.5t-18 -38t-20 -44.5q-13 -29 -24.5 -57t-17.5 -49q7 -29 14 -71t12 -92.5t8 -107t3 -113.5q0 -77 -6.5 -150.5t-22.5 -131
t-42.5 -92.5t-66.5 -35q-29 0 -49 15t-32.5 40.5t-18 60t-5.5 73.5q0 36 6 92t21.5 132t43.5 171.5t72 209.5q-20 83 -40.5 144.5t-39.5 102t-34 60t-22 19.5q-4 0 -14.5 -19.5t-27.5 -43.5t-41.5 -43.5t-56.5 -19.5q-39 0 -64.5 24.5t-43 57.5t-29 67t-21.5 53
q-7 12 -11.5 26t-4.5 25q0 14 7 23.5t19 9.5t22.5 -17t21.5 -42t22 -55t23.5 -55t27 -42t31.5 -17q19 0 33 12.5t25.5 32t21 41.5t19 41.5t20.5 32t25 12.5q9 0 28 -23.5t42.5 -68.5t50 -110.5t50.5 -149.5zM540 -266q-36 -105 -57.5 -194t-33.5 -159.5t-15.5 -120.5
t-3.5 -78q0 -16 2.5 -33t8.5 -31t16.5 -23t25.5 -9q22 0 37.5 31t25 82t13.5 115t4 130q0 45 -2 88t-5 81t-7 69t-9 52z" />
    <glyph glyph-name="z" unicode="z" horiz-adv-x="460" 
d="M422 24q8 3 15 6t12 5q6 3 11 5q11 0 18.5 -10.5t7.5 -19.5q0 -2 -6.5 -6.5t-21.5 -9.5q-32 -11 -70 -19.5t-92 -8.5q-23 0 -47 3.5t-43.5 12t-31.5 23t-12 37.5t21 48.5t46 50t46 46t21 37.5q0 12 -18 18t-44.5 9t-57.5 5t-57.5 5t-44.5 9t-18 18q0 18 20 33t44 15
q28 0 68 -2t77.5 -11t64 -27t26.5 -50q0 -30 -21 -60t-46 -57t-46 -49t-21 -36q0 -11 9.5 -18t22.5 -10.5t27 -4.5t23 -1q51 0 80.5 6t37.5 8z" />
    <glyph glyph-name="afii10023" unicode="&#x401;" horiz-adv-x="691" 
d="M311 119q0 -35 19 -58t48.5 -37t65 -19.5t69.5 -5.5q35 0 64.5 5t45.5 10q32 11 49 18.5t19 7.5q10 0 17 -10.5t8 -17.5q1 -5 -26 -17.5t-65 -23.5q-28 -8 -64.5 -13.5t-76.5 -5.5q-44 0 -87.5 9t-78 28.5t-56 51t-21.5 77.5q0 36 25.5 71.5t64 69t83 65t83 59t64 50.5
t25.5 41q0 9 -13.5 19.5t-36 21.5t-50.5 22t-57 21t-56.5 18.5t-47.5 14.5q-23 -27 -63 -57.5t-81 -56t-76.5 -42t-50.5 -16.5q-7 0 -8 3t-1 8q0 9 4.5 17t7.5 10q32 22 62.5 39t58 34t52 36.5t45.5 46.5q-20 12 -36.5 25t-28 30.5t-17.5 39.5t-6 52q0 31 16 69t42.5 71
t60.5 55.5t71 22.5q45 0 66 -26.5t21 -68.5q0 -27 -8 -58t-22.5 -63.5t-34 -65.5t-42.5 -63q64 -19 120 -38.5t98 -39.5t66 -41t24 -44q0 -24 -26 -50t-65.5 -53t-85.5 -56t-85.5 -60t-65.5 -64t-26 -68zM241 756q0 -42 20.5 -67t46.5 -37q28 31 47 66t30.5 66.5t16.5 57
t5 39.5q0 21 -9.5 32t-20.5 11q-28 0 -53 -16.5t-43.5 -41t-29 -54t-10.5 -56.5zM167 1090q0 14 6.5 24t16 16t20 8.5t19.5 2.5q11 0 18 -8t11.5 -18.5t6.5 -21.5t2 -17q0 -12 -6 -23t-28 -11q-4 0 -15 2.5t-22 8t-20 14.5t-9 23zM416 1090q0 14 6.5 24t16 16t20 8.5
t19.5 2.5q11 0 18 -8t11.5 -18.5t6.5 -21.5t2 -17q0 -12 -6 -23t-28 -11q-4 0 -15 2.5t-22 8t-20 14.5t-9 23z" />
    <glyph glyph-name="uni0406" unicode="&#x406;" horiz-adv-x="752" 
d="M181 1115q-25 0 -43.5 -11t-32 -27t-24 -35t-19 -35t-16.5 -27t-17 -11q-19 0 -19 25q0 22 14 55t36.5 64t50.5 53.5t57 22.5q55 0 94.5 -34.5t68.5 -87t49.5 -115.5t37.5 -121q12 -40 24.5 -103t24.5 -138t23 -156t20 -157.5t16.5 -144t11.5 -114.5q11 -122 19 -206
t13 -138.5t8 -84.5t4 -44.5t1.5 -17.5t0.5 -4q0 -15 -0.5 -29t-3 -24.5t-8.5 -16.5t-17 -6q-14 0 -22 10.5t-12 27t-5 36t-1 36.5q0 94 -7 210t-20 245t-30 267t-36 275q-16 111 -39.5 213t-54 179t-67.5 123t-80 46z" />
    <glyph glyph-name="afii10056" unicode="&#x407;" horiz-adv-x="752" 
d="M181 1115q-25 0 -43.5 -11t-32 -27t-24 -35t-19 -35t-16.5 -27t-17 -11q-19 0 -19 25q0 22 14 55t36.5 64t50.5 53.5t57 22.5q55 0 94.5 -34.5t68.5 -87t49.5 -115.5t37.5 -121q12 -40 24.5 -103t24.5 -138t23 -156t20 -157.5t16.5 -144t11.5 -114.5q11 -122 19 -206
t13 -138.5t8 -84.5t4 -44.5t1.5 -17.5t0.5 -4q0 -15 -0.5 -29t-3 -24.5t-8.5 -16.5t-17 -6q-14 0 -22 10.5t-12 27t-5 36t-1 36.5q0 94 -7 210t-20 245t-30 267t-36 275q-16 111 -39.5 213t-54 179t-67.5 123t-80 46zM-4 1320q0 14 6.5 24t16 16t20 8.5t19.5 2.5q11 0 18 -8
t11.5 -18.5t6.5 -21.5t2 -17q0 -12 -6 -23t-28 -11q-4 0 -15 2.5t-22 8t-20 14.5t-9 23zM245 1320q0 14 6.5 24t16 16t20 8.5t19.5 2.5q11 0 18 -8t11.5 -18.5t6.5 -21.5t2 -17q0 -12 -6 -23t-28 -11q-4 0 -15 2.5t-22 8t-20 14.5t-9 23z" />
    <glyph glyph-name="afii10017" unicode="&#x410;" horiz-adv-x="997" 
d="M3 -101q-46 -3 -72 -6.5t-48 -3.5q-17 0 -23.5 7t-6.5 10q0 9 15 15t37 10t47.5 6.5t46.5 5.5q35 4 75 11t82.5 21.5t85.5 39.5t83.5 66t77 100t66.5 142q0 7 -4 13.5t-9 13.5t-9 15.5t-4 19.5q0 8 6.5 15t15 12t17 9.5t11.5 7.5q7 3 15.5 28t17.5 63.5t17.5 86
t17.5 97.5l15 86q0 46 7 93.5t15 94.5q2 10 3 25.5t3.5 29t8 23.5t16.5 10q10 -2 17 -14t11 -31.5t6.5 -44.5t4.5 -53q11 -138 23.5 -242.5t25 -184.5t25.5 -139t26 -107q13 -3 29 -5t31 -3t28 -1.5t20 -0.5q12 0 28.5 1t34.5 3.5t35.5 6t32.5 8.5l14 4t10 2q5 0 7 -4.5
t2 -9.5q-2 -18 -24 -29.5t-51 -18t-59 -9.5t-47 -3q-8 0 -20.5 0.5t-24.5 1t-21 1l-9 0.5q10 -38 19 -69.5t18.5 -58t19.5 -49.5t21 -45q1 -2 1 -7q0 -9 -7.5 -14t-18.5 -5q-12 0 -19 5q-6 3 -18.5 32.5t-27 69t-28.5 81t-23 70.5q-45 9 -81 23t-61.5 27.5t-40.5 23.5
t-19 10q-42 -86 -85.5 -154.5t-101 -118t-136.5 -79t-193 -37.5zM553 375q0 -21 15.5 -38t38.5 -31t49.5 -24t49.5 -16q0 4 -1 6q-3 13 -7.5 40.5t-10.5 64t-13 78.5t-13 84l-11.5 80.5t-8.5 68.5q-1 2 -6 8.5t-7 6.5q-29 -107 -45.5 -194t-29.5 -134z" />
    <glyph glyph-name="afii10018" unicode="&#x411;" horiz-adv-x="1105" 
d="M321 793q-12 0 -20 2t-15 4.5t-16 4.5t-24 2q-13 0 -24.5 11.5t-11.5 25.5t18.5 24t38.5 19q14 7 22 11.5t13 8t8 5.5t8 4q4 18 5.5 33.5t3.5 27t7.5 17.5t16.5 6q10 0 13.5 -20.5t11.5 -55.5q3 0 15 -0.5t25.5 -1.5t25.5 -1.5t14 -0.5q35 0 61 0.5t51 2t53.5 2.5t68.5 3
q4 -1 10 -1h34q50 0 103.5 3.5t99.5 7t79.5 7t44.5 3.5q4 0 14.5 2.5t23 5l25 5t21.5 2.5q15 0 15 -7q0 -6 -1 -17.5t-6 -13.5q-34 -8 -61.5 -15t-53 -13t-50.5 -11l-55 -11q-21 -4 -52 -11t-70.5 -14t-86.5 -13t-101 -7q-69 -11 -130.5 -17.5t-110.5 -12.5q2 -42 6.5 -91
t9 -97t9 -90.5t7.5 -70.5q11 8 21.5 14t20.5 11q26 15 72.5 29.5t115.5 14.5q42 0 84.5 -14.5t76.5 -44.5t55.5 -76t21.5 -108q0 -74 -29.5 -135.5t-81.5 -105.5t-123 -69t-153 -25q-13 0 -25.5 1t-26.5 3q-4 -14 -8 -17t-10 -3q-14 0 -23.5 6.5t-13.5 23.5
q-146 36 -224.5 139t-78.5 274q0 27 10 57.5t25.5 56t34.5 42.5t37 18q5 -1 13 -6t8 -10q-6 -15 -18 -33t-23.5 -38t-20 -43t-8.5 -48q0 -145 64 -232.5t180 -121.5v16q0 24 -2 60.5t-5 78t-6.5 84t-6.5 77.5q-5 -18 -15.5 -26t-21.5 -8t-11 7q0 12 4.5 27t11 29.5
t13.5 27.5t13 22q-2 12 -2 21t-1 14q-3 41 -8 86.5t-10 91.5t-10 90.5t-9 84.5zM424 358q0 -32 3.5 -80.5t8 -100t8.5 -100.5t4 -81q21 -3 44 -3q51 0 109 15.5t107.5 48.5t82.5 84.5t33 123.5q0 50 -15.5 86.5t-40 60.5t-56 36t-63.5 12q-30 0 -62.5 -6t-62.5 -16.5
t-55.5 -23.5t-42.5 -26q-2 -6 -2 -12v-18z" />
    <glyph glyph-name="afii10019" unicode="&#x412;" horiz-adv-x="884" 
d="M696 16q43 -55 94 -115.5t95 -121.5t73.5 -118.5t29.5 -106.5q0 -46 -31.5 -82t-77 -60.5t-96.5 -37t-91 -12.5q-16 0 -25 3.5t-9 19.5q0 23 5.5 28t28.5 5q48 0 89.5 13.5t72.5 34t49 44t18 43.5q0 32 -17.5 71.5t-46 83.5t-63.5 89.5t-70 90t-66.5 84.5t-52.5 73
q-42 66 -66.5 107.5t-37.5 77.5t-16.5 74.5t-3.5 98.5q0 52 15.5 101t34 99t34 103.5t15.5 115.5q0 41 -14 64.5t-35 35.5t-47 15t-50 3q-30 0 -67.5 -3.5t-72.5 -8t-62.5 -9.5t-36.5 -8q43 -131 71 -235t45.5 -189.5t26.5 -155.5t14 -132.5t8 -121.5t8 -121q0 -4 0.5 -8
t0.5 -7q0 -8 -3.5 -12.5t-14.5 -4.5q-22 0 -38.5 24t-16.5 71q0 66 -6.5 140t-17.5 149t-25 149t-28 141q-33 158 -76 313q0 -2 -19.5 -8t-48 -12.5t-60 -11.5t-56.5 -5q-9 0 -21 6t-22.5 15t-17.5 20t-7 20q0 18 24.5 34.5t55.5 29.5t59 21.5t36 9.5q33 6 58.5 9.5
t54.5 5.5t67 3t95 1q54 0 108.5 -5.5t97.5 -27.5t70 -66t27 -120q0 -75 -16 -132.5t-34.5 -107.5t-34.5 -97t-16 -101q0 -61 6 -104.5t22.5 -83.5t46.5 -83.5t78 -104.5z" />
    <glyph glyph-name="afii10020" unicode="&#x413;" horiz-adv-x="1114" 
d="M572 788q3 -62 7.5 -135.5t8 -152t6.5 -158.5t3 -155q0 -30 -7 -60.5t-27 -55t-55.5 -40.5t-91.5 -16q-69 0 -133.5 18t-114.5 41q-59 26 -110 59q0 4 10 8.5t23 4.5q14 0 49.5 -11t82 -23.5t98 -23.5t96.5 -11q28 0 51.5 5t41 18t27.5 33.5t10 52.5q0 84 -1.5 154
t-6 142t-12 153.5t-18.5 188.5q-20 3 -58 3q-33 0 -77 -2.5t-90.5 -8t-91 -15t-79.5 -23t-56.5 -32t-21.5 -41.5q0 -41 27.5 -82t67 -77t82.5 -63.5t74 -41.5q19 -9 39.5 -13t37.5 -7.5t28.5 -7.5t11.5 -11q0 -9 -14 -16.5t-24 -7.5q-18 0 -45 7.5t-57.5 20.5t-62 30
t-59.5 36q-24 17 -51 40t-50.5 52t-38.5 63t-15 73q0 56 30 90t77.5 53.5t105.5 27.5t115 11.5t106.5 6t78.5 11.5q-2 6 -2 7q0 9 8.5 13.5t19.5 4.5q16 0 31 -6t15 -16v-3q134 0 271 3.5t287 20.5q4 1 7.5 1h6.5q21 0 21 -11q0 -12 -23.5 -22.5t-62.5 -19t-89 -15
t-102.5 -12t-103.5 -9t-92 -6t-68 -3.5t-31 -1q-14 0 -18 -3.5t-4 -11.5q0 -5 0.5 -11t1.5 -12z" />
    <glyph glyph-name="afii10021" unicode="&#x414;" horiz-adv-x="1200" 
d="M1218 735q-32 -44 -68.5 -83.5t-76.5 -75.5q7 -25 15 -58t14.5 -71t10.5 -78.5t4 -80.5q0 -54 -9 -103.5t-31.5 -87.5t-61 -61t-96.5 -23q-32 0 -66 7t-63.5 15.5t-50.5 17t-27 11.5q-31 -79 -65.5 -115t-82.5 -36q-23 0 -41 15.5t-31 39.5t-19.5 53t-6.5 57q0 33 8 56
t21 38t29 22t31 7q26 0 57 -13.5t71 -36.5q8 43 12.5 88.5t4.5 92.5q0 13 -0.5 25.5t-1.5 25.5q-32 -6 -65 -9.5t-66 -3.5q-103 0 -197 25.5t-166 78t-115 133.5t-43 192q0 75 29.5 147t82.5 128.5t126.5 91t162.5 34.5q67 0 132 -26t124.5 -69.5t113 -100.5t97.5 -120
t78 -127t54 -122l19 17q15 16 35 38t40.5 42.5t38.5 35t28 14.5q9 0 12 -9.5t3 -17.5q0 -14 -4 -20zM746 453q70 16 129 50.5t126 91.5q-35 99 -92 196t-130.5 174t-160.5 124.5t-183 47.5q-64 0 -123.5 -30.5t-105 -77t-73 -102t-27.5 -104.5q0 -105 40 -178.5t104.5 -120
t147 -67.5t168.5 -21q35 0 66 1.5t60 5.5q-5 37 -13.5 72t-21.5 69q-5 11 -11.5 20.5t-12.5 20t-10 23t-4 29.5q0 25 8.5 47t24.5 23l4 -1q11 -2 19 -13t14 -29q21 -62 35.5 -124t21.5 -127zM732 119q16 -8 40 -18t50.5 -19t52 -15t45.5 -6q40 0 67 18.5t43 49.5t23 72t7 85
q0 34 -3.5 69t-9 67t-13 60.5t-14.5 50.5q-61 -47 -128.5 -82t-140.5 -55q1 -8 1.5 -26t0.5 -36q0 -106 -21 -215zM562 140q-14 0 -26 -21t-12 -48q0 -17 4.5 -33.5t12.5 -29.5t19 -21.5t25 -8.5q11 0 22.5 11.5t22 29t19.5 37t16 36.5q-10 7 -24 15.5t-28.5 16t-28 12
t-22.5 4.5z" />
    <glyph glyph-name="afii10022" unicode="&#x415;" horiz-adv-x="691" 
d="M311 119q0 -35 19 -58t48.5 -37t65 -19.5t69.5 -5.5q35 0 64.5 5t45.5 10q32 11 49 18.5t19 7.5q10 0 17 -10.5t8 -17.5q1 -5 -26 -17.5t-65 -23.5q-28 -8 -64.5 -13.5t-76.5 -5.5q-44 0 -87.5 9t-78 28.5t-56 51t-21.5 77.5q0 36 25.5 71.5t64 69t83 65t83 59t64 50.5
t25.5 41q0 9 -13.5 19.5t-36 21.5t-50.5 22t-57 21t-56.5 18.5t-47.5 14.5q-23 -27 -63 -57.5t-81 -56t-76.5 -42t-50.5 -16.5q-7 0 -8 3t-1 8q0 9 4.5 17t7.5 10q32 22 62.5 39t58 34t52 36.5t45.5 46.5q-20 12 -36.5 25t-28 30.5t-17.5 39.5t-6 52q0 31 16 69t42.5 71
t60.5 55.5t71 22.5q45 0 66 -26.5t21 -68.5q0 -27 -8 -58t-22.5 -63.5t-34 -65.5t-42.5 -63q64 -19 120 -38.5t98 -39.5t66 -41t24 -44q0 -24 -26 -50t-65.5 -53t-85.5 -56t-85.5 -60t-65.5 -64t-26 -68zM241 756q0 -42 20.5 -67t46.5 -37q28 31 47 66t30.5 66.5t16.5 57
t5 39.5q0 21 -9.5 32t-20.5 11q-28 0 -53 -16.5t-43.5 -41t-29 -54t-10.5 -56.5z" />
    <glyph glyph-name="afii10024" unicode="&#x416;" horiz-adv-x="1264" 
d="M419 349q-7 -15 -21 -55.5t-28.5 -91.5t-25 -105.5t-10.5 -97.5q0 -35 11.5 -47.5t28.5 -12.5q12 0 24.5 8.5t22.5 29.5t16.5 56.5t6.5 88.5q0 8 -1.5 33.5t-4.5 58.5t-7.5 69t-11.5 66zM685 -26q18 0 22 58t4 157v25t-2 23q-4 -24 -10 -53l-12 -58t-10.5 -56t-4.5 -47
q0 -16 2.5 -32.5t10.5 -16.5zM1152 -22q-59 0 -108 21t-87.5 56.5t-67.5 83.5t-48 102.5t-28.5 111.5t-9.5 112q0 26 3 43q1 10 3 18q-2 0 -4 -2.5t-6 -17.5q-10 -35 -19.5 -70t-17 -65t-12 -51.5t-4.5 -27.5q1 -12 3 -35t4 -54t3.5 -68t1.5 -76q0 -45 -6.5 -71.5t-17 -41
t-23.5 -19t-26 -4.5q-20 0 -33.5 8t-21 21t-10.5 30.5t-3 37.5q0 16 4.5 41t14 62t23.5 87.5t33 118.5q-4 20 -8.5 57t-10.5 81t-14 89t-18 82t-23 60.5t-29 23.5q-8 0 -46 -74t-89 -219q7 -26 14.5 -60.5t13.5 -74.5t9.5 -82.5t3.5 -83.5q0 -50 -6 -95.5t-20.5 -80.5
t-39 -56t-61.5 -21q-35 0 -61 29.5t-26 84.5q0 46 8.5 98t23.5 107.5t34.5 114.5t41.5 118q-39 104 -87 167.5t-99.5 98.5t-105 46.5t-103.5 11.5q-57 0 -108.5 -20.5t-95.5 -56t-79.5 -81.5t-60 -97.5t-38 -104.5t-13.5 -102q0 -30 12 -59.5t28 -54.5t31 -43t21 -24
q5 -8 9 -17.5t4 -17.5q0 -9 -5.5 -16t-18.5 -7q-40 0 -68 20.5t-45.5 53.5t-25.5 76t-8 88q0 93 35 187t98 169.5t151 123t193 47.5q63 0 123.5 -19.5t114 -59t97.5 -98.5t75 -138q31 70 55 124t44 90.5t39 55t41 18.5q29 0 49.5 -31t35 -81.5t25.5 -115t20 -130.5
q34 109 63.5 186.5t56 130t51 83t49 46t50.5 20t55 4.5q28 0 54 -15t48.5 -40t41 -56.5t32 -65.5t20.5 -66.5t7 -59.5q0 -32 -14 -57.5t-45 -25.5q-17 0 -21.5 19.5t-4.5 43.5q0 23 1.5 45t1.5 31q-5 37 -18.5 70t-31.5 58t-40 40t-43 15q-38 0 -72.5 -20.5t-60 -62.5
t-40.5 -106.5t-15 -152.5q0 -47 7.5 -101t23 -106.5t40.5 -100.5t60.5 -84.5t81.5 -58.5t105 -22q44 0 65.5 8.5t26.5 8.5q12 0 18 -9t6 -16t-4 -8q-24 -13 -57 -20t-75 -7z" />
    <glyph glyph-name="afii10025" unicode="&#x417;" horiz-adv-x="979" 
d="M950 312q0 -7 -14 -12.5t-35.5 -10.5t-48.5 -10.5t-53 -12.5q34 -43 57 -101t23 -132q0 -50 -16 -105.5t-49 -102.5t-84.5 -78t-122.5 -31q-40 0 -77.5 15t-71 39.5t-61.5 56.5t-48.5 65.5t-32 66t-11.5 58.5q0 37 16.5 69.5t45.5 60.5t67 52t81 43t88.5 33.5t88.5 23.5
q-53 47 -115 74.5t-135 27.5q-12 0 -24 -1t-24 -1q-22 0 -28 5t-6 19q0 6 3 11.5t13 8.5q19 5 48.5 18t62.5 32t66 43t59.5 53t43 61.5t16.5 67.5q0 27 -12 45t-32.5 29.5t-48.5 16.5t-60 5q-40 0 -88.5 -7.5t-97.5 -22.5t-95 -37.5t-81 -53t-56.5 -69t-21.5 -85.5v-16
t2 -16q-11 -8 -21 -8q-17 0 -30 19t-13 42q0 55 23 100t61.5 80t89 61t104 43t107.5 25t100 8q44 0 85.5 -8t73.5 -26.5t51.5 -49t19.5 -75.5q0 -41 -20.5 -80.5t-51.5 -74.5t-67 -64t-66 -50q61 -17 118.5 -52.5t111.5 -84.5q10 3 29.5 5t41 3.5t42 2.5t32.5 1
q21 0 34.5 -2.5t13.5 -9.5zM820 32q0 49 -18 104.5t-66 118.5q-74 -16 -139.5 -38t-115 -52t-78 -69.5t-28.5 -90.5q0 -41 24 -82.5t60 -75.5t78.5 -55.5t80.5 -21.5q46 0 83.5 24t63.5 62t40.5 84.5t14.5 91.5z" />
    <glyph glyph-name="afii10026" unicode="&#x418;" horiz-adv-x="760" 
d="M586 333q0 58 -1.5 114.5t-3 102.5t-2.5 77t-1 39q-12 -43 -28 -93q-14 -44 -33 -101.5t-42 -125.5q-19 -55 -34 -96t-28 -75t-25 -63.5t-25.5 -59.5t-29 -65t-34.5 -79q-4 -9 -11 -14.5t-14 -7.5t-13 -2.5t-9 -0.5q-18 0 -30 15.5t-20.5 38t-13.5 47t-8 42.5
q-11 66 -20.5 146.5t-17 168t-14.5 179t-12.5 179.5t-10 169.5t-8.5 149.5q0 4 -0.5 7t-0.5 7q0 33 10 52t30 19q18 0 23 -18t5 -38q0 -7 -0.5 -21.5t-0.5 -40.5q0 -35 3 -106.5t8 -162.5t12 -193t15 -197t17 -175t18 -127q0 -7 2.5 -15.5t6 -16t9 -12.5t11.5 -5q4 0 21 36
t40 91.5t49 123t49.5 129.5t41 111.5t23.5 69.5q13 42 25 85t21 77.5t15 56.5t7 22q4 16 7 37.5t7 41t10 33t17 13.5q1 0 11 -1.5t10 -8.5q7 -142 10 -304t8 -323q0 -15 2 -35t5 -42t7 -43.5t10 -38.5q12 -38 19 -63t7 -42q0 -23 -7.5 -30t-18.5 -7q-5 0 -17 21t-25 65.5
t-22.5 114.5t-10.5 168z" />
    <glyph glyph-name="afii10027" unicode="&#x419;" horiz-adv-x="891" 
d="M652 1132q4 3 7 2q9 -1 11 -12t0 -25q-5 -31 -19.5 -51t-34 -30.5t-41.5 -13.5t-40 0q-28 4 -58.5 19t-55 35t-39 43.5t-11.5 45.5q1 5 6 9t12 3q8 -1 19 -12q14 -14 25.5 -28t25 -25t30.5 -19.5t43 -12.5q13 -2 28 -2.5t28 3.5t23.5 13.5t16.5 27.5q7 21 24 30zM706 333
q0 58 -3 108t-6.5 88.5t-6 63.5t-2.5 33q-13 -29 -26.5 -76t-28 -104.5t-30.5 -121.5t-34.5 -126.5t-39 -119.5t-44.5 -100.5t-52 -69t-61 -25.5q-18 0 -30 15.5t-20.5 38t-13.5 47t-8 42.5q-17 99 -29.5 216t-22.5 237.5t-17.5 238.5t-13.5 220q0 4 -0.5 7t-0.5 7
q0 33 10 52t30 19q18 0 23 -18t5 -38q0 -7 -0.5 -21.5t-0.5 -40.5q0 -35 3 -100.5t8 -148t12 -174t15 -177.5t17 -160t18 -121q0 -7 2.5 -15.5t6 -16t9 -12.5t11.5 -5q17 0 37 31t41.5 81.5t44 116t43.5 134.5t40.5 136.5t35 123t26 93t14.5 46.5q4 16 7 37.5t7 41t10 33
t17 13.5q1 0 11 -1.5t10 -8.5q7 -141 15 -284t13 -303q0 -15 2 -35t5 -42t7 -43.5t10 -38.5q12 -38 19 -63t7 -42q0 -23 -7.5 -30t-18.5 -7q-5 0 -17 21t-25 65.5t-22.5 114.5t-10.5 168z" />
    <glyph glyph-name="afii10028" unicode="&#x41a;" horiz-adv-x="1090" 
d="M1021 -13q-56 0 -102 30.5t-84 77.5t-69 102t-56.5 104.5t-46.5 85t-38 42.5q-19 8 -40 8q-16 0 -34 -4t-33 -13t-24.5 -22.5t-9.5 -31.5q0 -5 1 -7q2 -5 6.5 -36.5t9 -71t8 -78t3.5 -59.5q0 -26 -3 -51.5t-11.5 -46t-23 -33.5t-38.5 -13q-22 0 -47 18t-46.5 43.5
t-36 54.5t-14.5 50q0 14 5 14q2 0 7.5 -1.5t14.5 -1.5q8 0 19.5 -19t27 -41.5t34.5 -41t42 -18.5q7 0 12.5 8t8.5 19.5t4.5 24.5t1.5 24v9q-5 95 -28 181t-52.5 169t-58.5 166t-47 172q-4 17 -14.5 23.5t-30.5 6.5q-29 0 -70.5 -8t-85.5 -8q-26 0 -51 7t-45 20.5t-32.5 33
t-12.5 44.5q0 6 1 16.5t4 21t8.5 18.5t15.5 8q13 0 27.5 -13t31 -29t35.5 -29t42 -13q21 0 44 3.5t45 8t42.5 8.5t38.5 4q20 0 31 -1t16.5 -5t6.5 -13t1 -25v-22.5t2 -29.5q4 -18 11.5 -48t17 -64.5t20.5 -70.5t21.5 -66t20.5 -50.5t18 -23.5q13 -5 22 -5q13 0 26 6t29 13
t36 13t48 6q8 0 15.5 -1t15.5 -1q15 0 34 25.5t40.5 72t45 111.5t47.5 145q7 25 15 49.5t17 43.5t20.5 31t25.5 12q27 0 27 -17q0 -18 -8 -35t-18 -33.5t-19 -31t-12 -26.5q-19 -86 -44.5 -152t-48.5 -113.5t-40 -78t-18 -46.5q-1 -2 -1 -9q0 -19 15 -63.5t43.5 -101.5
t71 -119t96.5 -116q21 -21 47 -37.5t61 -16.5q23 0 39 3.5t27 3.5t13.5 -7.5t2.5 -15.5t-10.5 -13t-25 -8t-30 -4t-26.5 -1z" />
    <glyph glyph-name="afii10029" unicode="&#x41b;" horiz-adv-x="1243" 
d="M1183 -25q-19 -4 -36 -6t-34 -2q-65 0 -113 28t-82.5 75t-57 109t-37.5 129.5t-24 137t-16 131.5h-15q-12 -59 -39 -127.5t-66 -136.5t-89.5 -130.5t-109.5 -110.5t-125 -77t-136 -29q-69 0 -108.5 29t-39.5 80q0 16 3 32.5t9 29.5t15 21t21 8t25.5 -4t25 -11.5t19 -17
t7.5 -19.5t-9 -24t-9 -31q0 -15 4 -22.5t11 -11.5t15 -4.5t17 -0.5q13 0 25 2t25 5q75 18 141 64t120.5 111t97 143.5t72 160t45 161.5t15.5 149v12q0 17 0.5 49t4 63.5t11 54.5t20.5 23q22 0 29 -42t10 -113.5t6.5 -166t18.5 -198.5q13 -92 32.5 -179t51 -154.5t78.5 -109
t116 -41.5q26 0 49.5 5.5t58.5 18.5q2 0 3 0.5t3 0.5q9 0 17 -7.5t8 -15.5t-7 -14t-19 -11t-27 -9t-31 -7z" />
    <glyph glyph-name="afii10030" unicode="&#x41c;" horiz-adv-x="1122" 
d="M1065 27q16 0 35.5 6.5t23.5 6.5q9 0 16.5 -10.5t7.5 -18.5q0 -4 -9 -8.5t-22.5 -9t-29 -7.5t-29.5 -3q-54 0 -92.5 27t-65.5 72t-44 103.5t-27 121t-15.5 124.5t-9.5 114l-2 26l-3 2q-5 0 -13 -23t-19 -61.5t-25 -87t-31 -99t-36.5 -99t-41.5 -87t-47 -61.5t-52 -23
q-16 0 -31 29t-28 77t-24 109.5t-20.5 126.5t-16.5 128t-12 114t-7.5 84t-2.5 39q-12 -46 -24.5 -111t-25.5 -141t-27 -158t-29.5 -160.5t-33 -148.5t-37.5 -123.5t-43 -84.5t-49 -31q-25 0 -50.5 22t-49.5 53.5t-46 67t-39 63.5q-8 12 -18 28t-19.5 32t-16 30.5t-6.5 24.5
q0 9 5.5 15.5t17.5 6.5q14 0 26.5 -10.5t23.5 -27.5t21 -37.5t19 -40.5q3 -8 17 -33.5t32 -53t38.5 -49t37.5 -21.5q18 0 36 39t36.5 104.5t36.5 150t35 176t33 182.5t30 168.5t26 136t21 83.5q0 7 1 21.5t5 28t12 24t22 10.5q17 0 20 -9.5t3 -29.5q0 -5 1 -17.5t1.5 -27
t1.5 -27t1 -17.5q0 -13 3 -51.5t7.5 -93t11.5 -119.5t15 -131t17 -128t19 -109.5t19.5 -76.5t18.5 -29q19 0 42 40.5t47.5 106t49.5 147.5t48 165t42 159.5t33 130.5l17 68q3 8 13 8q11 0 23.5 -8.5t12.5 -28.5l-6 -32q-6 -29 -9.5 -76.5t-3.5 -95.5q0 -32 2 -94t8.5 -136
t20 -151.5t36.5 -140.5t57 -103.5t83 -40.5z" />
    <glyph glyph-name="afii10031" unicode="&#x41d;" horiz-adv-x="1240" 
d="M1147 -22q-62 0 -112.5 30t-91 75.5t-70 99.5t-50 103t-31 86t-12.5 47q-19 -13 -27 -18.5t-13.5 -9t-12 -8t-22.5 -15.5q4 -18 12 -50t16.5 -68.5t14.5 -73.5t6 -64q0 -68 -30.5 -100t-97.5 -32q-19 0 -52.5 3.5t-73 10.5t-80 16.5t-73.5 21.5t-54 26.5t-21 31.5
q0 23 21 50.5t51.5 54.5t65 51.5t62.5 42.5q13 8 38.5 23.5t52.5 32t51 31t33 20.5q-2 6 -9.5 34t-18 69t-22.5 89.5t-23.5 95.5t-21.5 87.5t-15 66.5l-23 -7.5t-58.5 -17t-78.5 -17t-83 -7.5q-20 0 -55.5 6t-77.5 16.5t-84.5 23.5t-77.5 28t-57 30.5t-22 29.5t6.5 22
t17.5 11.5t25 4.5t29 1q25 0 63 -10t92.5 -21.5t127.5 -21.5t168 -10q29 0 49 10.5t34 26t25 33.5t22 33.5t25 26t34 10.5t23.5 -5.5t3.5 -27.5q0 -34 -22 -66t-48 -63q5 -42 12.5 -89t18 -102.5t25 -122t35.5 -145.5q20 15 27 19t11.5 6.5t12.5 7.5t30 22q-4 20 -5 40.5
t-1 40.5q0 64 18.5 124t55 106.5t91.5 75t128 28.5q44 0 70.5 -11.5t26.5 -47.5q0 -35 -23 -77t-58 -84t-76 -81t-77 -69.5t-61.5 -48.5t-29.5 -18q0 -15 10 -52.5t28.5 -85.5t47 -99.5t65 -94.5t82.5 -70.5t100 -27.5q35 0 55.5 9.5t25.5 9.5q8 0 16 -9.5t8 -17.5
q0 -9 -15 -15.5t-35 -11t-39 -6.5t-28 -2zM603 26q56 0 80 22t24 64v10.5t-1 11.5q-8 60 -17 112.5t-25 99.5q-25 -13 -69 -37.5t-91.5 -55t-90 -65t-65.5 -67.5q-4 -4 -4 -10q0 -13 25.5 -28t64 -27.5t84 -21t85.5 -8.5zM1062 842q-63 0 -110 -27t-77.5 -71t-46 -100
t-15.5 -115q0 -6 0.5 -12t2.5 -11q37 28 63.5 47.5t50 40t48 47t57.5 67.5q60 74 60 109q0 25 -33 25z" />
    <glyph glyph-name="afii10032" unicode="&#x41e;" horiz-adv-x="838" 
d="M445 -117q-51 0 -108 40t-104.5 121.5t-79 206.5t-31.5 296q0 53 6.5 114t18 113t27.5 86.5t35 34.5q8 0 15.5 -7.5t7.5 -19.5q0 -27 -4 -48.5t-10 -41.5t-13 -41t-13 -48t-10 -61.5t-4 -82.5q0 -129 22 -240t59 -192t85 -127t100 -46q37 0 67.5 24.5t53 72t35 116
t12.5 157.5q0 68 -13.5 151.5t-38 171.5t-59 175t-76.5 162q-9 17 -18 35.5t-15.5 36t-10.5 32.5t-4 26q0 13 6 20.5t13.5 11.5t15 5t10.5 1q15 0 24 -10.5t15 -26t10 -34.5t9.5 -36t14 -30.5t23.5 -17.5q8 -3 16.5 -3.5t16.5 -0.5q35 0 73.5 14t70.5 31t54 31.5t24 15.5
q7 3 15 3q13 0 21.5 -6.5t8.5 -13.5q0 -5 -26 -25.5t-66 -43.5t-86.5 -41.5t-88.5 -18.5q-7 0 -18 2t-17 4q33 -85 61.5 -167.5t49.5 -162.5t33 -158.5t12 -154.5q0 -86 -14 -160t-42.5 -128.5t-71 -85.5t-99.5 -31z" />
    <glyph glyph-name="afii10033" unicode="&#x41f;" horiz-adv-x="981" 
d="M851 10q17 0 30.5 1.5t27 5t29 8.5t36.5 13q2 0 3 0.5t3 0.5q9 0 17 -7.5t8 -15.5q0 -14 -22 -23t-49 -14.5t-52 -8t-31 -2.5q-57 0 -96 33.5t-65 90.5t-41 132t-25 158.5t-17.5 169.5t-17.5 165l-24.5 -3t-61.5 -6.5t-80 -6.5t-79 -3q1 -57 11 -141t22 -176.5
t21.5 -183.5t9.5 -163t-12.5 -112.5t-46.5 -40.5q-20 0 -42.5 11t-45.5 27.5t-44 35.5t-38 35l-5 5q-9 8 -23 19.5t-27.5 23.5t-23 24.5t-9.5 21.5q0 6 5 11.5t17 5.5q10 0 21.5 -6.5t23 -17t23 -23t22.5 -24.5q5 -6 20.5 -21.5t35.5 -32t40.5 -29t35.5 -12.5q28 0 28 85
q0 43 -5.5 107t-14 136t-19 145t-20 135t-17 106.5t-9.5 58.5q-37 7 -84 11t-89 7.5t-71 10t-29 20.5q0 13 7 30t17.5 32t23 25.5t23.5 10.5q20 0 51.5 -8t74 -17.5t97.5 -17.5t121 -8q21 0 43.5 1.5t46.5 1.5q54 0 92.5 3.5t68.5 7.5t55 7.5t52 3.5q19 0 22 -5t3 -25
q0 -15 -20 -24.5t-46 -17t-52 -15.5t-38 -22q0 -103 8 -200.5t18 -186.5q6 -60 20 -118t35.5 -103.5t52 -73.5t70.5 -28z" />
    <glyph glyph-name="afii10034" unicode="&#x420;" horiz-adv-x="787" 
d="M413 125q-11 49 -17 87.5t-11.5 76t-12 77t-17.5 90.5q-12 56 -25.5 118t-16.5 122q1 8 5 14q3 5 7.5 10t11.5 5q11 0 21 -30t20.5 -81.5t21.5 -119t23 -142t26 -152t30 -147.5q12 -53 24.5 -92.5t12.5 -72.5q0 -8 -7.5 -15.5t-15.5 -7.5q-4 0 -7 3q-13 11 -21 29t-15 48
t-15.5 73.5t-21.5 106.5zM568 377q-35 7 -35 21q0 6 6 14q25 33 47.5 75t39.5 83t26.5 77.5t9.5 59.5q0 43 -12 76.5t-46.5 56t-97 34t-163.5 11.5q-41 0 -77.5 -4.5t-75.5 -11t-86 -13t-109 -10.5h-9q-38 0 -52.5 15t-14.5 32q0 11 4 19q6 14 31 26.5t60.5 22.5t76.5 18
t79.5 13t70 8t47.5 3q39 0 70 3t63 3q31 0 67 -5.5t86 -21.5q49 -16 79 -42t46.5 -58t22 -68t5.5 -72q0 -32 -10 -78.5t-26.5 -94.5t-38 -90.5t-43.5 -66.5q-11 -11 -18.5 -18t-12.5 -11q-6 -4 -10 -6z" />
    <glyph glyph-name="afii10035" unicode="&#x421;" horiz-adv-x="683" 
d="M548 11q16 0 31.5 1t32.5 5q33 7 51.5 15t20.5 8q11 0 18 -11.5t7 -16.5q0 -6 -23.5 -17t-57.5 -19q-24 -6 -49.5 -8.5t-38.5 -2.5q-113 0 -199 47.5t-143.5 130t-86.5 192.5t-29 235q0 61 8.5 129t25.5 135t42.5 128t58.5 107.5t74.5 74t90.5 27.5q33 0 61 -21t51 -57
t41 -85.5t30 -106t18.5 -118.5t6.5 -123q0 -78 -10.5 -151t-33 -129t-57 -89.5t-81.5 -33.5q-27 0 -48 18.5t-36 47.5t-25.5 65t-16.5 71.5t-8.5 66t-2.5 48.5q0 12 0.5 25t3 24t7.5 18.5t13 7.5q7 0 13.5 -14.5t12 -36t8.5 -45t3 -41.5q0 -16 5 -47t15 -62t25 -54.5
t34 -23.5q32 0 55.5 28t39.5 74.5t23.5 107t7.5 125.5q0 78 -10.5 155.5t-31.5 139.5t-52 100.5t-71 38.5q-38 0 -69.5 -26t-57.5 -69t-45.5 -99.5t-32.5 -116.5t-19.5 -120t-6.5 -111q0 -61 10.5 -125t32 -124.5t54.5 -113.5t78.5 -92.5t103 -62.5t128.5 -23z" />
    <glyph glyph-name="afii10036" unicode="&#x422;" horiz-adv-x="749" 
d="M-100 916q0 15 7 24.5t19.5 14.5t29.5 6.5t37 1.5q24 0 78 -4t123 -8.5t146 -8.5t146 -4q11 0 43.5 3.5t73 7.5t84 7.5t77.5 3.5q21 0 46 -1t47 -3.5t36.5 -6t15.5 -9.5q0 -10 -27.5 -21.5t-72.5 -22.5t-102.5 -21.5t-117.5 -19.5t-117.5 -15.5t-101.5 -9.5
q-20 -2 -67.5 -4.5t-106.5 -2.5q-50 0 -101.5 3.5t-94 13.5t-70.5 28.5t-30 47.5zM456 -19q-12 54 -33.5 131.5t-42.5 167t-36.5 185t-15.5 184.5q0 22 1.5 47t5.5 46.5t9.5 36t14.5 14.5q10 0 19.5 -4.5t9.5 -12.5q0 -44 1 -97.5t5 -113.5t12.5 -124t22.5 -128
q4 -17 13.5 -51t21.5 -76.5t25 -88.5t24 -87.5t18 -73.5t7 -46q0 -8 -4.5 -10.5t-10.5 -2.5q-7 0 -14.5 3t-15 14t-15.5 31.5t-16 55.5h-6z" />
    <glyph glyph-name="afii10037" unicode="&#x423;" horiz-adv-x="1100" 
d="M793 394q9 -54 18 -108.5t9 -104.5q0 -76 -14.5 -132.5t-40 -94t-62 -56.5t-79.5 -19q-32 0 -66 6.5t-66 17.5t-60 25.5t-48 29.5q-3 2 -15.5 13.5t-26.5 26.5t-25 31t-11 28q0 6 3.5 10t6.5 4q10 0 25 -9.5t30 -21.5q22 -18 49.5 -36.5t58.5 -33.5t64 -24.5t65 -9.5
q45 0 74.5 21.5t47.5 58t25 84t7 99.5t-6 97t-16 87q-27 -3 -50 -3q-87 0 -144 30t-93 78t-54.5 107.5t-26.5 118.5q-8 52 -12 93.5t-11.5 70t-21 44t-39.5 15.5q-44 0 -77 -18t-58 -47t-44.5 -65.5t-36.5 -72.5q-10 -21 -23.5 -48.5t-27 -52.5t-24.5 -42t-16 -18
q-5 0 -6 10.5t-1 18.5q0 11 1 12q21 116 65.5 194.5t94 126.5t96.5 68.5t74 20.5q37 0 58 -25t33.5 -66.5t19.5 -94t15.5 -107.5t21.5 -107.5t37 -94t62.5 -66.5t97.5 -25q17 0 37.5 2.5t37.5 7.5q-4 17 -7.5 34.5t-8.5 35.5q-10 37 -20.5 82t-18.5 93t-13.5 97.5t-5.5 97.5
q0 54 8 102t28.5 83t54.5 55.5t86 20.5q49 0 100.5 -22.5t94 -67.5t69.5 -113t27 -160q0 -79 -23.5 -144t-66.5 -114.5t-102.5 -82.5t-131.5 -48zM783 448q53 11 104 40t91.5 72t65.5 97.5t25 117.5q0 75 -21 128.5t-54 87t-72.5 49t-75.5 15.5q-40 0 -67.5 -12.5
t-44.5 -35.5t-24.5 -56t-7.5 -75q0 -58 11 -124t24.5 -126t26 -107.5t15.5 -67.5z" />
    <glyph glyph-name="afii10038" unicode="&#x424;" horiz-adv-x="1065" 
d="M700 680q11 -59 21.5 -131.5t24.5 -148.5q37 15 64 39.5t44 54t25 61t8 60.5q0 45 -16 87t-44 78.5t-65.5 66t-80.5 49.5q0 -14 1.5 -39.5t3.5 -56.5t5.5 -62.5t8.5 -57.5zM729 156q-1 4 -3.5 19t-6.5 38.5t-9 53.5t-11 64q-22 -5 -39.5 -8t-35 -5.5t-36.5 -3.5t-44 -1
q-67 0 -132.5 17t-117.5 53.5t-84 94.5t-32 140q0 31 12 60.5t33.5 51.5t51 35.5t64.5 13.5q37 0 82.5 -21t85.5 -56t67.5 -81.5t27.5 -98.5q0 -17 -11.5 -24.5t-20.5 -7.5q-8 0 -8 5q0 8 -7 25t-16 34.5t-17.5 32t-11.5 18.5q-44 54 -86 86.5t-88 32.5q-19 0 -36.5 -7
t-31 -21.5t-22 -36.5t-8.5 -51q0 -66 24 -112.5t64.5 -76t94.5 -43t113 -13.5q26 0 43.5 0.5t33.5 3t34 6.5t46 10q-12 75 -22 153.5t-18 150.5t-13 132l-8 96q-59 19 -124 29.5t-133 10.5q-84 0 -165 -18.5t-151 -59.5q-37 -21 -64 -43t-47 -41t-33.5 -34.5t-22.5 -23.5
q-11 -9 -20 -22.5t-14 -13.5q-8 0 -16 9t-10 18q0 14 7 28.5t16 28.5t29 36.5t45 43.5q48 42 106 73.5t118.5 53.5t119.5 33t108 11q65 0 127.5 -9t120.5 -27v31q0 38 3.5 55t9.5 18h4q10 0 17.5 -3.5t11.5 -16t6 -37t2 -66.5q55 -20 105.5 -58.5t88 -88t60 -105.5
t22.5 -110q0 -38 -11.5 -77.5t-35.5 -75.5t-62 -66.5t-92 -50.5q19 -106 32 -203t13 -169q0 -7 -8.5 -12t-19.5 -5t-16 14t-8.5 40t-7.5 62.5t-12 81.5z" />
    <glyph glyph-name="afii10039" unicode="&#x425;" horiz-adv-x="832" 
d="M402 431q29 50 59 108.5t55 119t40.5 121.5t15.5 117q0 19 -2.5 36t-2.5 33q0 8 5.5 15t12.5 11.5t13.5 7t8.5 2.5q9 0 16 -14t11.5 -32t6.5 -35.5t2 -24.5q0 -38 -10 -82.5t-25.5 -88.5t-33.5 -85.5t-33.5 -74t-26.5 -53t-12 -23.5q-14 -33 -35 -66.5t-38 -62.5
q15 -37 33 -76t43 -79t56.5 -79.5t73.5 -76.5q27 -24 53 -38t45.5 -21.5t31.5 -11.5t12 -10q0 -5 -4 -12t-13 -11q-71 0 -129.5 34t-105 86t-81.5 114.5t-59 118.5q-27 -48 -63 -97.5t-72.5 -93.5t-69 -79t-53.5 -54l-21.5 -21.5t-13 -11t-12 -5.5t-18.5 -3q-11 0 -14.5 6.5
t-3.5 17.5q0 22 16 35t34 31q71 72 139 155.5t127 184.5q-5 17 -10.5 31.5t-10.5 25.5q-59 144 -102.5 232t-73 137.5t-44 70.5t-14.5 31q0 3 5.5 12.5t17.5 9.5q26 0 57 -37t65.5 -100.5t71.5 -148t74 -178.5z" />
    <glyph glyph-name="afii10040" unicode="&#x426;" horiz-adv-x="1110" 
d="M1015 -350q-2 -48 -18 -67.5t-39 -19.5q-22 0 -46.5 14.5t-47.5 37.5q-17 18 -32.5 40.5t-27.5 47t-19 50t-7 49.5q0 43 19.5 74t50.5 54t70 40t78 32q13 5 19 5q15 0 15 -14q0 -11 -10.5 -25.5t-27.5 -20.5q-12 -4 -20.5 -7t-16 -6.5t-15.5 -7t-19 -9.5q-33 -17 -59 -46
t-26 -71q0 -33 12.5 -65.5t30 -58.5t36 -42.5t29.5 -16.5q10 0 14.5 9.5t4.5 26.5q0 29 -11.5 67t-28.5 80q-18 44 -36 69t-35 40.5t-33.5 25.5t-32.5 24.5t-32 38t-31 66.5q-20 57 -28 131t-8 156q0 81 4.5 161.5t6.5 152.5q-1 -3 -8.5 -28.5t-21 -68t-32.5 -99.5l-41 -123
q-10 -28 -23.5 -73t-30.5 -96.5t-36.5 -103.5t-41 -94.5t-45 -69t-46.5 -26.5q-18 0 -30 15.5t-20.5 38t-13.5 47t-8 42.5q-11 66 -20.5 146.5t-17 168t-14.5 179t-12.5 179.5t-10 169.5t-8.5 149.5q0 4 -0.5 7t-0.5 7q0 33 10 52t30 19q18 0 23 -18t5 -38q0 -7 -0.5 -21.5
t-0.5 -40.5q0 -35 3 -106.5t8 -162.5t12 -193t15 -197t17 -175t18 -127q0 -7 2.5 -15.5t6 -16t9 -12.5t11.5 -5q4 0 12 9t19.5 32.5t28.5 63.5t39.5 102.5t51.5 149.5t66 204q10 32 20.5 75t21 88t21.5 89t22.5 78.5t24 55.5t25.5 21q12 0 12 -31q0 -20 -1.5 -67t-3 -109.5
t-3 -135t-1.5 -142.5q0 -54 1.5 -107.5t5.5 -102.5t12 -92.5t20 -77.5q13 -35 27 -55.5t29 -34t31 -24.5t33 -27.5t34.5 -42.5t36.5 -69q20 -48 32.5 -92t12.5 -83z" />
    <glyph glyph-name="afii10041" unicode="&#x427;" horiz-adv-x="1036" 
d="M782 127q0 -18 2.5 -30t7.5 -24q15 -35 46.5 -47.5t67.5 -12.5q49 0 106 17q11 4 17 7t8 3q9 0 17 -10t8 -18q0 -5 -16 -13t-43 -14q-25 -5 -54.5 -10t-60.5 -5q-23 0 -44.5 3.5t-41 12.5t-35 24.5t-25.5 38.5q-9 20 -13 43.5t-4 58.5q0 37 13 87.5t32 108t42 119t42 121
t32 113.5t13 98q0 29 -10 41.5t-28 12.5q-20 0 -47 -11.5t-59 -28.5t-68 -37t-72.5 -37t-72.5 -28.5t-68 -11.5q-65 0 -122 27t-99 76.5t-66 118.5t-24 152q0 24 11.5 36.5t21.5 12.5q8 0 10 -8q21 -98 47.5 -163t58 -104t67 -55t73.5 -16q43 0 89 16.5t92.5 40t92 48.5
t87.5 43q36 14 62 14q38 0 59.5 -29t21.5 -95q0 -84 -27 -173t-60 -177t-60 -173.5t-27 -162.5z" />
    <glyph glyph-name="afii10042" unicode="&#x428;" horiz-adv-x="1453" 
d="M770 768q-11 -36 -22.5 -97.5t-24.5 -136.5t-27.5 -159t-31.5 -166t-37 -156.5t-44 -131.5t-52.5 -91t-62.5 -34q-25 0 -45.5 23t-36.5 63t-28 93.5t-21 114.5t-15 127t-10.5 130t-8 123.5t-5.5 107.5q-4 81 -7.5 156.5t-7 140.5t-7 116.5t-7.5 83.5q0 2 -0.5 3t-0.5 3
q0 17 14 17q6 0 16 -3t20 -10t17.5 -19.5t7.5 -30.5q0 -152 3 -301t17 -309q5 -60 10 -126t11 -129.5t13.5 -120.5t18.5 -100.5t25.5 -69t33.5 -25.5q22 0 44 45.5t43.5 119.5t42.5 169t40 193.5t36.5 193.5t33 169t28 119.5t21.5 45.5q34 0 49 -51t15 -133q0 -5 -0.5 -32
t-0.5 -70q0 -54 1 -127.5t5 -151.5t10.5 -154.5t18 -136.5t27.5 -97t39 -37q32 0 76 126q18 50 35 121t33 148.5t31.5 154t31 137.5t31 98.5t30.5 37.5q10 0 16 -7.5t9.5 -20.5t5 -29t1.5 -34q0 -35 1 -95.5t5.5 -130.5t14 -142t27 -130t44.5 -95t66 -37q7 0 17 3t19.5 6
t17.5 6t12 3q9 0 17 -7.5t8 -15.5q0 -9 -11.5 -17t-28 -14t-34.5 -9.5t-31 -3.5q-51 0 -84 32t-54 83.5t-31.5 117.5t-15.5 133.5t-7.5 131t-5.5 110.5q-6 -17 -13 -52t-15 -81t-18 -100t-21.5 -109t-25 -108t-29.5 -97q-35 -94 -66.5 -138t-59.5 -44q-36 0 -60.5 36.5
t-40 97t-23.5 138.5t-12 161t-4.5 164t-1.5 148t-4 113t-10 59z" />
    <glyph glyph-name="afii10043" unicode="&#x429;" horiz-adv-x="1559" 
d="M1280 -126q-39 0 -70 37.5t-56 99t-44 139.5t-33.5 160t-26 160t-20.5 139.5t-16.5 99t-15.5 37.5q-8 1 -17 -34t-20 -92.5t-24.5 -131.5t-30.5 -151t-36.5 -151t-43 -131.5t-51.5 -93t-60 -35.5q-29 0 -50.5 32t-38 85.5t-27.5 123t-19 143.5t-13 147.5t-9 136t-6.5 108
t-6.5 63.5q-6 -29 -16 -78.5t-24 -110.5t-31.5 -128.5t-38.5 -134t-46 -126.5t-53 -106t-59.5 -73.5t-66.5 -27.5q-41 0 -68.5 43.5t-44.5 116t-24 166.5t-7 195q0 79 2.5 159t7 155t10 141t12.5 116t15 80.5t16 34.5q6 3 12 3q2 0 7 -1t11 -6.5t12 -15.5t9 -28
q0 -3 -3.5 -32t-9 -78t-12.5 -114.5t-12.5 -142t-9.5 -159.5t-4 -167q0 -81 3.5 -153.5t13 -127.5t26.5 -87t44 -32q26 0 51.5 30.5t50 82t46.5 119t42 140.5t36.5 146.5t29.5 138.5t22 115.5t13 76.5q2 13 5 35.5t7.5 44.5t11 38t15.5 16q8 0 14 -2t10.5 -10.5t8 -25.5
t6.5 -46q4 -38 8.5 -99t10 -135t12 -156t14.5 -162t17 -152.5t19.5 -128t22.5 -88t26 -32.5q21 0 41 39.5t39 104.5t37.5 148t36.5 170t36 170t36 148t36 105t36 41q5 -2 9 -6q9 -8 12 -14q15 -55 28 -125.5t25.5 -148.5t25 -159t25.5 -157t28 -143t31.5 -117.5t36.5 -79.5
t43 -29q15 0 30.5 13.5t30.5 34.5t29 44.5t26.5 44.5t23 34.5t19.5 13.5q6 0 12 -7.5t6 -21.5q0 -16 -4.5 -38.5t-10 -47t-10 -50.5t-4.5 -48q0 -31 10.5 -53.5t26.5 -40t34.5 -33t34.5 -32.5t26.5 -37t10.5 -47q0 -41 -15 -78.5t-36 -66t-43 -45.5t-36 -17q-7 0 -7 14
q0 18 11 35.5t24.5 37t25 43.5t11.5 54q0 28 -10 50t-25.5 40.5t-33.5 36t-33.5 37t-25.5 43.5t-10 56q0 14 0.5 27t1.5 21q-4 -9 -13 -22.5t-21.5 -27t-26 -23t-26.5 -9.5z" />
    <glyph glyph-name="afii10044" unicode="&#x42a;" horiz-adv-x="848" 
d="M400 277q1 -67 23.5 -111t55 -70.5t71 -37.5t71.5 -11q22 0 47 6.5t46 20.5t34.5 36t13.5 52q0 41 -26.5 79t-68.5 67t-94.5 46t-104.5 17q-23 0 -43.5 -2t-24.5 -4v-88v0zM292 867q-18 0 -38.5 -3t-39.5 -7t-34 -8.5t-22 -7.5q-14 -6 -28.5 -21t-28.5 -29l-10 -10
q-14 -14 -25.5 -25t-22.5 -10q-9 0 -14.5 7.5t-8.5 18t-4 21.5t-1 17q0 27 17 47t41 33.5t49 21t41 8.5q23 1 47.5 6.5t47.5 11t44 10t37 4.5q26 0 37.5 -31.5t11.5 -78.5q0 -66 5.5 -146.5t5.5 -177.5v-39.5t-1 -40.5l47 1q27 1 64.5 -5.5t79 -20.5t82 -37t72.5 -56.5
t52 -78.5t20 -102q0 -34 -17.5 -61t-46 -46.5t-65.5 -30t-75 -10.5q-72 0 -123 26.5t-84.5 74.5t-50 114t-18.5 145l-41 -17q-3 -1 -8.5 -3.5t-8.5 -4.5l-11 -5q-11 -5 -21.5 -9.5t-15.5 -4.5q-6 0 -8.5 5.5t-2.5 22.5q0 22 14 35.5t33.5 23t40 16.5t34.5 15l3 56
q1 8 1 20.5v21.5q0 29 -1.5 65.5t-4.5 71.5l-2 43q-1 25 -2.5 53t-6 52t-12.5 40.5t-23 18.5z" />
    <glyph glyph-name="afii10045" unicode="&#x42b;" horiz-adv-x="1212" 
d="M496 437q-14 -3 -27 -3q-19 0 -39.5 4.5t-37 13t-27 20t-10.5 25.5q0 23 19.5 32t45.5 9q17 0 34 -4.5t32.5 -10.5t31 -10.5t29.5 -4.5q25 0 66 19.5t83 48t79 61t56 59.5q16 23 30.5 44t29 37.5t28.5 26.5t30 10q21 0 27.5 -21t6.5 -62v-130q0 -85 4 -152.5t15 -124
t31 -103t53 -89.5q10 -14 26 -31t31 -33t25.5 -29t10.5 -19q0 -13 -17 -13q-18 0 -43 17.5t-50.5 44t-48.5 56.5t-35 56q-20 40 -31.5 92t-18 107.5t-10 109t-7 95t-8 67.5t-13.5 26l-10 -10q-12 -14 -39.5 -45.5t-67.5 -66.5t-90 -66t-105 -45q48 -46 79 -101.5t31 -121.5
q0 -65 -22 -110.5t-54.5 -74t-70.5 -41t-70 -12.5q-68 0 -128.5 26.5t-107.5 81t-77.5 137.5t-37.5 196q-4 60 -9.5 116.5t-10.5 113.5t-8.5 116t-3.5 125q0 39 -3.5 52t-3.5 16q0 7 4.5 11.5t10 6.5t10.5 3t7 1q7 0 14 -4t11.5 -17t7.5 -36t3 -62q0 -25 4 -71.5t10 -111
t13.5 -143.5t14.5 -168q6 -80 31 -141.5t62 -103t81.5 -62.5t89.5 -21q23 0 52.5 9t56 29t44.5 53.5t18 81.5q0 41 -13 75t-32.5 61t-44 47.5t-46.5 35.5h-1z" />
    <glyph glyph-name="afii10046" unicode="&#x42c;" horiz-adv-x="745" 
d="M207 315q0 -69 23 -121t60.5 -86.5t85 -51.5t95.5 -17q19 0 46.5 7.5t53.5 24t44.5 44t18.5 68.5q0 65 -18.5 116t-48.5 85.5t-68.5 52.5t-78.5 18q-33 0 -70.5 -13.5t-69 -34.5t-52.5 -45.5t-21 -46.5zM189 389q3 6 20 27.5t49 45t80 42t113 18.5q48 0 85 -19t64.5 -49
t46 -65.5t30.5 -68t17 -58t6 -34.5q1 -7 1 -13.5v-12.5q0 -60 -20.5 -102t-52 -68t-69 -38t-71.5 -12q-74 0 -140.5 26t-116.5 82t-80 143t-30 210q0 63 -3.5 123.5t-9 121.5t-11 124.5t-8.5 132.5v6q0 2 -0.5 3.5t-0.5 3.5q0 30 8 47t25 17q15 0 19.5 -16t4.5 -34v-13
q0 -8 -0.5 -18.5t-0.5 -26.5q0 -26 4 -75.5t10 -118t13 -153t14 -178.5h4z" />
    <glyph glyph-name="afii10047" unicode="&#x42d;" horiz-adv-x="1353" 
d="M452 421q-1 -5 -2 -16t-1.5 -21.5t-2 -18.5t-4.5 -8t-7.5 2.5t-6.5 3.5q-11 8 -19 21.5t-8 30.5v6.5t1 7.5q12 59 39 92.5t60 50.5t68 21t62 4h29h22t22 -2q54 -6 112.5 -21.5t125.5 -22.5q-22 85 -66 159t-107 129.5t-144.5 87.5t-178.5 32q-87 0 -171.5 -32t-146.5 -98
q-33 -36 -49.5 -61t-26 -41t-19 -23.5t-29.5 -7.5q-12 0 -15.5 8.5t-3.5 15.5q0 25 23.5 59.5t54.5 71.5q34 40 77.5 72t93.5 53.5t104 33t110 11.5q108 0 200 -38.5t163.5 -103t120.5 -150.5t71 -180q82 1 139 18t94 36.5t58 35.5t32 16q4 0 5 -6.5t1 -8.5q0 -24 -18 -43
t-46.5 -34t-64 -26.5t-71 -19.5t-67.5 -13t-53 -7q4 -23 6 -46.5t2 -46.5q0 -83 -23 -166t-72 -149t-124.5 -107t-181.5 -41q-49 0 -89.5 18t-69.5 48t-46 69.5t-19 83.5q0 8 0.5 14.5t2.5 11.5t6.5 11.5t13.5 6.5q5 0 7 -1q21 -8 25.5 -19t8.5 -36q3 -31 14.5 -58.5
t32.5 -48t51.5 -32.5t70.5 -12q78 0 140 32t105 87t66 126.5t23 151.5q0 26 -2 51.5t-6 50.5q-33 3 -64.5 10t-62.5 14.5t-61 13.5t-59 6h-8q-31 0 -70 -2t-75 -13.5t-64.5 -35.5t-37.5 -68z" />
    <glyph glyph-name="afii10048" unicode="&#x42e;" horiz-adv-x="1394" 
d="M352 881q0 -24 11.5 -82t28 -135t36 -164.5t35.5 -171.5q13 11 26.5 20.5t27.5 17.5q20 11 41 25.5t41 34.5q0 2 -0.5 5t-0.5 5q0 78 17 147.5t46.5 122t69 83.5t83.5 31q27 0 45.5 -18.5t18.5 -59.5q0 -42 -19 -88.5t-49.5 -92.5t-69.5 -89t-79 -77q0 -10 8 -37.5
t23.5 -63.5t40 -75.5t58 -72t76.5 -54t96 -21.5q48 0 88 20.5t73 56t57.5 82.5t41.5 100t25.5 108.5t8.5 108.5q0 57 -9.5 115t-28.5 112t-47.5 100.5t-66 81.5t-84.5 55t-102 20q-51 0 -82.5 -13t-50.5 -32.5t-29 -42.5t-18 -42.5t-18 -32.5t-29 -13q-17 0 -24.5 11
t-7.5 37q0 19 6.5 46.5t27 56t59.5 54t104 40.5q17 4 34 5.5t34 1.5q67 0 122.5 -23.5t99 -64t76 -94t54 -113t32 -122t10.5 -120.5q0 -64 -10 -130t-29.5 -128t-49 -116.5t-68 -95.5t-86.5 -64.5t-105 -23.5q-46 0 -89 16.5t-81 44t-70.5 63.5t-57.5 75.5t-42 79.5t-24 76
l-13 -12q-7 -7 -21 -16t-31 -18.5t-36 -18.5t-35 -15q12 -66 19.5 -122t7.5 -95q0 -20 -3.5 -40.5t-13 -37t-26.5 -27t-45 -10.5q-32 0 -68.5 7.5t-71.5 21.5t-65 35.5t-49 50.5q7 14 14 17t15 3q24 0 49 -11t50.5 -24.5t50.5 -24.5t49 -11q18 0 28.5 6t16.5 15.5t8 22
t3 26.5q0 33 -7.5 81.5t-19.5 108.5t-26.5 127.5t-29 138.5t-27.5 142.5t-21 138.5q-26 -34 -50.5 -54.5t-47 -31t-42.5 -13.5t-36 -3q-26 0 -41.5 2t-23.5 5t-10.5 8t-2.5 11q0 10 8 20.5t24 19.5t39 14.5t52 5.5q38 0 59 21.5t33.5 53.5t20 69t18.5 69t30 53.5t54 21.5
q-1 -30 -6.5 -56t-12 -52t-13 -52.5t-9.5 -56.5zM756 725q-21 -16 -38.5 -48t-31 -68.5t-21 -71t-8.5 -56.5q0 -4 0.5 -7.5t0.5 -5.5l17 14q19 19 44 52t47 69t37 69t15 51q0 21 -18 21q-19 0 -44 -19z" />
    <glyph glyph-name="afii10049" unicode="&#x42f;" horiz-adv-x="1071" 
d="M38 91q0 1 -0.5 1.5t-0.5 1.5v5q0 14 8 27.5t20 13.5q7 0 15 -7q23 -19 48 -33.5t68 -14.5q36 0 77 15.5t83 41.5t82.5 59t76.5 68t65 68.5t48 61.5q-10 2 -25.5 5.5t-29.5 5.5q-32 6 -71 14t-79 21t-77 31t-66 43.5t-46.5 59.5t-17.5 78q0 53 21.5 99.5t58.5 80.5
t85.5 53.5t101.5 19.5q58 0 111.5 -21t94.5 -58.5t65 -89.5t24 -113q0 -40 -12.5 -87.5t-39.5 -95.5q6 0 20 -2t32 -5t39 -7.5t42 -10.5q39 -11 64 -24t40 -28t20.5 -32t5.5 -36q0 -15 -2.5 -34.5t-6.5 -37.5q-5 -21 -8.5 -46t-3.5 -48q0 -43 6 -67t13 -43q5 -15 9 -29
t4 -34q0 -5 -9 -6.5t-13 -1.5q-12 0 -24 12.5t-21.5 32.5t-15 46.5t-5.5 54.5q0 35 3.5 68.5t6.5 59.5q0 2 0.5 6t0.5 6q2 11 2.5 20.5t0.5 13.5q0 31 -19.5 54.5t-77.5 37.5q-17 4 -33.5 6t-32.5 4q-4 0 -9 1t-9 1q-12 2 -23.5 3t-26.5 6q-11 -16 -37 -49t-63 -73.5
t-84 -83.5t-99 -78.5t-108 -58t-112 -22.5q-23 0 -47.5 2t-46.5 9t-38 20.5t-22 37.5v1zM668 461q19 35 29 68t10 65q0 36 -13.5 70.5t-42.5 62t-74 44t-109 16.5q-34 0 -64.5 -9.5t-54 -26t-37 -39t-13.5 -49.5q0 -37 19.5 -65t51 -49t71 -36t80 -25.5t78 -17t65.5 -10.5z
" />
    <glyph glyph-name="afii10065" unicode="&#x430;" horiz-adv-x="675" 
d="M692 3q-22 -12 -50 -17.5t-54 -5.5q-41 0 -70 12t-49.5 30.5t-34 40t-23.5 40t-18.5 31t-17.5 13.5q-8 -31 -27.5 -60t-44 -51.5t-52.5 -36t-53 -13.5q-55 0 -81 35t-26 98q0 37 10.5 76.5t32.5 71.5t54 53t76 21q18 0 32 -5t26 -14.5t24.5 -24.5t28.5 -35q5 -7 11 -9
t11.5 -4.5t10.5 -7t9 -15.5q7 -23 22 -57.5t37 -67.5t49.5 -56.5t59.5 -23.5q46 0 66 9.5t25 9.5q9 0 17 -10t8 -17q0 -4 -3.5 -6t-5.5 -4zM139 143q0 -18 3 -35.5t9.5 -31t16 -21.5t22.5 -8q21 0 45.5 15.5t46 40.5t35.5 55.5t14 60.5q0 11 -5.5 22t-15 20t-21.5 15t-25 6
q-52 0 -87 -38.5t-38 -100.5z" />
    <glyph glyph-name="afii10066" unicode="&#x431;" horiz-adv-x="474" 
d="M588 777q-38 14 -85 28.5t-95 14.5q-39 0 -77 -14t-68.5 -39t-49.5 -60t-19 -77q0 -39 17.5 -73.5t44.5 -68t57.5 -67.5t57.5 -71.5t44.5 -80.5t17.5 -93q0 -37 -10 -73t-31 -65t-53 -47t-76 -18q-32 0 -63 13.5t-56 39.5t-40.5 63.5t-15.5 85.5q0 26 9.5 52t28.5 47
t46 34.5t63 13.5q27 0 45 -17t23 -52q0 -5 -1.5 -12t-5.5 -14.5t-10 -12.5t-16 -5q-8 0 -15 6.5t-14.5 14.5t-16 14.5t-20.5 6.5q-8 0 -18.5 -4t-19.5 -14t-15.5 -26.5t-6.5 -41.5q0 -31 12.5 -56t30.5 -42.5t39 -27t38 -9.5q28 0 48.5 13t33.5 34t19 47t6 52q0 48 -18 87.5
t-45.5 75.5t-59 69.5t-59 69t-45.5 75t-18 87.5q0 52 30 96t76.5 75.5t104 49t112.5 17.5q36 0 68 -5.5t55.5 -16.5t37.5 -27.5t14 -37.5q0 -12 -6.5 -15.5t-12.5 -3.5q-10 0 -10 2z" />
    <glyph glyph-name="afii10067" unicode="&#x432;" horiz-adv-x="643" 
d="M103 262q-12 73 -12 157q0 96 14 191.5t40 172t64 124t85 47.5q22 0 40.5 -13t31.5 -34t20.5 -48.5t7.5 -56.5q0 -71 -23.5 -148t-59 -150.5t-76.5 -139t-76 -114.5q8 -48 22.5 -89t36 -71t50 -46.5t64.5 -16.5q25 0 50 9t45 30t33 54t15 81q-31 10 -52 27t-34 37.5
t-18.5 41t-5.5 36.5q0 23 14.5 40t41.5 17q24 0 42.5 -13t31.5 -34.5t20.5 -50.5t10.5 -60q8 -5 18 -7t22 -2q21 0 43.5 5t42 11.5t34 12t17.5 5.5q5 0 6.5 -5.5t1.5 -10.5q-1 -16 -17 -28t-38.5 -19.5t-48.5 -11.5t-48 -4q-20 0 -32 3q-8 -59 -25 -100.5t-41.5 -67.5
t-57 -37.5t-70.5 -11.5q-42 0 -76 16t-61 45.5t-46.5 70t-32.5 89.5l-5 -7q-12 -15 -21 -15q-13 0 -13 23q0 15 6 29zM288 878q-32 0 -58 -40.5t-44.5 -106.5t-29 -149t-10.5 -167v-39.5t2 -38.5q5 9 11 17.5t12 17.5q30 46 59.5 94.5t53.5 101t39 110t15 121.5q0 39 -15 59
t-35 20zM426 346q-13 0 -13 -10q0 -6 4.5 -17t12 -22.5t18.5 -22t24 -15.5q0 6 -3.5 20.5t-10 29.5t-15 26t-17.5 11z" />
    <glyph glyph-name="afii10068" unicode="&#x433;" horiz-adv-x="393" 
d="M166 251q-8 -3 -23.5 -13t-29.5 -10q-7 1 -12.5 6t-5.5 18q2 20 24 35t50 25t55.5 15t39.5 5q37 0 45 -64q2 -20 -4 -46.5t-14 -53t-15 -50t-7 -37.5q0 -23 15 -38.5t59 -15.5q20 0 33 6.5t16 6.5q9 0 17 -9.5t8 -17.5q0 -6 -8 -11.5t-20.5 -10t-27 -7t-27.5 -2.5
q-37 0 -60 7t-35.5 19.5t-17 29t-4.5 34.5q0 12 5.5 35t11.5 48.5t10.5 49.5t3.5 38q-3 23 -24 23q-15 0 -27 -3.5t-31 -11.5z" />
    <glyph glyph-name="afii10069" unicode="&#x434;" horiz-adv-x="517" 
d="M398 316q-2 38 -7.5 85t-17 95.5t-29 94.5t-42 82t-58 57.5t-76.5 21.5q-8 0 -27.5 -3.5t-44 -16.5t-51 -37t-48.5 -66q-4 -7 -16.5 -18t-23.5 -12q-11 0 -11 13q0 6 2 12q20 62 53.5 98.5t67 55t60 24t32.5 5.5q66 0 120.5 -41t93.5 -112.5t60.5 -169t21.5 -210.5
q0 -61 -11.5 -120t-37 -105.5t-65.5 -75t-98 -28.5q-36 0 -70 17t-60 47t-41.5 69.5t-15.5 84.5q0 50 21.5 88.5t57 64.5t81.5 39.5t94 13.5q33 0 33 -14q0 -12 -10 -20.5t-21 -9.5q-38 -2 -73.5 -13.5t-63 -31t-44 -47t-16.5 -61.5q0 -30 9.5 -60.5t26.5 -55t41 -40.5
t53 -16q39 0 67.5 24.5t47.5 65t28 92t9 104.5q0 8 -0.5 15t-0.5 15z" />
    <glyph glyph-name="afii10070" unicode="&#x435;" horiz-adv-x="358" 
d="M384 12q0 -5 -12.5 -12t-29.5 -12q-11 -4 -31 -7.5t-40 -3.5q-46 0 -85 16.5t-67 46t-43.5 69.5t-15.5 87q0 33 8 63t24.5 53t41 36.5t57.5 13.5q17 0 30 -7.5t22 -20t13.5 -28.5t4.5 -32q0 -21 -6.5 -45.5t-21 -47.5t-38.5 -43t-59 -32q8 -20 23 -36t34.5 -27t42 -17.5
t44.5 -6.5q10 0 18.5 1.5t17.5 3.5q18 5 29 10.5t14 5.5q10 0 17.5 -10t7.5 -18zM203 265q0 7 -4 20.5t-19 13.5q-16 0 -28.5 -7.5t-21.5 -20t-13.5 -28.5t-4.5 -33q0 -25 2 -36.5t5 -22.5q10 0 24.5 10t27.5 26t22.5 36.5t9.5 41.5z" />
    <glyph glyph-name="afii10072" unicode="&#x436;" horiz-adv-x="959" 
d="M291 44q-8 -3 -18 -7.5t-19 -10t-15 -10.5t-7 -10q0 -5 3 -9t9 -4q8 0 16 5.5t15.5 13.5t14 17.5t10.5 18.5zM201 316q35 0 65 -15.5t51.5 -42.5t34.5 -62t14 -74q42 22 70 47t39 45q-1 5 -1 9.5v7.5q0 26 6 42.5t15 25.5t19 12t18 3q16 0 24.5 -10.5t8.5 -24.5
q0 -22 -10 -42t-23 -39l-6 -9q26 -85 71 -85q17 0 36 24t41 56.5t48 65t58 49.5q22 12 47.5 19.5t53.5 7.5q12 0 25.5 -5t13.5 -23q0 -11 -6 -18t-15.5 -11t-21 -5t-21.5 -1q-13 0 -28 -2t-29.5 -9.5t-27 -23t-21.5 -43.5q-6 -20 -6 -39q0 -25 9.5 -47.5t27 -40t42 -27.5
t54.5 -10q39 0 58.5 9.5t24.5 9.5q9 0 17 -10t8 -18q0 -4 -9 -9.5t-25 -10.5t-38 -8.5t-48 -3.5q-18 0 -44 6t-51.5 23.5t-47 48t-28.5 78.5q-22 -34 -46.5 -54t-50.5 -20q-32 0 -61.5 24t-47.5 70q-14 -14 -27 -24.5t-28 -20.5t-33 -20t-40 -23q-6 -23 -17.5 -44.5
t-27 -38.5t-34.5 -27t-40 -10q-29 0 -44 14t-15 31q0 18 9 32t23.5 25.5t32.5 20.5t37 18q3 2 8.5 4t21.5 10q1 7 1.5 13t0.5 12q0 30 -9 55.5t-24.5 44t-37.5 29.5t-48 11q-23 0 -43 -13q-23 -15 -31.5 -39t-8.5 -53q0 -4 -2.5 -10.5t-7 -12.5t-10 -10.5t-11.5 -4.5
q-14 0 -18.5 12t-4.5 31q0 41 19.5 73.5t51.5 52.5q18 12 35.5 17t34.5 5z" />
    <glyph glyph-name="afii10073" unicode="&#x437;" horiz-adv-x="655" 
d="M344 -718q0 52 4.5 97t14 85.5t24 79t33.5 77.5l75 156q24 49 46 93.5t41.5 82t34 66.5l23.5 47q6 13 17 13q14 0 20 -12t6 -17q0 -3 -1 -6t-2 -5l-16 -33q-38 -78 -74.5 -155t-71.5 -153q-20 -45 -38.5 -90t-38.5 -94q-20 -48 -28.5 -89.5t-8.5 -91.5v-16t1 -17
q1 -33 10 -67.5t24 -62.5t37 -45.5t50 -17.5q42 0 62 34.5t20 94.5q0 30 -9.5 69.5t-25 83t-35 89t-39 88t-37 78.5t-29.5 62q-42 88 -66 142t-36 85.5t-16 48t-6 31.5q-2 16 -4.5 47.5t-7 68t-10.5 71t-15 56.5q-6 14 -13 18.5t-16 4.5q-23 0 -43.5 -14.5t-37.5 -30.5
q-7 -6 -15.5 -18.5t-12.5 -12.5q-11 0 -18 8t-7 20q0 2 1 4q13 17 29.5 36.5t35.5 35.5t41 26.5t47 10.5q21 0 35.5 -16.5t24 -39.5t14.5 -48t7 -43q3 -21 5 -47t4.5 -51.5t5.5 -48.5t6 -37q4 -18 8.5 -34t15.5 -41.5t31.5 -67.5t55.5 -112l15 -30q7 -14 14 -27.5t13 -27.5
q48 -99 77.5 -175t46 -130.5t22.5 -88.5t6 -49q0 -36 -8.5 -69.5t-27 -59t-47 -40.5t-68.5 -15q-35 0 -66.5 21.5t-55.5 55.5t-38.5 76t-14.5 83z" />
    <glyph glyph-name="afii10074" unicode="&#x438;" horiz-adv-x="667" 
d="M610 24q20 0 37 8t21 8q9 0 17 -10t8 -18q0 -5 -10.5 -10.5t-26 -10t-32.5 -7.5t-29 -3q-31 0 -55.5 12.5t-43 32.5t-32.5 46.5t-23 53.5q-14 -28 -35 -53t-47 -44.5t-56 -31t-62 -11.5q-37 0 -63 14t-43 36.5t-27 50.5t-15.5 56t-7 53t-2.5 42v15q0 8 0.5 17.5t2.5 16.5
q3 13 13 17.5t15 4.5q26 0 33 -9.5t7 -27.5q0 -11 -1 -24.5t-1 -28.5q0 -27 1.5 -59.5t11 -61t29 -47.5t55.5 -19q24 0 49 14t47 37t39 54t25 65q5 17 15 26.5t20 9.5q14 0 21 -4.5t9.5 -11t3 -15t2.5 -17.5q6 -32 16.5 -61.5t26 -53t37 -37.5t50.5 -14z" />
    <glyph glyph-name="afii10075" unicode="&#x439;" horiz-adv-x="669" 
d="M253 446q0 -21 8.5 -37.5t18 -28.5t18 -21t8.5 -15q0 -14 -15 -14q-11 0 -27 8.5t-31 23.5t-25.5 35.5t-10.5 45.5q0 21 5 42t10.5 42.5t10.5 43t5 42.5q0 20 -4 36q-6 19 -21.5 32.5t-32 24t-29 20.5t-12.5 24q0 7 4 16t11 9q19 0 42.5 -9.5t44.5 -29t35 -48t14 -65.5
q0 -21 -4 -43.5t-9.5 -45t-9.5 -45t-4 -43.5zM610 24q20 0 37 8t21 8q9 0 17 -10t8 -18q0 -5 -10.5 -10.5t-26 -10t-32.5 -7.5t-29 -3q-31 0 -55.5 12.5t-43 32.5t-32.5 46.5t-23 53.5q-14 -28 -34.5 -53.5t-45.5 -45.5t-54.5 -32t-61.5 -12q-39 0 -66 14.5t-45 37
t-28.5 50.5t-15.5 55.5t-6 51.5t-1 38q0 32 6.5 45.5t14.5 13.5q50 0 50 -37q0 -11 -1 -24.5t-1 -28.5q0 -27 1.5 -56t11 -54t29 -41t55.5 -16q24 0 49 14t47 37t39 54t25 65q5 17 15 26.5t20 9.5q14 0 21 -4.5t9.5 -11t3 -15t2.5 -17.5q6 -32 16.5 -61.5t26 -53t37 -37.5
t50.5 -14z" />
    <glyph glyph-name="afii10076" unicode="&#x43a;" horiz-adv-x="616" 
d="M539 -20q-29 0 -58 10.5t-54.5 28.5t-47 41.5t-34.5 49.5q-7 13 -11 26t-4 24t5.5 18.5t17.5 7.5q18 0 21 -7t10 -20q12 -25 28 -49.5t36 -44t44.5 -31.5t53.5 -12q5 0 10.5 0.5t11.5 1.5q20 3 32.5 9.5t16.5 6.5q9 0 17 -10t8 -18q0 -5 -10.5 -10.5t-26 -10t-33.5 -8
t-33 -3.5zM461 384q14 5 30 5q37 0 37 -27q0 -11 -8 -22t-32 -17q-14 -3 -35.5 -17t-45 -35.5t-47 -50.5t-41.5 -62q-26 -48 -49.5 -80t-43 -52t-34.5 -28.5t-23 -8.5q-21 0 -34.5 13.5t-21 33t-10.5 41t-3 38.5q1 50 7 102.5t12 94.5q8 8 15.5 13t14.5 5q21 0 24 -28
q-6 -29 -10 -58q-4 -25 -7 -54t-3 -55q0 -8 1 -20.5t3.5 -25.5t7 -22t11.5 -9q17 0 42 33t67 104q14 24 36 54t46.5 57.5t49 48.5t44.5 29z" />
    <glyph glyph-name="afii10077" unicode="&#x43b;" horiz-adv-x="600" 
d="M531 21q32 2 48.5 10.5t21.5 8.5q9 0 17 -10t8 -18q0 -3 -7.5 -8.5t-21.5 -11t-33 -9t-41 -3.5q-54 0 -86.5 24.5t-51.5 60.5t-28 76t-16 71l-9 -30q-11 -37 -24.5 -74.5t-31.5 -68t-43 -49.5t-60 -19q-26 0 -44 18.5t-29 41t-15.5 42.5t-4.5 24q0 16 10 29t26 13
q21 0 26.5 -19t7.5 -42t6.5 -42t24.5 -19q19 0 36 16.5t30.5 42t24 57t17.5 61.5t10.5 54.5t3.5 36.5q1 10 3.5 24t6.5 26.5t10 21t15 8.5q20 0 28.5 -17t13 -45.5t8.5 -66t14 -77.5q7 -30 17 -55.5t24.5 -43.5t35.5 -28.5t52 -10.5z" />
    <glyph glyph-name="afii10078" unicode="&#x43c;" horiz-adv-x="800" 
d="M743 24q20 0 37 8t21 8q9 0 17 -10t8 -18q0 -5 -10.5 -10.5t-26 -10t-32.5 -7.5t-29 -3q-13 0 -30 4t-41 21q-18 12 -32.5 29.5t-26.5 36t-20.5 34.5t-14.5 25q0 -1 -3 -13t-10.5 -28.5t-20 -36t-32 -35.5t-47 -27t-63.5 -11q-35 0 -61 13.5t-45.5 32.5t-32 40.5
t-20.5 38.5q-18 -59 -51.5 -99t-78.5 -44q-20 -2 -39 3.5t-34.5 17.5t-25 30.5t-9.5 44.5q0 19 14 33t29 14q20 0 25 -16.5t5 -33.5q0 -5 -1 -10.5t-3 -7.5q7 -17 15.5 -22t16.5 -5q26 0 46.5 22t34 50.5t20.5 56.5t7 41q0 6 -0.5 12t-0.5 13q0 14 6.5 30t26.5 16
q17 0 23.5 -9t6.5 -21q0 -36 10 -70.5t27.5 -61t42 -42.5t54.5 -16q36 0 61 22t41.5 52t25.5 61.5t13 51.5q-1 2 0 7t1 7q0 11 11.5 22.5t22.5 11.5q16 0 24.5 -16t15 -40.5t13.5 -53.5t20 -54q14 -27 28 -42.5t26.5 -23.5t24 -10t20.5 -2z" />
    <glyph glyph-name="afii10079" unicode="&#x43d;" horiz-adv-x="609" 
d="M537 -19q-33 0 -57 11.5t-39.5 31.5t-24 45.5t-10.5 54.5q-10 -19 -28 -32.5t-41.5 -22t-49.5 -12.5t-51 -4q-11 0 -28 1.5t-27 3.5q5 -20 17 -40t12 -34q0 -6 -6 -11.5t-18 -5.5q-14 0 -24.5 17t-19.5 38t-16 38t-13 17q-16 5 -24.5 13.5t-8.5 28.5q0 11 6 13t13 2
q0 -1 1 -1h2h3q-5 32 -10 63.5t-5 63.5q0 29 4.5 44.5t19.5 15.5q20 0 29 -11.5t10 -31.5q1 -38 2.5 -78t8.5 -84q11 -7 27 -9.5t33 -2.5q18 0 41 2t46 9.5t44.5 22.5t38.5 41q1 1 1 3v3q-1 6 -3 22.5t-2 32.5q0 14 2.5 24.5t8.5 10.5q26 0 40 -11t14 -35v-10.5t-2 -11.5
v-11q0 -22 2 -51.5t11.5 -56t29.5 -45t56 -18.5q20 0 37 8t21 8q9 0 17 -10t8 -18q0 -5 -10.5 -10.5t-26 -10t-32.5 -7.5t-29 -3z" />
    <glyph glyph-name="afii10080" unicode="&#x43e;" horiz-adv-x="484" 
d="M214 211q0 12 3.5 25t10.5 24.5t17.5 18.5t25.5 7q7 0 11 -7.5t4 -18.5q0 -9 -2.5 -23t-2.5 -32q0 -25 2.5 -55.5t11.5 -56.5t26.5 -44t47.5 -18q17 0 31.5 10.5t25 26t16.5 34.5t6 37q0 17 -2 29.5t-5 21.5q-66 13 -99 43.5t-33 62.5q0 23 16.5 39t49.5 16q18 0 34.5 -9
t31 -24t25.5 -35t19 -42q1 -6 15 -6q26 0 53 5t50 11t39.5 11t20.5 5q5 0 6.5 -5.5t1.5 -10.5q0 -19 -24 -31t-54.5 -19t-59 -10t-38.5 -4q2 -11 2 -19.5v-22.5q0 -29 -7.5 -58.5t-22.5 -53.5t-37.5 -39.5t-52.5 -15.5q-44 0 -75 25t-50.5 61t-28.5 76.5t-9 70.5zM377 301
q-5 0 -10 -1.5t-5 -6.5q0 -12 18.5 -29.5t48.5 -22.5q-8 21 -22.5 40.5t-29.5 19.5z" />
    <glyph glyph-name="afii10081" unicode="&#x43f;" horiz-adv-x="676" 
d="M390 247q32 0 54 -21t39.5 -50.5t33.5 -62t36 -55.5q13 -14 28.5 -24.5t37.5 -10.5q8 0 17.5 2.5t18 6t15 6t8.5 2.5q9 0 16.5 -10.5t7.5 -18.5q0 -4 -9 -8.5t-22.5 -9t-29 -7.5t-29.5 -3q-36 0 -61.5 14t-44.5 35.5t-33 46.5t-27.5 46.5t-28 35.5t-33.5 14
q-29 0 -51.5 -12.5t-41.5 -31.5t-34.5 -41t-30 -41t-27.5 -31.5t-27 -12.5q-15 0 -33 24.5t-34 59t-26.5 72.5t-10.5 66q0 17 10 26.5t22 9.5q10 0 18 -7.5t8 -24.5q0 -9 4 -33.5t11 -50.5t17 -46.5t21 -20.5t21.5 12.5t22.5 31t26.5 40t34.5 40t45.5 31t60.5 12.5z" />
    <glyph glyph-name="afii10082" unicode="&#x440;" horiz-adv-x="881" 
d="M440 286q47 0 81.5 -19.5t61 -49t48.5 -64t46 -64t52.5 -49t67.5 -19.5q38 0 60 9.5t25 9.5q6 0 15.5 -9t9.5 -18q0 -5 -9.5 -10.5t-24.5 -10.5t-34.5 -8t-40.5 -3q-48 0 -82.5 17t-61.5 42t-48.5 55t-43.5 55t-47 42t-58 17q-32 0 -56 -28.5t-42 -78.5t-30 -118
t-19 -147.5t-10 -166.5t-3 -175q0 -33 0.5 -77.5t0.5 -90.5t0.5 -88.5t0.5 -70.5q0 -31 -4 -44.5t-12 -13.5q-19 0 -33 27t-14 72q0 163 -6 290t-16 225t-23.5 170.5t-28.5 126t-31.5 92.5t-32.5 69.5t-30.5 56.5t-26.5 54q-1 1 -1 4q0 8 11.5 14.5t19.5 6.5q3 0 9.5 -1
t14 -4t14 -7t9.5 -10q48 -91 74 -174t38.5 -146.5t16.5 -101t8 -37.5q2 0 4.5 19.5t6 51t8.5 71.5t14 82.5t21.5 82.5t31 71.5t43 51t56.5 19.5z" />
    <glyph glyph-name="afii10083" unicode="&#x441;" horiz-adv-x="499" 
d="M147 177q0 -43 21 -75t52.5 -53.5t68 -32.5t68.5 -11q33 0 59 5.5t45 12t30 12t15 5.5q7 0 15 -9t8 -17t-19 -17t-46 -16t-58 -11.5t-55 -4.5q-20 0 -47 3.5t-56 12.5t-57 24.5t-50.5 39.5t-36.5 58.5t-14 80.5q0 31 9 64t28.5 60t49 44t71.5 17q32 0 64 -11.5
t57.5 -34.5t41 -57t15.5 -79q0 -11 -4.5 -30.5t-15 -39t-27.5 -33.5t-41 -14q-25 0 -46.5 14.5t-37 39t-24.5 56.5t-9 67q0 15 4 29.5t22 14.5q12 0 20.5 -7t13.5 -17.5t7.5 -22t2.5 -21.5q0 -20 -5.5 -29t-5.5 -20q0 -24 18 -37.5t39 -13.5q15 0 28 16t13 46q0 32 -11 56.5
t-29 41t-41 25t-46 8.5q-29 0 -49 -13t-32 -33.5t-17.5 -45t-5.5 -47.5z" />
    <glyph glyph-name="afii10084" unicode="&#x442;" horiz-adv-x="1018" 
d="M887 539q0 -11 -21.5 -20.5t-48.5 -16.5t-52.5 -11t-32.5 -5q-44 -7 -88 -15.5t-92 -17.5t-101.5 -17t-114.5 -13q-14 -1 -26.5 -1t-25.5 -2q-15 0 -31 5t-16 27q0 9 5.5 15t14.5 9.5t19 5.5t19 3q4 1 49 4t151 11q33 3 53.5 5.5t38.5 5.5t38 6t53 7q24 3 42.5 6t36 6
t35.5 6t40 5q6 1 12 1h11q31 0 32 -9zM928 -20q-33 0 -56 14t-38.5 35t-25 45t-16.5 45t-13 35t-13 14q-10 0 -21.5 -14t-25.5 -35t-29 -46t-33 -46t-37.5 -35t-41.5 -14q-27 0 -46 14.5t-32.5 36.5t-22.5 47t-16.5 47t-14.5 36.5t-17 14.5q-9 0 -20.5 -13.5t-25 -34
t-28.5 -44.5t-31 -44.5t-32 -34t-31 -13.5q-34 0 -53.5 27t-32 61.5t-22 67t-22.5 44.5q-26 23 -35.5 43t-9.5 34q0 17 8 26t14 9q18 0 34 -18t29.5 -45.5t25.5 -59.5t22.5 -59.5t19.5 -45.5t18 -18q13 0 27 15.5t29 38.5t30 50t31 50t32 38.5t32 15.5q15 0 27.5 -17.5
t23 -43t20 -56t19 -56t19 -43t20.5 -17.5q22 0 40 15.5t33.5 38.5t30 49.5t31 49.5t36.5 38.5t45 15.5q18 0 29.5 -16t20 -40t17 -52.5t20 -52.5t28 -40t41.5 -16q35 0 55 9.5t25 9.5q9 0 17 -10t8 -18q0 -4 -9.5 -9.5t-26 -10.5t-37.5 -8.5t-43 -3.5z" />
    <glyph glyph-name="afii10085" unicode="&#x443;" horiz-adv-x="646" 
d="M557 -102q4 8 9 19.5t11 25.5q10 21 21 45t21 44.5t17.5 33.5t10.5 13q1 0 2 0.5t3 0.5q5 0 11 -2t10 -7q6 -6 6 -23q0 -2 -5 -13t-13 -27.5t-18 -38t-20 -44.5q-13 -29 -24.5 -57t-17.5 -49q7 -29 14 -71t12 -92.5t8 -107t3 -113.5q0 -77 -6.5 -150.5t-22.5 -131
t-42.5 -92.5t-66.5 -35q-29 0 -49 15t-32.5 40.5t-18 60t-5.5 73.5q0 36 6 92t21.5 132t43.5 171.5t72 209.5q-20 83 -40.5 144.5t-39.5 102t-34 60t-22 19.5q-4 0 -14.5 -19.5t-27.5 -43.5t-41.5 -43.5t-56.5 -19.5q-39 0 -64.5 24.5t-43 57.5t-29 67t-21.5 53
q-7 12 -11.5 26t-4.5 25q0 14 7 23.5t19 9.5t22.5 -17t21.5 -42t22 -55t23.5 -55t27 -42t31.5 -17q19 0 33 12.5t25.5 32t21 41.5t19 41.5t20.5 32t25 12.5q9 0 28 -23.5t42.5 -68.5t50 -110.5t50.5 -149.5zM540 -266q-36 -105 -57.5 -194t-33.5 -159.5t-15.5 -120.5
t-3.5 -78q0 -16 2.5 -33t8.5 -31t16.5 -23t25.5 -9q22 0 37.5 31t25 82t13.5 115t4 130q0 45 -2 88t-5 81t-7 69t-9 52z" />
    <glyph glyph-name="afii10086" unicode="&#x444;" horiz-adv-x="749" 
d="M706 171q0 1 -2.5 7.5t-10.5 13t-23 12t-39 5.5q-32 0 -83 -14.5t-128 -48.5q0 -89 8.5 -174t21 -162t26.5 -143.5t26.5 -119.5t20.5 -90t8 -55q0 -11 -10 -11q-17 0 -31 26t-27 67.5t-25.5 91.5t-25.5 98q-15 55 -32.5 110t-36.5 108t-38 102t-38 91q-16 -6 -37 -16
t-46.5 -20t-56 -17t-64.5 -7q-16 0 -34.5 3t-35 11.5t-27.5 22.5t-11 37q0 27 24.5 50t59.5 40.5t72.5 27.5t63.5 10q39 0 72.5 -18t50.5 -62q15 8 34.5 15.5t34.5 14.5q0 41 1.5 93t3.5 99.5t4 82.5t3 41q2 17 6.5 36t12 35t18.5 26.5t26 10.5q7 0 9.5 -4.5t2.5 -18.5
t-3 -35q-1 -11 -3.5 -36t-5.5 -57.5t-6.5 -69t-6.5 -71t-5 -63t-3 -44.5q80 34 146 50t117 16q55 0 85.5 -18t30.5 -53q0 -24 -13.5 -49t-36 -48.5t-52.5 -43.5t-62 -35t-65 -23.5t-62 -8.5q-48 0 -48 18q0 7 17.5 13t44 14t57.5 19t58 27t46 38t22 53zM249 127
q-12 23 -31 36t-39 13q-5 0 -28 -4t-48.5 -12.5t-46.5 -22.5t-21 -34q0 -10 4.5 -16t18.5 -6q16 0 43 5t56 12t54.5 15t37.5 14zM315 103q7 -21 16.5 -48t20 -57t20.5 -62.5t18 -64.5q-11 76 -16 144.5t-6 108.5z" />
    <glyph glyph-name="afii10087" unicode="&#x445;" horiz-adv-x="544" 
d="M453 -22q-35 0 -65.5 9.5t-56 24t-45.5 31t-33 31.5l-7 8q-29 -29 -50 -57t-38.5 -50.5t-32.5 -36.5t-31 -14q-13 0 -16 5.5t-3 11.5q0 10 13 30t33 45t43.5 52t43.5 50l6 6q-33 38 -54.5 66.5t-34.5 51t-18 40.5t-5 33q0 23 17 23q14 0 19.5 -8.5t13.5 -22.5
q12 -21 21.5 -36t20.5 -30t25 -33t34 -45q36 35 67 66.5t58 55t50.5 37t44.5 13.5q12 0 12 -10q0 -13 -9 -20.5t-31.5 -25t-61 -53t-97.5 -104.5l5 -5q15 -18 33.5 -35.5t40.5 -31t47 -21.5t53 -8q35 0 55.5 9.5t25.5 9.5q9 0 16.5 -9t7.5 -17t-14.5 -15t-34 -11.5t-39 -7
t-29.5 -2.5z" />
    <glyph glyph-name="afii10088" unicode="&#x446;" horiz-adv-x="632" 
d="M616 32q8 3 13 5.5t7 2.5q9 0 17 -10t8 -18q0 -5 -21 -15l-30 -14q-37 -14 -63 -33t-53 -48q-12 -13 -16.5 -28t-4.5 -34q0 -26 4.5 -58t12.5 -60t19 -46.5t25 -18.5q12 0 19 9.5t11.5 23.5t6 31.5t1.5 34.5q0 14 -0.5 25.5t-1.5 18.5q-6 40 -18 68.5t-29 51t-36.5 42
t-39.5 40t-39.5 46t-35.5 60.5q-26 -74 -59 -106.5t-90 -32.5q-31 0 -55.5 15t-42 39t-29.5 53.5t-19.5 58t-10.5 53t-3 38.5q0 28 11 47.5t29 19.5q13 0 16 -10.5t3 -21.5v-12q0 -6 1.5 -26t5.5 -45.5t11.5 -53.5t20 -51.5t30.5 -39t43 -15.5q28 0 47 18t31.5 43t19.5 50
t12 40q-8 28 -11 51t-3 42q0 47 15 68.5t32 21.5q16 0 28 -16.5t12 -47.5q0 -14 -3 -30q0 -1 -0.5 -1.5t-0.5 -1.5q-3 -15 -8 -33t-10 -41q12 -43 31 -74t41 -56.5t45.5 -48.5t43.5 -50.5t36 -62.5t23 -84q1 -8 1.5 -19t0.5 -23q0 -24 -3.5 -50t-12.5 -48.5t-25.5 -37
t-41.5 -14.5q-28 0 -49 23.5t-35 57.5t-21 73t-7 70q0 35 14.5 63.5t34.5 44.5q38 30 71 50t74 37z" />
    <glyph glyph-name="afii10089" unicode="&#x447;" horiz-adv-x="520" 
d="M438 21q39 0 58.5 9.5t24.5 9.5q9 0 17 -10t8 -18q0 -4 -9 -9.5t-25 -10.5t-38 -8.5t-48 -3.5q-33 0 -56 15.5t-38 39.5t-23.5 53t-13.5 55t-7 46.5t-3 27.5q-6 -8 -19 -19t-28 -21t-31 -17t-29 -7q-20 0 -35.5 11.5t-27.5 29.5t-20.5 39t-14 40t-8 33.5t-2.5 19.5
q0 34 7 54.5t24 20.5q16 0 23.5 -14t11.5 -35t6 -45.5t7.5 -45.5t16.5 -35t32 -14q14 0 29.5 13.5t29 31t23.5 34.5t13 24q2 4 10.5 7t18.5 3q9 0 16.5 -3.5t7.5 -11.5q0 -19 -2 -36t-2 -34q0 -34 3.5 -72.5t14 -71t29.5 -54t49 -21.5z" />
    <glyph glyph-name="afii10090" unicode="&#x448;" horiz-adv-x="967" 
d="M741 126q-14 -28 -31 -53t-38.5 -44.5t-47.5 -31t-58 -11.5q-30 0 -55.5 12.5t-46.5 33t-37 47t-26 53.5q-8 -20 -20.5 -44t-32 -45t-45.5 -35t-61 -14q-47 0 -80 19t-53.5 49t-29.5 67.5t-9 74.5q0 13 1 27.5t4.5 26.5t11.5 19.5t23 7.5q14 0 19.5 -18t7.5 -45t5 -59
t13 -59t30.5 -45t58.5 -18q27 0 47.5 15t36.5 38.5t28 52t22 55.5l4 11q0 22 7 35.5t20 13.5q15 0 23 -5.5t12 -14t5 -19.5t2 -23v-9q1 -26 10 -54t24.5 -51.5t37.5 -38.5t51 -15q24 0 45 14t38 37t30.5 54t21.5 65q5 17 15 26.5t20 9.5q14 0 20.5 -4.5t9.5 -11t3.5 -15
t2.5 -17.5q6 -32 16 -61.5t25.5 -53t37.5 -37.5t51 -14q20 0 37 8t21 8q9 0 17 -10t8 -18q0 -5 -10.5 -10.5t-26 -10t-32.5 -7.5t-29 -3q-33 0 -58 12t-43 32t-30.5 46t-22.5 55zM537 -204q-42 -4 -83 -10.5t-82.5 -12.5t-84 -10t-86.5 -4q-20 0 -37.5 4.5t-19.5 13.5v4
q1 14 12.5 23t30 15t42.5 9t49 4q57 3 131 6.5t161 10.5l141 12q3 0 14.5 2t26.5 3.5t31.5 3t30.5 1.5h9q21 0 21 -8q-1 -5 -2 -10.5t-6 -7.5q-76 -15 -154.5 -29t-144.5 -20z" />
    <glyph glyph-name="afii10091" unicode="&#x449;" horiz-adv-x="748" 
d="M629 151q-5 -32 -19 -66.5t-39 -57.5q-14 -14 -32 -21.5t-38 -7.5q-18 0 -36 7t-33.5 19t-28.5 27t-20 32q-27 -54 -67.5 -78.5t-78.5 -24.5q-34 0 -63 18t-50 49.5t-32.5 74t-11.5 90.5q0 32 9.5 55.5t32.5 23.5q7 0 9.5 -19t5 -47t7 -61.5t17 -61.5t35 -47t60.5 -19
q15 0 30 8t28 22.5t22 33.5t14 40q-1 16 -4.5 37t-3.5 52q0 32 7 42t20 10q3 0 8 -0.5t10 -3t9 -8t4 -15.5l2 -22q3 -29 10.5 -61t20 -58.5t31 -44t44.5 -17.5q39 0 61 49t22 134q0 12 -3.5 16.5t-3.5 12.5t7.5 20t25.5 12q14 0 27 -26.5t25.5 -66.5t24 -88.5t22.5 -91.5
q17 35 24.5 46.5t13.5 11.5q11 0 19 -7t8 -25q0 -2 -4.5 -12t-11 -24t-14 -30.5t-13.5 -30.5q4 -23 8 -49.5t8 -55t6.5 -56.5t2.5 -52q0 -30 -3 -56t-10.5 -46t-19.5 -32.5t-30 -14.5q-3 0 -6 -0.5t-5 -0.5q-21 0 -36 8.5t-25.5 23t-15.5 32.5t-5 37q0 30 8.5 65.5t20 71
t24 67.5t21.5 55q-13 62 -25 113.5t-27 89.5zM702 -132q-3 -6 -9.5 -22.5t-14 -38t-13 -46t-5.5 -45.5q0 -20 6 -33.5t24 -13.5q14 0 19 23t5 55q0 29 -4 63.5t-8 57.5z" />
    <glyph glyph-name="afii10092" unicode="&#x44a;" horiz-adv-x="579" 
d="M160 367q-36 0 -52 -8q-9 -4 -19 -13t-17 -16q-8 -9 -16 -16.5t-15 -7.5q-6 0 -10 5t-6 11.5t-2.5 13.5t-0.5 10q0 9 8 19.5t21 20t28.5 16.5t29.5 9q12 2 22 4t19 4q10 2 18.5 4t18.5 2q8 0 15 -1t12 -7t8 -18.5t3 -34.5q0 -16 -1 -34t-3 -38t-3 -42.5t-1 -41.5
q0 -32 4 -59t18 -42q10 24 28.5 47.5t42.5 42.5t52.5 30.5t59.5 11.5q21 0 42 -5t38.5 -17.5t28.5 -33.5t11 -52q0 -28 -10.5 -54t-29.5 -46t-45 -32t-57 -12q-24 0 -42.5 2.5t-34.5 7t-31 12t-31 16.5l-2 -17q-1 -5 -1 -15q-1 -10 -2 -17t-3 -10q-2 -4 -7 -4q-7 0 -16 6
q-10 6 -13.5 15.5t-3.5 20.5q0 10 1 19t3 17q2 10 2 14q-35 37 -44 72.5t-9 70.5q0 8 0.5 16t0.5 16t0.5 16.5t0.5 16.5v7t1 10q1 10 1.5 23t0.5 24q0 17 -2 29t-9 12zM287 93q-3 -5 -6.5 -11t-3.5 -11q10 -8 21.5 -15t26.5 -12.5t34 -8.5t45 -3q15 0 31.5 7t29.5 19.5
t21.5 30t8.5 38.5q0 26 -19 42.5t-46 16.5q-18 0 -37.5 -6.5t-38.5 -18t-35 -27t-27 -33.5l-6 -8h1v0zM276 72v-1v1z" />
    <glyph glyph-name="afii10093" unicode="&#x44b;" horiz-adv-x="808" 
d="M145 168q7 8 17 22t18.5 30.5t14.5 33.5t6 31q0 6 -4 16t-15 10q-12 0 -20 -9.5t-13 -23.5t-7 -32t-2 -34q0 -27 5 -44zM103 120q-6 14 -11 37.5t-5 49.5q0 28 5 57t16.5 53t30 39t45.5 15q34 0 54 -22.5t20 -56.5q0 -21 -9.5 -46.5t-23.5 -49.5t-29.5 -44.5t-26.5 -32.5
l-5 -5q8 -29 25.5 -52.5t39.5 -40t46.5 -26t47.5 -9.5q29 0 53 15.5t24 47.5q0 34 -16 62t-35 53t-35 48.5t-16 47.5q0 10 1.5 21t10 19t27 13.5t52.5 5.5q44 0 100 -7t105.5 -23t83 -42t33.5 -64q0 -12 -3 -27.5t-7 -32t-7 -31.5t-3 -25q0 -5 3 -12.5t9 -14.5t16 -12t24 -5
q29 0 44.5 8.5t22.5 8.5q8 0 16 -10t8 -18q0 -4 -9 -9t-23.5 -10t-32.5 -8.5t-37 -3.5q-16 0 -32 5t-28.5 15t-20.5 25.5t-8 37.5q0 33 7.5 63t7.5 54q0 19 -24.5 35t-61 27t-79 17t-77.5 6q-25 0 -40.5 -4t-15.5 -12q0 -13 14 -29.5t31.5 -40.5t31.5 -56.5t14 -76.5
q0 -29 -11 -50t-29 -34.5t-40.5 -20t-45.5 -6.5q-29 0 -59 10.5t-57 29t-49 44t-37 55.5q-4 -2 -9.5 -6t-15.5 -4q-13 0 -19.5 6.5t-6.5 11.5q0 6 7 13z" />
    <glyph glyph-name="afii10094" unicode="&#x44c;" horiz-adv-x="607" 
d="M370 8q21 0 45.5 7.5t46 22t35.5 34.5t14 46t-18 40.5t-40 14.5q-26 0 -50.5 -19.5t-43.5 -45.5t-30 -52.5t-11 -40.5q0 -1 14.5 -4t37.5 -3zM157 203q4 28 9.5 63.5t14 66.5t20 52t26.5 21q21 0 29 -14.5t8 -34.5q0 -26 -9 -53t-19.5 -53.5t-19.5 -50.5t-9 -44
q0 -37 18.5 -70.5t50.5 -50.5q4 11 11 29.5t18.5 40t27 43.5t35.5 40t44.5 29.5t54.5 11.5q19 0 36.5 -5.5t31 -17t21.5 -29.5t8 -42q0 -42 -18 -75t-47.5 -56t-67.5 -35t-78 -12q-33 0 -64 12t-56.5 33t-45 49.5t-28.5 62.5q-18 -26 -42.5 -47.5t-48.5 -37t-43.5 -24.5
t-27.5 -9q-15 0 -18 7t-3 17q0 2 1 6t5 6q26 11 53 29.5t51 41t43 48.5t28 52z" />
    <glyph glyph-name="afii10095" unicode="&#x44d;" horiz-adv-x="484" 
d="M216 -19q74 0 107.5 42.5t33.5 109.5q0 14 -1 25t-3 25q-28 -4 -60.5 -14.5t-60.5 -27.5t-46.5 -42.5t-18.5 -59.5q0 -8 3 -18t9 -19t15.5 -15t21.5 -6zM405 189q2 -15 2.5 -27.5t0.5 -26.5q0 -42 -11 -78.5t-34 -64t-59 -43.5t-85 -16q-35 0 -56.5 12t-34 29t-17 36.5
t-4.5 34.5q0 36 17 66.5t48 54t74 39t94 22.5q-13 38 -45.5 63t-68.5 25q-20 0 -41 -9.5t-38 -25t-28 -35t-11 -40.5q0 -11 -5 -17t-10 -6q-3 0 -9 3t-11 8.5t-9 12t-4 13.5q0 29 16 55.5t41.5 46.5t56.5 32t61 12q31 0 57.5 -12.5t46.5 -32t33.5 -42.5t19.5 -43
q24 1 49.5 6t47 10.5t36.5 10.5t19 5q5 0 6.5 -5.5t1.5 -10.5q0 -15 -15.5 -25.5t-38 -18t-48 -12t-45.5 -6.5z" />
    <glyph glyph-name="afii10096" unicode="&#x44e;" horiz-adv-x="629" 
d="M354 345q0 10 12.5 14t23.5 4q37 0 71 -12.5t60.5 -37t42 -62t15.5 -87.5q0 -32 -9.5 -65t-28.5 -60t-46 -44t-61 -17q-27 0 -49 9.5t-40 25.5t-31.5 36.5t-23.5 43.5q-13 -26 -30.5 -47t-36 -35t-37.5 -21.5t-35 -7.5q-41 0 -68 65.5t-27 196.5q0 54 10 84.5t26 30.5
q7 0 14 -6.5t7 -26.5q0 -12 -1 -23t-2 -24t-2 -28.5t-1 -37.5q0 -29 3.5 -58.5t11 -53t18 -38t24.5 -14.5q19 0 37 13t31.5 34t21.5 46.5t8 49.5v30q0 35 15 61.5t44 26.5q11 0 15 -11t4 -25t-2.5 -28.5t-4.5 -29.5v-13q0 -27 3.5 -56.5t13.5 -54.5t28 -41.5t47 -16.5
q25 0 42.5 12.5t28.5 32t16 43.5t5 47q0 44 -13.5 73.5t-34.5 48.5t-47.5 28t-52.5 13q-11 2 -13 6t-2 7z" />
    <glyph glyph-name="afii10097" unicode="&#x44f;" horiz-adv-x="544" 
d="M568 13q0 -8 -13.5 -14.5t-31 -11t-34.5 -6.5t-25 -2q-26 0 -43 12.5t-17 50.5q0 12 2.5 25t2.5 21q0 9 -7 9q-11 1 -36 1t-48 3q-29 -26 -60 -49t-61 -39.5t-58.5 -26t-50.5 -9.5q-15 0 -31 3.5t-28.5 10.5t-20.5 18.5t-8 28.5q0 11 2.5 24t8.5 24.5t15.5 19t23.5 7.5
q13 0 20 -8t7 -28q0 -10 -2.5 -17t-6.5 -15q0 -8 4.5 -15t15.5 -7q40 0 88 27.5t92 66.5q-29 15 -48 42t-19 72q0 27 11 53t30 46.5t44.5 33t55.5 12.5q46 0 70.5 -18t24.5 -61q0 -35 -21.5 -75t-55.5 -78h12q17 0 34 1t34 1q12 0 18 -8.5t6 -19.5q0 -16 -4.5 -31.5
t-4.5 -33.5q0 -17 7.5 -23.5t19.5 -6.5q4 0 7.5 0.5t8.5 1.5q19 4 30.5 9.5t14.5 5.5q9 0 17 -9.5t8 -17.5zM254 235q0 -36 13.5 -55t36.5 -27q36 38 59 75t23 62q0 17 -10 28t-32 11q-17 0 -33 -8.5t-29 -22t-20.5 -30.5t-7.5 -33z" />
    <glyph glyph-name="afii10071" unicode="&#x451;" horiz-adv-x="407" 
d="M291 546q13 0 25.5 -9.5t12.5 -29.5q0 -26 -14 -40t-30 -14q-14 0 -24 9.5t-10 29.5q0 10 4.5 19.5t10.5 17t13 12.5t12 5zM143 536q17 0 22 -10.5t5 -24.5t-5.5 -24.5t-14.5 -18.5t-19.5 -12t-20.5 -4q-13 0 -22.5 8.5t-9.5 27.5q0 10 6.5 20.5t16 19t21 13.5t21.5 5z
M433 12q0 -5 -12.5 -12t-29.5 -12q-11 -4 -31 -7.5t-40 -3.5q-46 0 -85 16.5t-67 46t-43.5 69.5t-15.5 87q0 33 8 63t24.5 53t41 36.5t57.5 13.5q17 0 30 -7.5t22 -20t13.5 -28.5t4.5 -32q0 -21 -6.5 -45.5t-21 -47.5t-38.5 -43t-59 -32q8 -20 23 -36t34.5 -27t42 -17.5
t44.5 -6.5q10 0 18.5 1.5t17.5 3.5q18 5 29 10.5t14 5.5q10 0 17.5 -10t7.5 -18zM252 265q0 7 -4 20.5t-19 13.5q-16 0 -28.5 -7.5t-21.5 -20t-13.5 -28.5t-4.5 -33q0 -25 2 -36.5t5 -22.5q10 0 24.5 10t27.5 26t22.5 36.5t9.5 41.5z" />
    <glyph glyph-name="afii10103" unicode="&#x456;" horiz-adv-x="369" 
d="M154 253q12 -7 21 -10t9 -19q0 -17 -6.5 -37.5t-6.5 -36.5q0 -30 10.5 -53.5t27 -40.5t36.5 -26t40 -9q21 0 36 3t24.5 6.5t15.5 6.5t9 3q10 0 17.5 -10.5t7.5 -17.5q0 -4 -9.5 -9.5t-26 -10.5t-38.5 -8.5t-46 -3.5q-52 0 -85 20t-52 51.5t-26.5 69.5t-7.5 74
q0 20 7.5 38t34.5 20h8zM83 517q0 10 9.5 15.5t23.5 5.5q17 0 34.5 -11.5t22.5 -37.5q0 -17 -10.5 -27.5t-30.5 -10.5q-9 0 -18 7t-16 17.5t-11 21.5t-4 20z" />
    <glyph glyph-name="endash" unicode="&#x2013;" horiz-adv-x="951" 
d="M398 174q-49 -1 -96.5 -1.5t-85.5 -0.5q-29 0 -48 1t-29.5 4t-14.5 9t-4 17q0 7 16 11.5t42 7t59.5 3t68.5 0.5q85 0 169 -1.5t169 -1.5q21 0 47 1q22 0 51.5 0.5t62.5 0.5q13 0 19.5 -5.5t6.5 -10.5q0 -12 -13.5 -22.5t-33.5 -10.5h-136.5t-92 -0.5t-74.5 -0.5h-83z" />
    <glyph glyph-name="quoteright" unicode="&#x2019;" horiz-adv-x="407" 
d="M201 680q20 38 23 68.5t3 42.5q0 30 -14.5 47t-32.5 30t-32.5 25t-14.5 30q0 28 28 28q17 0 40 -11.5t43.5 -33.5t34.5 -52.5t14 -68.5q0 -21 -10 -49.5t-25 -55t-33.5 -44.5t-35.5 -18q-10 0 -10 17q0 8 8.5 21t13.5 24z" />
    <glyph glyph-name="ellipsis" unicode="&#x2026;" horiz-adv-x="1638" 
d="M207 25q0 14 6.5 24t16 16t20 8.5t19.5 2.5q11 0 18 -8t11.5 -18.5t6.5 -21.5t2 -17q0 -12 -6 -23t-28 -11q-4 0 -15 2.5t-22 8t-20 14.5t-9 23zM745 37q0 14 6.5 24t16 16t20 8.5t19.5 2.5q13 0 21.5 -11t13.5 -25t7.5 -26.5t2.5 -14.5q0 -12 -6 -23t-28 -11
q-5 0 -15 1.5t-21 7.5t-21 18t-16 33zM1287 25q0 14 6.5 24t16 16t20 8.5t19.5 2.5q11 0 18 -8t11.5 -18.5t6.5 -21.5t2 -17q0 -12 -6 -23t-28 -11q-4 0 -15 2.5t-22 8t-20 14.5t-9 23z" />
    <glyph glyph-name="Euro" unicode="&#x20ac;" horiz-adv-x="775" 
d="M79 309q21 8 54 9t71 3h6q1 71 21 130t51 101t71 65t82 23q29 0 63 -13.5t63.5 -32.5t49.5 -40t20 -37q0 -8 -8 -12.5t-18 -4.5q-11 0 -20 7q-13 13 -29.5 27.5t-35 26.5t-38 19.5t-37.5 7.5q-43 0 -75.5 -23t-54 -60t-33.5 -84.5t-15 -95.5q43 2 94.5 4t102.5 2h47.5
t40 -1t28 -2t10.5 -2q0 -23 -11.5 -29.5t-25.5 -6.5q-6 0 -13 0.5t-14 0.5l-257 -17q3 -37 17 -71q50 0 102.5 3.5t100.5 3.5h55q13 0 25 0.5t24 0.5q21 0 35 -0.5t14 -2.5q0 -17 -5.5 -29.5t-18.5 -12.5h-58q-36 -4 -77 -5.5t-85 -3.5l-88 -5q19 -36 46.5 -67t60.5 -54.5
t70.5 -37t76.5 -13.5q29 0 57 5.5t57 10.5h5q8 0 11.5 -6.5t3.5 -14.5t-4 -18q0 -1 -29.5 -11.5t-80.5 -10.5q-55 0 -106 15.5t-94.5 43.5t-78 67.5t-57.5 86.5q-58 -4 -99 -9t-51 -5q-13 0 -19 6t-6 14q0 23 23.5 33t80.5 10l50 3q-10 31 -15 71q-3 0 -6 -0.5t-7 -0.5
q-48 -5 -83 -9.5t-45 -4.5q-5 0 -8 1t-3 8q0 12 2.5 28t16.5 16z" />
    <glyph glyph-name="afii61352" unicode="&#x2116;" horiz-adv-x="1551" 
d="M726 -90q-39 0 -72 28t-62.5 77.5t-56.5 118t-53 150.5q-20 60 -33 113t-23 100t-19 88.5t-19 78.5q-13 -89 -23.5 -182.5t-20.5 -188.5t-20.5 -190.5t-23.5 -186.5q-1 -20 -4.5 -49.5t-10.5 -62t-17.5 -65.5t-25.5 -59t-34 -42t-42 -16q-20 0 -39.5 17.5t-36 44
t-30.5 57.5t-23.5 58.5t-15 46.5t-5.5 22q0 17 6.5 23.5t15.5 6.5q6 0 11 -3t7 -9q4 -16 14.5 -51t25.5 -71t34 -63t40 -27q13 0 25 21t22 54.5t18 73.5t14 78.5t9.5 70.5t5.5 48q7 98 19 197.5t26.5 207t29.5 226t29 255.5q1 5 4 8.5t7 6.5q4 4 9 7q7 0 12 -5t8 -11.5
t4.5 -13t1.5 -10.5l18 -126q14 -98 33 -210t57 -222l10 -32q15 -47 34 -104.5t41 -107.5t46 -84t49 -34q28 0 49 29t34.5 78t20 113.5t6.5 135.5q0 139 -11.5 260.5t-27 216.5t-32.5 160.5t-27 94.5q-8 11 -8 20q0 11 7.5 17.5t16.5 6.5q17 0 33 -29t31 -80.5t28 -121.5
t22 -152.5t14.5 -174t5.5 -184.5q0 -96 -7.5 -178t-24 -142t-43 -94t-63.5 -34zM1028 333q41 8 77.5 13t75.5 7.5t84.5 3.5t105.5 1q27 0 51 -1t42 -3t29 -4.5t11 -5.5q0 -19 -20 -26.5t-52 -7.5q-59 -4 -118 -8.5t-111.5 -9t-95 -9t-68.5 -8.5q-12 -4 -22 -4
q-14 0 -19.5 6.5t-5.5 16.5q0 13 6.5 23.5t29.5 15.5zM1024 931q0 -19 1.5 -45t6.5 -55v26q0 48 14.5 92t39.5 77.5t59.5 53.5t74.5 20q44 0 76.5 -28t54 -73t32 -101.5t10.5 -114.5q0 -69 -12 -127t-35.5 -99.5t-57.5 -65t-78 -23.5q-42 0 -76 23t-59.5 59.5t-43.5 83
t-29.5 93t-17 88.5t-5.5 71q0 23 5.5 42t22.5 19q7 0 12 -2.5t5 -13.5zM1075 680q-5 0 -9 3q11 -33 25.5 -62t32.5 -50.5t39 -34.5t47 -13q33 0 56.5 21.5t39 56.5t23 79.5t7.5 89.5q0 57 -8.5 106t-24 84t-37 55t-47.5 20q-29 0 -53.5 -16.5t-42 -44t-27.5 -62.5t-10 -72
q0 -25 1 -41.5t2.5 -29.5t3 -25t1.5 -27q0 -17 -5.5 -27t-13.5 -10z" />
  </font>
</defs>
</svg>
