<?xml version="1.0" standalone="no"?>
<!DOCTYPE svg PUBLIC "-//W3C//DTD SVG 1.1//EN" "http://www.w3.org/Graphics/SVG/1.1/DTD/svg11.dtd" >
<svg xmlns="http://www.w3.org/2000/svg" xmlns:xlink="http://www.w3.org/1999/xlink" version="1.1">
<metadata>
Created by FontForge 20201107 at Wed Nov 13 22:29:17 2024
 By 
Rasfire Regular Personal Use (c) Nathatype. 2022. All Right Reserved
</metadata>
<defs>
<font id="RasfireRegularPersonalUse" horiz-adv-x="1093" >
  <font-face 
    font-family="Rasfire Regular Personal Use"
    font-weight="400"
    font-stretch="normal"
    units-per-em="2048"
    panose-1="0 0 0 0 0 0 0 0 0 0"
    ascent="1638"
    descent="-410"
    x-height="1092"
    cap-height="1438"
    bbox="-1294.35 -520 5974 2023"
    underline-thickness="102"
    underline-position="-307"
    unicode-range="U+0020-FB06"
  />
<missing-glyph horiz-adv-x="512" 
 />
    <glyph glyph-name="dollar" unicode="Rasfire" horiz-adv-x="5988" 
d="M973 225q45 -68 98.5 -119.5t84.5 -68.5l30 -17h-365q2 2 4 6t4 20.5t-2.5 38t-22 59t-48.5 81.5l-209 312h-209v-299q0 -46 7.5 -86t18.5 -63t22 -39.5t18 -23.5l8 -6h-363q3 2 8 6t18 21.5t22.5 39.5t17.5 62t8 87v942q0 48 -7.5 88.5t-18.5 63.5t-22 39t-19 22l-7 6
h602q241 0 370.5 -114.5t129.5 -307.5q0 -168 -107.5 -288.5t-289.5 -143.5zM338 555h244q175 0 266.5 106.5t91.5 307.5q0 199 -98 303t-277 104h-227v-821zM1694 1055q-52 0 -92.5 -13.5t-66 -38t-43 -52.5t-26 -65.5t-11.5 -69.5t-3 -71l-203 80q20 81 90.5 139.5
t163.5 84.5t197 26q125 1 210 -23.5t135 -77t71.5 -125t21.5 -175.5q-17 4 -54.5 13t-76.5 17.5t-84 14.5q-1 183 -56 260.5t-173 75.5zM2484 883q0 -45 32.5 -78t85 -51t120.5 -36t138 -33t138 -43t120.5 -64.5t85 -99.5t32.5 -146q0 -73 -25 -129t-66.5 -90.5t-100.5 -57
t-121 -31.5t-134 -10q-179 -2 -293 69t-184 241q-83 198 -174 254v-338q0 -46 7.5 -86t18.5 -63.5t22 -40.5t18 -24l8 -6h-289v160q-71 -170 -319 -170q-122 0 -216 27t-149.5 74t-83.5 106t-27 127q0 81 32.5 144t84.5 101.5t125 63t146 34t155 9.5q135 0 250 -17t195 -40
t151.5 -67.5t112 -77.5t84.5 -92t61 -88.5t49 -89.5q28 -51 43 -76t40.5 -56t54.5 -44t67 -13q118 -1 180 70t62 192q0 71 -38.5 120.5t-100 76t-136 46.5t-148.5 40t-135.5 47t-100 77t-38.5 121q0 70 32 120t89 77.5t125 40t150 12.5q342 0 420 -180l-142 -55
q-17 100 -97 159.5t-181 59.5q-236 0 -236 -176zM1923 322v325q-126 33 -252 33q-74 0 -132.5 -21t-94 -54t-59.5 -77.5t-33 -87t-9 -86.5q0 -75 18.5 -133t46.5 -91.5t68 -54.5t77.5 -28.5t80.5 -7.5q72 0 127 23t84.5 55.5t48.5 74.5t24 72.5t5 57.5zM3555 1116v-166h164
v-26h-164v-686q0 -46 7.5 -86t18.5 -63t22 -39.5t19 -23.5l7 -6h-362q3 2 8 6t17.5 21.5t22 40t17.5 62.5t8 88v686h-123v26h123v166q0 102 30.5 178t83.5 119t115.5 63.5t135.5 20.5q54 0 106.5 -8.5t110.5 -29.5t93.5 -65t35.5 -106q0 -61 -44 -105t-106 -44
q-61 0 -105 43.5t-44 105.5q0 63 35 98q-6 36 -32.5 58t-64.5 22q-39 0 -66 -21t-40.5 -47t-20 -78.5t-7.5 -84t-1 -95.5v-24zM4024 225q0 -41 8 -77.5t19 -58.5t22 -38.5t19 -23.5l8 -7h-364q3 2 8 6.5t18 22.5t23 39t18 58t8 79v596q0 68 -18.5 120t-36.5 71l-18 18
l286 37v-842zM4710 1075q81 0 142.5 -9t100.5 -24t66.5 -39t42 -48t23.5 -56l-198 -82q-8 117 -51 176.5t-142 59.5q-129 0 -184.5 -91.5t-55.5 -271.5l2 -452q0 -46 7.5 -85.5t18 -62.5t21 -40t17.5 -24l8 -6h-360q3 2 8 6t17.5 21.5t22 40t17.5 62.5t8 88v561
q0 76 -18.5 133t-36.5 76l-18 18l286 43v-125q57 131 256 131zM5618 63q113 0 193.5 65.5t117.5 186.5l27 -39q-33 -106 -125 -185t-219 -79q-79 0 -147.5 11t-144 45.5t-128 91t-87 155.5t-34.5 230q0 113 24.5 203t67 151t103.5 101t132 57.5t154 17.5q106 0 189 -28
t146 -96.5t87 -174.5l-688 -227q1 -250 90 -368t242 -118zM5552 1057q-43 0 -78 -11t-70.5 -43t-60 -84t-39.5 -140t-16 -206l481 160q0 146 -65 235t-152 89z" />
    <glyph glyph-name="e-mymr" unicode="em" horiz-adv-x="2693" 
d="M2327 0q3 2 8.5 6t18.5 22t23 41t18.5 64.5t8.5 91.5v582q0 146 -34.5 207t-131.5 61q-83 0 -138.5 -48t-80 -128t-24.5 -190v-267q0 -708 -934 -708q-148 0 -281.5 25t-259 85t-217 151t-146.5 232.5t-55 319.5q0 112 27 205t74 156.5t111 107.5t137 64t153 20
q110 0 197 -29.5t152.5 -101t90.5 -181.5l-716 -237q0 -126 22 -232t60 -185t93 -141.5t119 -103.5t139.5 -68t152 -38.5t159.5 -11.5q74 0 138 5.5t137 22.5t131.5 44.5t114 75t93 110.5t60 154.5t22.5 203.5v367q0 190 -31 256.5t-136 66.5q-114 0 -178 -102t-64 -266
l2 -484q0 -49 8 -90t19 -65t22 -40.5t19 -23.5l8 -6h-379q3 2 8.5 6t19 22t23.5 41t18.5 64.5t8.5 91.5v584q0 50 -8 93t-19.5 69t-23 44.5t-19.5 26.5l-8 7l301 45v-156q68 162 287 162q120 0 193 -23.5t104 -61t43 -97.5q36 95 104.5 138.5t189.5 43.5q61 0 108.5 -5
t83 -17t61.5 -26.5t43 -39t27 -48t15.5 -60.5t7 -69t1.5 -81v-529q0 -49 8 -90t19 -65t22.5 -40.5t19.5 -23.5l8 -6h-378zM604 1079q-44 0 -80.5 -11t-73.5 -44t-62 -87t-41 -145.5t-17 -213.5l501 165q0 151 -68.5 243.5t-158.5 92.5z" />
    <glyph glyph-name="ff" unicode="ff" horiz-adv-x="962" 
d="M979 1395q31 0 61.5 -2t53 -4.5t50.5 -9t42.5 -9.5t42 -12t35 -11.5t35 -12.5t30.5 -11l-129 -174q-6 13 -22.5 47.5t-23.5 47t-22.5 38.5t-28 37t-32 25t-42 19t-50.5 5q-38 0 -66 -12t-45.5 -37.5t-28 -52.5t-15 -70.5t-6 -76t-1.5 -83.5v-67h170v-27h-170v-715
q0 -49 8 -90t19.5 -65.5t23 -41.5t19.5 -24l8 -6h-377q3 2 8 6.5t18.5 22.5t23.5 41t18 65t8 92v715h-238v-715q0 -49 8 -90t19.5 -65.5t23 -41.5t19.5 -24l8 -6h-377q3 2 8 6.5t18.5 22.5t23.5 41t18 65t8 92v715h-129v27h129v45q0 60 21 114.5t62 99t108 71t151 26.5
q115 0 189 -43q88 113 315 113zM594 1038q0 90 24 154q-26 52 -57 79t-80 27q-125 0 -125 -170v-159h238v69z" />
    <glyph glyph-name="fi" unicode="fi" horiz-adv-x="962" 
d="M360 1141v-172h170v-27h-170v-715q0 -49 8 -90t19.5 -65.5t23 -41.5t19.5 -24l8 -6h-379q3 2 8.5 6.5t19 22.5t23.5 41t18.5 65t8.5 92v715h-129v27h129v174q0 85 21 153t56.5 112.5t85 74.5t103 42.5t113.5 12.5q43 0 86 -4.5t94.5 -19t90 -37.5t64.5 -63t26 -93
q0 -65 -45.5 -110.5t-110.5 -45.5t-110.5 45.5t-45.5 110.5t37 102q-6 37 -33.5 60.5t-66.5 23.5q-41 0 -69.5 -22t-42.5 -49.5t-21 -82t-8 -88t-1 -100.5v-24zM549 0q3 2 8.5 7t19 23.5t23.5 40.5t18.5 61t8.5 83v621q0 44 -8 82.5t-19 62.5t-22 41t-19 24l-8 7l299 39
v-877q0 -43 8 -81t19.5 -61.5t23 -41t19.5 -24.5l8 -7h-379z" />
    <glyph glyph-name="ffi" unicode="ffi" horiz-adv-x="1421" 
d="M817 1141v-172h170v-27h-170v-715q0 -49 8 -90t19.5 -65.5t23 -41.5t19.5 -24l8 -6h-377q3 2 8 6.5t18.5 22.5t23.5 41t18 65t8 92v715h-238v-715q0 -49 8 -90t19.5 -65.5t23 -41.5t19.5 -24l8 -6h-377q3 2 8 6.5t18.5 22.5t23.5 41t18 65t8 92v715h-129v29h129v43
q0 61 21 116t62 99.5t108 71t151 26.5q81 0 148 -24q20 67 57.5 115t86 73t99 36t107.5 11q54 0 110.5 -10t116 -32.5t97.5 -68t38 -106.5q0 -64 -46 -110t-111 -46q-64 0 -110 45.5t-46 110.5t37 102q-6 37 -34 60.5t-67 23.5q-21 0 -38.5 -4.5t-30.5 -16t-23.5 -22.5
t-18 -32.5t-13 -36t-8.5 -43t-5 -45t-3 -49.5t-1 -48v-50v-19zM594 1108q0 60 12 109q-49 83 -125 83q-125 0 -125 -170v-159l238 -2v139zM1008 0q3 2 8 7t18 23.5t23 40.5t18 61t8 83l2 621q0 44 -8 82.5t-19.5 62.5t-22.5 41t-19 24l-8 7l299 39l2 -877q0 -43 7.5 -81
t18.5 -61.5t22.5 -41t18.5 -24.5l8 -7h-376z" />
    <glyph glyph-name="st" unicode="st" horiz-adv-x="1658" 
d="M1421 254q0 -68 31 -103.5t76 -35.5t82 33.5t43 89.5q0 -125 -67.5 -184.5t-166.5 -59.5q-102 0 -161.5 64.5t-59.5 185.5v551q-52 -25 -121 -25q-79 0 -154 32t-131.5 78t-108 91.5t-105 77.5t-101.5 32q-81 0 -132.5 -39.5t-51.5 -109.5q0 -43 27 -75.5t72 -54
t104 -39.5t124 -36t130 -38.5t124 -51.5t104 -71t72 -101.5t27 -138.5q0 -81 -29.5 -141.5t-77 -96.5t-116.5 -58.5t-136.5 -30t-148.5 -7.5q-60 0 -116 5t-128 23t-125.5 47.5t-95.5 84.5t-51 129l223 59q0 -87 24.5 -152.5t67 -102t93 -54t108.5 -17.5q138 0 210.5 73.5
t72.5 201.5q0 74 -39 127t-101.5 83t-138 53.5t-151.5 47t-138.5 53.5t-101.5 83.5t-39 127.5q0 110 80.5 176t247.5 66q75 0 143.5 -20.5t120.5 -50t104 -58.5t116.5 -49.5t134.5 -20.5q135 0 207.5 62t72.5 202q0 92 -60.5 158t-162.5 66q-78 0 -129 -49.5t-51 -163.5
q0 -34 -20 -53t-48 -19q-27 0 -47.5 19.5t-20.5 54.5q0 50 21.5 91.5t55 67t76.5 43t84.5 24.5t80.5 7q118 0 195 -72t77 -200v-176h205v-27h-205v-688z" />
    <glyph glyph-name="a_b" unicode="ab" horiz-adv-x="2301" 
d="M1810 1100q121 0 212 -38.5t147 -110t84 -168t28 -218.5q0 -276 -120 -426t-359 -147q-65 1 -115 8t-106 28t-100 58t-86.5 100t-75.5 150q-33 92 -77 149.5t-122 96.5v-353q0 -49 8 -90.5t19.5 -66t23 -42t19.5 -24.5l8 -6h-301v168q-70 -178 -332 -178
q-127 0 -224.5 28t-155 77t-86.5 110.5t-29 132.5q1 85 34.5 150.5t88 105.5t130 66t151.5 35.5t161 9.5q112 0 212 -11.5t178 -30t147.5 -47.5t121 -59.5t98.5 -70t79 -74.5t63 -78.5t51 -75.5t43 -72q26 -45 39.5 -66t35 -48.5t42 -40t45.5 -15.5q66 2 115 34.5t77.5 82.5
t46 123.5t23.5 145t6 159.5q0 87 -7 158t-26 139.5t-49.5 115t-80.5 74.5t-117 27q-232 0 -232 -626q-6 4 -43.5 39t-82 68t-99.5 62v564q0 50 -7 88.5t-17.5 57t-21 30t-17.5 14.5l-7 2l293 62v-455q36 57 110.5 88t155.5 31zM659 1077q-64 -1 -111.5 -21.5t-73.5 -50.5
t-41.5 -75.5t-20 -85t-4.5 -88.5l-211 84q16 64 62 114.5t111 81.5t141 47.5t155 16.5q129 1 217.5 -25t140.5 -80.5t74 -130t22 -182.5q-17 4 -54.5 13.5t-79 18t-89.5 15.5q0 189 -57.5 269.5t-180.5 78.5zM897 313v340q-133 35 -260 35q-77 0 -138 -22t-98.5 -56.5
t-62.5 -80.5t-35 -90.5t-10 -90.5q0 -78 19 -138t49 -95t72 -57.5t81.5 -30t83.5 -7.5q74 0 131 24t88 57.5t50 77t24.5 75t5.5 59.5z" />
    <glyph glyph-name="a_e" unicode="ae" horiz-adv-x="2220" 
d="M659 1077q-65 -1 -112.5 -21.5t-73.5 -50.5t-41.5 -75.5t-19.5 -84.5t-4 -89l-211 84q20 84 93.5 144.5t170.5 88t205 27.5q129 1 217.5 -25t140.5 -80.5t74 -130t22 -182.5q-2 0 -81 18.5t-142 28.5q-1 190 -58 270t-180 78zM1499 551q0 -4 1 -60.5t1 -60.5
q-44 54 -108 106.5t-115 77.5q24 486 498 486q169 0 285.5 -75.5t154.5 -238.5zM1776 1079q-44 0 -80.5 -11t-74 -44t-63 -87t-42 -145.5t-17.5 -213.5l504 165q0 151 -68.5 243.5t-158.5 92.5zM1843 45q117 0 202.5 68t123.5 194l26 -39q-31 -106 -143 -191t-246 -85
q-82 0 -157 17.5t-144.5 54.5t-123 103t-81.5 155q-60 181 -180 258v-351q0 -49 8 -90.5t19.5 -66t23 -42t19.5 -24.5l8 -6h-301v168q-73 -178 -332 -178q-127 0 -224.5 28t-155.5 77t-87 110.5t-28 132.5q0 85 34 150.5t88 105.5t130 66t152 35.5t161 9.5q162 0 293 -22
t219 -60.5t156.5 -88t113.5 -104t82 -109.5t70 -104.5t69 -88t87.5 -61t117.5 -22.5zM897 313v344q-132 31 -262 31q-77 0 -137.5 -22t-98 -56.5t-62.5 -80.5t-34.5 -90.5t-9.5 -90.5q0 -78 19 -138t49 -95t71.5 -57.5t80.5 -30t83 -7.5q75 0 132.5 24t88 57.5t50 77t25 75
t5.5 59.5z" />
    <glyph glyph-name="a_k" unicode="ak" horiz-adv-x="2226" 
d="M1552 1436v-852q-150 63 -223 80v520q0 44 -8 81.5t-19.5 60.5t-23 39.5t-19.5 22.5l-8 7zM664 1077q-64 -1 -111.5 -21.5t-74 -50.5t-42 -75.5t-20 -85t-4.5 -88.5l-211 84q16 64 62 114.5t111 81.5t141 47.5t155 16.5q128 1 217.5 -26t140.5 -80t73.5 -122.5
t22.5 -164.5q-20 2 -91.5 11.5t-131.5 16.5q0 190 -56.5 267t-180.5 75zM1952 877l-242 -367q-12 6 -18 8q19 28 63 95t98.5 151t73.5 113q34 50 53 91t21.5 63t0.5 37t-8 20l-5 4h200q-5 -2 -13.5 -6.5t-35.5 -22.5t-54 -40t-64 -61.5t-70 -84.5zM1862 0q2 2 5 5.5t8.5 16
t7 28t-3 40.5t-17.5 53q-26 56 -98.5 135t-129.5 121l-82 -114v-92q0 -43 8 -78.5t19.5 -55.5t23 -34.5t19.5 -19.5l8 -5h-379q3 2 8.5 7t19 23.5t23.5 40.5t18.5 61t8.5 83v338q-110 37 -205 59v-383q0 -49 8 -90.5t19.5 -66t23 -42t19.5 -24.5l8 -6h-301v168
q-70 -178 -332 -178q-127 0 -224.5 28t-155 77t-86.5 110.5t-29 132.5q1 91 39.5 161t99 111t143.5 66t162 33t166 6q207 -3 402 -44t339 -100t277 -139.5t216 -149t155 -141.5q51 -55 97 -89.5t67 -43t32 -8.5h-407zM901 313v349q-2 0 -20 4t-21.5 4.5t-20.5 3.5t-23 4
t-22 3.5t-26 3t-26.5 2t-31 2t-33 1t-38.5 0.5q-76 0 -136.5 -22t-98 -57t-62.5 -81t-35 -91t-10 -91q0 -78 19 -138t49 -95t72 -57.5t81.5 -30t83.5 -7.5q74 0 131 24t88 57.5t50 77t24.5 75t5.5 59.5zM1552 311q5 7 31.5 48t34.5 51q-15 12 -66 43v-142z" />
    <glyph glyph-name="a_o" unicode="ao" horiz-adv-x="2285" 
d="M659 1077q-65 -1 -112.5 -21.5t-73.5 -50.5t-41.5 -75.5t-19.5 -84.5t-4 -89l-211 84q20 84 93.5 144.5t170.5 88t205 27.5q129 1 217.5 -25t140.5 -80.5t74 -130t22 -182.5q-2 0 -81 18.5t-142 28.5q-1 190 -58 270t-180 78zM1769 1100q79 0 147.5 -15t134 -54.5
t112 -100t74.5 -159t28 -224.5q0 -268 -129.5 -411.5t-363.5 -143.5q-102 0 -180.5 21.5t-131.5 61.5t-87 87.5t-60 109.5q-73 166 -122 235q-36 51 -71 73v-351q0 -49 8 -90.5t19.5 -66t23 -42t19.5 -24.5l8 -6h-301v168q-73 -178 -332 -178q-127 0 -224.5 28t-155.5 77
t-87 110.5t-28 132.5q0 85 34 150.5t88 105.5t130 66t152 35.5t161 9.5q164 0 296.5 -23.5t220 -63t155 -91.5t109.5 -109.5t74.5 -115t58.5 -109t54.5 -92t69.5 -64t96 -23.5q49 0 87.5 14t74 50.5t59 95.5t37 153.5t13.5 219.5q0 156 -19.5 263t-58 164.5t-85 81
t-108.5 23.5q-50 0 -88 -13.5t-73 -49t-58 -94.5t-36 -153.5t-13 -221.5q0 -102 2 -137q-87 116 -225 196q7 114 38 202t77 142t109.5 88.5t128 48t138.5 13.5zM897 313v344q-132 31 -262 31q-77 0 -137.5 -22t-98 -56.5t-62.5 -80.5t-34.5 -90.5t-9.5 -90.5q0 -78 19 -138
t49 -95t72 -57.5t81.5 -30t83.5 -7.5q74 0 131 24t88 57.5t50 77t24.5 75t5.5 59.5z" />
    <glyph glyph-name="a_p" unicode="ap" horiz-adv-x="2244" 
d="M1759 1100q230 0 347.5 -144t117.5 -391q0 -277 -113 -420.5t-362 -152.5q-80 -3 -148.5 26.5t-97.5 81.5v-217q0 -49 8 -90t19.5 -65.5t23 -41.5t19.5 -24l8 -6h-379q3 2 8.5 6.5t19 22.5t23.5 41t18.5 65t8.5 92v482q-50 152 -160 215v-351q0 -49 8 -90.5t19.5 -66
t23 -42t19.5 -24.5l8 -6h-301v168q-73 -178 -332 -178q-127 0 -224.5 28t-155.5 77t-87 110.5t-28 132.5q0 85 34 150.5t88 105.5t130 66t152 35.5t161 9.5q109 0 204.5 -11t169.5 -28.5t139 -46t112.5 -57.5t89.5 -68.5t70 -73t55.5 -76.5t44 -74.5t36.5 -71.5
q25 -51 38.5 -74.5t36 -53.5t47 -42t55.5 -12q66 0 115.5 36.5t77.5 91.5t45 131.5t22.5 143.5t5.5 142q0 86 -6.5 156.5t-24.5 139t-46.5 115t-76.5 75t-112 28.5q-113 0 -171.5 -101.5t-58.5 -268.5v-297q-14 23 -30.5 44.5t-35 39.5t-34.5 32.5t-37 29.5t-32 23
t-30.5 20.5t-23.5 14.5v205q0 50 -8 92t-19.5 66.5t-23 41.5t-19.5 23l-8 7l301 47v-107q80 113 256 113zM659 1077q-65 -1 -112.5 -21.5t-73.5 -50.5t-41.5 -75.5t-19.5 -84.5t-4 -89l-211 84q20 84 93.5 144.5t170.5 88t205 27.5q129 1 217.5 -25t140.5 -80.5t74 -130
t22 -182.5q-2 0 -81 18.5t-142 28.5q-1 190 -58 270t-180 78zM897 313v344q-132 31 -262 31q-77 0 -137.5 -22t-98 -56.5t-62.5 -80.5t-34.5 -90.5t-9.5 -90.5q0 -78 19 -138t49 -95t71.5 -57.5t80.5 -30t83 -7.5q75 0 132.5 24t88 57.5t50 77t25 75t5.5 59.5z" />
    <glyph glyph-name="a_q" unicode="aq" horiz-adv-x="2308" 
d="M2300 -344h-303l2 420q-38 -41 -103.5 -62.5t-142.5 -21.5q-176 0 -293.5 82t-159.5 225q-34 119 -73 180.5t-107 100.5v-351q0 -49 8 -90.5t19.5 -66t23 -42t19.5 -24.5l8 -6h-301v168q-70 -178 -332 -178q-127 0 -224.5 28t-155 77t-86.5 110.5t-29 132.5
q1 85 34.5 150.5t88 105.5t130 66t151.5 35.5t161 9.5q164 0 296.5 -23.5t220 -63.5t155 -91.5t109.5 -108.5t75 -114.5t59.5 -109t54.5 -91.5t69 -63.5t95 -23.5q83 0 136.5 53t73.5 129.5t20 174.5v334q0 166 -59 267t-171 101q-64 0 -112 -28.5t-76.5 -75t-46.5 -115
t-24.5 -139t-6.5 -156.5q0 -100 6 -151q-66 100 -231 200q11 228 128.5 359t336.5 131q176 0 256 -113v107l301 -47q-3 -2 -8.5 -6.5t-19 -23t-23.5 -42.5t-18.5 -66t-8.5 -92v-934q0 -50 8 -91.5t19.5 -65.5t23 -41t19.5 -23zM659 1077q-64 -1 -111.5 -21.5t-73.5 -50.5
t-41.5 -75.5t-20 -85t-4.5 -88.5l-211 84q16 64 62 114.5t111 81.5t141 47.5t155 16.5q129 1 217.5 -25t140.5 -80.5t74 -130t22 -182.5q-17 4 -54.5 13.5t-79 18t-89.5 15.5q0 189 -57.5 269.5t-180.5 78.5zM897 313v344q-132 31 -260 31q-77 0 -138 -22t-98.5 -56.5
t-62.5 -80.5t-35 -90.5t-10 -90.5q0 -78 19 -138t49 -95t72 -57.5t81.5 -30t83.5 -7.5q74 0 131 24t88 57.5t50 77t24.5 75t5.5 59.5z" />
    <glyph glyph-name="a_s" unicode="as" horiz-adv-x="2269" 
d="M659 1077q-65 -1 -112.5 -21.5t-73.5 -50.5t-41.5 -75.5t-19.5 -84.5t-4 -89l-211 84q20 84 93.5 144.5t170.5 88t205 27.5q129 1 217.5 -25t140.5 -80.5t74 -130t22 -182.5q-2 0 -81 18.5t-142 28.5q-1 190 -58 270t-180 78zM1481 899q0 -42 27 -73.5t72 -51t104 -35
t124 -30.5t130 -33t124 -47t104 -67t72 -98.5t27 -137.5q0 -75 -26 -133.5t-69 -95t-104.5 -60t-126 -33t-139.5 -10.5q-187 -2 -305.5 71t-191.5 250q-86 208 -183 267v-353q0 -49 8 -90.5t19.5 -66t23 -42t19.5 -24.5l8 -6h-301v168q-73 -178 -332 -178q-127 0 -224.5 28
t-155.5 77t-87 110.5t-28 132.5q0 85 34 150.5t88 105.5t130 66t152 35.5t161 9.5q110 0 207 -10t172 -28t141 -44t114.5 -55t91 -65.5t72.5 -71t57 -74t46 -73.5t39 -71q23 -43 34.5 -64t33.5 -51.5t40.5 -44.5t45.5 -25.5t59 -11.5q124 -1 188 73t64 200q0 74 -40 125.5
t-104 79.5t-141 49t-154.5 41.5t-141.5 49t-104 80.5t-40 126q0 73 33 125t92.5 80.5t129.5 41.5t156 13q356 0 439 -189l-148 -57q-18 105 -101.5 166t-189.5 61q-245 0 -245 -182zM897 313v340q-138 35 -262 35q-77 0 -137.5 -22t-98 -56.5t-62.5 -80.5t-34.5 -90.5
t-9.5 -90.5q0 -78 19 -138t49 -95t71.5 -57.5t80.5 -30t83 -7.5q75 0 132.5 24t88 57.5t50 77t25 75t5.5 59.5z" />
    <glyph glyph-name="a_u" unicode="au" horiz-adv-x="2224" 
d="M659 1077q-65 -1 -112.5 -21.5t-73.5 -50.5t-41.5 -75.5t-19.5 -84.5t-4 -89l-211 84q20 84 93.5 144.5t170.5 88t205 27.5q129 1 217.5 -25t140.5 -80.5t74 -130t22 -182.5q-2 0 -81 18.5t-142 28.5q-1 190 -58 270t-180 78zM1278 627v192q0 49 -8 90.5t-19.5 65.5
t-23 41.5t-19.5 23.5l-8 7l301 53v-676q-58 116 -223 203zM2212 0h-301v109q-21 -36 -43.5 -59.5t-64 -40.5t-95.5 -17q-80 0 -148 14.5t-127.5 46t-98.5 88t-52 133.5q-22 130 -53 191.5t-109 103.5v-340q0 -49 8 -90.5t19.5 -66t23 -42t19.5 -24.5l8 -6h-301v168
q-73 -178 -332 -178q-127 0 -224.5 28t-155.5 77t-87 110.5t-28 132.5q0 85 34 150.5t88 105.5t130 66t152 35.5t161 9.5q112 0 209.5 -10t172 -27.5t138 -44.5t108.5 -55.5t83.5 -65.5t63.5 -70.5t47.5 -75t36 -73.5t29.5 -71q12 -31 18.5 -46.5t18.5 -41t21 -38t24 -29
t30 -24.5t35 -13.5t44 -5.5q88 0 142.5 81.5t54.5 234.5v491q0 50 -8 91.5t-19 66t-22 41.5t-19 23l-8 6l299 45l2 -869q0 -49 8 -90t19 -65t22 -40.5t19 -23.5zM596 20q75 0 132.5 24t88 57.5t50 77t25 75t5.5 59.5v344q-132 31 -262 31q-77 0 -137.5 -21.5t-98 -56
t-62.5 -80.5t-34.5 -90.5t-9.5 -91.5q0 -78 19 -138t49 -95t71.5 -57.5t80.5 -30t83 -7.5z" />
    <glyph glyph-name="c_h" unicode="ch" horiz-adv-x="2117" 
d="M1757 2q3 2 8 6t18.5 22t23.5 41t18 64.5t8 91.5v568q0 149 -51 214.5t-152 65.5q-76 0 -129.5 -31.5t-81 -87.5t-39.5 -118t-12 -138v-256q0 -172 -28.5 -297t-78.5 -204.5t-130 -126t-172 -64.5t-216 -18q-86 0 -161.5 16.5t-148.5 52.5t-130 99t-101 150.5
t-67.5 213.5t-23.5 281q0 122 28.5 219t75.5 158.5t112 102t133.5 57t145.5 16.5q168 0 263.5 -56t148.5 -165l-215 -84q-21 284 -201 284q-63 0 -109 -24.5t-82.5 -82.5t-55.5 -163.5t-19 -257.5q0 -208 28 -358.5t83 -242t131 -134.5t178 -43q87 0 157 38t122.5 116
t81 208t28.5 305v740q0 44 -8 82.5t-19.5 62.5t-23 41t-19.5 24l-8 7l301 39v-480q46 81 121.5 112.5t183.5 31.5q97 0 165 -14.5t110.5 -40.5t66.5 -71t32.5 -95.5t8.5 -124.5v-527q0 -49 8 -90t19.5 -65t23 -40.5t19.5 -23.5l8 -6h-377z" />
    <glyph glyph-name="c_k" unicode="ck" horiz-adv-x="2021" 
d="M1698 0q1 2 3 7t2.5 23.5t-4.5 40.5t-22.5 61t-46.5 83l-155 223q-18 -28 -54.5 -84t-59 -90.5t-60.5 -89t-66 -89.5t-69 -81.5t-75.5 -76.5t-80 -62.5t-88.5 -51t-94 -30.5t-103 -12q-58 0 -112.5 7.5t-117.5 29.5t-116 57t-104 95.5t-86 139.5t-56.5 193.5t-21.5 253.5
q0 126 29.5 224t76.5 158.5t113 99.5t132.5 54t141.5 15q115 0 198.5 -28t132 -74.5t81.5 -116.5l-213 -84q-21 284 -203 284q-62 0 -108.5 -25t-83 -83.5t-55.5 -164t-19 -257.5q0 -162 25 -287t65 -201t97 -124t114.5 -66t124.5 -18q100 0 204.5 56t180.5 159v1116
q0 44 -8 81.5t-19.5 60.5t-23 39.5t-19.5 22.5l-8 7l301 41v-1088q14 18 152 220.5t215 308.5q117 157 81 206q-5 7 -12 9h203q-5 -2 -14 -6.5t-36.5 -22.5t-54.5 -40t-64.5 -61.5t-70.5 -84.5q-172 -257 -178 -267l273 -395q46 -68 102 -122t88 -73l33 -20h-387z" />
    <glyph glyph-name="c_m" unicode="cm" horiz-adv-x="2695" 
d="M2331 0q3 2 8 6t18 22t23 41t18 64.5t8 91.5v580q0 148 -34 209t-131 61q-123 0 -183.5 -99t-60.5 -267v-267q0 -708 -932 -708q-105 0 -201.5 11.5t-194 38.5t-180 68.5t-154.5 106.5t-122 147.5t-78.5 194.5t-28.5 246q0 120 30 216t78.5 157.5t114 102.5t133.5 58
t140 17q115 0 198.5 -28t132 -74.5t81.5 -116.5l-215 -84q-21 284 -201 284q-62 0 -108.5 -25t-83 -83.5t-55.5 -164t-19 -257.5q0 -168 41 -302t110.5 -222t166 -146t201.5 -83t224 -25q75 0 139.5 5.5t137.5 22.5t131.5 45t114.5 75.5t93.5 110.5t60 154t22.5 203v367
q0 189 -32.5 256t-137.5 67q-114 0 -177 -101.5t-63 -266.5v-484q0 -49 8 -90t19.5 -65t23 -40.5t19.5 -23.5l8 -6h-379q3 2 8 6t18.5 22t23.5 41t18 64.5t8 91.5v584q0 50 -8 93t-19 69t-22 44.5t-19 26.5l-8 7l301 45v-156q65 162 287 162q120 0 193 -23.5t104 -61
t43 -97.5q34 95 102.5 138.5t190.5 43.5q61 0 108.5 -5t83.5 -17.5t61.5 -27t42.5 -39t27.5 -48t16 -60.5t7 -69.5t1.5 -81.5v-527q0 -49 8 -90t19.5 -65t23 -40.5t19.5 -23.5l8 -6h-379z" />
    <glyph glyph-name="c_n" unicode="cn" horiz-adv-x="2142" 
d="M1780 0q3 2 8 6.5t18 22.5t23 41t18 65t8 92v564q0 157 -51 221.5t-162 64.5q-278 0 -278 -368l2 -275q-3 -188 -46.5 -324t-125.5 -218t-194 -120t-261 -38q-105 0 -193.5 22.5t-171.5 80t-141 147.5t-92.5 233.5t-34.5 329.5q0 119 29.5 214.5t78 157t113.5 103
t133.5 59t141.5 17.5q168 0 263.5 -56t148.5 -163l-215 -84q-21 284 -201 284q-62 0 -108.5 -25t-83 -83.5t-55.5 -164t-19 -257.5q0 -403 106.5 -590.5t313.5 -187.5q81 0 149.5 38t123 115.5t85.5 209t31 304.5v430q0 50 -8 86.5t-19 53.5t-22 27t-19 11l-8 1l299 47v-158
q50 95 127.5 129.5t187.5 34.5q121 0 200 -21.5t122.5 -67.5t60.5 -107t17 -152v-525q0 -48 8 -89t19.5 -65.5t23 -42t19.5 -24.5l8 -6h-377z" />
    <glyph glyph-name="e_h" unicode="eh" horiz-adv-x="2117" 
d="M1753 0q3 2 8 6t18.5 22t23.5 41t18 64.5t8 91.5v570q0 149 -51 214.5t-152 65.5q-260 0 -260 -375v-256q0 -172 -28.5 -297t-79 -204.5t-131 -126t-172.5 -64.5t-216 -18q-142 0 -256 45t-199.5 137t-131.5 243.5t-46 354.5q0 279 134 432.5t366 153.5q169 0 286 -75
t155 -237l-715 -237q0 -213 28.5 -365t84.5 -242.5t131.5 -131.5t175.5 -41q87 0 156.5 37.5t122.5 115.5t81.5 208.5t28.5 305.5v740q0 44 -8 82.5t-19.5 62.5t-23 41t-19.5 24l-8 7l301 41v-482q47 81 122.5 113.5t182.5 32.5q81 0 142 -9.5t103 -30t69.5 -47.5t42.5 -68
t20.5 -85.5t5.5 -105.5v-529q0 -49 8 -90t19.5 -65t23 -40.5t19.5 -23.5l8 -6h-377zM606 1079q-44 0 -80.5 -11t-73.5 -44t-62.5 -87t-42 -145.5t-17.5 -213.5l504 165q0 151 -69 243.5t-159 92.5z" />
    <glyph glyph-name="e_k" unicode="ek" horiz-adv-x="2048" 
d="M1694 0q1 2 3 7t2.5 23.5t-4.5 40.5t-22.5 61t-46.5 83l-156 223q-19 -28 -55 -84t-58.5 -90.5t-60 -89t-65.5 -89.5t-69 -81.5t-76 -76.5t-80 -62.5t-88 -51t-94 -30.5t-103 -12q-90 0 -171.5 19.5t-164.5 72t-143 133.5t-98 214t-38 304q0 151 39 265.5t108 183.5
t158 103t195 34q110 0 197 -29.5t153.5 -101t92.5 -181.5l-717 -237q0 -161 26.5 -286.5t68 -201.5t98.5 -124.5t113.5 -67t117.5 -18.5q102 0 205.5 56t179.5 159v1116q0 44 -8 81.5t-19.5 60.5t-23 39.5t-19.5 22.5l-8 7l301 41v-1088q11 15 150 218t219 311
q115 157 79 206q-5 7 -12 9h203q-5 -2 -14 -6.5t-36 -22.5t-54 -40t-65 -61.5t-71 -84.5q-172 -257 -178 -267l273 -395q46 -68 102 -122t88 -73l33 -20h-387zM606 1079q-44 0 -80.5 -11t-73.5 -44t-62 -87t-41 -145.5t-17 -213.5l502 165q0 151 -69 243.5t-159 92.5z" />
    <glyph glyph-name="e_n" unicode="en" horiz-adv-x="2144" 
d="M1780 0q3 2 8.5 6.5t19 22.5t23.5 41t18.5 65t8.5 92v564q0 156 -52.5 221t-163.5 65q-276 0 -276 -368v-275q0 -161 -28.5 -282t-80 -200t-130.5 -128t-172.5 -69.5t-213.5 -20.5q-100 0 -190 25.5t-172.5 84.5t-142 147.5t-95 224t-35.5 304.5q0 155 37.5 269.5
t107 181t157.5 98t198 31.5q169 0 286 -75t155 -237l-717 -237q0 -394 109.5 -587t312.5 -193q182 0 285 161.5t106 505.5v430q0 50 -8 86.5t-19.5 53.5t-23 27t-19.5 11l-8 1l301 47v-158q49 95 126 129.5t187 34.5q121 0 200 -21t123.5 -67t61.5 -106.5t17 -151.5v-527
q0 -48 8 -89t19 -65.5t22 -42t19 -24.5l8 -6h-377zM606 1079q-44 0 -80.5 -11t-73.5 -44t-62.5 -87t-42 -145.5t-17.5 -213.5l504 165q0 151 -69 243.5t-159 92.5z" />
    <glyph glyph-name="f_j" unicode="fj" horiz-adv-x="940" 
d="M57 0q3 2 8 6.5t18.5 22.5t23.5 41t18 65t8 92v715h-129v27h129v174q0 85 21 153t56.5 112.5t85 74.5t103.5 42.5t115 12.5q41 0 85 -5t94.5 -20t89.5 -38.5t65 -63t26 -90.5q0 -64 -46 -110t-111 -46t-110.5 45.5t-45.5 110.5q0 66 39 102q-6 37 -33.5 60.5t-66.5 23.5
q-26 0 -47.5 -7.5t-36 -24.5t-25.5 -33.5t-17.5 -47.5t-10 -51.5t-5 -60t-2 -60t-0.5 -62.5v-19v-172h170v-27h-170v-715q0 -49 8 -90t19.5 -65.5t23 -41.5t19.5 -24l8 -6h-377zM547 1053l301 39v-934q0 -115 -28 -198.5t-76 -127t-101.5 -63t-116.5 -19.5q-66 0 -126 19
t-93 45l8 43q61 -43 131 -43q35 0 64 15t55.5 51t42 106.5t15.5 171.5v678q0 44 -8 82.5t-19 62.5t-22 41t-19 24z" />
    <glyph glyph-name="t_t" unicode="tt" horiz-adv-x="1087" 
d="M856 254q0 -68 31 -103.5t76 -35.5t81.5 33.5t42.5 89.5q0 -125 -67 -184.5t-166 -59.5q-102 0 -161.5 64.5t-59.5 185.5v698h-252v-688q0 -67 26 -102t64 -35q40 0 73.5 35t39.5 92q4 -63 -15 -112.5t-53.5 -78.5t-76 -44t-87.5 -15q-82 0 -138 57t-56 174v717h-97v27
h97v219q0 46 -7.5 81t-18.5 51.5t-22 26.5t-18 11l-8 2l297 78v-469h252v16q0 38 -7 69t-17 47.5t-20 27.5t-17 15l-7 3l291 63v-241h203v-27h-203v-688z" />
    <glyph glyph-name="s_s" unicode="ss" horiz-adv-x="1961" 
d="M940 997q0 -40 34.5 -73t93.5 -57.5t135 -47.5t160 -46.5t168 -50.5t160 -64t135 -82t93.5 -109t34.5 -141q0 -334 -506 -334q-53 0 -106.5 5t-118.5 17.5t-122.5 39.5t-92.5 65q-115 -127 -416 -127q-61 0 -118 5t-132.5 23t-131.5 47.5t-100 84.5t-53 129l224 59
q0 -87 27 -152.5t73 -102t99 -54t112 -17.5q139 0 218 74.5t79 200.5q0 64 -26 111.5t-69.5 76t-100.5 49.5t-119.5 36l-125 30t-119.5 37t-100.5 52t-69.5 80t-26 116q0 158 208 252t622 94q225 0 418.5 -41.5t316 -116.5t137.5 -168l-172 -43q-6 70 -51 129.5t-106 95.5
t-123 56t-109 20q-30 0 -51 -0.5t-59 -3.5t-65 -9t-59 -17.5t-52 -28t-34 -42t-14 -57.5zM1448 14q138 0 210.5 73.5t72.5 201.5q0 80 -52.5 142.5t-136.5 102.5t-185 74t-202.5 65.5t-185.5 66.5t-136.5 87t-52.5 119q0 119 151 181.5t372 39.5q-134 35 -340 35
q-328 0 -491 -75t-163 -199q0 -63 44.5 -106.5t115 -68.5t156 -45.5t171.5 -47t156.5 -63t115 -103t44.5 -158.5q0 -71 22 -128t56.5 -92t80 -59t89.5 -33.5t88 -9.5z" />
    <glyph glyph-name="r_a" unicode="ra" horiz-adv-x="1769" 
d="M1780 0h-301v168q-70 -178 -330 -178q-128 0 -226 28.5t-156 77.5t-87 110.5t-29 131.5q1 85 31.5 150.5t80 105.5t119 66t139 35.5t148.5 9.5q73 1 118.5 4t86 11t61.5 23t32.5 38.5t11.5 58.5q0 125 -56.5 181.5t-179.5 55.5q-184 0 -184 -241q0 -45 -32.5 -70
t-76.5 -25q-43 0 -74.5 25t-31.5 70q0 109 -53.5 174t-147.5 65q-135 0 -192.5 -94.5t-57.5 -282.5l2 -471q0 -48 8 -89t19 -65.5t22 -42t19 -24.5l8 -6h-377q3 2 8.5 6.5t19 22.5t23.5 41t18.5 65t8.5 92v584q0 50 -8 93.5t-19.5 68.5t-23 43.5t-19.5 25.5l-8 7l299 45
v-131q59 137 266 137q231 0 289 -162q30 80 119 121t182 41q250 0 351.5 -83.5t101.5 -262.5v-525q0 -49 8 -90.5t19.5 -66t23 -42t19.5 -24.5zM1180 20q75 0 132 24t87.5 57.5t49.5 77t24.5 75t5.5 59.5v375h-260q-82 0 -145 -22t-100 -55.5t-60.5 -80.5t-31.5 -90.5
t-8 -91.5q0 -78 19.5 -138t49 -95t71.5 -57.5t82 -30t84 -7.5z" />
    <glyph glyph-name="f_f_j" unicode="ffj" horiz-adv-x="1402" 
d="M518 0q3 2 8 6.5t18.5 22.5t23.5 41t18 65t8 92v715h-238v-715q0 -49 8 -90t19.5 -65.5t23 -41.5t19.5 -24l8 -6h-377q3 2 8 6.5t18.5 22.5t23.5 41t18 65t8 92v715h-129v29h129v43q0 129 89.5 221t252.5 92q85 0 152 -24q27 83 84.5 137.5t122.5 76t139 21.5
q57 0 113 -9.5t115.5 -31t96.5 -67t37 -109.5t-46 -110t-111 -46q-64 0 -110 45.5t-46 110.5q0 68 39 104q-6 36 -34 59t-66 23q-26 0 -47.5 -7.5t-36 -24.5t-25.5 -33.5t-17.5 -47.5t-10 -51.5t-5 -60t-2 -60t-0.5 -62.5v-19v-172h170v-27h-170v-715q0 -49 8 -90
t19.5 -65.5t23 -41.5t19.5 -24l8 -6h-377zM356 971l238 -2v139q0 58 14 123q-56 69 -127 69q-125 0 -125 -170v-159zM1008 1053l301 39v-934q0 -93 -19 -165.5t-49.5 -117.5t-73.5 -74t-86 -40t-92 -11q-66 0 -127 19t-94 45l8 43q63 -43 131 -43q35 0 64 15t56 51
t42.5 106.5t15.5 171.5v678q0 44 -8 82.5t-19.5 62.5t-22.5 41t-19 24z" />
    <glyph glyph-name=".notdef" horiz-adv-x="512" 
 />
    <glyph glyph-name=".null" horiz-adv-x="0" 
 />
    <glyph glyph-name=".null" horiz-adv-x="0" 
 />
    <glyph glyph-name="nonmarkingreturn" horiz-adv-x="512" 
 />
    <glyph glyph-name="space" unicode=" " horiz-adv-x="333" 
 />
    <glyph glyph-name="exclam" unicode="!" horiz-adv-x="456" 
d="M156 1262q-4 47 -14 81.5t-20.5 50.5t-20.5 25t-17 10l-6 1h377q-3 0 -7 -1t-15.5 -10.5t-21 -25.5t-19 -50.5t-13.5 -80.5l-86 -936h-55q-4 35 -82 936zM266 279q58 0 99 -41.5t41 -98.5q0 -58 -40.5 -98.5t-99.5 -40.5q-57 0 -97 40.5t-40 98.5q0 57 40 98.5t97 41.5z
" />
    <glyph glyph-name="quotedbl" unicode="&#x22;" horiz-adv-x="378" 
d="M150 1430h120q-57 -179 -94 -300h-41zM279 1430h120q-57 -179 -94 -300h-41z" />
    <glyph glyph-name="numbersign" unicode="#" horiz-adv-x="837" 
d="M836 764h-183l-35 -115h150v-90h-174l-86 -289h-47l84 289h-189l-86 -289h-47l86 289h-157v90h182l35 115h-148v90h174l88 303h47l-88 -303h189l90 303h47l-88 -303h156v-90zM571 649l35 115h-190l-33 -115h188z" />
    <glyph glyph-name="percent" unicode="%" horiz-adv-x="3254" 
d="M115 1888h63q28 0 45 -14t17 -39t-17 -39t-45 -14h-28v-39h-35v145zM207 1835q0 27 -31 27h-26v-52h26q31 0 31 25zM420 1862h-76v-33h66v-27h-66v-33h78v-26h-111v145h109v-26zM621 1835q0 -32 -29 -45l31 -47h-35l-27 41h-2h-29v-41h-32v145h61q28 0 45 -14t17 -39z
M557 1810q31 0 31 25q0 27 -31 27h-27v-52h27zM743 1767q27 0 27 15q0 11 -20.5 16t-41 14.5t-20.5 32.5q0 20 15.5 32.5t44.5 12.5q31 0 49 -12l-11 -27q-20 13 -38 13q-27 0 -27 -17q0 -11 20.5 -15t41 -13.5t20.5 -32.5q0 -20 -16 -32.5t-46 -12.5q-38 0 -57 16l12 25
q19 -15 47 -15zM866 1815q0 33 22 54t56 21q33 0 55.5 -21t22.5 -54q0 -32 -22.5 -53t-55.5 -21q-34 0 -56 21t-22 53zM987 1815q0 21 -12 34t-31 13q-20 0 -32.5 -12.5t-12.5 -34.5q0 -20 12.5 -33t32.5 -13q19 0 31 13t12 33zM1122 1888l72 -88v88h31v-145h-27l-70 88v-88
h-32v145h26zM1290 1743l64 145h32l64 -145h-35l-12 31h-68l-12 -31h-33zM1393 1800l-23 55l-22 -55h45zM1513 1888h33v-119h72v-26h-105v145zM1790 1888h33v-80q0 -39 32 -39q31 0 31 39v80h33v-82q0 -32 -17 -48.5t-47 -16.5q-65 0 -65 65v82zM2048 1767q27 0 27 15
q0 11 -20.5 16t-41 14.5t-20.5 32.5q0 20 15 32.5t44 12.5q31 0 49 -12l-10 -27q-19 13 -39 13q-27 0 -27 -17q0 -11 20.5 -15t41 -13.5t20.5 -32.5q0 -20 -15 -32.5t-44 -12.5q-38 0 -57 16l10 25q23 -15 47 -15zM2288 1862h-76v-33h67v-27h-67v-33h78v-26h-111v145h109
v-26zM2462 1815q0 33 23 54t57 21q33 0 55 -21t22 -54q0 -32 -22 -53t-55 -21q-34 0 -57 21t-23 53zM2585 1815q0 21 -12 34t-31 13q-20 0 -32.5 -12.5t-12.5 -34.5q0 -20 12.5 -33t32.5 -13q19 0 31 13t12 33zM2720 1888l71 -88v88h31v-145h-26l-70 88v-88h-33v145h27z
M2906 1888h33v-119h72v-26h-105v145zM3131 1743h-32v51l-56 94h35l39 -65l37 65h33l-56 -94v-51zM143 176v-4h-39l-6 -31h-4l15 72h47l-2 -6h-41l-7 -31h37zM162 162q0 14 9 23.5t22 9.5q9 0 15.5 -6.5t6.5 -16.5q0 -14 -9 -23.5t-22 -9.5q-10 0 -16 7t-6 16zM209 172
q0 18 -19 18q-10 0 -17 -8t-7 -20q0 -17 18 -17q11 0 18 7.5t7 19.5zM244 195h4l-2 -13q10 13 22 13v-7h-2q-19 0 -22 -20l-6 -27h-5zM360 207q-17 0 -26.5 -10.5t-9.5 -26.5q0 -25 26 -25q17 0 23 9l4 -4q-11 -11 -27 -11q-15 0 -24 8.5t-9 22.5q0 18 11.5 30.5t31.5 12.5
q15 0 25 -10l-4 -4q-5 8 -21 8zM446 172q0 -14 -8.5 -23.5t-21.5 -9.5q-9 0 -16 7t-7 16q0 14 9 23.5t22 9.5q22 0 22 -23zM418 145q11 0 17.5 7.5t6.5 19.5q0 8 -5 13t-13 5q-11 0 -18 -8t-7 -20q0 -17 19 -17zM475 195h6l-2 -11q7 11 21 11q13 0 16 -13q10 13 23 13
q18 0 18 -17v-6l-6 -31h-4l6 31v4q0 14 -14 14q-20 0 -23 -20l-6 -29h-4l6 31v4q0 14 -14 14q-16 0 -23 -20l-4 -29h-6zM655 195q17 0 17 -17v-6l-6 -31h-4l6 31v4q0 14 -15 14t-22 -20l-4 -29h-6l6 31v4q0 14 -15 14q-17 0 -20 -20l-6 -29h-6l10 54h6l-2 -11q7 11 20 11
q16 0 19 -13q7 13 22 13zM745 166h-45v-4q0 -17 19 -17q11 0 18 7l2 -5q-8 -8 -20 -8q-11 0 -18 6.5t-7 16.5q0 14 8.5 23.5t20.5 9.5q22 0 22 -23v-6zM723 190q-8 0 -15 -5.5t-8 -14.5h41v2q0 18 -18 18zM774 195h6l-2 -13q6 13 21 13v-7h-2q-17 0 -23 -20l-4 -27h-6z
M840 190q-11 0 -18 -8t-7 -20q0 -7 5.5 -12t13.5 -5q11 0 18 7l4 -2q-11 -11 -22 -11q-10 0 -16.5 7t-6.5 16q0 14 8.5 23.5t20.5 9.5q13 0 20 -11l-4 -2q-8 8 -16 8zM897 211q0 -4 -6 -4q-4 0 -4 4t6 4q4 0 4 -4zM877 141l10 54h4l-10 -54h-4zM956 141h-4l2 11
q-6 -13 -22 -13q-9 0 -16 6.5t-7 16.5q0 14 9 23.5t22 9.5q14 0 21 -15l2 15h4zM934 145q11 0 17.5 7.5t6.5 19.5q0 8 -5 13t-13 5q-11 0 -18 -8t-7 -20q0 -17 19 -17zM991 141h-4l14 76h7zM1018 125h-4l6 14l-2 4q0 7 4 7t4 -5v-6zM1118 164h-20l-6 -23h-5l15 72h24
q25 0 25 -20q0 -29 -33 -29zM1106 207l-8 -39h20q27 0 27 25q0 14 -19 14h-20zM1171 141h-6l17 76h4zM1249 166h-43q-2 -2 -2 -4q0 -17 21 -17q11 0 18 7l2 -5q-12 -8 -20 -8q-25 0 -25 23q0 14 8.5 23.5t20.5 9.5q22 0 22 -23q0 -4 -2 -6zM1229 190q-20 0 -23 -20h39v2
q0 18 -16 18zM1321 195h6l-10 -54h-6l2 11q-7 -13 -21 -13q-22 0 -22 23q0 14 8 23.5t20 9.5q17 0 21 -15zM1292 145q11 0 18 7.5t7 19.5q0 18 -19 18q-10 0 -17 -8t-7 -20q0 -17 18 -17zM1360 145q18 0 18 11q0 6 -15 9t-15 13q0 17 22 17q9 0 16 -7l-2 -4q-6 6 -16 6
q-16 0 -16 -12q0 -6 15 -9t15 -13q0 -17 -22 -17q-13 0 -21 8l4 5q7 -7 17 -7zM1452 166h-45v-4q0 -17 18 -17q12 0 19 7l2 -5q-8 -8 -21 -8q-22 0 -22 23q0 14 7.5 23.5t19.5 9.5q22 0 22 -23v-6zM1430 190q-16 0 -23 -20h41v2q0 18 -18 18zM1532 141h-4l-19 72h7l16 -66
l41 66h4zM1602 211q0 -4 -5 -4q-4 0 -4 4t4 4q5 0 5 -4zM1581 141l10 54h6l-10 -54h-6zM1640 190q-16 0 -16 -12q0 -6 14.5 -9t14.5 -13q0 -17 -23 -17q-12 0 -20 8l4 5q7 -7 18 -7q17 0 17 11q0 6 -15.5 9t-15.5 13q0 17 22 17q10 0 17 -7l-2 -4q-6 6 -15 6zM1673 141
l10 54h7l-13 -54h-4zM1694 211q0 -4 -4 -4t-4 4t4 4t4 -4zM1722 205h4l-2 -10h17v-7h-17l-6 -32q-2 -2 -2 -4q0 -9 8 -9q5 0 9 4l2 -4q-4 -4 -11 -4q-12 0 -12 13v4l6 32h-8v7h10zM3217 1655v-8h-3102v8h3102zM3217 1987v-9h-3102v9h3102zM3217 2023v-8h-3102v8h3102z
M119 -207v8h3103v-8h-3103zM119 -170v8h3103v-8h-3103zM1774 168h1448v-8h-1448v8zM2064 430q-4 0 -8 -7.5t-4 -16.5q0 -25 14 -25q5 0 7.5 -3.5t-0.5 -8.5q-10 -13 -39 -13q-20 0 -24 6t1 29q6 33 -12 51q-21 14 -21 52q0 20 5.5 27t19.5 7q15 0 18 -6.5t-2 -29.5
q-4 -26 -1 -32t18 -3t18.5 17t3.5 63q-2 68 11 70q3 1 8 -1q12 -3 16 -16t4 -47q-1 -49 -11 -81t-22 -32zM1950 575q-12 -5 -16.5 -23.5t-4.5 -70.5q0 -85 13 -94q17 -11 11 -21t-28 -10q-19 0 -22 13t0 84v10q4 90 -3 98q-4 5 -20 0q-15 -6 -20 -2t-5 19q0 17 9.5 21.5
t44.5 4.5q58 0 76 6q11 5 14.5 0t3.5 -24q0 -29 -12 -33q-9 -3 -14 14q-1 1 -1 2q-6 13 -26 6zM2200 449q-28 -15 -36 -45q-6 -23 13 -23q6 0 7.5 -3.5t-1.5 -8.5q-7 -13 -31 -13q-8 0 -12 3.5t-7.5 17t-4.5 36.5t-2 66l-4 125h45q38 0 61 -18.5t23 -50.5q0 -34 -11 -53.5
t-40 -32.5zM2161 506q12 -64 51 -25q25 26 11 61.5t-48 35.5q-13 0 -17.5 -6t-3.5 -20.5t7 -45.5zM2468 670q-23 9 -45.5 25t-30.5 28q-19 26 -29 27.5t-18 -23.5q-11 -26 -45 -43t-81 -7.5t-73 38.5q-20 23 -45 12q-65 -36 -123 25q-25 25 -30.5 43.5t-5.5 78.5
q0 89 -17 89q-20 0 -32.5 -38.5t-12.5 -97.5q0 -56 -10.5 -76t-44.5 -26q-23 -3 -33 -41q-13 -69 -50 -96t-93 -8q-34 11 -69 47t-42 69q-4 19 -13.5 22.5t-41.5 0.5q-31 -5 -46.5 -1t-35.5 23l-31 29l-24 -33q-23 -35 -68 -35h-43v-65q0 -133 -92 -133q-42 0 -72 26
q-32 22 -53 88q-13 47 -15 135t3 445q0 108 -13 111q-8 4 -24 -22t-32 -67t-24 -77q-13 -77 -20 -279l-8 -215l-49 8q-46 3 -64 21q-13 13 -20 201q-6 152 -18.5 205t-41.5 53q-51 0 -94 -72t-43 -156q0 -60 20 -90t66 -39q39 -7 36 -18q-4 -16 -64 -20q-34 -2 -68 3
q-55 8 -99 52q-31 31 -36 47.5t-2 73.5q5 69 31 115t83 83q68 44 152.5 41t134.5 -51q23 -23 33 -16t10 45q0 21 18 84q22 74 66 107.5t92 17t80 -79.5q15 -32 18 -87.5t0 -256.5q-2 -237 3.5 -302t27.5 -65q32 0 39 76.5t-22 126.5q-34 56 -20.5 130.5t63.5 106.5
q32 22 88 17q55 -7 55 2q0 13 23 16.5t55 -4.5l45 -12l4 -121q3 -130 15 -119q14 15 22 197q7 199 2 202q-7 7 -90 11q-51 5 -80 0.5t-66 -21.5q-63 -29 -98 -19q-22 5 -6 25q22 25 94 41t133 9q75 -7 103 -15q19 -4 25.5 8t17.5 68q12 65 26 76t70 -2q20 -6 22 -20.5
t-4 -80.5l-8 -90h33q20 0 26.5 8t12.5 41q17 114 98.5 182t167.5 42q44 -12 67 -38.5t29 -72.5q12 -107 -110 -168q-68 -31 -99 -31q-23 0 -28.5 -8.5t-8.5 -44.5q-4 -51 0 -92l2 -39l37 37q23 23 37.5 29t34.5 0q47 -10 70 -45.5t34 -112.5q8 -58 18 -79.5t19 0t13 79.5
q3 56 10.5 74t36.5 43q26 24 42 29.5t50 0.5q53 -4 70 -14q21 -6 26 18q13 43 90 13l33 -13l-10 -122q-4 -78 -2 -107t14 -49q29 -43 71.5 -28.5t82.5 81.5q31 54 34 127q0 61 -20 91t-66 42q-39 10 -37 20q3 14 74 17q86 4 141.5 -37.5t59.5 -107.5t-43 -146
q-61 -93 -180 -116q-44 -9 -66.5 -8t-60.5 14zM1888 1286q-33 -105 -26 -119q7 -12 56 13q4 2 9 4q63 32 90 83t8 105q-18 53 -58 34q-45 -22 -75 -109q-2 -5 -4 -11zM1329 788q15 31 17 101.5t-13 79.5q-26 18 -45 -30q-21 -55 -10 -132q5 -32 11.5 -44.5t16 -6.5t23.5 32z
M1702 643q39 -61 39 39q0 25 -2 61q-1 23 -8 113t-9 131q-7 129 -20 139q-28 18 -36 2q-9 -19 -9 -143q0 -275 45 -342zM2300 739q19 32 22 101.5t-12 89.5q-13 19 -18.5 18t-20.5 -26q-20 -29 -27 -75t1 -87q6 -37 23 -43.5t32 22.5zM2386 563q-86 39 -86 -26
q0 -25 16.5 -32.5t28.5 11.5q6 11 13.5 12.5t12.5 -7t5 -23.5q0 -20 -6 -24t-31 1q-28 6 -33.5 0.5t-5.5 -37.5q0 -29 5 -37t24 -8q26 0 43 13q12 15 18 -13q5 -15 -0.5 -19.5t-30.5 -4.5q-33 0 -65 -9q-16 -4 -20 9q-5 16 -5 110v125h37q45 0 66 6q19 6 23 2.5t1 -22.5
q-1 -8 -3 -14.5t-4 -10t-3 -2.5zM301 -96h-22l-41 135h26l19 -68q1 -9 4 -24t4 -21h2q0 2 12 43l23 70h20l21 -68q6 -24 12 -45q2 12 10 45l21 68h22l-43 -135h-22l-21 65q-10 35 -12 43q-2 -8 -6 -22.5t-6 -22.5zM539 -96h-23l-41 135h27l16 -68q8 -33 10 -45h2q3 19 13 43
l20 70h21l22 -68q6 -24 12 -45q0 2 11 45l18 68h25l-43 -135h-23l-20 65q-1 5 -6 19.5t-7 23.5q-2 -8 -6 -22.5t-6 -22.5zM776 -96h-22l-41 135h24l19 -68q8 -33 10 -45q2 7 6 21.5t6 21.5l23 70h20l21 -68q9 -24 12 -45h2q2 12 10 45l19 68h24l-43 -135h-22l-21 65
q-9 22 -12 43q-2 -8 -6 -22.5t-6 -22.5zM963 -98q-17 0 -17 16q0 8 5 13.5t12 5.5q6 0 11 -6t5 -13q0 -16 -16 -16zM1153 -96h-25v78q0 41 -32 41q-25 0 -33 -27q0 -1 -1 -4.5t-1 -5.5v-82h-25v98v37h21l2 -23q18 27 45 27q18 0 33.5 -14t15.5 -45v-80zM1210 -61q0 51 80 51
v2q0 33 -30 33q-17 0 -35 -11l-6 17q24 12 45 12q51 0 51 -55v-51q0 -23 2 -33h-23l-2 16q-14 -18 -41 -18q-20 0 -30.5 11t-10.5 26zM1292 -27q-57 0 -57 -30q0 -25 22 -25q24 0 33 23q0 2 1 4.5t1 3.5v24zM1446 20h-35v-73q0 -27 19 -27q3 0 8 1t6 1l2 -18q-6 -2 -23 -2
q-19 0 -26 10q-11 11 -11 35v73h-20v19h20v33l25 6v-39h35v-19zM1618 -96h-25v78q0 41 -32 41q-21 0 -33 -25v-12v-82h-27v198h27v-84q8 11 16 17q16 8 27 8q18 0 32.5 -14t14.5 -45v-80zM1729 43q51 0 51 -55v-51q0 -6 1 -17t1 -16h-21l-2 16h-2q-14 -18 -41 -18
q-19 0 -30 11t-11 26q0 51 80 51v2q0 33 -31 33q-16 0 -34 -11l-4 17q20 12 43 12zM1757 -51v24q-57 0 -57 -30q0 -25 22 -25q24 0 33 23q0 2 1 4.5t1 3.5zM1853 72l23 6v-39h37v-19h-37v-73q0 -27 18 -27q4 0 9 1t6 1l2 -18q-4 -2 -23 -2q-18 0 -26 10q-9 9 -9 35v73h-22
v19h22v33zM1980 -125q14 7 21 27q2 2 2 6v6l-51 125h26l31 -80q3 -12 8 -27q5 15 8 27l29 80h25l-37 -96q-22 -64 -45 -84q-17 -17 -31 -17l-6 21q12 4 20 12zM2154 -152h-24v148q0 31 -2 43h22l2 -23q17 27 48 27q25 0 41 -19.5t16 -50.5q0 -35 -17.5 -53t-44.5 -18
q-30 0 -41 20v-74zM2154 -18v-23v-10q3 -12 14 -20.5t23 -8.5q41 0 41 51q0 23 -10.5 37.5t-28.5 14.5q-12 0 -22.5 -9t-13.5 -22q-3 -3 -3 -10zM2427 -23q0 -2 -1 -5.5t-1 -4.5h-94q0 -23 13.5 -35t33.5 -12q22 0 37 6l4 -16q-16 -8 -45 -8q-31 0 -49.5 18t-18.5 49
t17.5 52.5t46.5 21.5q30 0 43.5 -20.5t13.5 -45.5zM2331 -16h71q0 41 -35 41q-31 0 -36 -41zM2509 -82q0 -16 -17 -16q-16 0 -16 16q0 19 16 19q7 0 12 -5.5t5 -13.5zM2630 23q-22 0 -34.5 -14.5t-12.5 -37.5t13 -37t34 -14q6 0 30 6l4 -18q-18 -6 -38 -6q-31 0 -49.5 18
t-18.5 49q0 32 20 52t52 20q25 0 34 -6l-6 -19q-21 7 -28 7zM2841 -27q0 -36 -20 -53.5t-48 -17.5q-27 0 -45 19t-18 50q0 33 18.5 52.5t48.5 19.5q29 0 46.5 -19.5t17.5 -50.5zM2734 -29q0 -23 11 -37t30 -14q18 0 29.5 14t11.5 37q0 20 -10.5 37t-30.5 17t-30.5 -16.5
t-10.5 -37.5zM3095 -96h-25v76q0 43 -31 43q-20 0 -28 -23q0 -2 -1 -6t-1 -6v-84h-23v82q0 16 -8 26.5t-21 10.5q-22 0 -30 -25q-2 -4 -2 -12v-82h-25v98v37h20l2 -23q15 27 44 27q27 0 38 -29q7 14 15 19q13 10 30 10t31.5 -13.5t14.5 -45.5v-80z" />
    <glyph glyph-name="ampersand" unicode="&#x26;" horiz-adv-x="3254" 
d="M115 1888h63q28 0 45 -14t17 -39t-17 -39t-45 -14h-28v-39h-35v145zM207 1835q0 27 -31 27h-26v-52h26q31 0 31 25zM420 1862h-76v-33h66v-27h-66v-33h78v-26h-111v145h109v-26zM621 1835q0 -32 -29 -45l31 -47h-35l-27 41h-2h-29v-41h-32v145h61q28 0 45 -14t17 -39z
M557 1810q31 0 31 25q0 27 -31 27h-27v-52h27zM743 1767q27 0 27 15q0 11 -20.5 16t-41 14.5t-20.5 32.5q0 20 15.5 32.5t44.5 12.5q31 0 49 -12l-11 -27q-20 13 -38 13q-27 0 -27 -17q0 -11 20.5 -15t41 -13.5t20.5 -32.5q0 -20 -16 -32.5t-46 -12.5q-38 0 -57 16l12 25
q19 -15 47 -15zM866 1815q0 33 22 54t56 21q33 0 55.5 -21t22.5 -54q0 -32 -22.5 -53t-55.5 -21q-34 0 -56 21t-22 53zM987 1815q0 21 -12 34t-31 13q-20 0 -32.5 -12.5t-12.5 -34.5q0 -20 12.5 -33t32.5 -13q19 0 31 13t12 33zM1122 1888l72 -88v88h31v-145h-27l-70 88v-88
h-32v145h26zM1290 1743l64 145h32l64 -145h-35l-12 31h-68l-12 -31h-33zM1393 1800l-23 55l-22 -55h45zM1513 1888h33v-119h72v-26h-105v145zM1790 1888h33v-80q0 -39 32 -39q31 0 31 39v80h33v-82q0 -32 -17 -48.5t-47 -16.5q-65 0 -65 65v82zM2048 1767q27 0 27 15
q0 11 -20.5 16t-41 14.5t-20.5 32.5q0 20 15 32.5t44 12.5q31 0 49 -12l-10 -27q-19 13 -39 13q-27 0 -27 -17q0 -11 20.5 -15t41 -13.5t20.5 -32.5q0 -20 -15 -32.5t-44 -12.5q-38 0 -57 16l10 25q23 -15 47 -15zM2288 1862h-76v-33h67v-27h-67v-33h78v-26h-111v145h109
v-26zM2462 1815q0 33 23 54t57 21q33 0 55 -21t22 -54q0 -32 -22 -53t-55 -21q-34 0 -57 21t-23 53zM2585 1815q0 21 -12 34t-31 13q-20 0 -32.5 -12.5t-12.5 -34.5q0 -20 12.5 -33t32.5 -13q19 0 31 13t12 33zM2720 1888l71 -88v88h31v-145h-26l-70 88v-88h-33v145h27z
M2906 1888h33v-119h72v-26h-105v145zM3131 1743h-32v51l-56 94h35l39 -65l37 65h33l-56 -94v-51zM143 176v-4h-39l-6 -31h-4l15 72h47l-2 -6h-41l-7 -31h37zM162 162q0 14 9 23.5t22 9.5q9 0 15.5 -6.5t6.5 -16.5q0 -14 -9 -23.5t-22 -9.5q-10 0 -16 7t-6 16zM209 172
q0 18 -19 18q-10 0 -17 -8t-7 -20q0 -17 18 -17q11 0 18 7.5t7 19.5zM244 195h4l-2 -13q10 13 22 13v-7h-2q-19 0 -22 -20l-6 -27h-5zM360 207q-17 0 -26.5 -10.5t-9.5 -26.5q0 -25 26 -25q17 0 23 9l4 -4q-11 -11 -27 -11q-15 0 -24 8.5t-9 22.5q0 18 11.5 30.5t31.5 12.5
q15 0 25 -10l-4 -4q-5 8 -21 8zM446 172q0 -14 -8.5 -23.5t-21.5 -9.5q-9 0 -16 7t-7 16q0 14 9 23.5t22 9.5q22 0 22 -23zM418 145q11 0 17.5 7.5t6.5 19.5q0 8 -5 13t-13 5q-11 0 -18 -8t-7 -20q0 -17 19 -17zM475 195h6l-2 -11q7 11 21 11q13 0 16 -13q10 13 23 13
q18 0 18 -17v-6l-6 -31h-4l6 31v4q0 14 -14 14q-20 0 -23 -20l-6 -29h-4l6 31v4q0 14 -14 14q-16 0 -23 -20l-4 -29h-6zM655 195q17 0 17 -17v-6l-6 -31h-4l6 31v4q0 14 -15 14t-22 -20l-4 -29h-6l6 31v4q0 14 -15 14q-17 0 -20 -20l-6 -29h-6l10 54h6l-2 -11q7 11 20 11
q16 0 19 -13q7 13 22 13zM745 166h-45v-4q0 -17 19 -17q11 0 18 7l2 -5q-8 -8 -20 -8q-11 0 -18 6.5t-7 16.5q0 14 8.5 23.5t20.5 9.5q22 0 22 -23v-6zM723 190q-8 0 -15 -5.5t-8 -14.5h41v2q0 18 -18 18zM774 195h6l-2 -13q6 13 21 13v-7h-2q-17 0 -23 -20l-4 -27h-6z
M840 190q-11 0 -18 -8t-7 -20q0 -7 5.5 -12t13.5 -5q11 0 18 7l4 -2q-11 -11 -22 -11q-10 0 -16.5 7t-6.5 16q0 14 8.5 23.5t20.5 9.5q13 0 20 -11l-4 -2q-8 8 -16 8zM897 211q0 -4 -6 -4q-4 0 -4 4t6 4q4 0 4 -4zM877 141l10 54h4l-10 -54h-4zM956 141h-4l2 11
q-6 -13 -22 -13q-9 0 -16 6.5t-7 16.5q0 14 9 23.5t22 9.5q14 0 21 -15l2 15h4zM934 145q11 0 17.5 7.5t6.5 19.5q0 8 -5 13t-13 5q-11 0 -18 -8t-7 -20q0 -17 19 -17zM991 141h-4l14 76h7zM1018 125h-4l6 14l-2 4q0 7 4 7t4 -5v-6zM1118 164h-20l-6 -23h-5l15 72h24
q25 0 25 -20q0 -29 -33 -29zM1106 207l-8 -39h20q27 0 27 25q0 14 -19 14h-20zM1171 141h-6l17 76h4zM1249 166h-43q-2 -2 -2 -4q0 -17 21 -17q11 0 18 7l2 -5q-12 -8 -20 -8q-25 0 -25 23q0 14 8.5 23.5t20.5 9.5q22 0 22 -23q0 -4 -2 -6zM1229 190q-20 0 -23 -20h39v2
q0 18 -16 18zM1321 195h6l-10 -54h-6l2 11q-7 -13 -21 -13q-22 0 -22 23q0 14 8 23.5t20 9.5q17 0 21 -15zM1292 145q11 0 18 7.5t7 19.5q0 18 -19 18q-10 0 -17 -8t-7 -20q0 -17 18 -17zM1360 145q18 0 18 11q0 6 -15 9t-15 13q0 17 22 17q9 0 16 -7l-2 -4q-6 6 -16 6
q-16 0 -16 -12q0 -6 15 -9t15 -13q0 -17 -22 -17q-13 0 -21 8l4 5q7 -7 17 -7zM1452 166h-45v-4q0 -17 18 -17q12 0 19 7l2 -5q-8 -8 -21 -8q-22 0 -22 23q0 14 7.5 23.5t19.5 9.5q22 0 22 -23v-6zM1430 190q-16 0 -23 -20h41v2q0 18 -18 18zM1532 141h-4l-19 72h7l16 -66
l41 66h4zM1602 211q0 -4 -5 -4q-4 0 -4 4t4 4q5 0 5 -4zM1581 141l10 54h6l-10 -54h-6zM1640 190q-16 0 -16 -12q0 -6 14.5 -9t14.5 -13q0 -17 -23 -17q-12 0 -20 8l4 5q7 -7 18 -7q17 0 17 11q0 6 -15.5 9t-15.5 13q0 17 22 17q10 0 17 -7l-2 -4q-6 6 -15 6zM1673 141
l10 54h7l-13 -54h-4zM1694 211q0 -4 -4 -4t-4 4t4 4t4 -4zM1722 205h4l-2 -10h17v-7h-17l-6 -32q-2 -2 -2 -4q0 -9 8 -9q5 0 9 4l2 -4q-4 -4 -11 -4q-12 0 -12 13v4l6 32h-8v7h10zM3217 1655v-8h-3102v8h3102zM3217 1987v-9h-3102v9h3102zM3217 2023v-8h-3102v8h3102z
M119 -207v8h3103v-8h-3103zM119 -170v8h3103v-8h-3103zM1774 168h1448v-8h-1448v8zM2064 430q-4 0 -8 -7.5t-4 -16.5q0 -25 14 -25q5 0 7.5 -3.5t-0.5 -8.5q-10 -13 -39 -13q-20 0 -24 6t1 29q6 33 -12 51q-21 14 -21 52q0 20 5.5 27t19.5 7q15 0 18 -6.5t-2 -29.5
q-4 -26 -1 -32t18 -3t18.5 17t3.5 63q-2 68 11 70q3 1 8 -1q12 -3 16 -16t4 -47q-1 -49 -11 -81t-22 -32zM1950 575q-12 -5 -16.5 -23.5t-4.5 -70.5q0 -85 13 -94q17 -11 11 -21t-28 -10q-19 0 -22 13t0 84v10q4 90 -3 98q-4 5 -20 0q-15 -6 -20 -2t-5 19q0 17 9.5 21.5
t44.5 4.5q58 0 76 6q11 5 14.5 0t3.5 -24q0 -29 -12 -33q-9 -3 -14 14q-1 1 -1 2q-6 13 -26 6zM2200 449q-28 -15 -36 -45q-6 -23 13 -23q6 0 7.5 -3.5t-1.5 -8.5q-7 -13 -31 -13q-8 0 -12 3.5t-7.5 17t-4.5 36.5t-2 66l-4 125h45q38 0 61 -18.5t23 -50.5q0 -34 -11 -53.5
t-40 -32.5zM2161 506q12 -64 51 -25q25 26 11 61.5t-48 35.5q-13 0 -17.5 -6t-3.5 -20.5t7 -45.5zM2468 670q-23 9 -45.5 25t-30.5 28q-19 26 -29 27.5t-18 -23.5q-11 -26 -45 -43t-81 -7.5t-73 38.5q-20 23 -45 12q-65 -36 -123 25q-25 25 -30.5 43.5t-5.5 78.5
q0 89 -17 89q-20 0 -32.5 -38.5t-12.5 -97.5q0 -56 -10.5 -76t-44.5 -26q-23 -3 -33 -41q-13 -69 -50 -96t-93 -8q-34 11 -69 47t-42 69q-4 19 -13.5 22.5t-41.5 0.5q-31 -5 -46.5 -1t-35.5 23l-31 29l-24 -33q-23 -35 -68 -35h-43v-65q0 -133 -92 -133q-42 0 -72 26
q-32 22 -53 88q-13 47 -15 135t3 445q0 108 -13 111q-8 4 -24 -22t-32 -67t-24 -77q-13 -77 -20 -279l-8 -215l-49 8q-46 3 -64 21q-13 13 -20 201q-6 152 -18.5 205t-41.5 53q-51 0 -94 -72t-43 -156q0 -60 20 -90t66 -39q39 -7 36 -18q-4 -16 -64 -20q-34 -2 -68 3
q-55 8 -99 52q-31 31 -36 47.5t-2 73.5q5 69 31 115t83 83q68 44 152.5 41t134.5 -51q23 -23 33 -16t10 45q0 21 18 84q22 74 66 107.5t92 17t80 -79.5q15 -32 18 -87.5t0 -256.5q-2 -237 3.5 -302t27.5 -65q32 0 39 76.5t-22 126.5q-34 56 -20.5 130.5t63.5 106.5
q32 22 88 17q55 -7 55 2q0 13 23 16.5t55 -4.5l45 -12l4 -121q3 -130 15 -119q14 15 22 197q7 199 2 202q-7 7 -90 11q-51 5 -80 0.5t-66 -21.5q-63 -29 -98 -19q-22 5 -6 25q22 25 94 41t133 9q75 -7 103 -15q19 -4 25.5 8t17.5 68q12 65 26 76t70 -2q20 -6 22 -20.5
t-4 -80.5l-8 -90h33q20 0 26.5 8t12.5 41q17 114 98.5 182t167.5 42q44 -12 67 -38.5t29 -72.5q12 -107 -110 -168q-68 -31 -99 -31q-23 0 -28.5 -8.5t-8.5 -44.5q-4 -51 0 -92l2 -39l37 37q23 23 37.5 29t34.5 0q47 -10 70 -45.5t34 -112.5q8 -58 18 -79.5t19 0t13 79.5
q3 56 10.5 74t36.5 43q26 24 42 29.5t50 0.5q53 -4 70 -14q21 -6 26 18q13 43 90 13l33 -13l-10 -122q-4 -78 -2 -107t14 -49q29 -43 71.5 -28.5t82.5 81.5q31 54 34 127q0 61 -20 91t-66 42q-39 10 -37 20q3 14 74 17q86 4 141.5 -37.5t59.5 -107.5t-43 -146
q-61 -93 -180 -116q-44 -9 -66.5 -8t-60.5 14zM1888 1286q-33 -105 -26 -119q7 -12 56 13q4 2 9 4q63 32 90 83t8 105q-18 53 -58 34q-45 -22 -75 -109q-2 -5 -4 -11zM1329 788q15 31 17 101.5t-13 79.5q-26 18 -45 -30q-21 -55 -10 -132q5 -32 11.5 -44.5t16 -6.5t23.5 32z
M1702 643q39 -61 39 39q0 25 -2 61q-1 23 -8 113t-9 131q-7 129 -20 139q-28 18 -36 2q-9 -19 -9 -143q0 -275 45 -342zM2300 739q19 32 22 101.5t-12 89.5q-13 19 -18.5 18t-20.5 -26q-20 -29 -27 -75t1 -87q6 -37 23 -43.5t32 22.5zM2386 563q-86 39 -86 -26
q0 -25 16.5 -32.5t28.5 11.5q6 11 13.5 12.5t12.5 -7t5 -23.5q0 -20 -6 -24t-31 1q-28 6 -33.5 0.5t-5.5 -37.5q0 -29 5 -37t24 -8q26 0 43 13q12 15 18 -13q5 -15 -0.5 -19.5t-30.5 -4.5q-33 0 -65 -9q-16 -4 -20 9q-5 16 -5 110v125h37q45 0 66 6q19 6 23 2.5t1 -22.5
q-1 -8 -3 -14.5t-4 -10t-3 -2.5zM301 -96h-22l-41 135h26l19 -68q1 -9 4 -24t4 -21h2q0 2 12 43l23 70h20l21 -68q6 -24 12 -45q2 12 10 45l21 68h22l-43 -135h-22l-21 65q-10 35 -12 43q-2 -8 -6 -22.5t-6 -22.5zM539 -96h-23l-41 135h27l16 -68q8 -33 10 -45h2q3 19 13 43
l20 70h21l22 -68q6 -24 12 -45q0 2 11 45l18 68h25l-43 -135h-23l-20 65q-1 5 -6 19.5t-7 23.5q-2 -8 -6 -22.5t-6 -22.5zM776 -96h-22l-41 135h24l19 -68q8 -33 10 -45q2 7 6 21.5t6 21.5l23 70h20l21 -68q9 -24 12 -45h2q2 12 10 45l19 68h24l-43 -135h-22l-21 65
q-9 22 -12 43q-2 -8 -6 -22.5t-6 -22.5zM963 -98q-17 0 -17 16q0 8 5 13.5t12 5.5q6 0 11 -6t5 -13q0 -16 -16 -16zM1153 -96h-25v78q0 41 -32 41q-25 0 -33 -27q0 -1 -1 -4.5t-1 -5.5v-82h-25v98v37h21l2 -23q18 27 45 27q18 0 33.5 -14t15.5 -45v-80zM1210 -61q0 51 80 51
v2q0 33 -30 33q-17 0 -35 -11l-6 17q24 12 45 12q51 0 51 -55v-51q0 -23 2 -33h-23l-2 16q-14 -18 -41 -18q-20 0 -30.5 11t-10.5 26zM1292 -27q-57 0 -57 -30q0 -25 22 -25q24 0 33 23q0 2 1 4.5t1 3.5v24zM1446 20h-35v-73q0 -27 19 -27q3 0 8 1t6 1l2 -18q-6 -2 -23 -2
q-19 0 -26 10q-11 11 -11 35v73h-20v19h20v33l25 6v-39h35v-19zM1618 -96h-25v78q0 41 -32 41q-21 0 -33 -25v-12v-82h-27v198h27v-84q8 11 16 17q16 8 27 8q18 0 32.5 -14t14.5 -45v-80zM1729 43q51 0 51 -55v-51q0 -6 1 -17t1 -16h-21l-2 16h-2q-14 -18 -41 -18
q-19 0 -30 11t-11 26q0 51 80 51v2q0 33 -31 33q-16 0 -34 -11l-4 17q20 12 43 12zM1757 -51v24q-57 0 -57 -30q0 -25 22 -25q24 0 33 23q0 2 1 4.5t1 3.5zM1853 72l23 6v-39h37v-19h-37v-73q0 -27 18 -27q4 0 9 1t6 1l2 -18q-4 -2 -23 -2q-18 0 -26 10q-9 9 -9 35v73h-22
v19h22v33zM1980 -125q14 7 21 27q2 2 2 6v6l-51 125h26l31 -80q3 -12 8 -27q5 15 8 27l29 80h25l-37 -96q-22 -64 -45 -84q-17 -17 -31 -17l-6 21q12 4 20 12zM2154 -152h-24v148q0 31 -2 43h22l2 -23q17 27 48 27q25 0 41 -19.5t16 -50.5q0 -35 -17.5 -53t-44.5 -18
q-30 0 -41 20v-74zM2154 -18v-23v-10q3 -12 14 -20.5t23 -8.5q41 0 41 51q0 23 -10.5 37.5t-28.5 14.5q-12 0 -22.5 -9t-13.5 -22q-3 -3 -3 -10zM2427 -23q0 -2 -1 -5.5t-1 -4.5h-94q0 -23 13.5 -35t33.5 -12q22 0 37 6l4 -16q-16 -8 -45 -8q-31 0 -49.5 18t-18.5 49
t17.5 52.5t46.5 21.5q30 0 43.5 -20.5t13.5 -45.5zM2331 -16h71q0 41 -35 41q-31 0 -36 -41zM2509 -82q0 -16 -17 -16q-16 0 -16 16q0 19 16 19q7 0 12 -5.5t5 -13.5zM2630 23q-22 0 -34.5 -14.5t-12.5 -37.5t13 -37t34 -14q6 0 30 6l4 -18q-18 -6 -38 -6q-31 0 -49.5 18
t-18.5 49q0 32 20 52t52 20q25 0 34 -6l-6 -19q-21 7 -28 7zM2841 -27q0 -36 -20 -53.5t-48 -17.5q-27 0 -45 19t-18 50q0 33 18.5 52.5t48.5 19.5q29 0 46.5 -19.5t17.5 -50.5zM2734 -29q0 -23 11 -37t30 -14q18 0 29.5 14t11.5 37q0 20 -10.5 37t-30.5 17t-30.5 -16.5
t-10.5 -37.5zM3095 -96h-25v76q0 43 -31 43q-20 0 -28 -23q0 -2 -1 -6t-1 -6v-84h-23v82q0 16 -8 26.5t-21 10.5q-22 0 -30 -25q-2 -4 -2 -12v-82h-25v98v37h20l2 -23q15 27 44 27q27 0 38 -29q7 14 15 19q13 10 30 10t31.5 -13.5t14.5 -45.5v-80z" />
    <glyph glyph-name="quotesingle" unicode="'" horiz-adv-x="249" 
d="M150 1430h120q-57 -179 -94 -300h-41z" />
    <glyph glyph-name="parenleft" unicode="(" horiz-adv-x="567" 
d="M614 1411q-53 -8 -89.5 -24t-74.5 -60.5t-60.5 -117.5t-37 -198t-14.5 -298q0 -145 9 -256t28 -184.5t42 -122.5t56.5 -77t65 -40.5t75.5 -18.5v-24q-72 5 -133 28.5t-119 76t-98 132t-64 203.5t-24 283t24 283t64 203.5t98 132t119 76t133 28.5v-25z" />
    <glyph glyph-name="parenright" unicode=")" horiz-adv-x="567" 
d="M78 1436q72 -5 133 -28.5t119 -76t98 -132t64 -203.5t24 -283t-24 -283t-64 -203.5t-98 -132t-119 -76t-133 -28.5v24q44 6 75.5 18.5t65 40.5t56.5 77t42 122.5t28 184.5t9 256q0 173 -14.5 298t-37 198t-60.5 117.5t-74.5 60.5t-89.5 24v25z" />
    <glyph glyph-name="asterisk" unicode="*" horiz-adv-x="542" 
d="M541 1327l-148 -92l129 -152l-43 -30l-147 151l-148 -151l-43 30l129 152l-147 92l31 43l143 -78l6 168h55l4 -170l148 80z" />
    <glyph glyph-name="plus" unicode="+" horiz-adv-x="819" 
d="M541 776h278v-125h-278v-278h-125v278h-281v125h281v281h125v-281z" />
    <glyph glyph-name="comma" unicode="," horiz-adv-x="3254" 
d="M115 1888h63q28 0 45 -14t17 -39t-17 -39t-45 -14h-28v-39h-35v145zM207 1835q0 27 -31 27h-26v-52h26q31 0 31 25zM420 1862h-76v-33h66v-27h-66v-33h78v-26h-111v145h109v-26zM621 1835q0 -32 -29 -45l31 -47h-35l-27 41h-2h-29v-41h-32v145h61q28 0 45 -14t17 -39z
M557 1810q31 0 31 25q0 27 -31 27h-27v-52h27zM743 1767q27 0 27 15q0 11 -20.5 16t-41 14.5t-20.5 32.5q0 20 15.5 32.5t44.5 12.5q31 0 49 -12l-11 -27q-20 13 -38 13q-27 0 -27 -17q0 -11 20.5 -15t41 -13.5t20.5 -32.5q0 -20 -16 -32.5t-46 -12.5q-38 0 -57 16l12 25
q19 -15 47 -15zM866 1815q0 33 22 54t56 21q33 0 55.5 -21t22.5 -54q0 -32 -22.5 -53t-55.5 -21q-34 0 -56 21t-22 53zM987 1815q0 21 -12 34t-31 13q-20 0 -32.5 -12.5t-12.5 -34.5q0 -20 12.5 -33t32.5 -13q19 0 31 13t12 33zM1122 1888l72 -88v88h31v-145h-27l-70 88v-88
h-32v145h26zM1290 1743l64 145h32l64 -145h-35l-12 31h-68l-12 -31h-33zM1393 1800l-23 55l-22 -55h45zM1513 1888h33v-119h72v-26h-105v145zM1790 1888h33v-80q0 -39 32 -39q31 0 31 39v80h33v-82q0 -32 -17 -48.5t-47 -16.5q-65 0 -65 65v82zM2048 1767q27 0 27 15
q0 11 -20.5 16t-41 14.5t-20.5 32.5q0 20 15 32.5t44 12.5q31 0 49 -12l-10 -27q-19 13 -39 13q-27 0 -27 -17q0 -11 20.5 -15t41 -13.5t20.5 -32.5q0 -20 -15 -32.5t-44 -12.5q-38 0 -57 16l10 25q23 -15 47 -15zM2288 1862h-76v-33h67v-27h-67v-33h78v-26h-111v145h109
v-26zM2462 1815q0 33 23 54t57 21q33 0 55 -21t22 -54q0 -32 -22 -53t-55 -21q-34 0 -57 21t-23 53zM2585 1815q0 21 -12 34t-31 13q-20 0 -32.5 -12.5t-12.5 -34.5q0 -20 12.5 -33t32.5 -13q19 0 31 13t12 33zM2720 1888l71 -88v88h31v-145h-26l-70 88v-88h-33v145h27z
M2906 1888h33v-119h72v-26h-105v145zM3131 1743h-32v51l-56 94h35l39 -65l37 65h33l-56 -94v-51zM143 176v-4h-39l-6 -31h-4l15 72h47l-2 -6h-41l-7 -31h37zM162 162q0 14 9 23.5t22 9.5q9 0 15.5 -6.5t6.5 -16.5q0 -14 -9 -23.5t-22 -9.5q-10 0 -16 7t-6 16zM209 172
q0 18 -19 18q-10 0 -17 -8t-7 -20q0 -17 18 -17q11 0 18 7.5t7 19.5zM244 195h4l-2 -13q10 13 22 13v-7h-2q-19 0 -22 -20l-6 -27h-5zM360 207q-17 0 -26.5 -10.5t-9.5 -26.5q0 -25 26 -25q17 0 23 9l4 -4q-11 -11 -27 -11q-15 0 -24 8.5t-9 22.5q0 18 11.5 30.5t31.5 12.5
q15 0 25 -10l-4 -4q-5 8 -21 8zM446 172q0 -14 -8.5 -23.5t-21.5 -9.5q-9 0 -16 7t-7 16q0 14 9 23.5t22 9.5q22 0 22 -23zM418 145q11 0 17.5 7.5t6.5 19.5q0 8 -5 13t-13 5q-11 0 -18 -8t-7 -20q0 -17 19 -17zM475 195h6l-2 -11q7 11 21 11q13 0 16 -13q10 13 23 13
q18 0 18 -17v-6l-6 -31h-4l6 31v4q0 14 -14 14q-20 0 -23 -20l-6 -29h-4l6 31v4q0 14 -14 14q-16 0 -23 -20l-4 -29h-6zM655 195q17 0 17 -17v-6l-6 -31h-4l6 31v4q0 14 -15 14t-22 -20l-4 -29h-6l6 31v4q0 14 -15 14q-17 0 -20 -20l-6 -29h-6l10 54h6l-2 -11q7 11 20 11
q16 0 19 -13q7 13 22 13zM745 166h-45v-4q0 -17 19 -17q11 0 18 7l2 -5q-8 -8 -20 -8q-11 0 -18 6.5t-7 16.5q0 14 8.5 23.5t20.5 9.5q22 0 22 -23v-6zM723 190q-8 0 -15 -5.5t-8 -14.5h41v2q0 18 -18 18zM774 195h6l-2 -13q6 13 21 13v-7h-2q-17 0 -23 -20l-4 -27h-6z
M840 190q-11 0 -18 -8t-7 -20q0 -7 5.5 -12t13.5 -5q11 0 18 7l4 -2q-11 -11 -22 -11q-10 0 -16.5 7t-6.5 16q0 14 8.5 23.5t20.5 9.5q13 0 20 -11l-4 -2q-8 8 -16 8zM897 211q0 -4 -6 -4q-4 0 -4 4t6 4q4 0 4 -4zM877 141l10 54h4l-10 -54h-4zM956 141h-4l2 11
q-6 -13 -22 -13q-9 0 -16 6.5t-7 16.5q0 14 9 23.5t22 9.5q14 0 21 -15l2 15h4zM934 145q11 0 17.5 7.5t6.5 19.5q0 8 -5 13t-13 5q-11 0 -18 -8t-7 -20q0 -17 19 -17zM991 141h-4l14 76h7zM1018 125h-4l6 14l-2 4q0 7 4 7t4 -5v-6zM1118 164h-20l-6 -23h-5l15 72h24
q25 0 25 -20q0 -29 -33 -29zM1106 207l-8 -39h20q27 0 27 25q0 14 -19 14h-20zM1171 141h-6l17 76h4zM1249 166h-43q-2 -2 -2 -4q0 -17 21 -17q11 0 18 7l2 -5q-12 -8 -20 -8q-25 0 -25 23q0 14 8.5 23.5t20.5 9.5q22 0 22 -23q0 -4 -2 -6zM1229 190q-20 0 -23 -20h39v2
q0 18 -16 18zM1321 195h6l-10 -54h-6l2 11q-7 -13 -21 -13q-22 0 -22 23q0 14 8 23.5t20 9.5q17 0 21 -15zM1292 145q11 0 18 7.5t7 19.5q0 18 -19 18q-10 0 -17 -8t-7 -20q0 -17 18 -17zM1360 145q18 0 18 11q0 6 -15 9t-15 13q0 17 22 17q9 0 16 -7l-2 -4q-6 6 -16 6
q-16 0 -16 -12q0 -6 15 -9t15 -13q0 -17 -22 -17q-13 0 -21 8l4 5q7 -7 17 -7zM1452 166h-45v-4q0 -17 18 -17q12 0 19 7l2 -5q-8 -8 -21 -8q-22 0 -22 23q0 14 7.5 23.5t19.5 9.5q22 0 22 -23v-6zM1430 190q-16 0 -23 -20h41v2q0 18 -18 18zM1532 141h-4l-19 72h7l16 -66
l41 66h4zM1602 211q0 -4 -5 -4q-4 0 -4 4t4 4q5 0 5 -4zM1581 141l10 54h6l-10 -54h-6zM1640 190q-16 0 -16 -12q0 -6 14.5 -9t14.5 -13q0 -17 -23 -17q-12 0 -20 8l4 5q7 -7 18 -7q17 0 17 11q0 6 -15.5 9t-15.5 13q0 17 22 17q10 0 17 -7l-2 -4q-6 6 -15 6zM1673 141
l10 54h7l-13 -54h-4zM1694 211q0 -4 -4 -4t-4 4t4 4t4 -4zM1722 205h4l-2 -10h17v-7h-17l-6 -32q-2 -2 -2 -4q0 -9 8 -9q5 0 9 4l2 -4q-4 -4 -11 -4q-12 0 -12 13v4l6 32h-8v7h10zM3217 1655v-8h-3102v8h3102zM3217 1987v-9h-3102v9h3102zM3217 2023v-8h-3102v8h3102z
M119 -207v8h3103v-8h-3103zM119 -170v8h3103v-8h-3103zM1774 168h1448v-8h-1448v8zM2064 430q-4 0 -8 -7.5t-4 -16.5q0 -25 14 -25q5 0 7.5 -3.5t-0.5 -8.5q-10 -13 -39 -13q-20 0 -24 6t1 29q6 33 -12 51q-21 14 -21 52q0 20 5.5 27t19.5 7q15 0 18 -6.5t-2 -29.5
q-4 -26 -1 -32t18 -3t18.5 17t3.5 63q-2 68 11 70q3 1 8 -1q12 -3 16 -16t4 -47q-1 -49 -11 -81t-22 -32zM1950 575q-12 -5 -16.5 -23.5t-4.5 -70.5q0 -85 13 -94q17 -11 11 -21t-28 -10q-19 0 -22 13t0 84v10q4 90 -3 98q-4 5 -20 0q-15 -6 -20 -2t-5 19q0 17 9.5 21.5
t44.5 4.5q58 0 76 6q11 5 14.5 0t3.5 -24q0 -29 -12 -33q-9 -3 -14 14q-1 1 -1 2q-6 13 -26 6zM2200 449q-28 -15 -36 -45q-6 -23 13 -23q6 0 7.5 -3.5t-1.5 -8.5q-7 -13 -31 -13q-8 0 -12 3.5t-7.5 17t-4.5 36.5t-2 66l-4 125h45q38 0 61 -18.5t23 -50.5q0 -34 -11 -53.5
t-40 -32.5zM2161 506q12 -64 51 -25q25 26 11 61.5t-48 35.5q-13 0 -17.5 -6t-3.5 -20.5t7 -45.5zM2468 670q-23 9 -45.5 25t-30.5 28q-19 26 -29 27.5t-18 -23.5q-11 -26 -45 -43t-81 -7.5t-73 38.5q-20 23 -45 12q-65 -36 -123 25q-25 25 -30.5 43.5t-5.5 78.5
q0 89 -17 89q-20 0 -32.5 -38.5t-12.5 -97.5q0 -56 -10.5 -76t-44.5 -26q-23 -3 -33 -41q-13 -69 -50 -96t-93 -8q-34 11 -69 47t-42 69q-4 19 -13.5 22.5t-41.5 0.5q-31 -5 -46.5 -1t-35.5 23l-31 29l-24 -33q-23 -35 -68 -35h-43v-65q0 -133 -92 -133q-42 0 -72 26
q-32 22 -53 88q-13 47 -15 135t3 445q0 108 -13 111q-8 4 -24 -22t-32 -67t-24 -77q-13 -77 -20 -279l-8 -215l-49 8q-46 3 -64 21q-13 13 -20 201q-6 152 -18.5 205t-41.5 53q-51 0 -94 -72t-43 -156q0 -60 20 -90t66 -39q39 -7 36 -18q-4 -16 -64 -20q-34 -2 -68 3
q-55 8 -99 52q-31 31 -36 47.5t-2 73.5q5 69 31 115t83 83q68 44 152.5 41t134.5 -51q23 -23 33 -16t10 45q0 21 18 84q22 74 66 107.5t92 17t80 -79.5q15 -32 18 -87.5t0 -256.5q-2 -237 3.5 -302t27.5 -65q32 0 39 76.5t-22 126.5q-34 56 -20.5 130.5t63.5 106.5
q32 22 88 17q55 -7 55 2q0 13 23 16.5t55 -4.5l45 -12l4 -121q3 -130 15 -119q14 15 22 197q7 199 2 202q-7 7 -90 11q-51 5 -80 0.5t-66 -21.5q-63 -29 -98 -19q-22 5 -6 25q22 25 94 41t133 9q75 -7 103 -15q19 -4 25.5 8t17.5 68q12 65 26 76t70 -2q20 -6 22 -20.5
t-4 -80.5l-8 -90h33q20 0 26.5 8t12.5 41q17 114 98.5 182t167.5 42q44 -12 67 -38.5t29 -72.5q12 -107 -110 -168q-68 -31 -99 -31q-23 0 -28.5 -8.5t-8.5 -44.5q-4 -51 0 -92l2 -39l37 37q23 23 37.5 29t34.5 0q47 -10 70 -45.5t34 -112.5q8 -58 18 -79.5t19 0t13 79.5
q3 56 10.5 74t36.5 43q26 24 42 29.5t50 0.5q53 -4 70 -14q21 -6 26 18q13 43 90 13l33 -13l-10 -122q-4 -78 -2 -107t14 -49q29 -43 71.5 -28.5t82.5 81.5q31 54 34 127q0 61 -20 91t-66 42q-39 10 -37 20q3 14 74 17q86 4 141.5 -37.5t59.5 -107.5t-43 -146
q-61 -93 -180 -116q-44 -9 -66.5 -8t-60.5 14zM1888 1286q-33 -105 -26 -119q7 -12 56 13q4 2 9 4q63 32 90 83t8 105q-18 53 -58 34q-45 -22 -75 -109q-2 -5 -4 -11zM1329 788q15 31 17 101.5t-13 79.5q-26 18 -45 -30q-21 -55 -10 -132q5 -32 11.5 -44.5t16 -6.5t23.5 32z
M1702 643q39 -61 39 39q0 25 -2 61q-1 23 -8 113t-9 131q-7 129 -20 139q-28 18 -36 2q-9 -19 -9 -143q0 -275 45 -342zM2300 739q19 32 22 101.5t-12 89.5q-13 19 -18.5 18t-20.5 -26q-20 -29 -27 -75t1 -87q6 -37 23 -43.5t32 22.5zM2386 563q-86 39 -86 -26
q0 -25 16.5 -32.5t28.5 11.5q6 11 13.5 12.5t12.5 -7t5 -23.5q0 -20 -6 -24t-31 1q-28 6 -33.5 0.5t-5.5 -37.5q0 -29 5 -37t24 -8q26 0 43 13q12 15 18 -13q5 -15 -0.5 -19.5t-30.5 -4.5q-33 0 -65 -9q-16 -4 -20 9q-5 16 -5 110v125h37q45 0 66 6q19 6 23 2.5t1 -22.5
q-1 -8 -3 -14.5t-4 -10t-3 -2.5zM301 -96h-22l-41 135h26l19 -68q1 -9 4 -24t4 -21h2q0 2 12 43l23 70h20l21 -68q6 -24 12 -45q2 12 10 45l21 68h22l-43 -135h-22l-21 65q-10 35 -12 43q-2 -8 -6 -22.5t-6 -22.5zM539 -96h-23l-41 135h27l16 -68q8 -33 10 -45h2q3 19 13 43
l20 70h21l22 -68q6 -24 12 -45q0 2 11 45l18 68h25l-43 -135h-23l-20 65q-1 5 -6 19.5t-7 23.5q-2 -8 -6 -22.5t-6 -22.5zM776 -96h-22l-41 135h24l19 -68q8 -33 10 -45q2 7 6 21.5t6 21.5l23 70h20l21 -68q9 -24 12 -45h2q2 12 10 45l19 68h24l-43 -135h-22l-21 65
q-9 22 -12 43q-2 -8 -6 -22.5t-6 -22.5zM963 -98q-17 0 -17 16q0 8 5 13.5t12 5.5q6 0 11 -6t5 -13q0 -16 -16 -16zM1153 -96h-25v78q0 41 -32 41q-25 0 -33 -27q0 -1 -1 -4.5t-1 -5.5v-82h-25v98v37h21l2 -23q18 27 45 27q18 0 33.5 -14t15.5 -45v-80zM1210 -61q0 51 80 51
v2q0 33 -30 33q-17 0 -35 -11l-6 17q24 12 45 12q51 0 51 -55v-51q0 -23 2 -33h-23l-2 16q-14 -18 -41 -18q-20 0 -30.5 11t-10.5 26zM1292 -27q-57 0 -57 -30q0 -25 22 -25q24 0 33 23q0 2 1 4.5t1 3.5v24zM1446 20h-35v-73q0 -27 19 -27q3 0 8 1t6 1l2 -18q-6 -2 -23 -2
q-19 0 -26 10q-11 11 -11 35v73h-20v19h20v33l25 6v-39h35v-19zM1618 -96h-25v78q0 41 -32 41q-21 0 -33 -25v-12v-82h-27v198h27v-84q8 11 16 17q16 8 27 8q18 0 32.5 -14t14.5 -45v-80zM1729 43q51 0 51 -55v-51q0 -6 1 -17t1 -16h-21l-2 16h-2q-14 -18 -41 -18
q-19 0 -30 11t-11 26q0 51 80 51v2q0 33 -31 33q-16 0 -34 -11l-4 17q20 12 43 12zM1757 -51v24q-57 0 -57 -30q0 -25 22 -25q24 0 33 23q0 2 1 4.5t1 3.5zM1853 72l23 6v-39h37v-19h-37v-73q0 -27 18 -27q4 0 9 1t6 1l2 -18q-4 -2 -23 -2q-18 0 -26 10q-9 9 -9 35v73h-22
v19h22v33zM1980 -125q14 7 21 27q2 2 2 6v6l-51 125h26l31 -80q3 -12 8 -27q5 15 8 27l29 80h25l-37 -96q-22 -64 -45 -84q-17 -17 -31 -17l-6 21q12 4 20 12zM2154 -152h-24v148q0 31 -2 43h22l2 -23q17 27 48 27q25 0 41 -19.5t16 -50.5q0 -35 -17.5 -53t-44.5 -18
q-30 0 -41 20v-74zM2154 -18v-23v-10q3 -12 14 -20.5t23 -8.5q41 0 41 51q0 23 -10.5 37.5t-28.5 14.5q-12 0 -22.5 -9t-13.5 -22q-3 -3 -3 -10zM2427 -23q0 -2 -1 -5.5t-1 -4.5h-94q0 -23 13.5 -35t33.5 -12q22 0 37 6l4 -16q-16 -8 -45 -8q-31 0 -49.5 18t-18.5 49
t17.5 52.5t46.5 21.5q30 0 43.5 -20.5t13.5 -45.5zM2331 -16h71q0 41 -35 41q-31 0 -36 -41zM2509 -82q0 -16 -17 -16q-16 0 -16 16q0 19 16 19q7 0 12 -5.5t5 -13.5zM2630 23q-22 0 -34.5 -14.5t-12.5 -37.5t13 -37t34 -14q6 0 30 6l4 -18q-18 -6 -38 -6q-31 0 -49.5 18
t-18.5 49q0 32 20 52t52 20q25 0 34 -6l-6 -19q-21 7 -28 7zM2841 -27q0 -36 -20 -53.5t-48 -17.5q-27 0 -45 19t-18 50q0 33 18.5 52.5t48.5 19.5q29 0 46.5 -19.5t17.5 -50.5zM2734 -29q0 -23 11 -37t30 -14q18 0 29.5 14t11.5 37q0 20 -10.5 37t-30.5 17t-30.5 -16.5
t-10.5 -37.5zM3095 -96h-25v76q0 43 -31 43q-20 0 -28 -23q0 -2 -1 -6t-1 -6v-84h-23v82q0 16 -8 26.5t-21 10.5q-22 0 -30 -25q-2 -4 -2 -12v-82h-25v98v37h20l2 -23q15 27 44 27q27 0 38 -29q7 14 15 19q13 10 30 10t31.5 -13.5t14.5 -45.5v-80z" />
    <glyph glyph-name="hyphenminus" unicode="-" horiz-adv-x="802" 
d="M803 651h-684v125h684v-125z" />
    <glyph glyph-name="period" unicode="." horiz-adv-x="3254" 
d="M115 1888h63q28 0 45 -14t17 -39t-17 -39t-45 -14h-28v-39h-35v145zM207 1835q0 27 -31 27h-26v-52h26q31 0 31 25zM420 1862h-76v-33h66v-27h-66v-33h78v-26h-111v145h109v-26zM621 1835q0 -32 -29 -45l31 -47h-35l-27 41h-2h-29v-41h-32v145h61q28 0 45 -14t17 -39z
M557 1810q31 0 31 25q0 27 -31 27h-27v-52h27zM743 1767q27 0 27 15q0 11 -20.5 16t-41 14.5t-20.5 32.5q0 20 15.5 32.5t44.5 12.5q31 0 49 -12l-11 -27q-20 13 -38 13q-27 0 -27 -17q0 -11 20.5 -15t41 -13.5t20.5 -32.5q0 -20 -16 -32.5t-46 -12.5q-38 0 -57 16l12 25
q19 -15 47 -15zM866 1815q0 33 22 54t56 21q33 0 55.5 -21t22.5 -54q0 -32 -22.5 -53t-55.5 -21q-34 0 -56 21t-22 53zM987 1815q0 21 -12 34t-31 13q-20 0 -32.5 -12.5t-12.5 -34.5q0 -20 12.5 -33t32.5 -13q19 0 31 13t12 33zM1122 1888l72 -88v88h31v-145h-27l-70 88v-88
h-32v145h26zM1290 1743l64 145h32l64 -145h-35l-12 31h-68l-12 -31h-33zM1393 1800l-23 55l-22 -55h45zM1513 1888h33v-119h72v-26h-105v145zM1790 1888h33v-80q0 -39 32 -39q31 0 31 39v80h33v-82q0 -32 -17 -48.5t-47 -16.5q-65 0 -65 65v82zM2048 1767q27 0 27 15
q0 11 -20.5 16t-41 14.5t-20.5 32.5q0 20 15 32.5t44 12.5q31 0 49 -12l-10 -27q-19 13 -39 13q-27 0 -27 -17q0 -11 20.5 -15t41 -13.5t20.5 -32.5q0 -20 -15 -32.5t-44 -12.5q-38 0 -57 16l10 25q23 -15 47 -15zM2288 1862h-76v-33h67v-27h-67v-33h78v-26h-111v145h109
v-26zM2462 1815q0 33 23 54t57 21q33 0 55 -21t22 -54q0 -32 -22 -53t-55 -21q-34 0 -57 21t-23 53zM2585 1815q0 21 -12 34t-31 13q-20 0 -32.5 -12.5t-12.5 -34.5q0 -20 12.5 -33t32.5 -13q19 0 31 13t12 33zM2720 1888l71 -88v88h31v-145h-26l-70 88v-88h-33v145h27z
M2906 1888h33v-119h72v-26h-105v145zM3131 1743h-32v51l-56 94h35l39 -65l37 65h33l-56 -94v-51zM143 176v-4h-39l-6 -31h-4l15 72h47l-2 -6h-41l-7 -31h37zM162 162q0 14 9 23.5t22 9.5q9 0 15.5 -6.5t6.5 -16.5q0 -14 -9 -23.5t-22 -9.5q-10 0 -16 7t-6 16zM209 172
q0 18 -19 18q-10 0 -17 -8t-7 -20q0 -17 18 -17q11 0 18 7.5t7 19.5zM244 195h4l-2 -13q10 13 22 13v-7h-2q-19 0 -22 -20l-6 -27h-5zM360 207q-17 0 -26.5 -10.5t-9.5 -26.5q0 -25 26 -25q17 0 23 9l4 -4q-11 -11 -27 -11q-15 0 -24 8.5t-9 22.5q0 18 11.5 30.5t31.5 12.5
q15 0 25 -10l-4 -4q-5 8 -21 8zM446 172q0 -14 -8.5 -23.5t-21.5 -9.5q-9 0 -16 7t-7 16q0 14 9 23.5t22 9.5q22 0 22 -23zM418 145q11 0 17.5 7.5t6.5 19.5q0 8 -5 13t-13 5q-11 0 -18 -8t-7 -20q0 -17 19 -17zM475 195h6l-2 -11q7 11 21 11q13 0 16 -13q10 13 23 13
q18 0 18 -17v-6l-6 -31h-4l6 31v4q0 14 -14 14q-20 0 -23 -20l-6 -29h-4l6 31v4q0 14 -14 14q-16 0 -23 -20l-4 -29h-6zM655 195q17 0 17 -17v-6l-6 -31h-4l6 31v4q0 14 -15 14t-22 -20l-4 -29h-6l6 31v4q0 14 -15 14q-17 0 -20 -20l-6 -29h-6l10 54h6l-2 -11q7 11 20 11
q16 0 19 -13q7 13 22 13zM745 166h-45v-4q0 -17 19 -17q11 0 18 7l2 -5q-8 -8 -20 -8q-11 0 -18 6.5t-7 16.5q0 14 8.5 23.5t20.5 9.5q22 0 22 -23v-6zM723 190q-8 0 -15 -5.5t-8 -14.5h41v2q0 18 -18 18zM774 195h6l-2 -13q6 13 21 13v-7h-2q-17 0 -23 -20l-4 -27h-6z
M840 190q-11 0 -18 -8t-7 -20q0 -7 5.5 -12t13.5 -5q11 0 18 7l4 -2q-11 -11 -22 -11q-10 0 -16.5 7t-6.5 16q0 14 8.5 23.5t20.5 9.5q13 0 20 -11l-4 -2q-8 8 -16 8zM897 211q0 -4 -6 -4q-4 0 -4 4t6 4q4 0 4 -4zM877 141l10 54h4l-10 -54h-4zM956 141h-4l2 11
q-6 -13 -22 -13q-9 0 -16 6.5t-7 16.5q0 14 9 23.5t22 9.5q14 0 21 -15l2 15h4zM934 145q11 0 17.5 7.5t6.5 19.5q0 8 -5 13t-13 5q-11 0 -18 -8t-7 -20q0 -17 19 -17zM991 141h-4l14 76h7zM1018 125h-4l6 14l-2 4q0 7 4 7t4 -5v-6zM1118 164h-20l-6 -23h-5l15 72h24
q25 0 25 -20q0 -29 -33 -29zM1106 207l-8 -39h20q27 0 27 25q0 14 -19 14h-20zM1171 141h-6l17 76h4zM1249 166h-43q-2 -2 -2 -4q0 -17 21 -17q11 0 18 7l2 -5q-12 -8 -20 -8q-25 0 -25 23q0 14 8.5 23.5t20.5 9.5q22 0 22 -23q0 -4 -2 -6zM1229 190q-20 0 -23 -20h39v2
q0 18 -16 18zM1321 195h6l-10 -54h-6l2 11q-7 -13 -21 -13q-22 0 -22 23q0 14 8 23.5t20 9.5q17 0 21 -15zM1292 145q11 0 18 7.5t7 19.5q0 18 -19 18q-10 0 -17 -8t-7 -20q0 -17 18 -17zM1360 145q18 0 18 11q0 6 -15 9t-15 13q0 17 22 17q9 0 16 -7l-2 -4q-6 6 -16 6
q-16 0 -16 -12q0 -6 15 -9t15 -13q0 -17 -22 -17q-13 0 -21 8l4 5q7 -7 17 -7zM1452 166h-45v-4q0 -17 18 -17q12 0 19 7l2 -5q-8 -8 -21 -8q-22 0 -22 23q0 14 7.5 23.5t19.5 9.5q22 0 22 -23v-6zM1430 190q-16 0 -23 -20h41v2q0 18 -18 18zM1532 141h-4l-19 72h7l16 -66
l41 66h4zM1602 211q0 -4 -5 -4q-4 0 -4 4t4 4q5 0 5 -4zM1581 141l10 54h6l-10 -54h-6zM1640 190q-16 0 -16 -12q0 -6 14.5 -9t14.5 -13q0 -17 -23 -17q-12 0 -20 8l4 5q7 -7 18 -7q17 0 17 11q0 6 -15.5 9t-15.5 13q0 17 22 17q10 0 17 -7l-2 -4q-6 6 -15 6zM1673 141
l10 54h7l-13 -54h-4zM1694 211q0 -4 -4 -4t-4 4t4 4t4 -4zM1722 205h4l-2 -10h17v-7h-17l-6 -32q-2 -2 -2 -4q0 -9 8 -9q5 0 9 4l2 -4q-4 -4 -11 -4q-12 0 -12 13v4l6 32h-8v7h10zM3217 1655v-8h-3102v8h3102zM3217 1987v-9h-3102v9h3102zM3217 2023v-8h-3102v8h3102z
M119 -207v8h3103v-8h-3103zM119 -170v8h3103v-8h-3103zM1774 168h1448v-8h-1448v8zM2064 430q-4 0 -8 -7.5t-4 -16.5q0 -25 14 -25q5 0 7.5 -3.5t-0.5 -8.5q-10 -13 -39 -13q-20 0 -24 6t1 29q6 33 -12 51q-21 14 -21 52q0 20 5.5 27t19.5 7q15 0 18 -6.5t-2 -29.5
q-4 -26 -1 -32t18 -3t18.5 17t3.5 63q-2 68 11 70q3 1 8 -1q12 -3 16 -16t4 -47q-1 -49 -11 -81t-22 -32zM1950 575q-12 -5 -16.5 -23.5t-4.5 -70.5q0 -85 13 -94q17 -11 11 -21t-28 -10q-19 0 -22 13t0 84v10q4 90 -3 98q-4 5 -20 0q-15 -6 -20 -2t-5 19q0 17 9.5 21.5
t44.5 4.5q58 0 76 6q11 5 14.5 0t3.5 -24q0 -29 -12 -33q-9 -3 -14 14q-1 1 -1 2q-6 13 -26 6zM2200 449q-28 -15 -36 -45q-6 -23 13 -23q6 0 7.5 -3.5t-1.5 -8.5q-7 -13 -31 -13q-8 0 -12 3.5t-7.5 17t-4.5 36.5t-2 66l-4 125h45q38 0 61 -18.5t23 -50.5q0 -34 -11 -53.5
t-40 -32.5zM2161 506q12 -64 51 -25q25 26 11 61.5t-48 35.5q-13 0 -17.5 -6t-3.5 -20.5t7 -45.5zM2468 670q-23 9 -45.5 25t-30.5 28q-19 26 -29 27.5t-18 -23.5q-11 -26 -45 -43t-81 -7.5t-73 38.5q-20 23 -45 12q-65 -36 -123 25q-25 25 -30.5 43.5t-5.5 78.5
q0 89 -17 89q-20 0 -32.5 -38.5t-12.5 -97.5q0 -56 -10.5 -76t-44.5 -26q-23 -3 -33 -41q-13 -69 -50 -96t-93 -8q-34 11 -69 47t-42 69q-4 19 -13.5 22.5t-41.5 0.5q-31 -5 -46.5 -1t-35.5 23l-31 29l-24 -33q-23 -35 -68 -35h-43v-65q0 -133 -92 -133q-42 0 -72 26
q-32 22 -53 88q-13 47 -15 135t3 445q0 108 -13 111q-8 4 -24 -22t-32 -67t-24 -77q-13 -77 -20 -279l-8 -215l-49 8q-46 3 -64 21q-13 13 -20 201q-6 152 -18.5 205t-41.5 53q-51 0 -94 -72t-43 -156q0 -60 20 -90t66 -39q39 -7 36 -18q-4 -16 -64 -20q-34 -2 -68 3
q-55 8 -99 52q-31 31 -36 47.5t-2 73.5q5 69 31 115t83 83q68 44 152.5 41t134.5 -51q23 -23 33 -16t10 45q0 21 18 84q22 74 66 107.5t92 17t80 -79.5q15 -32 18 -87.5t0 -256.5q-2 -237 3.5 -302t27.5 -65q32 0 39 76.5t-22 126.5q-34 56 -20.5 130.5t63.5 106.5
q32 22 88 17q55 -7 55 2q0 13 23 16.5t55 -4.5l45 -12l4 -121q3 -130 15 -119q14 15 22 197q7 199 2 202q-7 7 -90 11q-51 5 -80 0.5t-66 -21.5q-63 -29 -98 -19q-22 5 -6 25q22 25 94 41t133 9q75 -7 103 -15q19 -4 25.5 8t17.5 68q12 65 26 76t70 -2q20 -6 22 -20.5
t-4 -80.5l-8 -90h33q20 0 26.5 8t12.5 41q17 114 98.5 182t167.5 42q44 -12 67 -38.5t29 -72.5q12 -107 -110 -168q-68 -31 -99 -31q-23 0 -28.5 -8.5t-8.5 -44.5q-4 -51 0 -92l2 -39l37 37q23 23 37.5 29t34.5 0q47 -10 70 -45.5t34 -112.5q8 -58 18 -79.5t19 0t13 79.5
q3 56 10.5 74t36.5 43q26 24 42 29.5t50 0.5q53 -4 70 -14q21 -6 26 18q13 43 90 13l33 -13l-10 -122q-4 -78 -2 -107t14 -49q29 -43 71.5 -28.5t82.5 81.5q31 54 34 127q0 61 -20 91t-66 42q-39 10 -37 20q3 14 74 17q86 4 141.5 -37.5t59.5 -107.5t-43 -146
q-61 -93 -180 -116q-44 -9 -66.5 -8t-60.5 14zM1888 1286q-33 -105 -26 -119q7 -12 56 13q4 2 9 4q63 32 90 83t8 105q-18 53 -58 34q-45 -22 -75 -109q-2 -5 -4 -11zM1329 788q15 31 17 101.5t-13 79.5q-26 18 -45 -30q-21 -55 -10 -132q5 -32 11.5 -44.5t16 -6.5t23.5 32z
M1702 643q39 -61 39 39q0 25 -2 61q-1 23 -8 113t-9 131q-7 129 -20 139q-28 18 -36 2q-9 -19 -9 -143q0 -275 45 -342zM2300 739q19 32 22 101.5t-12 89.5q-13 19 -18.5 18t-20.5 -26q-20 -29 -27 -75t1 -87q6 -37 23 -43.5t32 22.5zM2386 563q-86 39 -86 -26
q0 -25 16.5 -32.5t28.5 11.5q6 11 13.5 12.5t12.5 -7t5 -23.5q0 -20 -6 -24t-31 1q-28 6 -33.5 0.5t-5.5 -37.5q0 -29 5 -37t24 -8q26 0 43 13q12 15 18 -13q5 -15 -0.5 -19.5t-30.5 -4.5q-33 0 -65 -9q-16 -4 -20 9q-5 16 -5 110v125h37q45 0 66 6q19 6 23 2.5t1 -22.5
q-1 -8 -3 -14.5t-4 -10t-3 -2.5zM301 -96h-22l-41 135h26l19 -68q1 -9 4 -24t4 -21h2q0 2 12 43l23 70h20l21 -68q6 -24 12 -45q2 12 10 45l21 68h22l-43 -135h-22l-21 65q-10 35 -12 43q-2 -8 -6 -22.5t-6 -22.5zM539 -96h-23l-41 135h27l16 -68q8 -33 10 -45h2q3 19 13 43
l20 70h21l22 -68q6 -24 12 -45q0 2 11 45l18 68h25l-43 -135h-23l-20 65q-1 5 -6 19.5t-7 23.5q-2 -8 -6 -22.5t-6 -22.5zM776 -96h-22l-41 135h24l19 -68q8 -33 10 -45q2 7 6 21.5t6 21.5l23 70h20l21 -68q9 -24 12 -45h2q2 12 10 45l19 68h24l-43 -135h-22l-21 65
q-9 22 -12 43q-2 -8 -6 -22.5t-6 -22.5zM963 -98q-17 0 -17 16q0 8 5 13.5t12 5.5q6 0 11 -6t5 -13q0 -16 -16 -16zM1153 -96h-25v78q0 41 -32 41q-25 0 -33 -27q0 -1 -1 -4.5t-1 -5.5v-82h-25v98v37h21l2 -23q18 27 45 27q18 0 33.5 -14t15.5 -45v-80zM1210 -61q0 51 80 51
v2q0 33 -30 33q-17 0 -35 -11l-6 17q24 12 45 12q51 0 51 -55v-51q0 -23 2 -33h-23l-2 16q-14 -18 -41 -18q-20 0 -30.5 11t-10.5 26zM1292 -27q-57 0 -57 -30q0 -25 22 -25q24 0 33 23q0 2 1 4.5t1 3.5v24zM1446 20h-35v-73q0 -27 19 -27q3 0 8 1t6 1l2 -18q-6 -2 -23 -2
q-19 0 -26 10q-11 11 -11 35v73h-20v19h20v33l25 6v-39h35v-19zM1618 -96h-25v78q0 41 -32 41q-21 0 -33 -25v-12v-82h-27v198h27v-84q8 11 16 17q16 8 27 8q18 0 32.5 -14t14.5 -45v-80zM1729 43q51 0 51 -55v-51q0 -6 1 -17t1 -16h-21l-2 16h-2q-14 -18 -41 -18
q-19 0 -30 11t-11 26q0 51 80 51v2q0 33 -31 33q-16 0 -34 -11l-4 17q20 12 43 12zM1757 -51v24q-57 0 -57 -30q0 -25 22 -25q24 0 33 23q0 2 1 4.5t1 3.5zM1853 72l23 6v-39h37v-19h-37v-73q0 -27 18 -27q4 0 9 1t6 1l2 -18q-4 -2 -23 -2q-18 0 -26 10q-9 9 -9 35v73h-22
v19h22v33zM1980 -125q14 7 21 27q2 2 2 6v6l-51 125h26l31 -80q3 -12 8 -27q5 15 8 27l29 80h25l-37 -96q-22 -64 -45 -84q-17 -17 -31 -17l-6 21q12 4 20 12zM2154 -152h-24v148q0 31 -2 43h22l2 -23q17 27 48 27q25 0 41 -19.5t16 -50.5q0 -35 -17.5 -53t-44.5 -18
q-30 0 -41 20v-74zM2154 -18v-23v-10q3 -12 14 -20.5t23 -8.5q41 0 41 51q0 23 -10.5 37.5t-28.5 14.5q-12 0 -22.5 -9t-13.5 -22q-3 -3 -3 -10zM2427 -23q0 -2 -1 -5.5t-1 -4.5h-94q0 -23 13.5 -35t33.5 -12q22 0 37 6l4 -16q-16 -8 -45 -8q-31 0 -49.5 18t-18.5 49
t17.5 52.5t46.5 21.5q30 0 43.5 -20.5t13.5 -45.5zM2331 -16h71q0 41 -35 41q-31 0 -36 -41zM2509 -82q0 -16 -17 -16q-16 0 -16 16q0 19 16 19q7 0 12 -5.5t5 -13.5zM2630 23q-22 0 -34.5 -14.5t-12.5 -37.5t13 -37t34 -14q6 0 30 6l4 -18q-18 -6 -38 -6q-31 0 -49.5 18
t-18.5 49q0 32 20 52t52 20q25 0 34 -6l-6 -19q-21 7 -28 7zM2841 -27q0 -36 -20 -53.5t-48 -17.5q-27 0 -45 19t-18 50q0 33 18.5 52.5t48.5 19.5q29 0 46.5 -19.5t17.5 -50.5zM2734 -29q0 -23 11 -37t30 -14q18 0 29.5 14t11.5 37q0 20 -10.5 37t-30.5 17t-30.5 -16.5
t-10.5 -37.5zM3095 -96h-25v76q0 43 -31 43q-20 0 -28 -23q0 -2 -1 -6t-1 -6v-84h-23v82q0 16 -8 26.5t-21 10.5q-22 0 -30 -25q-2 -4 -2 -12v-82h-25v98v37h20l2 -23q15 27 44 27q27 0 38 -29q7 14 15 19q13 10 30 10t31.5 -13.5t14.5 -45.5v-80z" />
    <glyph glyph-name="slash" unicode="/" horiz-adv-x="622" 
d="M514 1577h127l-463 -1720h-129z" />
    <glyph glyph-name="zero" unicode="0" horiz-adv-x="3254" 
d="M115 1888h63q28 0 45 -14t17 -39t-17 -39t-45 -14h-28v-39h-35v145zM207 1835q0 27 -31 27h-26v-52h26q31 0 31 25zM420 1862h-76v-33h66v-27h-66v-33h78v-26h-111v145h109v-26zM621 1835q0 -32 -29 -45l31 -47h-35l-27 41h-2h-29v-41h-32v145h61q28 0 45 -14t17 -39z
M557 1810q31 0 31 25q0 27 -31 27h-27v-52h27zM743 1767q27 0 27 15q0 11 -20.5 16t-41 14.5t-20.5 32.5q0 20 15.5 32.5t44.5 12.5q31 0 49 -12l-11 -27q-20 13 -38 13q-27 0 -27 -17q0 -11 20.5 -15t41 -13.5t20.5 -32.5q0 -20 -16 -32.5t-46 -12.5q-38 0 -57 16l12 25
q19 -15 47 -15zM866 1815q0 33 22 54t56 21q33 0 55.5 -21t22.5 -54q0 -32 -22.5 -53t-55.5 -21q-34 0 -56 21t-22 53zM987 1815q0 21 -12 34t-31 13q-20 0 -32.5 -12.5t-12.5 -34.5q0 -20 12.5 -33t32.5 -13q19 0 31 13t12 33zM1122 1888l72 -88v88h31v-145h-27l-70 88v-88
h-32v145h26zM1290 1743l64 145h32l64 -145h-35l-12 31h-68l-12 -31h-33zM1393 1800l-23 55l-22 -55h45zM1513 1888h33v-119h72v-26h-105v145zM1790 1888h33v-80q0 -39 32 -39q31 0 31 39v80h33v-82q0 -32 -17 -48.5t-47 -16.5q-65 0 -65 65v82zM2048 1767q27 0 27 15
q0 11 -20.5 16t-41 14.5t-20.5 32.5q0 20 15 32.5t44 12.5q31 0 49 -12l-10 -27q-19 13 -39 13q-27 0 -27 -17q0 -11 20.5 -15t41 -13.5t20.5 -32.5q0 -20 -15 -32.5t-44 -12.5q-38 0 -57 16l10 25q23 -15 47 -15zM2288 1862h-76v-33h67v-27h-67v-33h78v-26h-111v145h109
v-26zM2462 1815q0 33 23 54t57 21q33 0 55 -21t22 -54q0 -32 -22 -53t-55 -21q-34 0 -57 21t-23 53zM2585 1815q0 21 -12 34t-31 13q-20 0 -32.5 -12.5t-12.5 -34.5q0 -20 12.5 -33t32.5 -13q19 0 31 13t12 33zM2720 1888l71 -88v88h31v-145h-26l-70 88v-88h-33v145h27z
M2906 1888h33v-119h72v-26h-105v145zM3131 1743h-32v51l-56 94h35l39 -65l37 65h33l-56 -94v-51zM143 176v-4h-39l-6 -31h-4l15 72h47l-2 -6h-41l-7 -31h37zM162 162q0 14 9 23.5t22 9.5q9 0 15.5 -6.5t6.5 -16.5q0 -14 -9 -23.5t-22 -9.5q-10 0 -16 7t-6 16zM209 172
q0 18 -19 18q-10 0 -17 -8t-7 -20q0 -17 18 -17q11 0 18 7.5t7 19.5zM244 195h4l-2 -13q10 13 22 13v-7h-2q-19 0 -22 -20l-6 -27h-5zM360 207q-17 0 -26.5 -10.5t-9.5 -26.5q0 -25 26 -25q17 0 23 9l4 -4q-11 -11 -27 -11q-15 0 -24 8.5t-9 22.5q0 18 11.5 30.5t31.5 12.5
q15 0 25 -10l-4 -4q-5 8 -21 8zM446 172q0 -14 -8.5 -23.5t-21.5 -9.5q-9 0 -16 7t-7 16q0 14 9 23.5t22 9.5q22 0 22 -23zM418 145q11 0 17.5 7.5t6.5 19.5q0 8 -5 13t-13 5q-11 0 -18 -8t-7 -20q0 -17 19 -17zM475 195h6l-2 -11q7 11 21 11q13 0 16 -13q10 13 23 13
q18 0 18 -17v-6l-6 -31h-4l6 31v4q0 14 -14 14q-20 0 -23 -20l-6 -29h-4l6 31v4q0 14 -14 14q-16 0 -23 -20l-4 -29h-6zM655 195q17 0 17 -17v-6l-6 -31h-4l6 31v4q0 14 -15 14t-22 -20l-4 -29h-6l6 31v4q0 14 -15 14q-17 0 -20 -20l-6 -29h-6l10 54h6l-2 -11q7 11 20 11
q16 0 19 -13q7 13 22 13zM745 166h-45v-4q0 -17 19 -17q11 0 18 7l2 -5q-8 -8 -20 -8q-11 0 -18 6.5t-7 16.5q0 14 8.5 23.5t20.5 9.5q22 0 22 -23v-6zM723 190q-8 0 -15 -5.5t-8 -14.5h41v2q0 18 -18 18zM774 195h6l-2 -13q6 13 21 13v-7h-2q-17 0 -23 -20l-4 -27h-6z
M840 190q-11 0 -18 -8t-7 -20q0 -7 5.5 -12t13.5 -5q11 0 18 7l4 -2q-11 -11 -22 -11q-10 0 -16.5 7t-6.5 16q0 14 8.5 23.5t20.5 9.5q13 0 20 -11l-4 -2q-8 8 -16 8zM897 211q0 -4 -6 -4q-4 0 -4 4t6 4q4 0 4 -4zM877 141l10 54h4l-10 -54h-4zM956 141h-4l2 11
q-6 -13 -22 -13q-9 0 -16 6.5t-7 16.5q0 14 9 23.5t22 9.5q14 0 21 -15l2 15h4zM934 145q11 0 17.5 7.5t6.5 19.5q0 8 -5 13t-13 5q-11 0 -18 -8t-7 -20q0 -17 19 -17zM991 141h-4l14 76h7zM1018 125h-4l6 14l-2 4q0 7 4 7t4 -5v-6zM1118 164h-20l-6 -23h-5l15 72h24
q25 0 25 -20q0 -29 -33 -29zM1106 207l-8 -39h20q27 0 27 25q0 14 -19 14h-20zM1171 141h-6l17 76h4zM1249 166h-43q-2 -2 -2 -4q0 -17 21 -17q11 0 18 7l2 -5q-12 -8 -20 -8q-25 0 -25 23q0 14 8.5 23.5t20.5 9.5q22 0 22 -23q0 -4 -2 -6zM1229 190q-20 0 -23 -20h39v2
q0 18 -16 18zM1321 195h6l-10 -54h-6l2 11q-7 -13 -21 -13q-22 0 -22 23q0 14 8 23.5t20 9.5q17 0 21 -15zM1292 145q11 0 18 7.5t7 19.5q0 18 -19 18q-10 0 -17 -8t-7 -20q0 -17 18 -17zM1360 145q18 0 18 11q0 6 -15 9t-15 13q0 17 22 17q9 0 16 -7l-2 -4q-6 6 -16 6
q-16 0 -16 -12q0 -6 15 -9t15 -13q0 -17 -22 -17q-13 0 -21 8l4 5q7 -7 17 -7zM1452 166h-45v-4q0 -17 18 -17q12 0 19 7l2 -5q-8 -8 -21 -8q-22 0 -22 23q0 14 7.5 23.5t19.5 9.5q22 0 22 -23v-6zM1430 190q-16 0 -23 -20h41v2q0 18 -18 18zM1532 141h-4l-19 72h7l16 -66
l41 66h4zM1602 211q0 -4 -5 -4q-4 0 -4 4t4 4q5 0 5 -4zM1581 141l10 54h6l-10 -54h-6zM1640 190q-16 0 -16 -12q0 -6 14.5 -9t14.5 -13q0 -17 -23 -17q-12 0 -20 8l4 5q7 -7 18 -7q17 0 17 11q0 6 -15.5 9t-15.5 13q0 17 22 17q10 0 17 -7l-2 -4q-6 6 -15 6zM1673 141
l10 54h7l-13 -54h-4zM1694 211q0 -4 -4 -4t-4 4t4 4t4 -4zM1722 205h4l-2 -10h17v-7h-17l-6 -32q-2 -2 -2 -4q0 -9 8 -9q5 0 9 4l2 -4q-4 -4 -11 -4q-12 0 -12 13v4l6 32h-8v7h10zM3217 1655v-8h-3102v8h3102zM3217 1987v-9h-3102v9h3102zM3217 2023v-8h-3102v8h3102z
M119 -207v8h3103v-8h-3103zM119 -170v8h3103v-8h-3103zM1774 168h1448v-8h-1448v8zM2064 430q-4 0 -8 -7.5t-4 -16.5q0 -25 14 -25q5 0 7.5 -3.5t-0.5 -8.5q-10 -13 -39 -13q-20 0 -24 6t1 29q6 33 -12 51q-21 14 -21 52q0 20 5.5 27t19.5 7q15 0 18 -6.5t-2 -29.5
q-4 -26 -1 -32t18 -3t18.5 17t3.5 63q-2 68 11 70q3 1 8 -1q12 -3 16 -16t4 -47q-1 -49 -11 -81t-22 -32zM1950 575q-12 -5 -16.5 -23.5t-4.5 -70.5q0 -85 13 -94q17 -11 11 -21t-28 -10q-19 0 -22 13t0 84v10q4 90 -3 98q-4 5 -20 0q-15 -6 -20 -2t-5 19q0 17 9.5 21.5
t44.5 4.5q58 0 76 6q11 5 14.5 0t3.5 -24q0 -29 -12 -33q-9 -3 -14 14q-1 1 -1 2q-6 13 -26 6zM2200 449q-28 -15 -36 -45q-6 -23 13 -23q6 0 7.5 -3.5t-1.5 -8.5q-7 -13 -31 -13q-8 0 -12 3.5t-7.5 17t-4.5 36.5t-2 66l-4 125h45q38 0 61 -18.5t23 -50.5q0 -34 -11 -53.5
t-40 -32.5zM2161 506q12 -64 51 -25q25 26 11 61.5t-48 35.5q-13 0 -17.5 -6t-3.5 -20.5t7 -45.5zM2468 670q-23 9 -45.5 25t-30.5 28q-19 26 -29 27.5t-18 -23.5q-11 -26 -45 -43t-81 -7.5t-73 38.5q-20 23 -45 12q-65 -36 -123 25q-25 25 -30.5 43.5t-5.5 78.5
q0 89 -17 89q-20 0 -32.5 -38.5t-12.5 -97.5q0 -56 -10.5 -76t-44.5 -26q-23 -3 -33 -41q-13 -69 -50 -96t-93 -8q-34 11 -69 47t-42 69q-4 19 -13.5 22.5t-41.5 0.5q-31 -5 -46.5 -1t-35.5 23l-31 29l-24 -33q-23 -35 -68 -35h-43v-65q0 -133 -92 -133q-42 0 -72 26
q-32 22 -53 88q-13 47 -15 135t3 445q0 108 -13 111q-8 4 -24 -22t-32 -67t-24 -77q-13 -77 -20 -279l-8 -215l-49 8q-46 3 -64 21q-13 13 -20 201q-6 152 -18.5 205t-41.5 53q-51 0 -94 -72t-43 -156q0 -60 20 -90t66 -39q39 -7 36 -18q-4 -16 -64 -20q-34 -2 -68 3
q-55 8 -99 52q-31 31 -36 47.5t-2 73.5q5 69 31 115t83 83q68 44 152.5 41t134.5 -51q23 -23 33 -16t10 45q0 21 18 84q22 74 66 107.5t92 17t80 -79.5q15 -32 18 -87.5t0 -256.5q-2 -237 3.5 -302t27.5 -65q32 0 39 76.5t-22 126.5q-34 56 -20.5 130.5t63.5 106.5
q32 22 88 17q55 -7 55 2q0 13 23 16.5t55 -4.5l45 -12l4 -121q3 -130 15 -119q14 15 22 197q7 199 2 202q-7 7 -90 11q-51 5 -80 0.5t-66 -21.5q-63 -29 -98 -19q-22 5 -6 25q22 25 94 41t133 9q75 -7 103 -15q19 -4 25.5 8t17.5 68q12 65 26 76t70 -2q20 -6 22 -20.5
t-4 -80.5l-8 -90h33q20 0 26.5 8t12.5 41q17 114 98.5 182t167.5 42q44 -12 67 -38.5t29 -72.5q12 -107 -110 -168q-68 -31 -99 -31q-23 0 -28.5 -8.5t-8.5 -44.5q-4 -51 0 -92l2 -39l37 37q23 23 37.5 29t34.5 0q47 -10 70 -45.5t34 -112.5q8 -58 18 -79.5t19 0t13 79.5
q3 56 10.5 74t36.5 43q26 24 42 29.5t50 0.5q53 -4 70 -14q21 -6 26 18q13 43 90 13l33 -13l-10 -122q-4 -78 -2 -107t14 -49q29 -43 71.5 -28.5t82.5 81.5q31 54 34 127q0 61 -20 91t-66 42q-39 10 -37 20q3 14 74 17q86 4 141.5 -37.5t59.5 -107.5t-43 -146
q-61 -93 -180 -116q-44 -9 -66.5 -8t-60.5 14zM1888 1286q-33 -105 -26 -119q7 -12 56 13q4 2 9 4q63 32 90 83t8 105q-18 53 -58 34q-45 -22 -75 -109q-2 -5 -4 -11zM1329 788q15 31 17 101.5t-13 79.5q-26 18 -45 -30q-21 -55 -10 -132q5 -32 11.5 -44.5t16 -6.5t23.5 32z
M1702 643q39 -61 39 39q0 25 -2 61q-1 23 -8 113t-9 131q-7 129 -20 139q-28 18 -36 2q-9 -19 -9 -143q0 -275 45 -342zM2300 739q19 32 22 101.5t-12 89.5q-13 19 -18.5 18t-20.5 -26q-20 -29 -27 -75t1 -87q6 -37 23 -43.5t32 22.5zM2386 563q-86 39 -86 -26
q0 -25 16.5 -32.5t28.5 11.5q6 11 13.5 12.5t12.5 -7t5 -23.5q0 -20 -6 -24t-31 1q-28 6 -33.5 0.5t-5.5 -37.5q0 -29 5 -37t24 -8q26 0 43 13q12 15 18 -13q5 -15 -0.5 -19.5t-30.5 -4.5q-33 0 -65 -9q-16 -4 -20 9q-5 16 -5 110v125h37q45 0 66 6q19 6 23 2.5t1 -22.5
q-1 -8 -3 -14.5t-4 -10t-3 -2.5zM301 -96h-22l-41 135h26l19 -68q1 -9 4 -24t4 -21h2q0 2 12 43l23 70h20l21 -68q6 -24 12 -45q2 12 10 45l21 68h22l-43 -135h-22l-21 65q-10 35 -12 43q-2 -8 -6 -22.5t-6 -22.5zM539 -96h-23l-41 135h27l16 -68q8 -33 10 -45h2q3 19 13 43
l20 70h21l22 -68q6 -24 12 -45q0 2 11 45l18 68h25l-43 -135h-23l-20 65q-1 5 -6 19.5t-7 23.5q-2 -8 -6 -22.5t-6 -22.5zM776 -96h-22l-41 135h24l19 -68q8 -33 10 -45q2 7 6 21.5t6 21.5l23 70h20l21 -68q9 -24 12 -45h2q2 12 10 45l19 68h24l-43 -135h-22l-21 65
q-9 22 -12 43q-2 -8 -6 -22.5t-6 -22.5zM963 -98q-17 0 -17 16q0 8 5 13.5t12 5.5q6 0 11 -6t5 -13q0 -16 -16 -16zM1153 -96h-25v78q0 41 -32 41q-25 0 -33 -27q0 -1 -1 -4.5t-1 -5.5v-82h-25v98v37h21l2 -23q18 27 45 27q18 0 33.5 -14t15.5 -45v-80zM1210 -61q0 51 80 51
v2q0 33 -30 33q-17 0 -35 -11l-6 17q24 12 45 12q51 0 51 -55v-51q0 -23 2 -33h-23l-2 16q-14 -18 -41 -18q-20 0 -30.5 11t-10.5 26zM1292 -27q-57 0 -57 -30q0 -25 22 -25q24 0 33 23q0 2 1 4.5t1 3.5v24zM1446 20h-35v-73q0 -27 19 -27q3 0 8 1t6 1l2 -18q-6 -2 -23 -2
q-19 0 -26 10q-11 11 -11 35v73h-20v19h20v33l25 6v-39h35v-19zM1618 -96h-25v78q0 41 -32 41q-21 0 -33 -25v-12v-82h-27v198h27v-84q8 11 16 17q16 8 27 8q18 0 32.5 -14t14.5 -45v-80zM1729 43q51 0 51 -55v-51q0 -6 1 -17t1 -16h-21l-2 16h-2q-14 -18 -41 -18
q-19 0 -30 11t-11 26q0 51 80 51v2q0 33 -31 33q-16 0 -34 -11l-4 17q20 12 43 12zM1757 -51v24q-57 0 -57 -30q0 -25 22 -25q24 0 33 23q0 2 1 4.5t1 3.5zM1853 72l23 6v-39h37v-19h-37v-73q0 -27 18 -27q4 0 9 1t6 1l2 -18q-4 -2 -23 -2q-18 0 -26 10q-9 9 -9 35v73h-22
v19h22v33zM1980 -125q14 7 21 27q2 2 2 6v6l-51 125h26l31 -80q3 -12 8 -27q5 15 8 27l29 80h25l-37 -96q-22 -64 -45 -84q-17 -17 -31 -17l-6 21q12 4 20 12zM2154 -152h-24v148q0 31 -2 43h22l2 -23q17 27 48 27q25 0 41 -19.5t16 -50.5q0 -35 -17.5 -53t-44.5 -18
q-30 0 -41 20v-74zM2154 -18v-23v-10q3 -12 14 -20.5t23 -8.5q41 0 41 51q0 23 -10.5 37.5t-28.5 14.5q-12 0 -22.5 -9t-13.5 -22q-3 -3 -3 -10zM2427 -23q0 -2 -1 -5.5t-1 -4.5h-94q0 -23 13.5 -35t33.5 -12q22 0 37 6l4 -16q-16 -8 -45 -8q-31 0 -49.5 18t-18.5 49
t17.5 52.5t46.5 21.5q30 0 43.5 -20.5t13.5 -45.5zM2331 -16h71q0 41 -35 41q-31 0 -36 -41zM2509 -82q0 -16 -17 -16q-16 0 -16 16q0 19 16 19q7 0 12 -5.5t5 -13.5zM2630 23q-22 0 -34.5 -14.5t-12.5 -37.5t13 -37t34 -14q6 0 30 6l4 -18q-18 -6 -38 -6q-31 0 -49.5 18
t-18.5 49q0 32 20 52t52 20q25 0 34 -6l-6 -19q-21 7 -28 7zM2841 -27q0 -36 -20 -53.5t-48 -17.5q-27 0 -45 19t-18 50q0 33 18.5 52.5t48.5 19.5q29 0 46.5 -19.5t17.5 -50.5zM2734 -29q0 -23 11 -37t30 -14q18 0 29.5 14t11.5 37q0 20 -10.5 37t-30.5 17t-30.5 -16.5
t-10.5 -37.5zM3095 -96h-25v76q0 43 -31 43q-20 0 -28 -23q0 -2 -1 -6t-1 -6v-84h-23v82q0 16 -8 26.5t-21 10.5q-22 0 -30 -25q-2 -4 -2 -12v-82h-25v98v37h20l2 -23q15 27 44 27q27 0 38 -29q7 14 15 19q13 10 30 10t31.5 -13.5t14.5 -45.5v-80z" />
    <glyph glyph-name="one" unicode="1" horiz-adv-x="3254" 
d="M115 1888h63q28 0 45 -14t17 -39t-17 -39t-45 -14h-28v-39h-35v145zM207 1835q0 27 -31 27h-26v-52h26q31 0 31 25zM420 1862h-76v-33h66v-27h-66v-33h78v-26h-111v145h109v-26zM621 1835q0 -32 -29 -45l31 -47h-35l-27 41h-2h-29v-41h-32v145h61q28 0 45 -14t17 -39z
M557 1810q31 0 31 25q0 27 -31 27h-27v-52h27zM743 1767q27 0 27 15q0 11 -20.5 16t-41 14.5t-20.5 32.5q0 20 15.5 32.5t44.5 12.5q31 0 49 -12l-11 -27q-20 13 -38 13q-27 0 -27 -17q0 -11 20.5 -15t41 -13.5t20.5 -32.5q0 -20 -16 -32.5t-46 -12.5q-38 0 -57 16l12 25
q19 -15 47 -15zM866 1815q0 33 22 54t56 21q33 0 55.5 -21t22.5 -54q0 -32 -22.5 -53t-55.5 -21q-34 0 -56 21t-22 53zM987 1815q0 21 -12 34t-31 13q-20 0 -32.5 -12.5t-12.5 -34.5q0 -20 12.5 -33t32.5 -13q19 0 31 13t12 33zM1122 1888l72 -88v88h31v-145h-27l-70 88v-88
h-32v145h26zM1290 1743l64 145h32l64 -145h-35l-12 31h-68l-12 -31h-33zM1393 1800l-23 55l-22 -55h45zM1513 1888h33v-119h72v-26h-105v145zM1790 1888h33v-80q0 -39 32 -39q31 0 31 39v80h33v-82q0 -32 -17 -48.5t-47 -16.5q-65 0 -65 65v82zM2048 1767q27 0 27 15
q0 11 -20.5 16t-41 14.5t-20.5 32.5q0 20 15 32.5t44 12.5q31 0 49 -12l-10 -27q-19 13 -39 13q-27 0 -27 -17q0 -11 20.5 -15t41 -13.5t20.5 -32.5q0 -20 -15 -32.5t-44 -12.5q-38 0 -57 16l10 25q23 -15 47 -15zM2288 1862h-76v-33h67v-27h-67v-33h78v-26h-111v145h109
v-26zM2462 1815q0 33 23 54t57 21q33 0 55 -21t22 -54q0 -32 -22 -53t-55 -21q-34 0 -57 21t-23 53zM2585 1815q0 21 -12 34t-31 13q-20 0 -32.5 -12.5t-12.5 -34.5q0 -20 12.5 -33t32.5 -13q19 0 31 13t12 33zM2720 1888l71 -88v88h31v-145h-26l-70 88v-88h-33v145h27z
M2906 1888h33v-119h72v-26h-105v145zM3131 1743h-32v51l-56 94h35l39 -65l37 65h33l-56 -94v-51zM143 176v-4h-39l-6 -31h-4l15 72h47l-2 -6h-41l-7 -31h37zM162 162q0 14 9 23.5t22 9.5q9 0 15.5 -6.5t6.5 -16.5q0 -14 -9 -23.5t-22 -9.5q-10 0 -16 7t-6 16zM209 172
q0 18 -19 18q-10 0 -17 -8t-7 -20q0 -17 18 -17q11 0 18 7.5t7 19.5zM244 195h4l-2 -13q10 13 22 13v-7h-2q-19 0 -22 -20l-6 -27h-5zM360 207q-17 0 -26.5 -10.5t-9.5 -26.5q0 -25 26 -25q17 0 23 9l4 -4q-11 -11 -27 -11q-15 0 -24 8.5t-9 22.5q0 18 11.5 30.5t31.5 12.5
q15 0 25 -10l-4 -4q-5 8 -21 8zM446 172q0 -14 -8.5 -23.5t-21.5 -9.5q-9 0 -16 7t-7 16q0 14 9 23.5t22 9.5q22 0 22 -23zM418 145q11 0 17.5 7.5t6.5 19.5q0 8 -5 13t-13 5q-11 0 -18 -8t-7 -20q0 -17 19 -17zM475 195h6l-2 -11q7 11 21 11q13 0 16 -13q10 13 23 13
q18 0 18 -17v-6l-6 -31h-4l6 31v4q0 14 -14 14q-20 0 -23 -20l-6 -29h-4l6 31v4q0 14 -14 14q-16 0 -23 -20l-4 -29h-6zM655 195q17 0 17 -17v-6l-6 -31h-4l6 31v4q0 14 -15 14t-22 -20l-4 -29h-6l6 31v4q0 14 -15 14q-17 0 -20 -20l-6 -29h-6l10 54h6l-2 -11q7 11 20 11
q16 0 19 -13q7 13 22 13zM745 166h-45v-4q0 -17 19 -17q11 0 18 7l2 -5q-8 -8 -20 -8q-11 0 -18 6.5t-7 16.5q0 14 8.5 23.5t20.5 9.5q22 0 22 -23v-6zM723 190q-8 0 -15 -5.5t-8 -14.5h41v2q0 18 -18 18zM774 195h6l-2 -13q6 13 21 13v-7h-2q-17 0 -23 -20l-4 -27h-6z
M840 190q-11 0 -18 -8t-7 -20q0 -7 5.5 -12t13.5 -5q11 0 18 7l4 -2q-11 -11 -22 -11q-10 0 -16.5 7t-6.5 16q0 14 8.5 23.5t20.5 9.5q13 0 20 -11l-4 -2q-8 8 -16 8zM897 211q0 -4 -6 -4q-4 0 -4 4t6 4q4 0 4 -4zM877 141l10 54h4l-10 -54h-4zM956 141h-4l2 11
q-6 -13 -22 -13q-9 0 -16 6.5t-7 16.5q0 14 9 23.5t22 9.5q14 0 21 -15l2 15h4zM934 145q11 0 17.5 7.5t6.5 19.5q0 8 -5 13t-13 5q-11 0 -18 -8t-7 -20q0 -17 19 -17zM991 141h-4l14 76h7zM1018 125h-4l6 14l-2 4q0 7 4 7t4 -5v-6zM1118 164h-20l-6 -23h-5l15 72h24
q25 0 25 -20q0 -29 -33 -29zM1106 207l-8 -39h20q27 0 27 25q0 14 -19 14h-20zM1171 141h-6l17 76h4zM1249 166h-43q-2 -2 -2 -4q0 -17 21 -17q11 0 18 7l2 -5q-12 -8 -20 -8q-25 0 -25 23q0 14 8.5 23.5t20.5 9.5q22 0 22 -23q0 -4 -2 -6zM1229 190q-20 0 -23 -20h39v2
q0 18 -16 18zM1321 195h6l-10 -54h-6l2 11q-7 -13 -21 -13q-22 0 -22 23q0 14 8 23.5t20 9.5q17 0 21 -15zM1292 145q11 0 18 7.5t7 19.5q0 18 -19 18q-10 0 -17 -8t-7 -20q0 -17 18 -17zM1360 145q18 0 18 11q0 6 -15 9t-15 13q0 17 22 17q9 0 16 -7l-2 -4q-6 6 -16 6
q-16 0 -16 -12q0 -6 15 -9t15 -13q0 -17 -22 -17q-13 0 -21 8l4 5q7 -7 17 -7zM1452 166h-45v-4q0 -17 18 -17q12 0 19 7l2 -5q-8 -8 -21 -8q-22 0 -22 23q0 14 7.5 23.5t19.5 9.5q22 0 22 -23v-6zM1430 190q-16 0 -23 -20h41v2q0 18 -18 18zM1532 141h-4l-19 72h7l16 -66
l41 66h4zM1602 211q0 -4 -5 -4q-4 0 -4 4t4 4q5 0 5 -4zM1581 141l10 54h6l-10 -54h-6zM1640 190q-16 0 -16 -12q0 -6 14.5 -9t14.5 -13q0 -17 -23 -17q-12 0 -20 8l4 5q7 -7 18 -7q17 0 17 11q0 6 -15.5 9t-15.5 13q0 17 22 17q10 0 17 -7l-2 -4q-6 6 -15 6zM1673 141
l10 54h7l-13 -54h-4zM1694 211q0 -4 -4 -4t-4 4t4 4t4 -4zM1722 205h4l-2 -10h17v-7h-17l-6 -32q-2 -2 -2 -4q0 -9 8 -9q5 0 9 4l2 -4q-4 -4 -11 -4q-12 0 -12 13v4l6 32h-8v7h10zM3217 1655v-8h-3102v8h3102zM3217 1987v-9h-3102v9h3102zM3217 2023v-8h-3102v8h3102z
M119 -207v8h3103v-8h-3103zM119 -170v8h3103v-8h-3103zM1774 168h1448v-8h-1448v8zM2064 430q-4 0 -8 -7.5t-4 -16.5q0 -25 14 -25q5 0 7.5 -3.5t-0.5 -8.5q-10 -13 -39 -13q-20 0 -24 6t1 29q6 33 -12 51q-21 14 -21 52q0 20 5.5 27t19.5 7q15 0 18 -6.5t-2 -29.5
q-4 -26 -1 -32t18 -3t18.5 17t3.5 63q-2 68 11 70q3 1 8 -1q12 -3 16 -16t4 -47q-1 -49 -11 -81t-22 -32zM1950 575q-12 -5 -16.5 -23.5t-4.5 -70.5q0 -85 13 -94q17 -11 11 -21t-28 -10q-19 0 -22 13t0 84v10q4 90 -3 98q-4 5 -20 0q-15 -6 -20 -2t-5 19q0 17 9.5 21.5
t44.5 4.5q58 0 76 6q11 5 14.5 0t3.5 -24q0 -29 -12 -33q-9 -3 -14 14q-1 1 -1 2q-6 13 -26 6zM2200 449q-28 -15 -36 -45q-6 -23 13 -23q6 0 7.5 -3.5t-1.5 -8.5q-7 -13 -31 -13q-8 0 -12 3.5t-7.5 17t-4.5 36.5t-2 66l-4 125h45q38 0 61 -18.5t23 -50.5q0 -34 -11 -53.5
t-40 -32.5zM2161 506q12 -64 51 -25q25 26 11 61.5t-48 35.5q-13 0 -17.5 -6t-3.5 -20.5t7 -45.5zM2468 670q-23 9 -45.5 25t-30.5 28q-19 26 -29 27.5t-18 -23.5q-11 -26 -45 -43t-81 -7.5t-73 38.5q-20 23 -45 12q-65 -36 -123 25q-25 25 -30.5 43.5t-5.5 78.5
q0 89 -17 89q-20 0 -32.5 -38.5t-12.5 -97.5q0 -56 -10.5 -76t-44.5 -26q-23 -3 -33 -41q-13 -69 -50 -96t-93 -8q-34 11 -69 47t-42 69q-4 19 -13.5 22.5t-41.5 0.5q-31 -5 -46.5 -1t-35.5 23l-31 29l-24 -33q-23 -35 -68 -35h-43v-65q0 -133 -92 -133q-42 0 -72 26
q-32 22 -53 88q-13 47 -15 135t3 445q0 108 -13 111q-8 4 -24 -22t-32 -67t-24 -77q-13 -77 -20 -279l-8 -215l-49 8q-46 3 -64 21q-13 13 -20 201q-6 152 -18.5 205t-41.5 53q-51 0 -94 -72t-43 -156q0 -60 20 -90t66 -39q39 -7 36 -18q-4 -16 -64 -20q-34 -2 -68 3
q-55 8 -99 52q-31 31 -36 47.5t-2 73.5q5 69 31 115t83 83q68 44 152.5 41t134.5 -51q23 -23 33 -16t10 45q0 21 18 84q22 74 66 107.5t92 17t80 -79.5q15 -32 18 -87.5t0 -256.5q-2 -237 3.5 -302t27.5 -65q32 0 39 76.5t-22 126.5q-34 56 -20.5 130.5t63.5 106.5
q32 22 88 17q55 -7 55 2q0 13 23 16.5t55 -4.5l45 -12l4 -121q3 -130 15 -119q14 15 22 197q7 199 2 202q-7 7 -90 11q-51 5 -80 0.5t-66 -21.5q-63 -29 -98 -19q-22 5 -6 25q22 25 94 41t133 9q75 -7 103 -15q19 -4 25.5 8t17.5 68q12 65 26 76t70 -2q20 -6 22 -20.5
t-4 -80.5l-8 -90h33q20 0 26.5 8t12.5 41q17 114 98.5 182t167.5 42q44 -12 67 -38.5t29 -72.5q12 -107 -110 -168q-68 -31 -99 -31q-23 0 -28.5 -8.5t-8.5 -44.5q-4 -51 0 -92l2 -39l37 37q23 23 37.5 29t34.5 0q47 -10 70 -45.5t34 -112.5q8 -58 18 -79.5t19 0t13 79.5
q3 56 10.5 74t36.5 43q26 24 42 29.5t50 0.5q53 -4 70 -14q21 -6 26 18q13 43 90 13l33 -13l-10 -122q-4 -78 -2 -107t14 -49q29 -43 71.5 -28.5t82.5 81.5q31 54 34 127q0 61 -20 91t-66 42q-39 10 -37 20q3 14 74 17q86 4 141.5 -37.5t59.5 -107.5t-43 -146
q-61 -93 -180 -116q-44 -9 -66.5 -8t-60.5 14zM1888 1286q-33 -105 -26 -119q7 -12 56 13q4 2 9 4q63 32 90 83t8 105q-18 53 -58 34q-45 -22 -75 -109q-2 -5 -4 -11zM1329 788q15 31 17 101.5t-13 79.5q-26 18 -45 -30q-21 -55 -10 -132q5 -32 11.5 -44.5t16 -6.5t23.5 32z
M1702 643q39 -61 39 39q0 25 -2 61q-1 23 -8 113t-9 131q-7 129 -20 139q-28 18 -36 2q-9 -19 -9 -143q0 -275 45 -342zM2300 739q19 32 22 101.5t-12 89.5q-13 19 -18.5 18t-20.5 -26q-20 -29 -27 -75t1 -87q6 -37 23 -43.5t32 22.5zM2386 563q-86 39 -86 -26
q0 -25 16.5 -32.5t28.5 11.5q6 11 13.5 12.5t12.5 -7t5 -23.5q0 -20 -6 -24t-31 1q-28 6 -33.5 0.5t-5.5 -37.5q0 -29 5 -37t24 -8q26 0 43 13q12 15 18 -13q5 -15 -0.5 -19.5t-30.5 -4.5q-33 0 -65 -9q-16 -4 -20 9q-5 16 -5 110v125h37q45 0 66 6q19 6 23 2.5t1 -22.5
q-1 -8 -3 -14.5t-4 -10t-3 -2.5zM301 -96h-22l-41 135h26l19 -68q1 -9 4 -24t4 -21h2q0 2 12 43l23 70h20l21 -68q6 -24 12 -45q2 12 10 45l21 68h22l-43 -135h-22l-21 65q-10 35 -12 43q-2 -8 -6 -22.5t-6 -22.5zM539 -96h-23l-41 135h27l16 -68q8 -33 10 -45h2q3 19 13 43
l20 70h21l22 -68q6 -24 12 -45q0 2 11 45l18 68h25l-43 -135h-23l-20 65q-1 5 -6 19.5t-7 23.5q-2 -8 -6 -22.5t-6 -22.5zM776 -96h-22l-41 135h24l19 -68q8 -33 10 -45q2 7 6 21.5t6 21.5l23 70h20l21 -68q9 -24 12 -45h2q2 12 10 45l19 68h24l-43 -135h-22l-21 65
q-9 22 -12 43q-2 -8 -6 -22.5t-6 -22.5zM963 -98q-17 0 -17 16q0 8 5 13.5t12 5.5q6 0 11 -6t5 -13q0 -16 -16 -16zM1153 -96h-25v78q0 41 -32 41q-25 0 -33 -27q0 -1 -1 -4.5t-1 -5.5v-82h-25v98v37h21l2 -23q18 27 45 27q18 0 33.5 -14t15.5 -45v-80zM1210 -61q0 51 80 51
v2q0 33 -30 33q-17 0 -35 -11l-6 17q24 12 45 12q51 0 51 -55v-51q0 -23 2 -33h-23l-2 16q-14 -18 -41 -18q-20 0 -30.5 11t-10.5 26zM1292 -27q-57 0 -57 -30q0 -25 22 -25q24 0 33 23q0 2 1 4.5t1 3.5v24zM1446 20h-35v-73q0 -27 19 -27q3 0 8 1t6 1l2 -18q-6 -2 -23 -2
q-19 0 -26 10q-11 11 -11 35v73h-20v19h20v33l25 6v-39h35v-19zM1618 -96h-25v78q0 41 -32 41q-21 0 -33 -25v-12v-82h-27v198h27v-84q8 11 16 17q16 8 27 8q18 0 32.5 -14t14.5 -45v-80zM1729 43q51 0 51 -55v-51q0 -6 1 -17t1 -16h-21l-2 16h-2q-14 -18 -41 -18
q-19 0 -30 11t-11 26q0 51 80 51v2q0 33 -31 33q-16 0 -34 -11l-4 17q20 12 43 12zM1757 -51v24q-57 0 -57 -30q0 -25 22 -25q24 0 33 23q0 2 1 4.5t1 3.5zM1853 72l23 6v-39h37v-19h-37v-73q0 -27 18 -27q4 0 9 1t6 1l2 -18q-4 -2 -23 -2q-18 0 -26 10q-9 9 -9 35v73h-22
v19h22v33zM1980 -125q14 7 21 27q2 2 2 6v6l-51 125h26l31 -80q3 -12 8 -27q5 15 8 27l29 80h25l-37 -96q-22 -64 -45 -84q-17 -17 -31 -17l-6 21q12 4 20 12zM2154 -152h-24v148q0 31 -2 43h22l2 -23q17 27 48 27q25 0 41 -19.5t16 -50.5q0 -35 -17.5 -53t-44.5 -18
q-30 0 -41 20v-74zM2154 -18v-23v-10q3 -12 14 -20.5t23 -8.5q41 0 41 51q0 23 -10.5 37.5t-28.5 14.5q-12 0 -22.5 -9t-13.5 -22q-3 -3 -3 -10zM2427 -23q0 -2 -1 -5.5t-1 -4.5h-94q0 -23 13.5 -35t33.5 -12q22 0 37 6l4 -16q-16 -8 -45 -8q-31 0 -49.5 18t-18.5 49
t17.5 52.5t46.5 21.5q30 0 43.5 -20.5t13.5 -45.5zM2331 -16h71q0 41 -35 41q-31 0 -36 -41zM2509 -82q0 -16 -17 -16q-16 0 -16 16q0 19 16 19q7 0 12 -5.5t5 -13.5zM2630 23q-22 0 -34.5 -14.5t-12.5 -37.5t13 -37t34 -14q6 0 30 6l4 -18q-18 -6 -38 -6q-31 0 -49.5 18
t-18.5 49q0 32 20 52t52 20q25 0 34 -6l-6 -19q-21 7 -28 7zM2841 -27q0 -36 -20 -53.5t-48 -17.5q-27 0 -45 19t-18 50q0 33 18.5 52.5t48.5 19.5q29 0 46.5 -19.5t17.5 -50.5zM2734 -29q0 -23 11 -37t30 -14q18 0 29.5 14t11.5 37q0 20 -10.5 37t-30.5 17t-30.5 -16.5
t-10.5 -37.5zM3095 -96h-25v76q0 43 -31 43q-20 0 -28 -23q0 -2 -1 -6t-1 -6v-84h-23v82q0 16 -8 26.5t-21 10.5q-22 0 -30 -25q-2 -4 -2 -12v-82h-25v98v37h20l2 -23q15 27 44 27q27 0 38 -29q7 14 15 19q13 10 30 10t31.5 -13.5t14.5 -45.5v-80z" />
    <glyph glyph-name="two" unicode="2" horiz-adv-x="3254" 
d="M115 1888h63q28 0 45 -14t17 -39t-17 -39t-45 -14h-28v-39h-35v145zM207 1835q0 27 -31 27h-26v-52h26q31 0 31 25zM420 1862h-76v-33h66v-27h-66v-33h78v-26h-111v145h109v-26zM621 1835q0 -32 -29 -45l31 -47h-35l-27 41h-2h-29v-41h-32v145h61q28 0 45 -14t17 -39z
M557 1810q31 0 31 25q0 27 -31 27h-27v-52h27zM743 1767q27 0 27 15q0 11 -20.5 16t-41 14.5t-20.5 32.5q0 20 15.5 32.5t44.5 12.5q31 0 49 -12l-11 -27q-20 13 -38 13q-27 0 -27 -17q0 -11 20.5 -15t41 -13.5t20.5 -32.5q0 -20 -16 -32.5t-46 -12.5q-38 0 -57 16l12 25
q19 -15 47 -15zM866 1815q0 33 22 54t56 21q33 0 55.5 -21t22.5 -54q0 -32 -22.5 -53t-55.5 -21q-34 0 -56 21t-22 53zM987 1815q0 21 -12 34t-31 13q-20 0 -32.5 -12.5t-12.5 -34.5q0 -20 12.5 -33t32.5 -13q19 0 31 13t12 33zM1122 1888l72 -88v88h31v-145h-27l-70 88v-88
h-32v145h26zM1290 1743l64 145h32l64 -145h-35l-12 31h-68l-12 -31h-33zM1393 1800l-23 55l-22 -55h45zM1513 1888h33v-119h72v-26h-105v145zM1790 1888h33v-80q0 -39 32 -39q31 0 31 39v80h33v-82q0 -32 -17 -48.5t-47 -16.5q-65 0 -65 65v82zM2048 1767q27 0 27 15
q0 11 -20.5 16t-41 14.5t-20.5 32.5q0 20 15 32.5t44 12.5q31 0 49 -12l-10 -27q-19 13 -39 13q-27 0 -27 -17q0 -11 20.5 -15t41 -13.5t20.5 -32.5q0 -20 -15 -32.5t-44 -12.5q-38 0 -57 16l10 25q23 -15 47 -15zM2288 1862h-76v-33h67v-27h-67v-33h78v-26h-111v145h109
v-26zM2462 1815q0 33 23 54t57 21q33 0 55 -21t22 -54q0 -32 -22 -53t-55 -21q-34 0 -57 21t-23 53zM2585 1815q0 21 -12 34t-31 13q-20 0 -32.5 -12.5t-12.5 -34.5q0 -20 12.5 -33t32.5 -13q19 0 31 13t12 33zM2720 1888l71 -88v88h31v-145h-26l-70 88v-88h-33v145h27z
M2906 1888h33v-119h72v-26h-105v145zM3131 1743h-32v51l-56 94h35l39 -65l37 65h33l-56 -94v-51zM143 176v-4h-39l-6 -31h-4l15 72h47l-2 -6h-41l-7 -31h37zM162 162q0 14 9 23.5t22 9.5q9 0 15.5 -6.5t6.5 -16.5q0 -14 -9 -23.5t-22 -9.5q-10 0 -16 7t-6 16zM209 172
q0 18 -19 18q-10 0 -17 -8t-7 -20q0 -17 18 -17q11 0 18 7.5t7 19.5zM244 195h4l-2 -13q10 13 22 13v-7h-2q-19 0 -22 -20l-6 -27h-5zM360 207q-17 0 -26.5 -10.5t-9.5 -26.5q0 -25 26 -25q17 0 23 9l4 -4q-11 -11 -27 -11q-15 0 -24 8.5t-9 22.5q0 18 11.5 30.5t31.5 12.5
q15 0 25 -10l-4 -4q-5 8 -21 8zM446 172q0 -14 -8.5 -23.5t-21.5 -9.5q-9 0 -16 7t-7 16q0 14 9 23.5t22 9.5q22 0 22 -23zM418 145q11 0 17.5 7.5t6.5 19.5q0 8 -5 13t-13 5q-11 0 -18 -8t-7 -20q0 -17 19 -17zM475 195h6l-2 -11q7 11 21 11q13 0 16 -13q10 13 23 13
q18 0 18 -17v-6l-6 -31h-4l6 31v4q0 14 -14 14q-20 0 -23 -20l-6 -29h-4l6 31v4q0 14 -14 14q-16 0 -23 -20l-4 -29h-6zM655 195q17 0 17 -17v-6l-6 -31h-4l6 31v4q0 14 -15 14t-22 -20l-4 -29h-6l6 31v4q0 14 -15 14q-17 0 -20 -20l-6 -29h-6l10 54h6l-2 -11q7 11 20 11
q16 0 19 -13q7 13 22 13zM745 166h-45v-4q0 -17 19 -17q11 0 18 7l2 -5q-8 -8 -20 -8q-11 0 -18 6.5t-7 16.5q0 14 8.5 23.5t20.5 9.5q22 0 22 -23v-6zM723 190q-8 0 -15 -5.5t-8 -14.5h41v2q0 18 -18 18zM774 195h6l-2 -13q6 13 21 13v-7h-2q-17 0 -23 -20l-4 -27h-6z
M840 190q-11 0 -18 -8t-7 -20q0 -7 5.5 -12t13.5 -5q11 0 18 7l4 -2q-11 -11 -22 -11q-10 0 -16.5 7t-6.5 16q0 14 8.5 23.5t20.5 9.5q13 0 20 -11l-4 -2q-8 8 -16 8zM897 211q0 -4 -6 -4q-4 0 -4 4t6 4q4 0 4 -4zM877 141l10 54h4l-10 -54h-4zM956 141h-4l2 11
q-6 -13 -22 -13q-9 0 -16 6.5t-7 16.5q0 14 9 23.5t22 9.5q14 0 21 -15l2 15h4zM934 145q11 0 17.5 7.5t6.5 19.5q0 8 -5 13t-13 5q-11 0 -18 -8t-7 -20q0 -17 19 -17zM991 141h-4l14 76h7zM1018 125h-4l6 14l-2 4q0 7 4 7t4 -5v-6zM1118 164h-20l-6 -23h-5l15 72h24
q25 0 25 -20q0 -29 -33 -29zM1106 207l-8 -39h20q27 0 27 25q0 14 -19 14h-20zM1171 141h-6l17 76h4zM1249 166h-43q-2 -2 -2 -4q0 -17 21 -17q11 0 18 7l2 -5q-12 -8 -20 -8q-25 0 -25 23q0 14 8.5 23.5t20.5 9.5q22 0 22 -23q0 -4 -2 -6zM1229 190q-20 0 -23 -20h39v2
q0 18 -16 18zM1321 195h6l-10 -54h-6l2 11q-7 -13 -21 -13q-22 0 -22 23q0 14 8 23.5t20 9.5q17 0 21 -15zM1292 145q11 0 18 7.5t7 19.5q0 18 -19 18q-10 0 -17 -8t-7 -20q0 -17 18 -17zM1360 145q18 0 18 11q0 6 -15 9t-15 13q0 17 22 17q9 0 16 -7l-2 -4q-6 6 -16 6
q-16 0 -16 -12q0 -6 15 -9t15 -13q0 -17 -22 -17q-13 0 -21 8l4 5q7 -7 17 -7zM1452 166h-45v-4q0 -17 18 -17q12 0 19 7l2 -5q-8 -8 -21 -8q-22 0 -22 23q0 14 7.5 23.5t19.5 9.5q22 0 22 -23v-6zM1430 190q-16 0 -23 -20h41v2q0 18 -18 18zM1532 141h-4l-19 72h7l16 -66
l41 66h4zM1602 211q0 -4 -5 -4q-4 0 -4 4t4 4q5 0 5 -4zM1581 141l10 54h6l-10 -54h-6zM1640 190q-16 0 -16 -12q0 -6 14.5 -9t14.5 -13q0 -17 -23 -17q-12 0 -20 8l4 5q7 -7 18 -7q17 0 17 11q0 6 -15.5 9t-15.5 13q0 17 22 17q10 0 17 -7l-2 -4q-6 6 -15 6zM1673 141
l10 54h7l-13 -54h-4zM1694 211q0 -4 -4 -4t-4 4t4 4t4 -4zM1722 205h4l-2 -10h17v-7h-17l-6 -32q-2 -2 -2 -4q0 -9 8 -9q5 0 9 4l2 -4q-4 -4 -11 -4q-12 0 -12 13v4l6 32h-8v7h10zM3217 1655v-8h-3102v8h3102zM3217 1987v-9h-3102v9h3102zM3217 2023v-8h-3102v8h3102z
M119 -207v8h3103v-8h-3103zM119 -170v8h3103v-8h-3103zM1774 168h1448v-8h-1448v8zM2064 430q-4 0 -8 -7.5t-4 -16.5q0 -25 14 -25q5 0 7.5 -3.5t-0.5 -8.5q-10 -13 -39 -13q-20 0 -24 6t1 29q6 33 -12 51q-21 14 -21 52q0 20 5.5 27t19.5 7q15 0 18 -6.5t-2 -29.5
q-4 -26 -1 -32t18 -3t18.5 17t3.5 63q-2 68 11 70q3 1 8 -1q12 -3 16 -16t4 -47q-1 -49 -11 -81t-22 -32zM1950 575q-12 -5 -16.5 -23.5t-4.5 -70.5q0 -85 13 -94q17 -11 11 -21t-28 -10q-19 0 -22 13t0 84v10q4 90 -3 98q-4 5 -20 0q-15 -6 -20 -2t-5 19q0 17 9.5 21.5
t44.5 4.5q58 0 76 6q11 5 14.5 0t3.5 -24q0 -29 -12 -33q-9 -3 -14 14q-1 1 -1 2q-6 13 -26 6zM2200 449q-28 -15 -36 -45q-6 -23 13 -23q6 0 7.5 -3.5t-1.5 -8.5q-7 -13 -31 -13q-8 0 -12 3.5t-7.5 17t-4.5 36.5t-2 66l-4 125h45q38 0 61 -18.5t23 -50.5q0 -34 -11 -53.5
t-40 -32.5zM2161 506q12 -64 51 -25q25 26 11 61.5t-48 35.5q-13 0 -17.5 -6t-3.5 -20.5t7 -45.5zM2468 670q-23 9 -45.5 25t-30.5 28q-19 26 -29 27.5t-18 -23.5q-11 -26 -45 -43t-81 -7.5t-73 38.5q-20 23 -45 12q-65 -36 -123 25q-25 25 -30.5 43.5t-5.5 78.5
q0 89 -17 89q-20 0 -32.5 -38.5t-12.5 -97.5q0 -56 -10.5 -76t-44.5 -26q-23 -3 -33 -41q-13 -69 -50 -96t-93 -8q-34 11 -69 47t-42 69q-4 19 -13.5 22.5t-41.5 0.5q-31 -5 -46.5 -1t-35.5 23l-31 29l-24 -33q-23 -35 -68 -35h-43v-65q0 -133 -92 -133q-42 0 -72 26
q-32 22 -53 88q-13 47 -15 135t3 445q0 108 -13 111q-8 4 -24 -22t-32 -67t-24 -77q-13 -77 -20 -279l-8 -215l-49 8q-46 3 -64 21q-13 13 -20 201q-6 152 -18.5 205t-41.5 53q-51 0 -94 -72t-43 -156q0 -60 20 -90t66 -39q39 -7 36 -18q-4 -16 -64 -20q-34 -2 -68 3
q-55 8 -99 52q-31 31 -36 47.5t-2 73.5q5 69 31 115t83 83q68 44 152.5 41t134.5 -51q23 -23 33 -16t10 45q0 21 18 84q22 74 66 107.5t92 17t80 -79.5q15 -32 18 -87.5t0 -256.5q-2 -237 3.5 -302t27.5 -65q32 0 39 76.5t-22 126.5q-34 56 -20.5 130.5t63.5 106.5
q32 22 88 17q55 -7 55 2q0 13 23 16.5t55 -4.5l45 -12l4 -121q3 -130 15 -119q14 15 22 197q7 199 2 202q-7 7 -90 11q-51 5 -80 0.5t-66 -21.5q-63 -29 -98 -19q-22 5 -6 25q22 25 94 41t133 9q75 -7 103 -15q19 -4 25.5 8t17.5 68q12 65 26 76t70 -2q20 -6 22 -20.5
t-4 -80.5l-8 -90h33q20 0 26.5 8t12.5 41q17 114 98.5 182t167.5 42q44 -12 67 -38.5t29 -72.5q12 -107 -110 -168q-68 -31 -99 -31q-23 0 -28.5 -8.5t-8.5 -44.5q-4 -51 0 -92l2 -39l37 37q23 23 37.5 29t34.5 0q47 -10 70 -45.5t34 -112.5q8 -58 18 -79.5t19 0t13 79.5
q3 56 10.5 74t36.5 43q26 24 42 29.5t50 0.5q53 -4 70 -14q21 -6 26 18q13 43 90 13l33 -13l-10 -122q-4 -78 -2 -107t14 -49q29 -43 71.5 -28.5t82.5 81.5q31 54 34 127q0 61 -20 91t-66 42q-39 10 -37 20q3 14 74 17q86 4 141.5 -37.5t59.5 -107.5t-43 -146
q-61 -93 -180 -116q-44 -9 -66.5 -8t-60.5 14zM1888 1286q-33 -105 -26 -119q7 -12 56 13q4 2 9 4q63 32 90 83t8 105q-18 53 -58 34q-45 -22 -75 -109q-2 -5 -4 -11zM1329 788q15 31 17 101.5t-13 79.5q-26 18 -45 -30q-21 -55 -10 -132q5 -32 11.5 -44.5t16 -6.5t23.5 32z
M1702 643q39 -61 39 39q0 25 -2 61q-1 23 -8 113t-9 131q-7 129 -20 139q-28 18 -36 2q-9 -19 -9 -143q0 -275 45 -342zM2300 739q19 32 22 101.5t-12 89.5q-13 19 -18.5 18t-20.5 -26q-20 -29 -27 -75t1 -87q6 -37 23 -43.5t32 22.5zM2386 563q-86 39 -86 -26
q0 -25 16.5 -32.5t28.5 11.5q6 11 13.5 12.5t12.5 -7t5 -23.5q0 -20 -6 -24t-31 1q-28 6 -33.5 0.5t-5.5 -37.5q0 -29 5 -37t24 -8q26 0 43 13q12 15 18 -13q5 -15 -0.5 -19.5t-30.5 -4.5q-33 0 -65 -9q-16 -4 -20 9q-5 16 -5 110v125h37q45 0 66 6q19 6 23 2.5t1 -22.5
q-1 -8 -3 -14.5t-4 -10t-3 -2.5zM301 -96h-22l-41 135h26l19 -68q1 -9 4 -24t4 -21h2q0 2 12 43l23 70h20l21 -68q6 -24 12 -45q2 12 10 45l21 68h22l-43 -135h-22l-21 65q-10 35 -12 43q-2 -8 -6 -22.5t-6 -22.5zM539 -96h-23l-41 135h27l16 -68q8 -33 10 -45h2q3 19 13 43
l20 70h21l22 -68q6 -24 12 -45q0 2 11 45l18 68h25l-43 -135h-23l-20 65q-1 5 -6 19.5t-7 23.5q-2 -8 -6 -22.5t-6 -22.5zM776 -96h-22l-41 135h24l19 -68q8 -33 10 -45q2 7 6 21.5t6 21.5l23 70h20l21 -68q9 -24 12 -45h2q2 12 10 45l19 68h24l-43 -135h-22l-21 65
q-9 22 -12 43q-2 -8 -6 -22.5t-6 -22.5zM963 -98q-17 0 -17 16q0 8 5 13.5t12 5.5q6 0 11 -6t5 -13q0 -16 -16 -16zM1153 -96h-25v78q0 41 -32 41q-25 0 -33 -27q0 -1 -1 -4.5t-1 -5.5v-82h-25v98v37h21l2 -23q18 27 45 27q18 0 33.5 -14t15.5 -45v-80zM1210 -61q0 51 80 51
v2q0 33 -30 33q-17 0 -35 -11l-6 17q24 12 45 12q51 0 51 -55v-51q0 -23 2 -33h-23l-2 16q-14 -18 -41 -18q-20 0 -30.5 11t-10.5 26zM1292 -27q-57 0 -57 -30q0 -25 22 -25q24 0 33 23q0 2 1 4.5t1 3.5v24zM1446 20h-35v-73q0 -27 19 -27q3 0 8 1t6 1l2 -18q-6 -2 -23 -2
q-19 0 -26 10q-11 11 -11 35v73h-20v19h20v33l25 6v-39h35v-19zM1618 -96h-25v78q0 41 -32 41q-21 0 -33 -25v-12v-82h-27v198h27v-84q8 11 16 17q16 8 27 8q18 0 32.5 -14t14.5 -45v-80zM1729 43q51 0 51 -55v-51q0 -6 1 -17t1 -16h-21l-2 16h-2q-14 -18 -41 -18
q-19 0 -30 11t-11 26q0 51 80 51v2q0 33 -31 33q-16 0 -34 -11l-4 17q20 12 43 12zM1757 -51v24q-57 0 -57 -30q0 -25 22 -25q24 0 33 23q0 2 1 4.5t1 3.5zM1853 72l23 6v-39h37v-19h-37v-73q0 -27 18 -27q4 0 9 1t6 1l2 -18q-4 -2 -23 -2q-18 0 -26 10q-9 9 -9 35v73h-22
v19h22v33zM1980 -125q14 7 21 27q2 2 2 6v6l-51 125h26l31 -80q3 -12 8 -27q5 15 8 27l29 80h25l-37 -96q-22 -64 -45 -84q-17 -17 -31 -17l-6 21q12 4 20 12zM2154 -152h-24v148q0 31 -2 43h22l2 -23q17 27 48 27q25 0 41 -19.5t16 -50.5q0 -35 -17.5 -53t-44.5 -18
q-30 0 -41 20v-74zM2154 -18v-23v-10q3 -12 14 -20.5t23 -8.5q41 0 41 51q0 23 -10.5 37.5t-28.5 14.5q-12 0 -22.5 -9t-13.5 -22q-3 -3 -3 -10zM2427 -23q0 -2 -1 -5.5t-1 -4.5h-94q0 -23 13.5 -35t33.5 -12q22 0 37 6l4 -16q-16 -8 -45 -8q-31 0 -49.5 18t-18.5 49
t17.5 52.5t46.5 21.5q30 0 43.5 -20.5t13.5 -45.5zM2331 -16h71q0 41 -35 41q-31 0 -36 -41zM2509 -82q0 -16 -17 -16q-16 0 -16 16q0 19 16 19q7 0 12 -5.5t5 -13.5zM2630 23q-22 0 -34.5 -14.5t-12.5 -37.5t13 -37t34 -14q6 0 30 6l4 -18q-18 -6 -38 -6q-31 0 -49.5 18
t-18.5 49q0 32 20 52t52 20q25 0 34 -6l-6 -19q-21 7 -28 7zM2841 -27q0 -36 -20 -53.5t-48 -17.5q-27 0 -45 19t-18 50q0 33 18.5 52.5t48.5 19.5q29 0 46.5 -19.5t17.5 -50.5zM2734 -29q0 -23 11 -37t30 -14q18 0 29.5 14t11.5 37q0 20 -10.5 37t-30.5 17t-30.5 -16.5
t-10.5 -37.5zM3095 -96h-25v76q0 43 -31 43q-20 0 -28 -23q0 -2 -1 -6t-1 -6v-84h-23v82q0 16 -8 26.5t-21 10.5q-22 0 -30 -25q-2 -4 -2 -12v-82h-25v98v37h20l2 -23q15 27 44 27q27 0 38 -29q7 14 15 19q13 10 30 10t31.5 -13.5t14.5 -45.5v-80z" />
    <glyph glyph-name="three" unicode="3" horiz-adv-x="3254" 
d="M115 1888h63q28 0 45 -14t17 -39t-17 -39t-45 -14h-28v-39h-35v145zM207 1835q0 27 -31 27h-26v-52h26q31 0 31 25zM420 1862h-76v-33h66v-27h-66v-33h78v-26h-111v145h109v-26zM621 1835q0 -32 -29 -45l31 -47h-35l-27 41h-2h-29v-41h-32v145h61q28 0 45 -14t17 -39z
M557 1810q31 0 31 25q0 27 -31 27h-27v-52h27zM743 1767q27 0 27 15q0 11 -20.5 16t-41 14.5t-20.5 32.5q0 20 15.5 32.5t44.5 12.5q31 0 49 -12l-11 -27q-20 13 -38 13q-27 0 -27 -17q0 -11 20.5 -15t41 -13.5t20.5 -32.5q0 -20 -16 -32.5t-46 -12.5q-38 0 -57 16l12 25
q19 -15 47 -15zM866 1815q0 33 22 54t56 21q33 0 55.5 -21t22.5 -54q0 -32 -22.5 -53t-55.5 -21q-34 0 -56 21t-22 53zM987 1815q0 21 -12 34t-31 13q-20 0 -32.5 -12.5t-12.5 -34.5q0 -20 12.5 -33t32.5 -13q19 0 31 13t12 33zM1122 1888l72 -88v88h31v-145h-27l-70 88v-88
h-32v145h26zM1290 1743l64 145h32l64 -145h-35l-12 31h-68l-12 -31h-33zM1393 1800l-23 55l-22 -55h45zM1513 1888h33v-119h72v-26h-105v145zM1790 1888h33v-80q0 -39 32 -39q31 0 31 39v80h33v-82q0 -32 -17 -48.5t-47 -16.5q-65 0 -65 65v82zM2048 1767q27 0 27 15
q0 11 -20.5 16t-41 14.5t-20.5 32.5q0 20 15 32.5t44 12.5q31 0 49 -12l-10 -27q-19 13 -39 13q-27 0 -27 -17q0 -11 20.5 -15t41 -13.5t20.5 -32.5q0 -20 -15 -32.5t-44 -12.5q-38 0 -57 16l10 25q23 -15 47 -15zM2288 1862h-76v-33h67v-27h-67v-33h78v-26h-111v145h109
v-26zM2462 1815q0 33 23 54t57 21q33 0 55 -21t22 -54q0 -32 -22 -53t-55 -21q-34 0 -57 21t-23 53zM2585 1815q0 21 -12 34t-31 13q-20 0 -32.5 -12.5t-12.5 -34.5q0 -20 12.5 -33t32.5 -13q19 0 31 13t12 33zM2720 1888l71 -88v88h31v-145h-26l-70 88v-88h-33v145h27z
M2906 1888h33v-119h72v-26h-105v145zM3131 1743h-32v51l-56 94h35l39 -65l37 65h33l-56 -94v-51zM143 176v-4h-39l-6 -31h-4l15 72h47l-2 -6h-41l-7 -31h37zM162 162q0 14 9 23.5t22 9.5q9 0 15.5 -6.5t6.5 -16.5q0 -14 -9 -23.5t-22 -9.5q-10 0 -16 7t-6 16zM209 172
q0 18 -19 18q-10 0 -17 -8t-7 -20q0 -17 18 -17q11 0 18 7.5t7 19.5zM244 195h4l-2 -13q10 13 22 13v-7h-2q-19 0 -22 -20l-6 -27h-5zM360 207q-17 0 -26.5 -10.5t-9.5 -26.5q0 -25 26 -25q17 0 23 9l4 -4q-11 -11 -27 -11q-15 0 -24 8.5t-9 22.5q0 18 11.5 30.5t31.5 12.5
q15 0 25 -10l-4 -4q-5 8 -21 8zM446 172q0 -14 -8.5 -23.5t-21.5 -9.5q-9 0 -16 7t-7 16q0 14 9 23.5t22 9.5q22 0 22 -23zM418 145q11 0 17.5 7.5t6.5 19.5q0 8 -5 13t-13 5q-11 0 -18 -8t-7 -20q0 -17 19 -17zM475 195h6l-2 -11q7 11 21 11q13 0 16 -13q10 13 23 13
q18 0 18 -17v-6l-6 -31h-4l6 31v4q0 14 -14 14q-20 0 -23 -20l-6 -29h-4l6 31v4q0 14 -14 14q-16 0 -23 -20l-4 -29h-6zM655 195q17 0 17 -17v-6l-6 -31h-4l6 31v4q0 14 -15 14t-22 -20l-4 -29h-6l6 31v4q0 14 -15 14q-17 0 -20 -20l-6 -29h-6l10 54h6l-2 -11q7 11 20 11
q16 0 19 -13q7 13 22 13zM745 166h-45v-4q0 -17 19 -17q11 0 18 7l2 -5q-8 -8 -20 -8q-11 0 -18 6.5t-7 16.5q0 14 8.5 23.5t20.5 9.5q22 0 22 -23v-6zM723 190q-8 0 -15 -5.5t-8 -14.5h41v2q0 18 -18 18zM774 195h6l-2 -13q6 13 21 13v-7h-2q-17 0 -23 -20l-4 -27h-6z
M840 190q-11 0 -18 -8t-7 -20q0 -7 5.5 -12t13.5 -5q11 0 18 7l4 -2q-11 -11 -22 -11q-10 0 -16.5 7t-6.5 16q0 14 8.5 23.5t20.5 9.5q13 0 20 -11l-4 -2q-8 8 -16 8zM897 211q0 -4 -6 -4q-4 0 -4 4t6 4q4 0 4 -4zM877 141l10 54h4l-10 -54h-4zM956 141h-4l2 11
q-6 -13 -22 -13q-9 0 -16 6.5t-7 16.5q0 14 9 23.5t22 9.5q14 0 21 -15l2 15h4zM934 145q11 0 17.5 7.5t6.5 19.5q0 8 -5 13t-13 5q-11 0 -18 -8t-7 -20q0 -17 19 -17zM991 141h-4l14 76h7zM1018 125h-4l6 14l-2 4q0 7 4 7t4 -5v-6zM1118 164h-20l-6 -23h-5l15 72h24
q25 0 25 -20q0 -29 -33 -29zM1106 207l-8 -39h20q27 0 27 25q0 14 -19 14h-20zM1171 141h-6l17 76h4zM1249 166h-43q-2 -2 -2 -4q0 -17 21 -17q11 0 18 7l2 -5q-12 -8 -20 -8q-25 0 -25 23q0 14 8.5 23.5t20.5 9.5q22 0 22 -23q0 -4 -2 -6zM1229 190q-20 0 -23 -20h39v2
q0 18 -16 18zM1321 195h6l-10 -54h-6l2 11q-7 -13 -21 -13q-22 0 -22 23q0 14 8 23.5t20 9.5q17 0 21 -15zM1292 145q11 0 18 7.5t7 19.5q0 18 -19 18q-10 0 -17 -8t-7 -20q0 -17 18 -17zM1360 145q18 0 18 11q0 6 -15 9t-15 13q0 17 22 17q9 0 16 -7l-2 -4q-6 6 -16 6
q-16 0 -16 -12q0 -6 15 -9t15 -13q0 -17 -22 -17q-13 0 -21 8l4 5q7 -7 17 -7zM1452 166h-45v-4q0 -17 18 -17q12 0 19 7l2 -5q-8 -8 -21 -8q-22 0 -22 23q0 14 7.5 23.5t19.5 9.5q22 0 22 -23v-6zM1430 190q-16 0 -23 -20h41v2q0 18 -18 18zM1532 141h-4l-19 72h7l16 -66
l41 66h4zM1602 211q0 -4 -5 -4q-4 0 -4 4t4 4q5 0 5 -4zM1581 141l10 54h6l-10 -54h-6zM1640 190q-16 0 -16 -12q0 -6 14.5 -9t14.5 -13q0 -17 -23 -17q-12 0 -20 8l4 5q7 -7 18 -7q17 0 17 11q0 6 -15.5 9t-15.5 13q0 17 22 17q10 0 17 -7l-2 -4q-6 6 -15 6zM1673 141
l10 54h7l-13 -54h-4zM1694 211q0 -4 -4 -4t-4 4t4 4t4 -4zM1722 205h4l-2 -10h17v-7h-17l-6 -32q-2 -2 -2 -4q0 -9 8 -9q5 0 9 4l2 -4q-4 -4 -11 -4q-12 0 -12 13v4l6 32h-8v7h10zM3217 1655v-8h-3102v8h3102zM3217 1987v-9h-3102v9h3102zM3217 2023v-8h-3102v8h3102z
M119 -207v8h3103v-8h-3103zM119 -170v8h3103v-8h-3103zM1774 168h1448v-8h-1448v8zM2064 430q-4 0 -8 -7.5t-4 -16.5q0 -25 14 -25q5 0 7.5 -3.5t-0.5 -8.5q-10 -13 -39 -13q-20 0 -24 6t1 29q6 33 -12 51q-21 14 -21 52q0 20 5.5 27t19.5 7q15 0 18 -6.5t-2 -29.5
q-4 -26 -1 -32t18 -3t18.5 17t3.5 63q-2 68 11 70q3 1 8 -1q12 -3 16 -16t4 -47q-1 -49 -11 -81t-22 -32zM1950 575q-12 -5 -16.5 -23.5t-4.5 -70.5q0 -85 13 -94q17 -11 11 -21t-28 -10q-19 0 -22 13t0 84v10q4 90 -3 98q-4 5 -20 0q-15 -6 -20 -2t-5 19q0 17 9.5 21.5
t44.5 4.5q58 0 76 6q11 5 14.5 0t3.5 -24q0 -29 -12 -33q-9 -3 -14 14q-1 1 -1 2q-6 13 -26 6zM2200 449q-28 -15 -36 -45q-6 -23 13 -23q6 0 7.5 -3.5t-1.5 -8.5q-7 -13 -31 -13q-8 0 -12 3.5t-7.5 17t-4.5 36.5t-2 66l-4 125h45q38 0 61 -18.5t23 -50.5q0 -34 -11 -53.5
t-40 -32.5zM2161 506q12 -64 51 -25q25 26 11 61.5t-48 35.5q-13 0 -17.5 -6t-3.5 -20.5t7 -45.5zM2468 670q-23 9 -45.5 25t-30.5 28q-19 26 -29 27.5t-18 -23.5q-11 -26 -45 -43t-81 -7.5t-73 38.5q-20 23 -45 12q-65 -36 -123 25q-25 25 -30.5 43.5t-5.5 78.5
q0 89 -17 89q-20 0 -32.5 -38.5t-12.5 -97.5q0 -56 -10.5 -76t-44.5 -26q-23 -3 -33 -41q-13 -69 -50 -96t-93 -8q-34 11 -69 47t-42 69q-4 19 -13.5 22.5t-41.5 0.5q-31 -5 -46.5 -1t-35.5 23l-31 29l-24 -33q-23 -35 -68 -35h-43v-65q0 -133 -92 -133q-42 0 -72 26
q-32 22 -53 88q-13 47 -15 135t3 445q0 108 -13 111q-8 4 -24 -22t-32 -67t-24 -77q-13 -77 -20 -279l-8 -215l-49 8q-46 3 -64 21q-13 13 -20 201q-6 152 -18.5 205t-41.5 53q-51 0 -94 -72t-43 -156q0 -60 20 -90t66 -39q39 -7 36 -18q-4 -16 -64 -20q-34 -2 -68 3
q-55 8 -99 52q-31 31 -36 47.5t-2 73.5q5 69 31 115t83 83q68 44 152.5 41t134.5 -51q23 -23 33 -16t10 45q0 21 18 84q22 74 66 107.5t92 17t80 -79.5q15 -32 18 -87.5t0 -256.5q-2 -237 3.5 -302t27.5 -65q32 0 39 76.5t-22 126.5q-34 56 -20.5 130.5t63.5 106.5
q32 22 88 17q55 -7 55 2q0 13 23 16.5t55 -4.5l45 -12l4 -121q3 -130 15 -119q14 15 22 197q7 199 2 202q-7 7 -90 11q-51 5 -80 0.5t-66 -21.5q-63 -29 -98 -19q-22 5 -6 25q22 25 94 41t133 9q75 -7 103 -15q19 -4 25.5 8t17.5 68q12 65 26 76t70 -2q20 -6 22 -20.5
t-4 -80.5l-8 -90h33q20 0 26.5 8t12.5 41q17 114 98.5 182t167.5 42q44 -12 67 -38.5t29 -72.5q12 -107 -110 -168q-68 -31 -99 -31q-23 0 -28.5 -8.5t-8.5 -44.5q-4 -51 0 -92l2 -39l37 37q23 23 37.5 29t34.5 0q47 -10 70 -45.5t34 -112.5q8 -58 18 -79.5t19 0t13 79.5
q3 56 10.5 74t36.5 43q26 24 42 29.5t50 0.5q53 -4 70 -14q21 -6 26 18q13 43 90 13l33 -13l-10 -122q-4 -78 -2 -107t14 -49q29 -43 71.5 -28.5t82.5 81.5q31 54 34 127q0 61 -20 91t-66 42q-39 10 -37 20q3 14 74 17q86 4 141.5 -37.5t59.5 -107.5t-43 -146
q-61 -93 -180 -116q-44 -9 -66.5 -8t-60.5 14zM1888 1286q-33 -105 -26 -119q7 -12 56 13q4 2 9 4q63 32 90 83t8 105q-18 53 -58 34q-45 -22 -75 -109q-2 -5 -4 -11zM1329 788q15 31 17 101.5t-13 79.5q-26 18 -45 -30q-21 -55 -10 -132q5 -32 11.5 -44.5t16 -6.5t23.5 32z
M1702 643q39 -61 39 39q0 25 -2 61q-1 23 -8 113t-9 131q-7 129 -20 139q-28 18 -36 2q-9 -19 -9 -143q0 -275 45 -342zM2300 739q19 32 22 101.5t-12 89.5q-13 19 -18.5 18t-20.5 -26q-20 -29 -27 -75t1 -87q6 -37 23 -43.5t32 22.5zM2386 563q-86 39 -86 -26
q0 -25 16.5 -32.5t28.5 11.5q6 11 13.5 12.5t12.5 -7t5 -23.5q0 -20 -6 -24t-31 1q-28 6 -33.5 0.5t-5.5 -37.5q0 -29 5 -37t24 -8q26 0 43 13q12 15 18 -13q5 -15 -0.5 -19.5t-30.5 -4.5q-33 0 -65 -9q-16 -4 -20 9q-5 16 -5 110v125h37q45 0 66 6q19 6 23 2.5t1 -22.5
q-1 -8 -3 -14.5t-4 -10t-3 -2.5zM301 -96h-22l-41 135h26l19 -68q1 -9 4 -24t4 -21h2q0 2 12 43l23 70h20l21 -68q6 -24 12 -45q2 12 10 45l21 68h22l-43 -135h-22l-21 65q-10 35 -12 43q-2 -8 -6 -22.5t-6 -22.5zM539 -96h-23l-41 135h27l16 -68q8 -33 10 -45h2q3 19 13 43
l20 70h21l22 -68q6 -24 12 -45q0 2 11 45l18 68h25l-43 -135h-23l-20 65q-1 5 -6 19.5t-7 23.5q-2 -8 -6 -22.5t-6 -22.5zM776 -96h-22l-41 135h24l19 -68q8 -33 10 -45q2 7 6 21.5t6 21.5l23 70h20l21 -68q9 -24 12 -45h2q2 12 10 45l19 68h24l-43 -135h-22l-21 65
q-9 22 -12 43q-2 -8 -6 -22.5t-6 -22.5zM963 -98q-17 0 -17 16q0 8 5 13.5t12 5.5q6 0 11 -6t5 -13q0 -16 -16 -16zM1153 -96h-25v78q0 41 -32 41q-25 0 -33 -27q0 -1 -1 -4.5t-1 -5.5v-82h-25v98v37h21l2 -23q18 27 45 27q18 0 33.5 -14t15.5 -45v-80zM1210 -61q0 51 80 51
v2q0 33 -30 33q-17 0 -35 -11l-6 17q24 12 45 12q51 0 51 -55v-51q0 -23 2 -33h-23l-2 16q-14 -18 -41 -18q-20 0 -30.5 11t-10.5 26zM1292 -27q-57 0 -57 -30q0 -25 22 -25q24 0 33 23q0 2 1 4.5t1 3.5v24zM1446 20h-35v-73q0 -27 19 -27q3 0 8 1t6 1l2 -18q-6 -2 -23 -2
q-19 0 -26 10q-11 11 -11 35v73h-20v19h20v33l25 6v-39h35v-19zM1618 -96h-25v78q0 41 -32 41q-21 0 -33 -25v-12v-82h-27v198h27v-84q8 11 16 17q16 8 27 8q18 0 32.5 -14t14.5 -45v-80zM1729 43q51 0 51 -55v-51q0 -6 1 -17t1 -16h-21l-2 16h-2q-14 -18 -41 -18
q-19 0 -30 11t-11 26q0 51 80 51v2q0 33 -31 33q-16 0 -34 -11l-4 17q20 12 43 12zM1757 -51v24q-57 0 -57 -30q0 -25 22 -25q24 0 33 23q0 2 1 4.5t1 3.5zM1853 72l23 6v-39h37v-19h-37v-73q0 -27 18 -27q4 0 9 1t6 1l2 -18q-4 -2 -23 -2q-18 0 -26 10q-9 9 -9 35v73h-22
v19h22v33zM1980 -125q14 7 21 27q2 2 2 6v6l-51 125h26l31 -80q3 -12 8 -27q5 15 8 27l29 80h25l-37 -96q-22 -64 -45 -84q-17 -17 -31 -17l-6 21q12 4 20 12zM2154 -152h-24v148q0 31 -2 43h22l2 -23q17 27 48 27q25 0 41 -19.5t16 -50.5q0 -35 -17.5 -53t-44.5 -18
q-30 0 -41 20v-74zM2154 -18v-23v-10q3 -12 14 -20.5t23 -8.5q41 0 41 51q0 23 -10.5 37.5t-28.5 14.5q-12 0 -22.5 -9t-13.5 -22q-3 -3 -3 -10zM2427 -23q0 -2 -1 -5.5t-1 -4.5h-94q0 -23 13.5 -35t33.5 -12q22 0 37 6l4 -16q-16 -8 -45 -8q-31 0 -49.5 18t-18.5 49
t17.5 52.5t46.5 21.5q30 0 43.5 -20.5t13.5 -45.5zM2331 -16h71q0 41 -35 41q-31 0 -36 -41zM2509 -82q0 -16 -17 -16q-16 0 -16 16q0 19 16 19q7 0 12 -5.5t5 -13.5zM2630 23q-22 0 -34.5 -14.5t-12.5 -37.5t13 -37t34 -14q6 0 30 6l4 -18q-18 -6 -38 -6q-31 0 -49.5 18
t-18.5 49q0 32 20 52t52 20q25 0 34 -6l-6 -19q-21 7 -28 7zM2841 -27q0 -36 -20 -53.5t-48 -17.5q-27 0 -45 19t-18 50q0 33 18.5 52.5t48.5 19.5q29 0 46.5 -19.5t17.5 -50.5zM2734 -29q0 -23 11 -37t30 -14q18 0 29.5 14t11.5 37q0 20 -10.5 37t-30.5 17t-30.5 -16.5
t-10.5 -37.5zM3095 -96h-25v76q0 43 -31 43q-20 0 -28 -23q0 -2 -1 -6t-1 -6v-84h-23v82q0 16 -8 26.5t-21 10.5q-22 0 -30 -25q-2 -4 -2 -12v-82h-25v98v37h20l2 -23q15 27 44 27q27 0 38 -29q7 14 15 19q13 10 30 10t31.5 -13.5t14.5 -45.5v-80z" />
    <glyph glyph-name="four" unicode="4" horiz-adv-x="3254" 
d="M115 1888h63q28 0 45 -14t17 -39t-17 -39t-45 -14h-28v-39h-35v145zM207 1835q0 27 -31 27h-26v-52h26q31 0 31 25zM420 1862h-76v-33h66v-27h-66v-33h78v-26h-111v145h109v-26zM621 1835q0 -32 -29 -45l31 -47h-35l-27 41h-2h-29v-41h-32v145h61q28 0 45 -14t17 -39z
M557 1810q31 0 31 25q0 27 -31 27h-27v-52h27zM743 1767q27 0 27 15q0 11 -20.5 16t-41 14.5t-20.5 32.5q0 20 15.5 32.5t44.5 12.5q31 0 49 -12l-11 -27q-20 13 -38 13q-27 0 -27 -17q0 -11 20.5 -15t41 -13.5t20.5 -32.5q0 -20 -16 -32.5t-46 -12.5q-38 0 -57 16l12 25
q19 -15 47 -15zM866 1815q0 33 22 54t56 21q33 0 55.5 -21t22.5 -54q0 -32 -22.5 -53t-55.5 -21q-34 0 -56 21t-22 53zM987 1815q0 21 -12 34t-31 13q-20 0 -32.5 -12.5t-12.5 -34.5q0 -20 12.5 -33t32.5 -13q19 0 31 13t12 33zM1122 1888l72 -88v88h31v-145h-27l-70 88v-88
h-32v145h26zM1290 1743l64 145h32l64 -145h-35l-12 31h-68l-12 -31h-33zM1393 1800l-23 55l-22 -55h45zM1513 1888h33v-119h72v-26h-105v145zM1790 1888h33v-80q0 -39 32 -39q31 0 31 39v80h33v-82q0 -32 -17 -48.5t-47 -16.5q-65 0 -65 65v82zM2048 1767q27 0 27 15
q0 11 -20.5 16t-41 14.5t-20.5 32.5q0 20 15 32.5t44 12.5q31 0 49 -12l-10 -27q-19 13 -39 13q-27 0 -27 -17q0 -11 20.5 -15t41 -13.5t20.5 -32.5q0 -20 -15 -32.5t-44 -12.5q-38 0 -57 16l10 25q23 -15 47 -15zM2288 1862h-76v-33h67v-27h-67v-33h78v-26h-111v145h109
v-26zM2462 1815q0 33 23 54t57 21q33 0 55 -21t22 -54q0 -32 -22 -53t-55 -21q-34 0 -57 21t-23 53zM2585 1815q0 21 -12 34t-31 13q-20 0 -32.5 -12.5t-12.5 -34.5q0 -20 12.5 -33t32.5 -13q19 0 31 13t12 33zM2720 1888l71 -88v88h31v-145h-26l-70 88v-88h-33v145h27z
M2906 1888h33v-119h72v-26h-105v145zM3131 1743h-32v51l-56 94h35l39 -65l37 65h33l-56 -94v-51zM143 176v-4h-39l-6 -31h-4l15 72h47l-2 -6h-41l-7 -31h37zM162 162q0 14 9 23.5t22 9.5q9 0 15.5 -6.5t6.5 -16.5q0 -14 -9 -23.5t-22 -9.5q-10 0 -16 7t-6 16zM209 172
q0 18 -19 18q-10 0 -17 -8t-7 -20q0 -17 18 -17q11 0 18 7.5t7 19.5zM244 195h4l-2 -13q10 13 22 13v-7h-2q-19 0 -22 -20l-6 -27h-5zM360 207q-17 0 -26.5 -10.5t-9.5 -26.5q0 -25 26 -25q17 0 23 9l4 -4q-11 -11 -27 -11q-15 0 -24 8.5t-9 22.5q0 18 11.5 30.5t31.5 12.5
q15 0 25 -10l-4 -4q-5 8 -21 8zM446 172q0 -14 -8.5 -23.5t-21.5 -9.5q-9 0 -16 7t-7 16q0 14 9 23.5t22 9.5q22 0 22 -23zM418 145q11 0 17.5 7.5t6.5 19.5q0 8 -5 13t-13 5q-11 0 -18 -8t-7 -20q0 -17 19 -17zM475 195h6l-2 -11q7 11 21 11q13 0 16 -13q10 13 23 13
q18 0 18 -17v-6l-6 -31h-4l6 31v4q0 14 -14 14q-20 0 -23 -20l-6 -29h-4l6 31v4q0 14 -14 14q-16 0 -23 -20l-4 -29h-6zM655 195q17 0 17 -17v-6l-6 -31h-4l6 31v4q0 14 -15 14t-22 -20l-4 -29h-6l6 31v4q0 14 -15 14q-17 0 -20 -20l-6 -29h-6l10 54h6l-2 -11q7 11 20 11
q16 0 19 -13q7 13 22 13zM745 166h-45v-4q0 -17 19 -17q11 0 18 7l2 -5q-8 -8 -20 -8q-11 0 -18 6.5t-7 16.5q0 14 8.5 23.5t20.5 9.5q22 0 22 -23v-6zM723 190q-8 0 -15 -5.5t-8 -14.5h41v2q0 18 -18 18zM774 195h6l-2 -13q6 13 21 13v-7h-2q-17 0 -23 -20l-4 -27h-6z
M840 190q-11 0 -18 -8t-7 -20q0 -7 5.5 -12t13.5 -5q11 0 18 7l4 -2q-11 -11 -22 -11q-10 0 -16.5 7t-6.5 16q0 14 8.5 23.5t20.5 9.5q13 0 20 -11l-4 -2q-8 8 -16 8zM897 211q0 -4 -6 -4q-4 0 -4 4t6 4q4 0 4 -4zM877 141l10 54h4l-10 -54h-4zM956 141h-4l2 11
q-6 -13 -22 -13q-9 0 -16 6.5t-7 16.5q0 14 9 23.5t22 9.5q14 0 21 -15l2 15h4zM934 145q11 0 17.5 7.5t6.5 19.5q0 8 -5 13t-13 5q-11 0 -18 -8t-7 -20q0 -17 19 -17zM991 141h-4l14 76h7zM1018 125h-4l6 14l-2 4q0 7 4 7t4 -5v-6zM1118 164h-20l-6 -23h-5l15 72h24
q25 0 25 -20q0 -29 -33 -29zM1106 207l-8 -39h20q27 0 27 25q0 14 -19 14h-20zM1171 141h-6l17 76h4zM1249 166h-43q-2 -2 -2 -4q0 -17 21 -17q11 0 18 7l2 -5q-12 -8 -20 -8q-25 0 -25 23q0 14 8.5 23.5t20.5 9.5q22 0 22 -23q0 -4 -2 -6zM1229 190q-20 0 -23 -20h39v2
q0 18 -16 18zM1321 195h6l-10 -54h-6l2 11q-7 -13 -21 -13q-22 0 -22 23q0 14 8 23.5t20 9.5q17 0 21 -15zM1292 145q11 0 18 7.5t7 19.5q0 18 -19 18q-10 0 -17 -8t-7 -20q0 -17 18 -17zM1360 145q18 0 18 11q0 6 -15 9t-15 13q0 17 22 17q9 0 16 -7l-2 -4q-6 6 -16 6
q-16 0 -16 -12q0 -6 15 -9t15 -13q0 -17 -22 -17q-13 0 -21 8l4 5q7 -7 17 -7zM1452 166h-45v-4q0 -17 18 -17q12 0 19 7l2 -5q-8 -8 -21 -8q-22 0 -22 23q0 14 7.5 23.5t19.5 9.5q22 0 22 -23v-6zM1430 190q-16 0 -23 -20h41v2q0 18 -18 18zM1532 141h-4l-19 72h7l16 -66
l41 66h4zM1602 211q0 -4 -5 -4q-4 0 -4 4t4 4q5 0 5 -4zM1581 141l10 54h6l-10 -54h-6zM1640 190q-16 0 -16 -12q0 -6 14.5 -9t14.5 -13q0 -17 -23 -17q-12 0 -20 8l4 5q7 -7 18 -7q17 0 17 11q0 6 -15.5 9t-15.5 13q0 17 22 17q10 0 17 -7l-2 -4q-6 6 -15 6zM1673 141
l10 54h7l-13 -54h-4zM1694 211q0 -4 -4 -4t-4 4t4 4t4 -4zM1722 205h4l-2 -10h17v-7h-17l-6 -32q-2 -2 -2 -4q0 -9 8 -9q5 0 9 4l2 -4q-4 -4 -11 -4q-12 0 -12 13v4l6 32h-8v7h10zM3217 1655v-8h-3102v8h3102zM3217 1987v-9h-3102v9h3102zM3217 2023v-8h-3102v8h3102z
M119 -207v8h3103v-8h-3103zM119 -170v8h3103v-8h-3103zM1774 168h1448v-8h-1448v8zM2064 430q-4 0 -8 -7.5t-4 -16.5q0 -25 14 -25q5 0 7.5 -3.5t-0.5 -8.5q-10 -13 -39 -13q-20 0 -24 6t1 29q6 33 -12 51q-21 14 -21 52q0 20 5.5 27t19.5 7q15 0 18 -6.5t-2 -29.5
q-4 -26 -1 -32t18 -3t18.5 17t3.5 63q-2 68 11 70q3 1 8 -1q12 -3 16 -16t4 -47q-1 -49 -11 -81t-22 -32zM1950 575q-12 -5 -16.5 -23.5t-4.5 -70.5q0 -85 13 -94q17 -11 11 -21t-28 -10q-19 0 -22 13t0 84v10q4 90 -3 98q-4 5 -20 0q-15 -6 -20 -2t-5 19q0 17 9.5 21.5
t44.5 4.5q58 0 76 6q11 5 14.5 0t3.5 -24q0 -29 -12 -33q-9 -3 -14 14q-1 1 -1 2q-6 13 -26 6zM2200 449q-28 -15 -36 -45q-6 -23 13 -23q6 0 7.5 -3.5t-1.5 -8.5q-7 -13 -31 -13q-8 0 -12 3.5t-7.5 17t-4.5 36.5t-2 66l-4 125h45q38 0 61 -18.5t23 -50.5q0 -34 -11 -53.5
t-40 -32.5zM2161 506q12 -64 51 -25q25 26 11 61.5t-48 35.5q-13 0 -17.5 -6t-3.5 -20.5t7 -45.5zM2468 670q-23 9 -45.5 25t-30.5 28q-19 26 -29 27.5t-18 -23.5q-11 -26 -45 -43t-81 -7.5t-73 38.5q-20 23 -45 12q-65 -36 -123 25q-25 25 -30.5 43.5t-5.5 78.5
q0 89 -17 89q-20 0 -32.5 -38.5t-12.5 -97.5q0 -56 -10.5 -76t-44.5 -26q-23 -3 -33 -41q-13 -69 -50 -96t-93 -8q-34 11 -69 47t-42 69q-4 19 -13.5 22.5t-41.5 0.5q-31 -5 -46.5 -1t-35.5 23l-31 29l-24 -33q-23 -35 -68 -35h-43v-65q0 -133 -92 -133q-42 0 -72 26
q-32 22 -53 88q-13 47 -15 135t3 445q0 108 -13 111q-8 4 -24 -22t-32 -67t-24 -77q-13 -77 -20 -279l-8 -215l-49 8q-46 3 -64 21q-13 13 -20 201q-6 152 -18.5 205t-41.5 53q-51 0 -94 -72t-43 -156q0 -60 20 -90t66 -39q39 -7 36 -18q-4 -16 -64 -20q-34 -2 -68 3
q-55 8 -99 52q-31 31 -36 47.5t-2 73.5q5 69 31 115t83 83q68 44 152.5 41t134.5 -51q23 -23 33 -16t10 45q0 21 18 84q22 74 66 107.5t92 17t80 -79.5q15 -32 18 -87.5t0 -256.5q-2 -237 3.5 -302t27.5 -65q32 0 39 76.5t-22 126.5q-34 56 -20.5 130.5t63.5 106.5
q32 22 88 17q55 -7 55 2q0 13 23 16.5t55 -4.5l45 -12l4 -121q3 -130 15 -119q14 15 22 197q7 199 2 202q-7 7 -90 11q-51 5 -80 0.5t-66 -21.5q-63 -29 -98 -19q-22 5 -6 25q22 25 94 41t133 9q75 -7 103 -15q19 -4 25.5 8t17.5 68q12 65 26 76t70 -2q20 -6 22 -20.5
t-4 -80.5l-8 -90h33q20 0 26.5 8t12.5 41q17 114 98.5 182t167.5 42q44 -12 67 -38.5t29 -72.5q12 -107 -110 -168q-68 -31 -99 -31q-23 0 -28.5 -8.5t-8.5 -44.5q-4 -51 0 -92l2 -39l37 37q23 23 37.5 29t34.5 0q47 -10 70 -45.5t34 -112.5q8 -58 18 -79.5t19 0t13 79.5
q3 56 10.5 74t36.5 43q26 24 42 29.5t50 0.5q53 -4 70 -14q21 -6 26 18q13 43 90 13l33 -13l-10 -122q-4 -78 -2 -107t14 -49q29 -43 71.5 -28.5t82.5 81.5q31 54 34 127q0 61 -20 91t-66 42q-39 10 -37 20q3 14 74 17q86 4 141.5 -37.5t59.5 -107.5t-43 -146
q-61 -93 -180 -116q-44 -9 -66.5 -8t-60.5 14zM1888 1286q-33 -105 -26 -119q7 -12 56 13q4 2 9 4q63 32 90 83t8 105q-18 53 -58 34q-45 -22 -75 -109q-2 -5 -4 -11zM1329 788q15 31 17 101.5t-13 79.5q-26 18 -45 -30q-21 -55 -10 -132q5 -32 11.5 -44.5t16 -6.5t23.5 32z
M1702 643q39 -61 39 39q0 25 -2 61q-1 23 -8 113t-9 131q-7 129 -20 139q-28 18 -36 2q-9 -19 -9 -143q0 -275 45 -342zM2300 739q19 32 22 101.5t-12 89.5q-13 19 -18.5 18t-20.5 -26q-20 -29 -27 -75t1 -87q6 -37 23 -43.5t32 22.5zM2386 563q-86 39 -86 -26
q0 -25 16.5 -32.5t28.5 11.5q6 11 13.5 12.5t12.5 -7t5 -23.5q0 -20 -6 -24t-31 1q-28 6 -33.5 0.5t-5.5 -37.5q0 -29 5 -37t24 -8q26 0 43 13q12 15 18 -13q5 -15 -0.5 -19.5t-30.5 -4.5q-33 0 -65 -9q-16 -4 -20 9q-5 16 -5 110v125h37q45 0 66 6q19 6 23 2.5t1 -22.5
q-1 -8 -3 -14.5t-4 -10t-3 -2.5zM301 -96h-22l-41 135h26l19 -68q1 -9 4 -24t4 -21h2q0 2 12 43l23 70h20l21 -68q6 -24 12 -45q2 12 10 45l21 68h22l-43 -135h-22l-21 65q-10 35 -12 43q-2 -8 -6 -22.5t-6 -22.5zM539 -96h-23l-41 135h27l16 -68q8 -33 10 -45h2q3 19 13 43
l20 70h21l22 -68q6 -24 12 -45q0 2 11 45l18 68h25l-43 -135h-23l-20 65q-1 5 -6 19.5t-7 23.5q-2 -8 -6 -22.5t-6 -22.5zM776 -96h-22l-41 135h24l19 -68q8 -33 10 -45q2 7 6 21.5t6 21.5l23 70h20l21 -68q9 -24 12 -45h2q2 12 10 45l19 68h24l-43 -135h-22l-21 65
q-9 22 -12 43q-2 -8 -6 -22.5t-6 -22.5zM963 -98q-17 0 -17 16q0 8 5 13.5t12 5.5q6 0 11 -6t5 -13q0 -16 -16 -16zM1153 -96h-25v78q0 41 -32 41q-25 0 -33 -27q0 -1 -1 -4.5t-1 -5.5v-82h-25v98v37h21l2 -23q18 27 45 27q18 0 33.5 -14t15.5 -45v-80zM1210 -61q0 51 80 51
v2q0 33 -30 33q-17 0 -35 -11l-6 17q24 12 45 12q51 0 51 -55v-51q0 -23 2 -33h-23l-2 16q-14 -18 -41 -18q-20 0 -30.5 11t-10.5 26zM1292 -27q-57 0 -57 -30q0 -25 22 -25q24 0 33 23q0 2 1 4.5t1 3.5v24zM1446 20h-35v-73q0 -27 19 -27q3 0 8 1t6 1l2 -18q-6 -2 -23 -2
q-19 0 -26 10q-11 11 -11 35v73h-20v19h20v33l25 6v-39h35v-19zM1618 -96h-25v78q0 41 -32 41q-21 0 -33 -25v-12v-82h-27v198h27v-84q8 11 16 17q16 8 27 8q18 0 32.5 -14t14.5 -45v-80zM1729 43q51 0 51 -55v-51q0 -6 1 -17t1 -16h-21l-2 16h-2q-14 -18 -41 -18
q-19 0 -30 11t-11 26q0 51 80 51v2q0 33 -31 33q-16 0 -34 -11l-4 17q20 12 43 12zM1757 -51v24q-57 0 -57 -30q0 -25 22 -25q24 0 33 23q0 2 1 4.5t1 3.5zM1853 72l23 6v-39h37v-19h-37v-73q0 -27 18 -27q4 0 9 1t6 1l2 -18q-4 -2 -23 -2q-18 0 -26 10q-9 9 -9 35v73h-22
v19h22v33zM1980 -125q14 7 21 27q2 2 2 6v6l-51 125h26l31 -80q3 -12 8 -27q5 15 8 27l29 80h25l-37 -96q-22 -64 -45 -84q-17 -17 -31 -17l-6 21q12 4 20 12zM2154 -152h-24v148q0 31 -2 43h22l2 -23q17 27 48 27q25 0 41 -19.5t16 -50.5q0 -35 -17.5 -53t-44.5 -18
q-30 0 -41 20v-74zM2154 -18v-23v-10q3 -12 14 -20.5t23 -8.5q41 0 41 51q0 23 -10.5 37.5t-28.5 14.5q-12 0 -22.5 -9t-13.5 -22q-3 -3 -3 -10zM2427 -23q0 -2 -1 -5.5t-1 -4.5h-94q0 -23 13.5 -35t33.5 -12q22 0 37 6l4 -16q-16 -8 -45 -8q-31 0 -49.5 18t-18.5 49
t17.5 52.5t46.5 21.5q30 0 43.5 -20.5t13.5 -45.5zM2331 -16h71q0 41 -35 41q-31 0 -36 -41zM2509 -82q0 -16 -17 -16q-16 0 -16 16q0 19 16 19q7 0 12 -5.5t5 -13.5zM2630 23q-22 0 -34.5 -14.5t-12.5 -37.5t13 -37t34 -14q6 0 30 6l4 -18q-18 -6 -38 -6q-31 0 -49.5 18
t-18.5 49q0 32 20 52t52 20q25 0 34 -6l-6 -19q-21 7 -28 7zM2841 -27q0 -36 -20 -53.5t-48 -17.5q-27 0 -45 19t-18 50q0 33 18.5 52.5t48.5 19.5q29 0 46.5 -19.5t17.5 -50.5zM2734 -29q0 -23 11 -37t30 -14q18 0 29.5 14t11.5 37q0 20 -10.5 37t-30.5 17t-30.5 -16.5
t-10.5 -37.5zM3095 -96h-25v76q0 43 -31 43q-20 0 -28 -23q0 -2 -1 -6t-1 -6v-84h-23v82q0 16 -8 26.5t-21 10.5q-22 0 -30 -25q-2 -4 -2 -12v-82h-25v98v37h20l2 -23q15 27 44 27q27 0 38 -29q7 14 15 19q13 10 30 10t31.5 -13.5t14.5 -45.5v-80z" />
    <glyph glyph-name="five" unicode="5" horiz-adv-x="3254" 
d="M115 1888h63q28 0 45 -14t17 -39t-17 -39t-45 -14h-28v-39h-35v145zM207 1835q0 27 -31 27h-26v-52h26q31 0 31 25zM420 1862h-76v-33h66v-27h-66v-33h78v-26h-111v145h109v-26zM621 1835q0 -32 -29 -45l31 -47h-35l-27 41h-2h-29v-41h-32v145h61q28 0 45 -14t17 -39z
M557 1810q31 0 31 25q0 27 -31 27h-27v-52h27zM743 1767q27 0 27 15q0 11 -20.5 16t-41 14.5t-20.5 32.5q0 20 15.5 32.5t44.5 12.5q31 0 49 -12l-11 -27q-20 13 -38 13q-27 0 -27 -17q0 -11 20.5 -15t41 -13.5t20.5 -32.5q0 -20 -16 -32.5t-46 -12.5q-38 0 -57 16l12 25
q19 -15 47 -15zM866 1815q0 33 22 54t56 21q33 0 55.5 -21t22.5 -54q0 -32 -22.5 -53t-55.5 -21q-34 0 -56 21t-22 53zM987 1815q0 21 -12 34t-31 13q-20 0 -32.5 -12.5t-12.5 -34.5q0 -20 12.5 -33t32.5 -13q19 0 31 13t12 33zM1122 1888l72 -88v88h31v-145h-27l-70 88v-88
h-32v145h26zM1290 1743l64 145h32l64 -145h-35l-12 31h-68l-12 -31h-33zM1393 1800l-23 55l-22 -55h45zM1513 1888h33v-119h72v-26h-105v145zM1790 1888h33v-80q0 -39 32 -39q31 0 31 39v80h33v-82q0 -32 -17 -48.5t-47 -16.5q-65 0 -65 65v82zM2048 1767q27 0 27 15
q0 11 -20.5 16t-41 14.5t-20.5 32.5q0 20 15 32.5t44 12.5q31 0 49 -12l-10 -27q-19 13 -39 13q-27 0 -27 -17q0 -11 20.5 -15t41 -13.5t20.5 -32.5q0 -20 -15 -32.5t-44 -12.5q-38 0 -57 16l10 25q23 -15 47 -15zM2288 1862h-76v-33h67v-27h-67v-33h78v-26h-111v145h109
v-26zM2462 1815q0 33 23 54t57 21q33 0 55 -21t22 -54q0 -32 -22 -53t-55 -21q-34 0 -57 21t-23 53zM2585 1815q0 21 -12 34t-31 13q-20 0 -32.5 -12.5t-12.5 -34.5q0 -20 12.5 -33t32.5 -13q19 0 31 13t12 33zM2720 1888l71 -88v88h31v-145h-26l-70 88v-88h-33v145h27z
M2906 1888h33v-119h72v-26h-105v145zM3131 1743h-32v51l-56 94h35l39 -65l37 65h33l-56 -94v-51zM143 176v-4h-39l-6 -31h-4l15 72h47l-2 -6h-41l-7 -31h37zM162 162q0 14 9 23.5t22 9.5q9 0 15.5 -6.5t6.5 -16.5q0 -14 -9 -23.5t-22 -9.5q-10 0 -16 7t-6 16zM209 172
q0 18 -19 18q-10 0 -17 -8t-7 -20q0 -17 18 -17q11 0 18 7.5t7 19.5zM244 195h4l-2 -13q10 13 22 13v-7h-2q-19 0 -22 -20l-6 -27h-5zM360 207q-17 0 -26.5 -10.5t-9.5 -26.5q0 -25 26 -25q17 0 23 9l4 -4q-11 -11 -27 -11q-15 0 -24 8.5t-9 22.5q0 18 11.5 30.5t31.5 12.5
q15 0 25 -10l-4 -4q-5 8 -21 8zM446 172q0 -14 -8.5 -23.5t-21.5 -9.5q-9 0 -16 7t-7 16q0 14 9 23.5t22 9.5q22 0 22 -23zM418 145q11 0 17.5 7.5t6.5 19.5q0 8 -5 13t-13 5q-11 0 -18 -8t-7 -20q0 -17 19 -17zM475 195h6l-2 -11q7 11 21 11q13 0 16 -13q10 13 23 13
q18 0 18 -17v-6l-6 -31h-4l6 31v4q0 14 -14 14q-20 0 -23 -20l-6 -29h-4l6 31v4q0 14 -14 14q-16 0 -23 -20l-4 -29h-6zM655 195q17 0 17 -17v-6l-6 -31h-4l6 31v4q0 14 -15 14t-22 -20l-4 -29h-6l6 31v4q0 14 -15 14q-17 0 -20 -20l-6 -29h-6l10 54h6l-2 -11q7 11 20 11
q16 0 19 -13q7 13 22 13zM745 166h-45v-4q0 -17 19 -17q11 0 18 7l2 -5q-8 -8 -20 -8q-11 0 -18 6.5t-7 16.5q0 14 8.5 23.5t20.5 9.5q22 0 22 -23v-6zM723 190q-8 0 -15 -5.5t-8 -14.5h41v2q0 18 -18 18zM774 195h6l-2 -13q6 13 21 13v-7h-2q-17 0 -23 -20l-4 -27h-6z
M840 190q-11 0 -18 -8t-7 -20q0 -7 5.5 -12t13.5 -5q11 0 18 7l4 -2q-11 -11 -22 -11q-10 0 -16.5 7t-6.5 16q0 14 8.5 23.5t20.5 9.5q13 0 20 -11l-4 -2q-8 8 -16 8zM897 211q0 -4 -6 -4q-4 0 -4 4t6 4q4 0 4 -4zM877 141l10 54h4l-10 -54h-4zM956 141h-4l2 11
q-6 -13 -22 -13q-9 0 -16 6.5t-7 16.5q0 14 9 23.5t22 9.5q14 0 21 -15l2 15h4zM934 145q11 0 17.5 7.5t6.5 19.5q0 8 -5 13t-13 5q-11 0 -18 -8t-7 -20q0 -17 19 -17zM991 141h-4l14 76h7zM1018 125h-4l6 14l-2 4q0 7 4 7t4 -5v-6zM1118 164h-20l-6 -23h-5l15 72h24
q25 0 25 -20q0 -29 -33 -29zM1106 207l-8 -39h20q27 0 27 25q0 14 -19 14h-20zM1171 141h-6l17 76h4zM1249 166h-43q-2 -2 -2 -4q0 -17 21 -17q11 0 18 7l2 -5q-12 -8 -20 -8q-25 0 -25 23q0 14 8.5 23.5t20.5 9.5q22 0 22 -23q0 -4 -2 -6zM1229 190q-20 0 -23 -20h39v2
q0 18 -16 18zM1321 195h6l-10 -54h-6l2 11q-7 -13 -21 -13q-22 0 -22 23q0 14 8 23.5t20 9.5q17 0 21 -15zM1292 145q11 0 18 7.5t7 19.5q0 18 -19 18q-10 0 -17 -8t-7 -20q0 -17 18 -17zM1360 145q18 0 18 11q0 6 -15 9t-15 13q0 17 22 17q9 0 16 -7l-2 -4q-6 6 -16 6
q-16 0 -16 -12q0 -6 15 -9t15 -13q0 -17 -22 -17q-13 0 -21 8l4 5q7 -7 17 -7zM1452 166h-45v-4q0 -17 18 -17q12 0 19 7l2 -5q-8 -8 -21 -8q-22 0 -22 23q0 14 7.5 23.5t19.5 9.5q22 0 22 -23v-6zM1430 190q-16 0 -23 -20h41v2q0 18 -18 18zM1532 141h-4l-19 72h7l16 -66
l41 66h4zM1602 211q0 -4 -5 -4q-4 0 -4 4t4 4q5 0 5 -4zM1581 141l10 54h6l-10 -54h-6zM1640 190q-16 0 -16 -12q0 -6 14.5 -9t14.5 -13q0 -17 -23 -17q-12 0 -20 8l4 5q7 -7 18 -7q17 0 17 11q0 6 -15.5 9t-15.5 13q0 17 22 17q10 0 17 -7l-2 -4q-6 6 -15 6zM1673 141
l10 54h7l-13 -54h-4zM1694 211q0 -4 -4 -4t-4 4t4 4t4 -4zM1722 205h4l-2 -10h17v-7h-17l-6 -32q-2 -2 -2 -4q0 -9 8 -9q5 0 9 4l2 -4q-4 -4 -11 -4q-12 0 -12 13v4l6 32h-8v7h10zM3217 1655v-8h-3102v8h3102zM3217 1987v-9h-3102v9h3102zM3217 2023v-8h-3102v8h3102z
M119 -207v8h3103v-8h-3103zM119 -170v8h3103v-8h-3103zM1774 168h1448v-8h-1448v8zM2064 430q-4 0 -8 -7.5t-4 -16.5q0 -25 14 -25q5 0 7.5 -3.5t-0.5 -8.5q-10 -13 -39 -13q-20 0 -24 6t1 29q6 33 -12 51q-21 14 -21 52q0 20 5.5 27t19.5 7q15 0 18 -6.5t-2 -29.5
q-4 -26 -1 -32t18 -3t18.5 17t3.5 63q-2 68 11 70q3 1 8 -1q12 -3 16 -16t4 -47q-1 -49 -11 -81t-22 -32zM1950 575q-12 -5 -16.5 -23.5t-4.5 -70.5q0 -85 13 -94q17 -11 11 -21t-28 -10q-19 0 -22 13t0 84v10q4 90 -3 98q-4 5 -20 0q-15 -6 -20 -2t-5 19q0 17 9.5 21.5
t44.5 4.5q58 0 76 6q11 5 14.5 0t3.5 -24q0 -29 -12 -33q-9 -3 -14 14q-1 1 -1 2q-6 13 -26 6zM2200 449q-28 -15 -36 -45q-6 -23 13 -23q6 0 7.5 -3.5t-1.5 -8.5q-7 -13 -31 -13q-8 0 -12 3.5t-7.5 17t-4.5 36.5t-2 66l-4 125h45q38 0 61 -18.5t23 -50.5q0 -34 -11 -53.5
t-40 -32.5zM2161 506q12 -64 51 -25q25 26 11 61.5t-48 35.5q-13 0 -17.5 -6t-3.5 -20.5t7 -45.5zM2468 670q-23 9 -45.5 25t-30.5 28q-19 26 -29 27.5t-18 -23.5q-11 -26 -45 -43t-81 -7.5t-73 38.5q-20 23 -45 12q-65 -36 -123 25q-25 25 -30.5 43.5t-5.5 78.5
q0 89 -17 89q-20 0 -32.5 -38.5t-12.5 -97.5q0 -56 -10.5 -76t-44.5 -26q-23 -3 -33 -41q-13 -69 -50 -96t-93 -8q-34 11 -69 47t-42 69q-4 19 -13.5 22.5t-41.5 0.5q-31 -5 -46.5 -1t-35.5 23l-31 29l-24 -33q-23 -35 -68 -35h-43v-65q0 -133 -92 -133q-42 0 -72 26
q-32 22 -53 88q-13 47 -15 135t3 445q0 108 -13 111q-8 4 -24 -22t-32 -67t-24 -77q-13 -77 -20 -279l-8 -215l-49 8q-46 3 -64 21q-13 13 -20 201q-6 152 -18.5 205t-41.5 53q-51 0 -94 -72t-43 -156q0 -60 20 -90t66 -39q39 -7 36 -18q-4 -16 -64 -20q-34 -2 -68 3
q-55 8 -99 52q-31 31 -36 47.5t-2 73.5q5 69 31 115t83 83q68 44 152.5 41t134.5 -51q23 -23 33 -16t10 45q0 21 18 84q22 74 66 107.5t92 17t80 -79.5q15 -32 18 -87.5t0 -256.5q-2 -237 3.5 -302t27.5 -65q32 0 39 76.5t-22 126.5q-34 56 -20.5 130.5t63.5 106.5
q32 22 88 17q55 -7 55 2q0 13 23 16.5t55 -4.5l45 -12l4 -121q3 -130 15 -119q14 15 22 197q7 199 2 202q-7 7 -90 11q-51 5 -80 0.5t-66 -21.5q-63 -29 -98 -19q-22 5 -6 25q22 25 94 41t133 9q75 -7 103 -15q19 -4 25.5 8t17.5 68q12 65 26 76t70 -2q20 -6 22 -20.5
t-4 -80.5l-8 -90h33q20 0 26.5 8t12.5 41q17 114 98.5 182t167.5 42q44 -12 67 -38.5t29 -72.5q12 -107 -110 -168q-68 -31 -99 -31q-23 0 -28.5 -8.5t-8.5 -44.5q-4 -51 0 -92l2 -39l37 37q23 23 37.5 29t34.5 0q47 -10 70 -45.5t34 -112.5q8 -58 18 -79.5t19 0t13 79.5
q3 56 10.5 74t36.5 43q26 24 42 29.5t50 0.5q53 -4 70 -14q21 -6 26 18q13 43 90 13l33 -13l-10 -122q-4 -78 -2 -107t14 -49q29 -43 71.5 -28.5t82.5 81.5q31 54 34 127q0 61 -20 91t-66 42q-39 10 -37 20q3 14 74 17q86 4 141.5 -37.5t59.5 -107.5t-43 -146
q-61 -93 -180 -116q-44 -9 -66.5 -8t-60.5 14zM1888 1286q-33 -105 -26 -119q7 -12 56 13q4 2 9 4q63 32 90 83t8 105q-18 53 -58 34q-45 -22 -75 -109q-2 -5 -4 -11zM1329 788q15 31 17 101.5t-13 79.5q-26 18 -45 -30q-21 -55 -10 -132q5 -32 11.5 -44.5t16 -6.5t23.5 32z
M1702 643q39 -61 39 39q0 25 -2 61q-1 23 -8 113t-9 131q-7 129 -20 139q-28 18 -36 2q-9 -19 -9 -143q0 -275 45 -342zM2300 739q19 32 22 101.5t-12 89.5q-13 19 -18.5 18t-20.5 -26q-20 -29 -27 -75t1 -87q6 -37 23 -43.5t32 22.5zM2386 563q-86 39 -86 -26
q0 -25 16.5 -32.5t28.5 11.5q6 11 13.5 12.5t12.5 -7t5 -23.5q0 -20 -6 -24t-31 1q-28 6 -33.5 0.5t-5.5 -37.5q0 -29 5 -37t24 -8q26 0 43 13q12 15 18 -13q5 -15 -0.5 -19.5t-30.5 -4.5q-33 0 -65 -9q-16 -4 -20 9q-5 16 -5 110v125h37q45 0 66 6q19 6 23 2.5t1 -22.5
q-1 -8 -3 -14.5t-4 -10t-3 -2.5zM301 -96h-22l-41 135h26l19 -68q1 -9 4 -24t4 -21h2q0 2 12 43l23 70h20l21 -68q6 -24 12 -45q2 12 10 45l21 68h22l-43 -135h-22l-21 65q-10 35 -12 43q-2 -8 -6 -22.5t-6 -22.5zM539 -96h-23l-41 135h27l16 -68q8 -33 10 -45h2q3 19 13 43
l20 70h21l22 -68q6 -24 12 -45q0 2 11 45l18 68h25l-43 -135h-23l-20 65q-1 5 -6 19.5t-7 23.5q-2 -8 -6 -22.5t-6 -22.5zM776 -96h-22l-41 135h24l19 -68q8 -33 10 -45q2 7 6 21.5t6 21.5l23 70h20l21 -68q9 -24 12 -45h2q2 12 10 45l19 68h24l-43 -135h-22l-21 65
q-9 22 -12 43q-2 -8 -6 -22.5t-6 -22.5zM963 -98q-17 0 -17 16q0 8 5 13.5t12 5.5q6 0 11 -6t5 -13q0 -16 -16 -16zM1153 -96h-25v78q0 41 -32 41q-25 0 -33 -27q0 -1 -1 -4.5t-1 -5.5v-82h-25v98v37h21l2 -23q18 27 45 27q18 0 33.5 -14t15.5 -45v-80zM1210 -61q0 51 80 51
v2q0 33 -30 33q-17 0 -35 -11l-6 17q24 12 45 12q51 0 51 -55v-51q0 -23 2 -33h-23l-2 16q-14 -18 -41 -18q-20 0 -30.5 11t-10.5 26zM1292 -27q-57 0 -57 -30q0 -25 22 -25q24 0 33 23q0 2 1 4.5t1 3.5v24zM1446 20h-35v-73q0 -27 19 -27q3 0 8 1t6 1l2 -18q-6 -2 -23 -2
q-19 0 -26 10q-11 11 -11 35v73h-20v19h20v33l25 6v-39h35v-19zM1618 -96h-25v78q0 41 -32 41q-21 0 -33 -25v-12v-82h-27v198h27v-84q8 11 16 17q16 8 27 8q18 0 32.5 -14t14.5 -45v-80zM1729 43q51 0 51 -55v-51q0 -6 1 -17t1 -16h-21l-2 16h-2q-14 -18 -41 -18
q-19 0 -30 11t-11 26q0 51 80 51v2q0 33 -31 33q-16 0 -34 -11l-4 17q20 12 43 12zM1757 -51v24q-57 0 -57 -30q0 -25 22 -25q24 0 33 23q0 2 1 4.5t1 3.5zM1853 72l23 6v-39h37v-19h-37v-73q0 -27 18 -27q4 0 9 1t6 1l2 -18q-4 -2 -23 -2q-18 0 -26 10q-9 9 -9 35v73h-22
v19h22v33zM1980 -125q14 7 21 27q2 2 2 6v6l-51 125h26l31 -80q3 -12 8 -27q5 15 8 27l29 80h25l-37 -96q-22 -64 -45 -84q-17 -17 -31 -17l-6 21q12 4 20 12zM2154 -152h-24v148q0 31 -2 43h22l2 -23q17 27 48 27q25 0 41 -19.5t16 -50.5q0 -35 -17.5 -53t-44.5 -18
q-30 0 -41 20v-74zM2154 -18v-23v-10q3 -12 14 -20.5t23 -8.5q41 0 41 51q0 23 -10.5 37.5t-28.5 14.5q-12 0 -22.5 -9t-13.5 -22q-3 -3 -3 -10zM2427 -23q0 -2 -1 -5.5t-1 -4.5h-94q0 -23 13.5 -35t33.5 -12q22 0 37 6l4 -16q-16 -8 -45 -8q-31 0 -49.5 18t-18.5 49
t17.5 52.5t46.5 21.5q30 0 43.5 -20.5t13.5 -45.5zM2331 -16h71q0 41 -35 41q-31 0 -36 -41zM2509 -82q0 -16 -17 -16q-16 0 -16 16q0 19 16 19q7 0 12 -5.5t5 -13.5zM2630 23q-22 0 -34.5 -14.5t-12.5 -37.5t13 -37t34 -14q6 0 30 6l4 -18q-18 -6 -38 -6q-31 0 -49.5 18
t-18.5 49q0 32 20 52t52 20q25 0 34 -6l-6 -19q-21 7 -28 7zM2841 -27q0 -36 -20 -53.5t-48 -17.5q-27 0 -45 19t-18 50q0 33 18.5 52.5t48.5 19.5q29 0 46.5 -19.5t17.5 -50.5zM2734 -29q0 -23 11 -37t30 -14q18 0 29.5 14t11.5 37q0 20 -10.5 37t-30.5 17t-30.5 -16.5
t-10.5 -37.5zM3095 -96h-25v76q0 43 -31 43q-20 0 -28 -23q0 -2 -1 -6t-1 -6v-84h-23v82q0 16 -8 26.5t-21 10.5q-22 0 -30 -25q-2 -4 -2 -12v-82h-25v98v37h20l2 -23q15 27 44 27q27 0 38 -29q7 14 15 19q13 10 30 10t31.5 -13.5t14.5 -45.5v-80z" />
    <glyph glyph-name="six" unicode="6" horiz-adv-x="3254" 
d="M115 1888h63q28 0 45 -14t17 -39t-17 -39t-45 -14h-28v-39h-35v145zM207 1835q0 27 -31 27h-26v-52h26q31 0 31 25zM420 1862h-76v-33h66v-27h-66v-33h78v-26h-111v145h109v-26zM621 1835q0 -32 -29 -45l31 -47h-35l-27 41h-2h-29v-41h-32v145h61q28 0 45 -14t17 -39z
M557 1810q31 0 31 25q0 27 -31 27h-27v-52h27zM743 1767q27 0 27 15q0 11 -20.5 16t-41 14.5t-20.5 32.5q0 20 15.5 32.5t44.5 12.5q31 0 49 -12l-11 -27q-20 13 -38 13q-27 0 -27 -17q0 -11 20.5 -15t41 -13.5t20.5 -32.5q0 -20 -16 -32.5t-46 -12.5q-38 0 -57 16l12 25
q19 -15 47 -15zM866 1815q0 33 22 54t56 21q33 0 55.5 -21t22.5 -54q0 -32 -22.5 -53t-55.5 -21q-34 0 -56 21t-22 53zM987 1815q0 21 -12 34t-31 13q-20 0 -32.5 -12.5t-12.5 -34.5q0 -20 12.5 -33t32.5 -13q19 0 31 13t12 33zM1122 1888l72 -88v88h31v-145h-27l-70 88v-88
h-32v145h26zM1290 1743l64 145h32l64 -145h-35l-12 31h-68l-12 -31h-33zM1393 1800l-23 55l-22 -55h45zM1513 1888h33v-119h72v-26h-105v145zM1790 1888h33v-80q0 -39 32 -39q31 0 31 39v80h33v-82q0 -32 -17 -48.5t-47 -16.5q-65 0 -65 65v82zM2048 1767q27 0 27 15
q0 11 -20.5 16t-41 14.5t-20.5 32.5q0 20 15 32.5t44 12.5q31 0 49 -12l-10 -27q-19 13 -39 13q-27 0 -27 -17q0 -11 20.5 -15t41 -13.5t20.5 -32.5q0 -20 -15 -32.5t-44 -12.5q-38 0 -57 16l10 25q23 -15 47 -15zM2288 1862h-76v-33h67v-27h-67v-33h78v-26h-111v145h109
v-26zM2462 1815q0 33 23 54t57 21q33 0 55 -21t22 -54q0 -32 -22 -53t-55 -21q-34 0 -57 21t-23 53zM2585 1815q0 21 -12 34t-31 13q-20 0 -32.5 -12.5t-12.5 -34.5q0 -20 12.5 -33t32.5 -13q19 0 31 13t12 33zM2720 1888l71 -88v88h31v-145h-26l-70 88v-88h-33v145h27z
M2906 1888h33v-119h72v-26h-105v145zM3131 1743h-32v51l-56 94h35l39 -65l37 65h33l-56 -94v-51zM143 176v-4h-39l-6 -31h-4l15 72h47l-2 -6h-41l-7 -31h37zM162 162q0 14 9 23.5t22 9.5q9 0 15.5 -6.5t6.5 -16.5q0 -14 -9 -23.5t-22 -9.5q-10 0 -16 7t-6 16zM209 172
q0 18 -19 18q-10 0 -17 -8t-7 -20q0 -17 18 -17q11 0 18 7.5t7 19.5zM244 195h4l-2 -13q10 13 22 13v-7h-2q-19 0 -22 -20l-6 -27h-5zM360 207q-17 0 -26.5 -10.5t-9.5 -26.5q0 -25 26 -25q17 0 23 9l4 -4q-11 -11 -27 -11q-15 0 -24 8.5t-9 22.5q0 18 11.5 30.5t31.5 12.5
q15 0 25 -10l-4 -4q-5 8 -21 8zM446 172q0 -14 -8.5 -23.5t-21.5 -9.5q-9 0 -16 7t-7 16q0 14 9 23.5t22 9.5q22 0 22 -23zM418 145q11 0 17.5 7.5t6.5 19.5q0 8 -5 13t-13 5q-11 0 -18 -8t-7 -20q0 -17 19 -17zM475 195h6l-2 -11q7 11 21 11q13 0 16 -13q10 13 23 13
q18 0 18 -17v-6l-6 -31h-4l6 31v4q0 14 -14 14q-20 0 -23 -20l-6 -29h-4l6 31v4q0 14 -14 14q-16 0 -23 -20l-4 -29h-6zM655 195q17 0 17 -17v-6l-6 -31h-4l6 31v4q0 14 -15 14t-22 -20l-4 -29h-6l6 31v4q0 14 -15 14q-17 0 -20 -20l-6 -29h-6l10 54h6l-2 -11q7 11 20 11
q16 0 19 -13q7 13 22 13zM745 166h-45v-4q0 -17 19 -17q11 0 18 7l2 -5q-8 -8 -20 -8q-11 0 -18 6.5t-7 16.5q0 14 8.5 23.5t20.5 9.5q22 0 22 -23v-6zM723 190q-8 0 -15 -5.5t-8 -14.5h41v2q0 18 -18 18zM774 195h6l-2 -13q6 13 21 13v-7h-2q-17 0 -23 -20l-4 -27h-6z
M840 190q-11 0 -18 -8t-7 -20q0 -7 5.5 -12t13.5 -5q11 0 18 7l4 -2q-11 -11 -22 -11q-10 0 -16.5 7t-6.5 16q0 14 8.5 23.5t20.5 9.5q13 0 20 -11l-4 -2q-8 8 -16 8zM897 211q0 -4 -6 -4q-4 0 -4 4t6 4q4 0 4 -4zM877 141l10 54h4l-10 -54h-4zM956 141h-4l2 11
q-6 -13 -22 -13q-9 0 -16 6.5t-7 16.5q0 14 9 23.5t22 9.5q14 0 21 -15l2 15h4zM934 145q11 0 17.5 7.5t6.5 19.5q0 8 -5 13t-13 5q-11 0 -18 -8t-7 -20q0 -17 19 -17zM991 141h-4l14 76h7zM1018 125h-4l6 14l-2 4q0 7 4 7t4 -5v-6zM1118 164h-20l-6 -23h-5l15 72h24
q25 0 25 -20q0 -29 -33 -29zM1106 207l-8 -39h20q27 0 27 25q0 14 -19 14h-20zM1171 141h-6l17 76h4zM1249 166h-43q-2 -2 -2 -4q0 -17 21 -17q11 0 18 7l2 -5q-12 -8 -20 -8q-25 0 -25 23q0 14 8.5 23.5t20.5 9.5q22 0 22 -23q0 -4 -2 -6zM1229 190q-20 0 -23 -20h39v2
q0 18 -16 18zM1321 195h6l-10 -54h-6l2 11q-7 -13 -21 -13q-22 0 -22 23q0 14 8 23.5t20 9.5q17 0 21 -15zM1292 145q11 0 18 7.5t7 19.5q0 18 -19 18q-10 0 -17 -8t-7 -20q0 -17 18 -17zM1360 145q18 0 18 11q0 6 -15 9t-15 13q0 17 22 17q9 0 16 -7l-2 -4q-6 6 -16 6
q-16 0 -16 -12q0 -6 15 -9t15 -13q0 -17 -22 -17q-13 0 -21 8l4 5q7 -7 17 -7zM1452 166h-45v-4q0 -17 18 -17q12 0 19 7l2 -5q-8 -8 -21 -8q-22 0 -22 23q0 14 7.5 23.5t19.5 9.5q22 0 22 -23v-6zM1430 190q-16 0 -23 -20h41v2q0 18 -18 18zM1532 141h-4l-19 72h7l16 -66
l41 66h4zM1602 211q0 -4 -5 -4q-4 0 -4 4t4 4q5 0 5 -4zM1581 141l10 54h6l-10 -54h-6zM1640 190q-16 0 -16 -12q0 -6 14.5 -9t14.5 -13q0 -17 -23 -17q-12 0 -20 8l4 5q7 -7 18 -7q17 0 17 11q0 6 -15.5 9t-15.5 13q0 17 22 17q10 0 17 -7l-2 -4q-6 6 -15 6zM1673 141
l10 54h7l-13 -54h-4zM1694 211q0 -4 -4 -4t-4 4t4 4t4 -4zM1722 205h4l-2 -10h17v-7h-17l-6 -32q-2 -2 -2 -4q0 -9 8 -9q5 0 9 4l2 -4q-4 -4 -11 -4q-12 0 -12 13v4l6 32h-8v7h10zM3217 1655v-8h-3102v8h3102zM3217 1987v-9h-3102v9h3102zM3217 2023v-8h-3102v8h3102z
M119 -207v8h3103v-8h-3103zM119 -170v8h3103v-8h-3103zM1774 168h1448v-8h-1448v8zM2064 430q-4 0 -8 -7.5t-4 -16.5q0 -25 14 -25q5 0 7.5 -3.5t-0.5 -8.5q-10 -13 -39 -13q-20 0 -24 6t1 29q6 33 -12 51q-21 14 -21 52q0 20 5.5 27t19.5 7q15 0 18 -6.5t-2 -29.5
q-4 -26 -1 -32t18 -3t18.5 17t3.5 63q-2 68 11 70q3 1 8 -1q12 -3 16 -16t4 -47q-1 -49 -11 -81t-22 -32zM1950 575q-12 -5 -16.5 -23.5t-4.5 -70.5q0 -85 13 -94q17 -11 11 -21t-28 -10q-19 0 -22 13t0 84v10q4 90 -3 98q-4 5 -20 0q-15 -6 -20 -2t-5 19q0 17 9.5 21.5
t44.5 4.5q58 0 76 6q11 5 14.5 0t3.5 -24q0 -29 -12 -33q-9 -3 -14 14q-1 1 -1 2q-6 13 -26 6zM2200 449q-28 -15 -36 -45q-6 -23 13 -23q6 0 7.5 -3.5t-1.5 -8.5q-7 -13 -31 -13q-8 0 -12 3.5t-7.5 17t-4.5 36.5t-2 66l-4 125h45q38 0 61 -18.5t23 -50.5q0 -34 -11 -53.5
t-40 -32.5zM2161 506q12 -64 51 -25q25 26 11 61.5t-48 35.5q-13 0 -17.5 -6t-3.5 -20.5t7 -45.5zM2468 670q-23 9 -45.5 25t-30.5 28q-19 26 -29 27.5t-18 -23.5q-11 -26 -45 -43t-81 -7.5t-73 38.5q-20 23 -45 12q-65 -36 -123 25q-25 25 -30.5 43.5t-5.5 78.5
q0 89 -17 89q-20 0 -32.5 -38.5t-12.5 -97.5q0 -56 -10.5 -76t-44.5 -26q-23 -3 -33 -41q-13 -69 -50 -96t-93 -8q-34 11 -69 47t-42 69q-4 19 -13.5 22.5t-41.5 0.5q-31 -5 -46.5 -1t-35.5 23l-31 29l-24 -33q-23 -35 -68 -35h-43v-65q0 -133 -92 -133q-42 0 -72 26
q-32 22 -53 88q-13 47 -15 135t3 445q0 108 -13 111q-8 4 -24 -22t-32 -67t-24 -77q-13 -77 -20 -279l-8 -215l-49 8q-46 3 -64 21q-13 13 -20 201q-6 152 -18.5 205t-41.5 53q-51 0 -94 -72t-43 -156q0 -60 20 -90t66 -39q39 -7 36 -18q-4 -16 -64 -20q-34 -2 -68 3
q-55 8 -99 52q-31 31 -36 47.5t-2 73.5q5 69 31 115t83 83q68 44 152.5 41t134.5 -51q23 -23 33 -16t10 45q0 21 18 84q22 74 66 107.5t92 17t80 -79.5q15 -32 18 -87.5t0 -256.5q-2 -237 3.5 -302t27.5 -65q32 0 39 76.5t-22 126.5q-34 56 -20.5 130.5t63.5 106.5
q32 22 88 17q55 -7 55 2q0 13 23 16.5t55 -4.5l45 -12l4 -121q3 -130 15 -119q14 15 22 197q7 199 2 202q-7 7 -90 11q-51 5 -80 0.5t-66 -21.5q-63 -29 -98 -19q-22 5 -6 25q22 25 94 41t133 9q75 -7 103 -15q19 -4 25.5 8t17.5 68q12 65 26 76t70 -2q20 -6 22 -20.5
t-4 -80.5l-8 -90h33q20 0 26.5 8t12.5 41q17 114 98.5 182t167.5 42q44 -12 67 -38.5t29 -72.5q12 -107 -110 -168q-68 -31 -99 -31q-23 0 -28.5 -8.5t-8.5 -44.5q-4 -51 0 -92l2 -39l37 37q23 23 37.5 29t34.5 0q47 -10 70 -45.5t34 -112.5q8 -58 18 -79.5t19 0t13 79.5
q3 56 10.5 74t36.5 43q26 24 42 29.5t50 0.5q53 -4 70 -14q21 -6 26 18q13 43 90 13l33 -13l-10 -122q-4 -78 -2 -107t14 -49q29 -43 71.5 -28.5t82.5 81.5q31 54 34 127q0 61 -20 91t-66 42q-39 10 -37 20q3 14 74 17q86 4 141.5 -37.5t59.5 -107.5t-43 -146
q-61 -93 -180 -116q-44 -9 -66.5 -8t-60.5 14zM1888 1286q-33 -105 -26 -119q7 -12 56 13q4 2 9 4q63 32 90 83t8 105q-18 53 -58 34q-45 -22 -75 -109q-2 -5 -4 -11zM1329 788q15 31 17 101.5t-13 79.5q-26 18 -45 -30q-21 -55 -10 -132q5 -32 11.5 -44.5t16 -6.5t23.5 32z
M1702 643q39 -61 39 39q0 25 -2 61q-1 23 -8 113t-9 131q-7 129 -20 139q-28 18 -36 2q-9 -19 -9 -143q0 -275 45 -342zM2300 739q19 32 22 101.5t-12 89.5q-13 19 -18.5 18t-20.5 -26q-20 -29 -27 -75t1 -87q6 -37 23 -43.5t32 22.5zM2386 563q-86 39 -86 -26
q0 -25 16.5 -32.5t28.5 11.5q6 11 13.5 12.5t12.5 -7t5 -23.5q0 -20 -6 -24t-31 1q-28 6 -33.5 0.5t-5.5 -37.5q0 -29 5 -37t24 -8q26 0 43 13q12 15 18 -13q5 -15 -0.5 -19.5t-30.5 -4.5q-33 0 -65 -9q-16 -4 -20 9q-5 16 -5 110v125h37q45 0 66 6q19 6 23 2.5t1 -22.5
q-1 -8 -3 -14.5t-4 -10t-3 -2.5zM301 -96h-22l-41 135h26l19 -68q1 -9 4 -24t4 -21h2q0 2 12 43l23 70h20l21 -68q6 -24 12 -45q2 12 10 45l21 68h22l-43 -135h-22l-21 65q-10 35 -12 43q-2 -8 -6 -22.5t-6 -22.5zM539 -96h-23l-41 135h27l16 -68q8 -33 10 -45h2q3 19 13 43
l20 70h21l22 -68q6 -24 12 -45q0 2 11 45l18 68h25l-43 -135h-23l-20 65q-1 5 -6 19.5t-7 23.5q-2 -8 -6 -22.5t-6 -22.5zM776 -96h-22l-41 135h24l19 -68q8 -33 10 -45q2 7 6 21.5t6 21.5l23 70h20l21 -68q9 -24 12 -45h2q2 12 10 45l19 68h24l-43 -135h-22l-21 65
q-9 22 -12 43q-2 -8 -6 -22.5t-6 -22.5zM963 -98q-17 0 -17 16q0 8 5 13.5t12 5.5q6 0 11 -6t5 -13q0 -16 -16 -16zM1153 -96h-25v78q0 41 -32 41q-25 0 -33 -27q0 -1 -1 -4.5t-1 -5.5v-82h-25v98v37h21l2 -23q18 27 45 27q18 0 33.5 -14t15.5 -45v-80zM1210 -61q0 51 80 51
v2q0 33 -30 33q-17 0 -35 -11l-6 17q24 12 45 12q51 0 51 -55v-51q0 -23 2 -33h-23l-2 16q-14 -18 -41 -18q-20 0 -30.5 11t-10.5 26zM1292 -27q-57 0 -57 -30q0 -25 22 -25q24 0 33 23q0 2 1 4.5t1 3.5v24zM1446 20h-35v-73q0 -27 19 -27q3 0 8 1t6 1l2 -18q-6 -2 -23 -2
q-19 0 -26 10q-11 11 -11 35v73h-20v19h20v33l25 6v-39h35v-19zM1618 -96h-25v78q0 41 -32 41q-21 0 -33 -25v-12v-82h-27v198h27v-84q8 11 16 17q16 8 27 8q18 0 32.5 -14t14.5 -45v-80zM1729 43q51 0 51 -55v-51q0 -6 1 -17t1 -16h-21l-2 16h-2q-14 -18 -41 -18
q-19 0 -30 11t-11 26q0 51 80 51v2q0 33 -31 33q-16 0 -34 -11l-4 17q20 12 43 12zM1757 -51v24q-57 0 -57 -30q0 -25 22 -25q24 0 33 23q0 2 1 4.5t1 3.5zM1853 72l23 6v-39h37v-19h-37v-73q0 -27 18 -27q4 0 9 1t6 1l2 -18q-4 -2 -23 -2q-18 0 -26 10q-9 9 -9 35v73h-22
v19h22v33zM1980 -125q14 7 21 27q2 2 2 6v6l-51 125h26l31 -80q3 -12 8 -27q5 15 8 27l29 80h25l-37 -96q-22 -64 -45 -84q-17 -17 -31 -17l-6 21q12 4 20 12zM2154 -152h-24v148q0 31 -2 43h22l2 -23q17 27 48 27q25 0 41 -19.5t16 -50.5q0 -35 -17.5 -53t-44.5 -18
q-30 0 -41 20v-74zM2154 -18v-23v-10q3 -12 14 -20.5t23 -8.5q41 0 41 51q0 23 -10.5 37.5t-28.5 14.5q-12 0 -22.5 -9t-13.5 -22q-3 -3 -3 -10zM2427 -23q0 -2 -1 -5.5t-1 -4.5h-94q0 -23 13.5 -35t33.5 -12q22 0 37 6l4 -16q-16 -8 -45 -8q-31 0 -49.5 18t-18.5 49
t17.5 52.5t46.5 21.5q30 0 43.5 -20.5t13.5 -45.5zM2331 -16h71q0 41 -35 41q-31 0 -36 -41zM2509 -82q0 -16 -17 -16q-16 0 -16 16q0 19 16 19q7 0 12 -5.5t5 -13.5zM2630 23q-22 0 -34.5 -14.5t-12.5 -37.5t13 -37t34 -14q6 0 30 6l4 -18q-18 -6 -38 -6q-31 0 -49.5 18
t-18.5 49q0 32 20 52t52 20q25 0 34 -6l-6 -19q-21 7 -28 7zM2841 -27q0 -36 -20 -53.5t-48 -17.5q-27 0 -45 19t-18 50q0 33 18.5 52.5t48.5 19.5q29 0 46.5 -19.5t17.5 -50.5zM2734 -29q0 -23 11 -37t30 -14q18 0 29.5 14t11.5 37q0 20 -10.5 37t-30.5 17t-30.5 -16.5
t-10.5 -37.5zM3095 -96h-25v76q0 43 -31 43q-20 0 -28 -23q0 -2 -1 -6t-1 -6v-84h-23v82q0 16 -8 26.5t-21 10.5q-22 0 -30 -25q-2 -4 -2 -12v-82h-25v98v37h20l2 -23q15 27 44 27q27 0 38 -29q7 14 15 19q13 10 30 10t31.5 -13.5t14.5 -45.5v-80z" />
    <glyph glyph-name="seven" unicode="7" horiz-adv-x="3254" 
d="M115 1888h63q28 0 45 -14t17 -39t-17 -39t-45 -14h-28v-39h-35v145zM207 1835q0 27 -31 27h-26v-52h26q31 0 31 25zM420 1862h-76v-33h66v-27h-66v-33h78v-26h-111v145h109v-26zM621 1835q0 -32 -29 -45l31 -47h-35l-27 41h-2h-29v-41h-32v145h61q28 0 45 -14t17 -39z
M557 1810q31 0 31 25q0 27 -31 27h-27v-52h27zM743 1767q27 0 27 15q0 11 -20.5 16t-41 14.5t-20.5 32.5q0 20 15.5 32.5t44.5 12.5q31 0 49 -12l-11 -27q-20 13 -38 13q-27 0 -27 -17q0 -11 20.5 -15t41 -13.5t20.5 -32.5q0 -20 -16 -32.5t-46 -12.5q-38 0 -57 16l12 25
q19 -15 47 -15zM866 1815q0 33 22 54t56 21q33 0 55.5 -21t22.5 -54q0 -32 -22.5 -53t-55.5 -21q-34 0 -56 21t-22 53zM987 1815q0 21 -12 34t-31 13q-20 0 -32.5 -12.5t-12.5 -34.5q0 -20 12.5 -33t32.5 -13q19 0 31 13t12 33zM1122 1888l72 -88v88h31v-145h-27l-70 88v-88
h-32v145h26zM1290 1743l64 145h32l64 -145h-35l-12 31h-68l-12 -31h-33zM1393 1800l-23 55l-22 -55h45zM1513 1888h33v-119h72v-26h-105v145zM1790 1888h33v-80q0 -39 32 -39q31 0 31 39v80h33v-82q0 -32 -17 -48.5t-47 -16.5q-65 0 -65 65v82zM2048 1767q27 0 27 15
q0 11 -20.5 16t-41 14.5t-20.5 32.5q0 20 15 32.5t44 12.5q31 0 49 -12l-10 -27q-19 13 -39 13q-27 0 -27 -17q0 -11 20.5 -15t41 -13.5t20.5 -32.5q0 -20 -15 -32.5t-44 -12.5q-38 0 -57 16l10 25q23 -15 47 -15zM2288 1862h-76v-33h67v-27h-67v-33h78v-26h-111v145h109
v-26zM2462 1815q0 33 23 54t57 21q33 0 55 -21t22 -54q0 -32 -22 -53t-55 -21q-34 0 -57 21t-23 53zM2585 1815q0 21 -12 34t-31 13q-20 0 -32.5 -12.5t-12.5 -34.5q0 -20 12.5 -33t32.5 -13q19 0 31 13t12 33zM2720 1888l71 -88v88h31v-145h-26l-70 88v-88h-33v145h27z
M2906 1888h33v-119h72v-26h-105v145zM3131 1743h-32v51l-56 94h35l39 -65l37 65h33l-56 -94v-51zM143 176v-4h-39l-6 -31h-4l15 72h47l-2 -6h-41l-7 -31h37zM162 162q0 14 9 23.5t22 9.5q9 0 15.5 -6.5t6.5 -16.5q0 -14 -9 -23.5t-22 -9.5q-10 0 -16 7t-6 16zM209 172
q0 18 -19 18q-10 0 -17 -8t-7 -20q0 -17 18 -17q11 0 18 7.5t7 19.5zM244 195h4l-2 -13q10 13 22 13v-7h-2q-19 0 -22 -20l-6 -27h-5zM360 207q-17 0 -26.5 -10.5t-9.5 -26.5q0 -25 26 -25q17 0 23 9l4 -4q-11 -11 -27 -11q-15 0 -24 8.5t-9 22.5q0 18 11.5 30.5t31.5 12.5
q15 0 25 -10l-4 -4q-5 8 -21 8zM446 172q0 -14 -8.5 -23.5t-21.5 -9.5q-9 0 -16 7t-7 16q0 14 9 23.5t22 9.5q22 0 22 -23zM418 145q11 0 17.5 7.5t6.5 19.5q0 8 -5 13t-13 5q-11 0 -18 -8t-7 -20q0 -17 19 -17zM475 195h6l-2 -11q7 11 21 11q13 0 16 -13q10 13 23 13
q18 0 18 -17v-6l-6 -31h-4l6 31v4q0 14 -14 14q-20 0 -23 -20l-6 -29h-4l6 31v4q0 14 -14 14q-16 0 -23 -20l-4 -29h-6zM655 195q17 0 17 -17v-6l-6 -31h-4l6 31v4q0 14 -15 14t-22 -20l-4 -29h-6l6 31v4q0 14 -15 14q-17 0 -20 -20l-6 -29h-6l10 54h6l-2 -11q7 11 20 11
q16 0 19 -13q7 13 22 13zM745 166h-45v-4q0 -17 19 -17q11 0 18 7l2 -5q-8 -8 -20 -8q-11 0 -18 6.5t-7 16.5q0 14 8.5 23.5t20.5 9.5q22 0 22 -23v-6zM723 190q-8 0 -15 -5.5t-8 -14.5h41v2q0 18 -18 18zM774 195h6l-2 -13q6 13 21 13v-7h-2q-17 0 -23 -20l-4 -27h-6z
M840 190q-11 0 -18 -8t-7 -20q0 -7 5.5 -12t13.5 -5q11 0 18 7l4 -2q-11 -11 -22 -11q-10 0 -16.5 7t-6.5 16q0 14 8.5 23.5t20.5 9.5q13 0 20 -11l-4 -2q-8 8 -16 8zM897 211q0 -4 -6 -4q-4 0 -4 4t6 4q4 0 4 -4zM877 141l10 54h4l-10 -54h-4zM956 141h-4l2 11
q-6 -13 -22 -13q-9 0 -16 6.5t-7 16.5q0 14 9 23.5t22 9.5q14 0 21 -15l2 15h4zM934 145q11 0 17.5 7.5t6.5 19.5q0 8 -5 13t-13 5q-11 0 -18 -8t-7 -20q0 -17 19 -17zM991 141h-4l14 76h7zM1018 125h-4l6 14l-2 4q0 7 4 7t4 -5v-6zM1118 164h-20l-6 -23h-5l15 72h24
q25 0 25 -20q0 -29 -33 -29zM1106 207l-8 -39h20q27 0 27 25q0 14 -19 14h-20zM1171 141h-6l17 76h4zM1249 166h-43q-2 -2 -2 -4q0 -17 21 -17q11 0 18 7l2 -5q-12 -8 -20 -8q-25 0 -25 23q0 14 8.5 23.5t20.5 9.5q22 0 22 -23q0 -4 -2 -6zM1229 190q-20 0 -23 -20h39v2
q0 18 -16 18zM1321 195h6l-10 -54h-6l2 11q-7 -13 -21 -13q-22 0 -22 23q0 14 8 23.5t20 9.5q17 0 21 -15zM1292 145q11 0 18 7.5t7 19.5q0 18 -19 18q-10 0 -17 -8t-7 -20q0 -17 18 -17zM1360 145q18 0 18 11q0 6 -15 9t-15 13q0 17 22 17q9 0 16 -7l-2 -4q-6 6 -16 6
q-16 0 -16 -12q0 -6 15 -9t15 -13q0 -17 -22 -17q-13 0 -21 8l4 5q7 -7 17 -7zM1452 166h-45v-4q0 -17 18 -17q12 0 19 7l2 -5q-8 -8 -21 -8q-22 0 -22 23q0 14 7.5 23.5t19.5 9.5q22 0 22 -23v-6zM1430 190q-16 0 -23 -20h41v2q0 18 -18 18zM1532 141h-4l-19 72h7l16 -66
l41 66h4zM1602 211q0 -4 -5 -4q-4 0 -4 4t4 4q5 0 5 -4zM1581 141l10 54h6l-10 -54h-6zM1640 190q-16 0 -16 -12q0 -6 14.5 -9t14.5 -13q0 -17 -23 -17q-12 0 -20 8l4 5q7 -7 18 -7q17 0 17 11q0 6 -15.5 9t-15.5 13q0 17 22 17q10 0 17 -7l-2 -4q-6 6 -15 6zM1673 141
l10 54h7l-13 -54h-4zM1694 211q0 -4 -4 -4t-4 4t4 4t4 -4zM1722 205h4l-2 -10h17v-7h-17l-6 -32q-2 -2 -2 -4q0 -9 8 -9q5 0 9 4l2 -4q-4 -4 -11 -4q-12 0 -12 13v4l6 32h-8v7h10zM3217 1655v-8h-3102v8h3102zM3217 1987v-9h-3102v9h3102zM3217 2023v-8h-3102v8h3102z
M119 -207v8h3103v-8h-3103zM119 -170v8h3103v-8h-3103zM1774 168h1448v-8h-1448v8zM2064 430q-4 0 -8 -7.5t-4 -16.5q0 -25 14 -25q5 0 7.5 -3.5t-0.5 -8.5q-10 -13 -39 -13q-20 0 -24 6t1 29q6 33 -12 51q-21 14 -21 52q0 20 5.5 27t19.5 7q15 0 18 -6.5t-2 -29.5
q-4 -26 -1 -32t18 -3t18.5 17t3.5 63q-2 68 11 70q3 1 8 -1q12 -3 16 -16t4 -47q-1 -49 -11 -81t-22 -32zM1950 575q-12 -5 -16.5 -23.5t-4.5 -70.5q0 -85 13 -94q17 -11 11 -21t-28 -10q-19 0 -22 13t0 84v10q4 90 -3 98q-4 5 -20 0q-15 -6 -20 -2t-5 19q0 17 9.5 21.5
t44.5 4.5q58 0 76 6q11 5 14.5 0t3.5 -24q0 -29 -12 -33q-9 -3 -14 14q-1 1 -1 2q-6 13 -26 6zM2200 449q-28 -15 -36 -45q-6 -23 13 -23q6 0 7.5 -3.5t-1.5 -8.5q-7 -13 -31 -13q-8 0 -12 3.5t-7.5 17t-4.5 36.5t-2 66l-4 125h45q38 0 61 -18.5t23 -50.5q0 -34 -11 -53.5
t-40 -32.5zM2161 506q12 -64 51 -25q25 26 11 61.5t-48 35.5q-13 0 -17.5 -6t-3.5 -20.5t7 -45.5zM2468 670q-23 9 -45.5 25t-30.5 28q-19 26 -29 27.5t-18 -23.5q-11 -26 -45 -43t-81 -7.5t-73 38.5q-20 23 -45 12q-65 -36 -123 25q-25 25 -30.5 43.5t-5.5 78.5
q0 89 -17 89q-20 0 -32.5 -38.5t-12.5 -97.5q0 -56 -10.5 -76t-44.5 -26q-23 -3 -33 -41q-13 -69 -50 -96t-93 -8q-34 11 -69 47t-42 69q-4 19 -13.5 22.5t-41.5 0.5q-31 -5 -46.5 -1t-35.5 23l-31 29l-24 -33q-23 -35 -68 -35h-43v-65q0 -133 -92 -133q-42 0 -72 26
q-32 22 -53 88q-13 47 -15 135t3 445q0 108 -13 111q-8 4 -24 -22t-32 -67t-24 -77q-13 -77 -20 -279l-8 -215l-49 8q-46 3 -64 21q-13 13 -20 201q-6 152 -18.5 205t-41.5 53q-51 0 -94 -72t-43 -156q0 -60 20 -90t66 -39q39 -7 36 -18q-4 -16 -64 -20q-34 -2 -68 3
q-55 8 -99 52q-31 31 -36 47.5t-2 73.5q5 69 31 115t83 83q68 44 152.5 41t134.5 -51q23 -23 33 -16t10 45q0 21 18 84q22 74 66 107.5t92 17t80 -79.5q15 -32 18 -87.5t0 -256.5q-2 -237 3.5 -302t27.5 -65q32 0 39 76.5t-22 126.5q-34 56 -20.5 130.5t63.5 106.5
q32 22 88 17q55 -7 55 2q0 13 23 16.5t55 -4.5l45 -12l4 -121q3 -130 15 -119q14 15 22 197q7 199 2 202q-7 7 -90 11q-51 5 -80 0.5t-66 -21.5q-63 -29 -98 -19q-22 5 -6 25q22 25 94 41t133 9q75 -7 103 -15q19 -4 25.5 8t17.5 68q12 65 26 76t70 -2q20 -6 22 -20.5
t-4 -80.5l-8 -90h33q20 0 26.5 8t12.5 41q17 114 98.5 182t167.5 42q44 -12 67 -38.5t29 -72.5q12 -107 -110 -168q-68 -31 -99 -31q-23 0 -28.5 -8.5t-8.5 -44.5q-4 -51 0 -92l2 -39l37 37q23 23 37.5 29t34.5 0q47 -10 70 -45.5t34 -112.5q8 -58 18 -79.5t19 0t13 79.5
q3 56 10.5 74t36.5 43q26 24 42 29.5t50 0.5q53 -4 70 -14q21 -6 26 18q13 43 90 13l33 -13l-10 -122q-4 -78 -2 -107t14 -49q29 -43 71.5 -28.5t82.5 81.5q31 54 34 127q0 61 -20 91t-66 42q-39 10 -37 20q3 14 74 17q86 4 141.5 -37.5t59.5 -107.5t-43 -146
q-61 -93 -180 -116q-44 -9 -66.5 -8t-60.5 14zM1888 1286q-33 -105 -26 -119q7 -12 56 13q4 2 9 4q63 32 90 83t8 105q-18 53 -58 34q-45 -22 -75 -109q-2 -5 -4 -11zM1329 788q15 31 17 101.5t-13 79.5q-26 18 -45 -30q-21 -55 -10 -132q5 -32 11.5 -44.5t16 -6.5t23.5 32z
M1702 643q39 -61 39 39q0 25 -2 61q-1 23 -8 113t-9 131q-7 129 -20 139q-28 18 -36 2q-9 -19 -9 -143q0 -275 45 -342zM2300 739q19 32 22 101.5t-12 89.5q-13 19 -18.5 18t-20.5 -26q-20 -29 -27 -75t1 -87q6 -37 23 -43.5t32 22.5zM2386 563q-86 39 -86 -26
q0 -25 16.5 -32.5t28.5 11.5q6 11 13.5 12.5t12.5 -7t5 -23.5q0 -20 -6 -24t-31 1q-28 6 -33.5 0.5t-5.5 -37.5q0 -29 5 -37t24 -8q26 0 43 13q12 15 18 -13q5 -15 -0.5 -19.5t-30.5 -4.5q-33 0 -65 -9q-16 -4 -20 9q-5 16 -5 110v125h37q45 0 66 6q19 6 23 2.5t1 -22.5
q-1 -8 -3 -14.5t-4 -10t-3 -2.5zM301 -96h-22l-41 135h26l19 -68q1 -9 4 -24t4 -21h2q0 2 12 43l23 70h20l21 -68q6 -24 12 -45q2 12 10 45l21 68h22l-43 -135h-22l-21 65q-10 35 -12 43q-2 -8 -6 -22.5t-6 -22.5zM539 -96h-23l-41 135h27l16 -68q8 -33 10 -45h2q3 19 13 43
l20 70h21l22 -68q6 -24 12 -45q0 2 11 45l18 68h25l-43 -135h-23l-20 65q-1 5 -6 19.5t-7 23.5q-2 -8 -6 -22.5t-6 -22.5zM776 -96h-22l-41 135h24l19 -68q8 -33 10 -45q2 7 6 21.5t6 21.5l23 70h20l21 -68q9 -24 12 -45h2q2 12 10 45l19 68h24l-43 -135h-22l-21 65
q-9 22 -12 43q-2 -8 -6 -22.5t-6 -22.5zM963 -98q-17 0 -17 16q0 8 5 13.5t12 5.5q6 0 11 -6t5 -13q0 -16 -16 -16zM1153 -96h-25v78q0 41 -32 41q-25 0 -33 -27q0 -1 -1 -4.5t-1 -5.5v-82h-25v98v37h21l2 -23q18 27 45 27q18 0 33.5 -14t15.5 -45v-80zM1210 -61q0 51 80 51
v2q0 33 -30 33q-17 0 -35 -11l-6 17q24 12 45 12q51 0 51 -55v-51q0 -23 2 -33h-23l-2 16q-14 -18 -41 -18q-20 0 -30.5 11t-10.5 26zM1292 -27q-57 0 -57 -30q0 -25 22 -25q24 0 33 23q0 2 1 4.5t1 3.5v24zM1446 20h-35v-73q0 -27 19 -27q3 0 8 1t6 1l2 -18q-6 -2 -23 -2
q-19 0 -26 10q-11 11 -11 35v73h-20v19h20v33l25 6v-39h35v-19zM1618 -96h-25v78q0 41 -32 41q-21 0 -33 -25v-12v-82h-27v198h27v-84q8 11 16 17q16 8 27 8q18 0 32.5 -14t14.5 -45v-80zM1729 43q51 0 51 -55v-51q0 -6 1 -17t1 -16h-21l-2 16h-2q-14 -18 -41 -18
q-19 0 -30 11t-11 26q0 51 80 51v2q0 33 -31 33q-16 0 -34 -11l-4 17q20 12 43 12zM1757 -51v24q-57 0 -57 -30q0 -25 22 -25q24 0 33 23q0 2 1 4.5t1 3.5zM1853 72l23 6v-39h37v-19h-37v-73q0 -27 18 -27q4 0 9 1t6 1l2 -18q-4 -2 -23 -2q-18 0 -26 10q-9 9 -9 35v73h-22
v19h22v33zM1980 -125q14 7 21 27q2 2 2 6v6l-51 125h26l31 -80q3 -12 8 -27q5 15 8 27l29 80h25l-37 -96q-22 -64 -45 -84q-17 -17 -31 -17l-6 21q12 4 20 12zM2154 -152h-24v148q0 31 -2 43h22l2 -23q17 27 48 27q25 0 41 -19.5t16 -50.5q0 -35 -17.5 -53t-44.5 -18
q-30 0 -41 20v-74zM2154 -18v-23v-10q3 -12 14 -20.5t23 -8.5q41 0 41 51q0 23 -10.5 37.5t-28.5 14.5q-12 0 -22.5 -9t-13.5 -22q-3 -3 -3 -10zM2427 -23q0 -2 -1 -5.5t-1 -4.5h-94q0 -23 13.5 -35t33.5 -12q22 0 37 6l4 -16q-16 -8 -45 -8q-31 0 -49.5 18t-18.5 49
t17.5 52.5t46.5 21.5q30 0 43.5 -20.5t13.5 -45.5zM2331 -16h71q0 41 -35 41q-31 0 -36 -41zM2509 -82q0 -16 -17 -16q-16 0 -16 16q0 19 16 19q7 0 12 -5.5t5 -13.5zM2630 23q-22 0 -34.5 -14.5t-12.5 -37.5t13 -37t34 -14q6 0 30 6l4 -18q-18 -6 -38 -6q-31 0 -49.5 18
t-18.5 49q0 32 20 52t52 20q25 0 34 -6l-6 -19q-21 7 -28 7zM2841 -27q0 -36 -20 -53.5t-48 -17.5q-27 0 -45 19t-18 50q0 33 18.5 52.5t48.5 19.5q29 0 46.5 -19.5t17.5 -50.5zM2734 -29q0 -23 11 -37t30 -14q18 0 29.5 14t11.5 37q0 20 -10.5 37t-30.5 17t-30.5 -16.5
t-10.5 -37.5zM3095 -96h-25v76q0 43 -31 43q-20 0 -28 -23q0 -2 -1 -6t-1 -6v-84h-23v82q0 16 -8 26.5t-21 10.5q-22 0 -30 -25q-2 -4 -2 -12v-82h-25v98v37h20l2 -23q15 27 44 27q27 0 38 -29q7 14 15 19q13 10 30 10t31.5 -13.5t14.5 -45.5v-80z" />
    <glyph glyph-name="eight" unicode="8" horiz-adv-x="3254" 
d="M115 1888h63q28 0 45 -14t17 -39t-17 -39t-45 -14h-28v-39h-35v145zM207 1835q0 27 -31 27h-26v-52h26q31 0 31 25zM420 1862h-76v-33h66v-27h-66v-33h78v-26h-111v145h109v-26zM621 1835q0 -32 -29 -45l31 -47h-35l-27 41h-2h-29v-41h-32v145h61q28 0 45 -14t17 -39z
M557 1810q31 0 31 25q0 27 -31 27h-27v-52h27zM743 1767q27 0 27 15q0 11 -20.5 16t-41 14.5t-20.5 32.5q0 20 15.5 32.5t44.5 12.5q31 0 49 -12l-11 -27q-20 13 -38 13q-27 0 -27 -17q0 -11 20.5 -15t41 -13.5t20.5 -32.5q0 -20 -16 -32.5t-46 -12.5q-38 0 -57 16l12 25
q19 -15 47 -15zM866 1815q0 33 22 54t56 21q33 0 55.5 -21t22.5 -54q0 -32 -22.5 -53t-55.5 -21q-34 0 -56 21t-22 53zM987 1815q0 21 -12 34t-31 13q-20 0 -32.5 -12.5t-12.5 -34.5q0 -20 12.5 -33t32.5 -13q19 0 31 13t12 33zM1122 1888l72 -88v88h31v-145h-27l-70 88v-88
h-32v145h26zM1290 1743l64 145h32l64 -145h-35l-12 31h-68l-12 -31h-33zM1393 1800l-23 55l-22 -55h45zM1513 1888h33v-119h72v-26h-105v145zM1790 1888h33v-80q0 -39 32 -39q31 0 31 39v80h33v-82q0 -32 -17 -48.5t-47 -16.5q-65 0 -65 65v82zM2048 1767q27 0 27 15
q0 11 -20.5 16t-41 14.5t-20.5 32.5q0 20 15 32.5t44 12.5q31 0 49 -12l-10 -27q-19 13 -39 13q-27 0 -27 -17q0 -11 20.5 -15t41 -13.5t20.5 -32.5q0 -20 -15 -32.5t-44 -12.5q-38 0 -57 16l10 25q23 -15 47 -15zM2288 1862h-76v-33h67v-27h-67v-33h78v-26h-111v145h109
v-26zM2462 1815q0 33 23 54t57 21q33 0 55 -21t22 -54q0 -32 -22 -53t-55 -21q-34 0 -57 21t-23 53zM2585 1815q0 21 -12 34t-31 13q-20 0 -32.5 -12.5t-12.5 -34.5q0 -20 12.5 -33t32.5 -13q19 0 31 13t12 33zM2720 1888l71 -88v88h31v-145h-26l-70 88v-88h-33v145h27z
M2906 1888h33v-119h72v-26h-105v145zM3131 1743h-32v51l-56 94h35l39 -65l37 65h33l-56 -94v-51zM143 176v-4h-39l-6 -31h-4l15 72h47l-2 -6h-41l-7 -31h37zM162 162q0 14 9 23.5t22 9.5q9 0 15.5 -6.5t6.5 -16.5q0 -14 -9 -23.5t-22 -9.5q-10 0 -16 7t-6 16zM209 172
q0 18 -19 18q-10 0 -17 -8t-7 -20q0 -17 18 -17q11 0 18 7.5t7 19.5zM244 195h4l-2 -13q10 13 22 13v-7h-2q-19 0 -22 -20l-6 -27h-5zM360 207q-17 0 -26.5 -10.5t-9.5 -26.5q0 -25 26 -25q17 0 23 9l4 -4q-11 -11 -27 -11q-15 0 -24 8.5t-9 22.5q0 18 11.5 30.5t31.5 12.5
q15 0 25 -10l-4 -4q-5 8 -21 8zM446 172q0 -14 -8.5 -23.5t-21.5 -9.5q-9 0 -16 7t-7 16q0 14 9 23.5t22 9.5q22 0 22 -23zM418 145q11 0 17.5 7.5t6.5 19.5q0 8 -5 13t-13 5q-11 0 -18 -8t-7 -20q0 -17 19 -17zM475 195h6l-2 -11q7 11 21 11q13 0 16 -13q10 13 23 13
q18 0 18 -17v-6l-6 -31h-4l6 31v4q0 14 -14 14q-20 0 -23 -20l-6 -29h-4l6 31v4q0 14 -14 14q-16 0 -23 -20l-4 -29h-6zM655 195q17 0 17 -17v-6l-6 -31h-4l6 31v4q0 14 -15 14t-22 -20l-4 -29h-6l6 31v4q0 14 -15 14q-17 0 -20 -20l-6 -29h-6l10 54h6l-2 -11q7 11 20 11
q16 0 19 -13q7 13 22 13zM745 166h-45v-4q0 -17 19 -17q11 0 18 7l2 -5q-8 -8 -20 -8q-11 0 -18 6.5t-7 16.5q0 14 8.5 23.5t20.5 9.5q22 0 22 -23v-6zM723 190q-8 0 -15 -5.5t-8 -14.5h41v2q0 18 -18 18zM774 195h6l-2 -13q6 13 21 13v-7h-2q-17 0 -23 -20l-4 -27h-6z
M840 190q-11 0 -18 -8t-7 -20q0 -7 5.5 -12t13.5 -5q11 0 18 7l4 -2q-11 -11 -22 -11q-10 0 -16.5 7t-6.5 16q0 14 8.5 23.5t20.5 9.5q13 0 20 -11l-4 -2q-8 8 -16 8zM897 211q0 -4 -6 -4q-4 0 -4 4t6 4q4 0 4 -4zM877 141l10 54h4l-10 -54h-4zM956 141h-4l2 11
q-6 -13 -22 -13q-9 0 -16 6.5t-7 16.5q0 14 9 23.5t22 9.5q14 0 21 -15l2 15h4zM934 145q11 0 17.5 7.5t6.5 19.5q0 8 -5 13t-13 5q-11 0 -18 -8t-7 -20q0 -17 19 -17zM991 141h-4l14 76h7zM1018 125h-4l6 14l-2 4q0 7 4 7t4 -5v-6zM1118 164h-20l-6 -23h-5l15 72h24
q25 0 25 -20q0 -29 -33 -29zM1106 207l-8 -39h20q27 0 27 25q0 14 -19 14h-20zM1171 141h-6l17 76h4zM1249 166h-43q-2 -2 -2 -4q0 -17 21 -17q11 0 18 7l2 -5q-12 -8 -20 -8q-25 0 -25 23q0 14 8.5 23.5t20.5 9.5q22 0 22 -23q0 -4 -2 -6zM1229 190q-20 0 -23 -20h39v2
q0 18 -16 18zM1321 195h6l-10 -54h-6l2 11q-7 -13 -21 -13q-22 0 -22 23q0 14 8 23.5t20 9.5q17 0 21 -15zM1292 145q11 0 18 7.5t7 19.5q0 18 -19 18q-10 0 -17 -8t-7 -20q0 -17 18 -17zM1360 145q18 0 18 11q0 6 -15 9t-15 13q0 17 22 17q9 0 16 -7l-2 -4q-6 6 -16 6
q-16 0 -16 -12q0 -6 15 -9t15 -13q0 -17 -22 -17q-13 0 -21 8l4 5q7 -7 17 -7zM1452 166h-45v-4q0 -17 18 -17q12 0 19 7l2 -5q-8 -8 -21 -8q-22 0 -22 23q0 14 7.5 23.5t19.5 9.5q22 0 22 -23v-6zM1430 190q-16 0 -23 -20h41v2q0 18 -18 18zM1532 141h-4l-19 72h7l16 -66
l41 66h4zM1602 211q0 -4 -5 -4q-4 0 -4 4t4 4q5 0 5 -4zM1581 141l10 54h6l-10 -54h-6zM1640 190q-16 0 -16 -12q0 -6 14.5 -9t14.5 -13q0 -17 -23 -17q-12 0 -20 8l4 5q7 -7 18 -7q17 0 17 11q0 6 -15.5 9t-15.5 13q0 17 22 17q10 0 17 -7l-2 -4q-6 6 -15 6zM1673 141
l10 54h7l-13 -54h-4zM1694 211q0 -4 -4 -4t-4 4t4 4t4 -4zM1722 205h4l-2 -10h17v-7h-17l-6 -32q-2 -2 -2 -4q0 -9 8 -9q5 0 9 4l2 -4q-4 -4 -11 -4q-12 0 -12 13v4l6 32h-8v7h10zM3217 1655v-8h-3102v8h3102zM3217 1987v-9h-3102v9h3102zM3217 2023v-8h-3102v8h3102z
M119 -207v8h3103v-8h-3103zM119 -170v8h3103v-8h-3103zM1774 168h1448v-8h-1448v8zM2064 430q-4 0 -8 -7.5t-4 -16.5q0 -25 14 -25q5 0 7.5 -3.5t-0.5 -8.5q-10 -13 -39 -13q-20 0 -24 6t1 29q6 33 -12 51q-21 14 -21 52q0 20 5.5 27t19.5 7q15 0 18 -6.5t-2 -29.5
q-4 -26 -1 -32t18 -3t18.5 17t3.5 63q-2 68 11 70q3 1 8 -1q12 -3 16 -16t4 -47q-1 -49 -11 -81t-22 -32zM1950 575q-12 -5 -16.5 -23.5t-4.5 -70.5q0 -85 13 -94q17 -11 11 -21t-28 -10q-19 0 -22 13t0 84v10q4 90 -3 98q-4 5 -20 0q-15 -6 -20 -2t-5 19q0 17 9.5 21.5
t44.5 4.5q58 0 76 6q11 5 14.5 0t3.5 -24q0 -29 -12 -33q-9 -3 -14 14q-1 1 -1 2q-6 13 -26 6zM2200 449q-28 -15 -36 -45q-6 -23 13 -23q6 0 7.5 -3.5t-1.5 -8.5q-7 -13 -31 -13q-8 0 -12 3.5t-7.5 17t-4.5 36.5t-2 66l-4 125h45q38 0 61 -18.5t23 -50.5q0 -34 -11 -53.5
t-40 -32.5zM2161 506q12 -64 51 -25q25 26 11 61.5t-48 35.5q-13 0 -17.5 -6t-3.5 -20.5t7 -45.5zM2468 670q-23 9 -45.5 25t-30.5 28q-19 26 -29 27.5t-18 -23.5q-11 -26 -45 -43t-81 -7.5t-73 38.5q-20 23 -45 12q-65 -36 -123 25q-25 25 -30.5 43.5t-5.5 78.5
q0 89 -17 89q-20 0 -32.5 -38.5t-12.5 -97.5q0 -56 -10.5 -76t-44.5 -26q-23 -3 -33 -41q-13 -69 -50 -96t-93 -8q-34 11 -69 47t-42 69q-4 19 -13.5 22.5t-41.5 0.5q-31 -5 -46.5 -1t-35.5 23l-31 29l-24 -33q-23 -35 -68 -35h-43v-65q0 -133 -92 -133q-42 0 -72 26
q-32 22 -53 88q-13 47 -15 135t3 445q0 108 -13 111q-8 4 -24 -22t-32 -67t-24 -77q-13 -77 -20 -279l-8 -215l-49 8q-46 3 -64 21q-13 13 -20 201q-6 152 -18.5 205t-41.5 53q-51 0 -94 -72t-43 -156q0 -60 20 -90t66 -39q39 -7 36 -18q-4 -16 -64 -20q-34 -2 -68 3
q-55 8 -99 52q-31 31 -36 47.5t-2 73.5q5 69 31 115t83 83q68 44 152.5 41t134.5 -51q23 -23 33 -16t10 45q0 21 18 84q22 74 66 107.5t92 17t80 -79.5q15 -32 18 -87.5t0 -256.5q-2 -237 3.5 -302t27.5 -65q32 0 39 76.5t-22 126.5q-34 56 -20.5 130.5t63.5 106.5
q32 22 88 17q55 -7 55 2q0 13 23 16.5t55 -4.5l45 -12l4 -121q3 -130 15 -119q14 15 22 197q7 199 2 202q-7 7 -90 11q-51 5 -80 0.5t-66 -21.5q-63 -29 -98 -19q-22 5 -6 25q22 25 94 41t133 9q75 -7 103 -15q19 -4 25.5 8t17.5 68q12 65 26 76t70 -2q20 -6 22 -20.5
t-4 -80.5l-8 -90h33q20 0 26.5 8t12.5 41q17 114 98.5 182t167.5 42q44 -12 67 -38.5t29 -72.5q12 -107 -110 -168q-68 -31 -99 -31q-23 0 -28.5 -8.5t-8.5 -44.5q-4 -51 0 -92l2 -39l37 37q23 23 37.5 29t34.5 0q47 -10 70 -45.5t34 -112.5q8 -58 18 -79.5t19 0t13 79.5
q3 56 10.5 74t36.5 43q26 24 42 29.5t50 0.5q53 -4 70 -14q21 -6 26 18q13 43 90 13l33 -13l-10 -122q-4 -78 -2 -107t14 -49q29 -43 71.5 -28.5t82.5 81.5q31 54 34 127q0 61 -20 91t-66 42q-39 10 -37 20q3 14 74 17q86 4 141.5 -37.5t59.5 -107.5t-43 -146
q-61 -93 -180 -116q-44 -9 -66.5 -8t-60.5 14zM1888 1286q-33 -105 -26 -119q7 -12 56 13q4 2 9 4q63 32 90 83t8 105q-18 53 -58 34q-45 -22 -75 -109q-2 -5 -4 -11zM1329 788q15 31 17 101.5t-13 79.5q-26 18 -45 -30q-21 -55 -10 -132q5 -32 11.5 -44.5t16 -6.5t23.5 32z
M1702 643q39 -61 39 39q0 25 -2 61q-1 23 -8 113t-9 131q-7 129 -20 139q-28 18 -36 2q-9 -19 -9 -143q0 -275 45 -342zM2300 739q19 32 22 101.5t-12 89.5q-13 19 -18.5 18t-20.5 -26q-20 -29 -27 -75t1 -87q6 -37 23 -43.5t32 22.5zM2386 563q-86 39 -86 -26
q0 -25 16.5 -32.5t28.5 11.5q6 11 13.5 12.5t12.5 -7t5 -23.5q0 -20 -6 -24t-31 1q-28 6 -33.5 0.5t-5.5 -37.5q0 -29 5 -37t24 -8q26 0 43 13q12 15 18 -13q5 -15 -0.5 -19.5t-30.5 -4.5q-33 0 -65 -9q-16 -4 -20 9q-5 16 -5 110v125h37q45 0 66 6q19 6 23 2.5t1 -22.5
q-1 -8 -3 -14.5t-4 -10t-3 -2.5zM301 -96h-22l-41 135h26l19 -68q1 -9 4 -24t4 -21h2q0 2 12 43l23 70h20l21 -68q6 -24 12 -45q2 12 10 45l21 68h22l-43 -135h-22l-21 65q-10 35 -12 43q-2 -8 -6 -22.5t-6 -22.5zM539 -96h-23l-41 135h27l16 -68q8 -33 10 -45h2q3 19 13 43
l20 70h21l22 -68q6 -24 12 -45q0 2 11 45l18 68h25l-43 -135h-23l-20 65q-1 5 -6 19.5t-7 23.5q-2 -8 -6 -22.5t-6 -22.5zM776 -96h-22l-41 135h24l19 -68q8 -33 10 -45q2 7 6 21.5t6 21.5l23 70h20l21 -68q9 -24 12 -45h2q2 12 10 45l19 68h24l-43 -135h-22l-21 65
q-9 22 -12 43q-2 -8 -6 -22.5t-6 -22.5zM963 -98q-17 0 -17 16q0 8 5 13.5t12 5.5q6 0 11 -6t5 -13q0 -16 -16 -16zM1153 -96h-25v78q0 41 -32 41q-25 0 -33 -27q0 -1 -1 -4.5t-1 -5.5v-82h-25v98v37h21l2 -23q18 27 45 27q18 0 33.5 -14t15.5 -45v-80zM1210 -61q0 51 80 51
v2q0 33 -30 33q-17 0 -35 -11l-6 17q24 12 45 12q51 0 51 -55v-51q0 -23 2 -33h-23l-2 16q-14 -18 -41 -18q-20 0 -30.5 11t-10.5 26zM1292 -27q-57 0 -57 -30q0 -25 22 -25q24 0 33 23q0 2 1 4.5t1 3.5v24zM1446 20h-35v-73q0 -27 19 -27q3 0 8 1t6 1l2 -18q-6 -2 -23 -2
q-19 0 -26 10q-11 11 -11 35v73h-20v19h20v33l25 6v-39h35v-19zM1618 -96h-25v78q0 41 -32 41q-21 0 -33 -25v-12v-82h-27v198h27v-84q8 11 16 17q16 8 27 8q18 0 32.5 -14t14.5 -45v-80zM1729 43q51 0 51 -55v-51q0 -6 1 -17t1 -16h-21l-2 16h-2q-14 -18 -41 -18
q-19 0 -30 11t-11 26q0 51 80 51v2q0 33 -31 33q-16 0 -34 -11l-4 17q20 12 43 12zM1757 -51v24q-57 0 -57 -30q0 -25 22 -25q24 0 33 23q0 2 1 4.5t1 3.5zM1853 72l23 6v-39h37v-19h-37v-73q0 -27 18 -27q4 0 9 1t6 1l2 -18q-4 -2 -23 -2q-18 0 -26 10q-9 9 -9 35v73h-22
v19h22v33zM1980 -125q14 7 21 27q2 2 2 6v6l-51 125h26l31 -80q3 -12 8 -27q5 15 8 27l29 80h25l-37 -96q-22 -64 -45 -84q-17 -17 -31 -17l-6 21q12 4 20 12zM2154 -152h-24v148q0 31 -2 43h22l2 -23q17 27 48 27q25 0 41 -19.5t16 -50.5q0 -35 -17.5 -53t-44.5 -18
q-30 0 -41 20v-74zM2154 -18v-23v-10q3 -12 14 -20.5t23 -8.5q41 0 41 51q0 23 -10.5 37.5t-28.5 14.5q-12 0 -22.5 -9t-13.5 -22q-3 -3 -3 -10zM2427 -23q0 -2 -1 -5.5t-1 -4.5h-94q0 -23 13.5 -35t33.5 -12q22 0 37 6l4 -16q-16 -8 -45 -8q-31 0 -49.5 18t-18.5 49
t17.5 52.5t46.5 21.5q30 0 43.5 -20.5t13.5 -45.5zM2331 -16h71q0 41 -35 41q-31 0 -36 -41zM2509 -82q0 -16 -17 -16q-16 0 -16 16q0 19 16 19q7 0 12 -5.5t5 -13.5zM2630 23q-22 0 -34.5 -14.5t-12.5 -37.5t13 -37t34 -14q6 0 30 6l4 -18q-18 -6 -38 -6q-31 0 -49.5 18
t-18.5 49q0 32 20 52t52 20q25 0 34 -6l-6 -19q-21 7 -28 7zM2841 -27q0 -36 -20 -53.5t-48 -17.5q-27 0 -45 19t-18 50q0 33 18.5 52.5t48.5 19.5q29 0 46.5 -19.5t17.5 -50.5zM2734 -29q0 -23 11 -37t30 -14q18 0 29.5 14t11.5 37q0 20 -10.5 37t-30.5 17t-30.5 -16.5
t-10.5 -37.5zM3095 -96h-25v76q0 43 -31 43q-20 0 -28 -23q0 -2 -1 -6t-1 -6v-84h-23v82q0 16 -8 26.5t-21 10.5q-22 0 -30 -25q-2 -4 -2 -12v-82h-25v98v37h20l2 -23q15 27 44 27q27 0 38 -29q7 14 15 19q13 10 30 10t31.5 -13.5t14.5 -45.5v-80z" />
    <glyph glyph-name="nine" unicode="9" horiz-adv-x="3254" 
d="M115 1888h63q28 0 45 -14t17 -39t-17 -39t-45 -14h-28v-39h-35v145zM207 1835q0 27 -31 27h-26v-52h26q31 0 31 25zM420 1862h-76v-33h66v-27h-66v-33h78v-26h-111v145h109v-26zM621 1835q0 -32 -29 -45l31 -47h-35l-27 41h-2h-29v-41h-32v145h61q28 0 45 -14t17 -39z
M557 1810q31 0 31 25q0 27 -31 27h-27v-52h27zM743 1767q27 0 27 15q0 11 -20.5 16t-41 14.5t-20.5 32.5q0 20 15.5 32.5t44.5 12.5q31 0 49 -12l-11 -27q-20 13 -38 13q-27 0 -27 -17q0 -11 20.5 -15t41 -13.5t20.5 -32.5q0 -20 -16 -32.5t-46 -12.5q-38 0 -57 16l12 25
q19 -15 47 -15zM866 1815q0 33 22 54t56 21q33 0 55.5 -21t22.5 -54q0 -32 -22.5 -53t-55.5 -21q-34 0 -56 21t-22 53zM987 1815q0 21 -12 34t-31 13q-20 0 -32.5 -12.5t-12.5 -34.5q0 -20 12.5 -33t32.5 -13q19 0 31 13t12 33zM1122 1888l72 -88v88h31v-145h-27l-70 88v-88
h-32v145h26zM1290 1743l64 145h32l64 -145h-35l-12 31h-68l-12 -31h-33zM1393 1800l-23 55l-22 -55h45zM1513 1888h33v-119h72v-26h-105v145zM1790 1888h33v-80q0 -39 32 -39q31 0 31 39v80h33v-82q0 -32 -17 -48.5t-47 -16.5q-65 0 -65 65v82zM2048 1767q27 0 27 15
q0 11 -20.5 16t-41 14.5t-20.5 32.5q0 20 15 32.5t44 12.5q31 0 49 -12l-10 -27q-19 13 -39 13q-27 0 -27 -17q0 -11 20.5 -15t41 -13.5t20.5 -32.5q0 -20 -15 -32.5t-44 -12.5q-38 0 -57 16l10 25q23 -15 47 -15zM2288 1862h-76v-33h67v-27h-67v-33h78v-26h-111v145h109
v-26zM2462 1815q0 33 23 54t57 21q33 0 55 -21t22 -54q0 -32 -22 -53t-55 -21q-34 0 -57 21t-23 53zM2585 1815q0 21 -12 34t-31 13q-20 0 -32.5 -12.5t-12.5 -34.5q0 -20 12.5 -33t32.5 -13q19 0 31 13t12 33zM2720 1888l71 -88v88h31v-145h-26l-70 88v-88h-33v145h27z
M2906 1888h33v-119h72v-26h-105v145zM3131 1743h-32v51l-56 94h35l39 -65l37 65h33l-56 -94v-51zM143 176v-4h-39l-6 -31h-4l15 72h47l-2 -6h-41l-7 -31h37zM162 162q0 14 9 23.5t22 9.5q9 0 15.5 -6.5t6.5 -16.5q0 -14 -9 -23.5t-22 -9.5q-10 0 -16 7t-6 16zM209 172
q0 18 -19 18q-10 0 -17 -8t-7 -20q0 -17 18 -17q11 0 18 7.5t7 19.5zM244 195h4l-2 -13q10 13 22 13v-7h-2q-19 0 -22 -20l-6 -27h-5zM360 207q-17 0 -26.5 -10.5t-9.5 -26.5q0 -25 26 -25q17 0 23 9l4 -4q-11 -11 -27 -11q-15 0 -24 8.5t-9 22.5q0 18 11.5 30.5t31.5 12.5
q15 0 25 -10l-4 -4q-5 8 -21 8zM446 172q0 -14 -8.5 -23.5t-21.5 -9.5q-9 0 -16 7t-7 16q0 14 9 23.5t22 9.5q22 0 22 -23zM418 145q11 0 17.5 7.5t6.5 19.5q0 8 -5 13t-13 5q-11 0 -18 -8t-7 -20q0 -17 19 -17zM475 195h6l-2 -11q7 11 21 11q13 0 16 -13q10 13 23 13
q18 0 18 -17v-6l-6 -31h-4l6 31v4q0 14 -14 14q-20 0 -23 -20l-6 -29h-4l6 31v4q0 14 -14 14q-16 0 -23 -20l-4 -29h-6zM655 195q17 0 17 -17v-6l-6 -31h-4l6 31v4q0 14 -15 14t-22 -20l-4 -29h-6l6 31v4q0 14 -15 14q-17 0 -20 -20l-6 -29h-6l10 54h6l-2 -11q7 11 20 11
q16 0 19 -13q7 13 22 13zM745 166h-45v-4q0 -17 19 -17q11 0 18 7l2 -5q-8 -8 -20 -8q-11 0 -18 6.5t-7 16.5q0 14 8.5 23.5t20.5 9.5q22 0 22 -23v-6zM723 190q-8 0 -15 -5.5t-8 -14.5h41v2q0 18 -18 18zM774 195h6l-2 -13q6 13 21 13v-7h-2q-17 0 -23 -20l-4 -27h-6z
M840 190q-11 0 -18 -8t-7 -20q0 -7 5.5 -12t13.5 -5q11 0 18 7l4 -2q-11 -11 -22 -11q-10 0 -16.5 7t-6.5 16q0 14 8.5 23.5t20.5 9.5q13 0 20 -11l-4 -2q-8 8 -16 8zM897 211q0 -4 -6 -4q-4 0 -4 4t6 4q4 0 4 -4zM877 141l10 54h4l-10 -54h-4zM956 141h-4l2 11
q-6 -13 -22 -13q-9 0 -16 6.5t-7 16.5q0 14 9 23.5t22 9.5q14 0 21 -15l2 15h4zM934 145q11 0 17.5 7.5t6.5 19.5q0 8 -5 13t-13 5q-11 0 -18 -8t-7 -20q0 -17 19 -17zM991 141h-4l14 76h7zM1018 125h-4l6 14l-2 4q0 7 4 7t4 -5v-6zM1118 164h-20l-6 -23h-5l15 72h24
q25 0 25 -20q0 -29 -33 -29zM1106 207l-8 -39h20q27 0 27 25q0 14 -19 14h-20zM1171 141h-6l17 76h4zM1249 166h-43q-2 -2 -2 -4q0 -17 21 -17q11 0 18 7l2 -5q-12 -8 -20 -8q-25 0 -25 23q0 14 8.5 23.5t20.5 9.5q22 0 22 -23q0 -4 -2 -6zM1229 190q-20 0 -23 -20h39v2
q0 18 -16 18zM1321 195h6l-10 -54h-6l2 11q-7 -13 -21 -13q-22 0 -22 23q0 14 8 23.5t20 9.5q17 0 21 -15zM1292 145q11 0 18 7.5t7 19.5q0 18 -19 18q-10 0 -17 -8t-7 -20q0 -17 18 -17zM1360 145q18 0 18 11q0 6 -15 9t-15 13q0 17 22 17q9 0 16 -7l-2 -4q-6 6 -16 6
q-16 0 -16 -12q0 -6 15 -9t15 -13q0 -17 -22 -17q-13 0 -21 8l4 5q7 -7 17 -7zM1452 166h-45v-4q0 -17 18 -17q12 0 19 7l2 -5q-8 -8 -21 -8q-22 0 -22 23q0 14 7.5 23.5t19.5 9.5q22 0 22 -23v-6zM1430 190q-16 0 -23 -20h41v2q0 18 -18 18zM1532 141h-4l-19 72h7l16 -66
l41 66h4zM1602 211q0 -4 -5 -4q-4 0 -4 4t4 4q5 0 5 -4zM1581 141l10 54h6l-10 -54h-6zM1640 190q-16 0 -16 -12q0 -6 14.5 -9t14.5 -13q0 -17 -23 -17q-12 0 -20 8l4 5q7 -7 18 -7q17 0 17 11q0 6 -15.5 9t-15.5 13q0 17 22 17q10 0 17 -7l-2 -4q-6 6 -15 6zM1673 141
l10 54h7l-13 -54h-4zM1694 211q0 -4 -4 -4t-4 4t4 4t4 -4zM1722 205h4l-2 -10h17v-7h-17l-6 -32q-2 -2 -2 -4q0 -9 8 -9q5 0 9 4l2 -4q-4 -4 -11 -4q-12 0 -12 13v4l6 32h-8v7h10zM3217 1655v-8h-3102v8h3102zM3217 1987v-9h-3102v9h3102zM3217 2023v-8h-3102v8h3102z
M119 -207v8h3103v-8h-3103zM119 -170v8h3103v-8h-3103zM1774 168h1448v-8h-1448v8zM2064 430q-4 0 -8 -7.5t-4 -16.5q0 -25 14 -25q5 0 7.5 -3.5t-0.5 -8.5q-10 -13 -39 -13q-20 0 -24 6t1 29q6 33 -12 51q-21 14 -21 52q0 20 5.5 27t19.5 7q15 0 18 -6.5t-2 -29.5
q-4 -26 -1 -32t18 -3t18.5 17t3.5 63q-2 68 11 70q3 1 8 -1q12 -3 16 -16t4 -47q-1 -49 -11 -81t-22 -32zM1950 575q-12 -5 -16.5 -23.5t-4.5 -70.5q0 -85 13 -94q17 -11 11 -21t-28 -10q-19 0 -22 13t0 84v10q4 90 -3 98q-4 5 -20 0q-15 -6 -20 -2t-5 19q0 17 9.5 21.5
t44.5 4.5q58 0 76 6q11 5 14.5 0t3.5 -24q0 -29 -12 -33q-9 -3 -14 14q-1 1 -1 2q-6 13 -26 6zM2200 449q-28 -15 -36 -45q-6 -23 13 -23q6 0 7.5 -3.5t-1.5 -8.5q-7 -13 -31 -13q-8 0 -12 3.5t-7.5 17t-4.5 36.5t-2 66l-4 125h45q38 0 61 -18.5t23 -50.5q0 -34 -11 -53.5
t-40 -32.5zM2161 506q12 -64 51 -25q25 26 11 61.5t-48 35.5q-13 0 -17.5 -6t-3.5 -20.5t7 -45.5zM2468 670q-23 9 -45.5 25t-30.5 28q-19 26 -29 27.5t-18 -23.5q-11 -26 -45 -43t-81 -7.5t-73 38.5q-20 23 -45 12q-65 -36 -123 25q-25 25 -30.5 43.5t-5.5 78.5
q0 89 -17 89q-20 0 -32.5 -38.5t-12.5 -97.5q0 -56 -10.5 -76t-44.5 -26q-23 -3 -33 -41q-13 -69 -50 -96t-93 -8q-34 11 -69 47t-42 69q-4 19 -13.5 22.5t-41.5 0.5q-31 -5 -46.5 -1t-35.5 23l-31 29l-24 -33q-23 -35 -68 -35h-43v-65q0 -133 -92 -133q-42 0 -72 26
q-32 22 -53 88q-13 47 -15 135t3 445q0 108 -13 111q-8 4 -24 -22t-32 -67t-24 -77q-13 -77 -20 -279l-8 -215l-49 8q-46 3 -64 21q-13 13 -20 201q-6 152 -18.5 205t-41.5 53q-51 0 -94 -72t-43 -156q0 -60 20 -90t66 -39q39 -7 36 -18q-4 -16 -64 -20q-34 -2 -68 3
q-55 8 -99 52q-31 31 -36 47.5t-2 73.5q5 69 31 115t83 83q68 44 152.5 41t134.5 -51q23 -23 33 -16t10 45q0 21 18 84q22 74 66 107.5t92 17t80 -79.5q15 -32 18 -87.5t0 -256.5q-2 -237 3.5 -302t27.5 -65q32 0 39 76.5t-22 126.5q-34 56 -20.5 130.5t63.5 106.5
q32 22 88 17q55 -7 55 2q0 13 23 16.5t55 -4.5l45 -12l4 -121q3 -130 15 -119q14 15 22 197q7 199 2 202q-7 7 -90 11q-51 5 -80 0.5t-66 -21.5q-63 -29 -98 -19q-22 5 -6 25q22 25 94 41t133 9q75 -7 103 -15q19 -4 25.5 8t17.5 68q12 65 26 76t70 -2q20 -6 22 -20.5
t-4 -80.5l-8 -90h33q20 0 26.5 8t12.5 41q17 114 98.5 182t167.5 42q44 -12 67 -38.5t29 -72.5q12 -107 -110 -168q-68 -31 -99 -31q-23 0 -28.5 -8.5t-8.5 -44.5q-4 -51 0 -92l2 -39l37 37q23 23 37.5 29t34.5 0q47 -10 70 -45.5t34 -112.5q8 -58 18 -79.5t19 0t13 79.5
q3 56 10.5 74t36.5 43q26 24 42 29.5t50 0.5q53 -4 70 -14q21 -6 26 18q13 43 90 13l33 -13l-10 -122q-4 -78 -2 -107t14 -49q29 -43 71.5 -28.5t82.5 81.5q31 54 34 127q0 61 -20 91t-66 42q-39 10 -37 20q3 14 74 17q86 4 141.5 -37.5t59.5 -107.5t-43 -146
q-61 -93 -180 -116q-44 -9 -66.5 -8t-60.5 14zM1888 1286q-33 -105 -26 -119q7 -12 56 13q4 2 9 4q63 32 90 83t8 105q-18 53 -58 34q-45 -22 -75 -109q-2 -5 -4 -11zM1329 788q15 31 17 101.5t-13 79.5q-26 18 -45 -30q-21 -55 -10 -132q5 -32 11.5 -44.5t16 -6.5t23.5 32z
M1702 643q39 -61 39 39q0 25 -2 61q-1 23 -8 113t-9 131q-7 129 -20 139q-28 18 -36 2q-9 -19 -9 -143q0 -275 45 -342zM2300 739q19 32 22 101.5t-12 89.5q-13 19 -18.5 18t-20.5 -26q-20 -29 -27 -75t1 -87q6 -37 23 -43.5t32 22.5zM2386 563q-86 39 -86 -26
q0 -25 16.5 -32.5t28.5 11.5q6 11 13.5 12.5t12.5 -7t5 -23.5q0 -20 -6 -24t-31 1q-28 6 -33.5 0.5t-5.5 -37.5q0 -29 5 -37t24 -8q26 0 43 13q12 15 18 -13q5 -15 -0.5 -19.5t-30.5 -4.5q-33 0 -65 -9q-16 -4 -20 9q-5 16 -5 110v125h37q45 0 66 6q19 6 23 2.5t1 -22.5
q-1 -8 -3 -14.5t-4 -10t-3 -2.5zM301 -96h-22l-41 135h26l19 -68q1 -9 4 -24t4 -21h2q0 2 12 43l23 70h20l21 -68q6 -24 12 -45q2 12 10 45l21 68h22l-43 -135h-22l-21 65q-10 35 -12 43q-2 -8 -6 -22.5t-6 -22.5zM539 -96h-23l-41 135h27l16 -68q8 -33 10 -45h2q3 19 13 43
l20 70h21l22 -68q6 -24 12 -45q0 2 11 45l18 68h25l-43 -135h-23l-20 65q-1 5 -6 19.5t-7 23.5q-2 -8 -6 -22.5t-6 -22.5zM776 -96h-22l-41 135h24l19 -68q8 -33 10 -45q2 7 6 21.5t6 21.5l23 70h20l21 -68q9 -24 12 -45h2q2 12 10 45l19 68h24l-43 -135h-22l-21 65
q-9 22 -12 43q-2 -8 -6 -22.5t-6 -22.5zM963 -98q-17 0 -17 16q0 8 5 13.5t12 5.5q6 0 11 -6t5 -13q0 -16 -16 -16zM1153 -96h-25v78q0 41 -32 41q-25 0 -33 -27q0 -1 -1 -4.5t-1 -5.5v-82h-25v98v37h21l2 -23q18 27 45 27q18 0 33.5 -14t15.5 -45v-80zM1210 -61q0 51 80 51
v2q0 33 -30 33q-17 0 -35 -11l-6 17q24 12 45 12q51 0 51 -55v-51q0 -23 2 -33h-23l-2 16q-14 -18 -41 -18q-20 0 -30.5 11t-10.5 26zM1292 -27q-57 0 -57 -30q0 -25 22 -25q24 0 33 23q0 2 1 4.5t1 3.5v24zM1446 20h-35v-73q0 -27 19 -27q3 0 8 1t6 1l2 -18q-6 -2 -23 -2
q-19 0 -26 10q-11 11 -11 35v73h-20v19h20v33l25 6v-39h35v-19zM1618 -96h-25v78q0 41 -32 41q-21 0 -33 -25v-12v-82h-27v198h27v-84q8 11 16 17q16 8 27 8q18 0 32.5 -14t14.5 -45v-80zM1729 43q51 0 51 -55v-51q0 -6 1 -17t1 -16h-21l-2 16h-2q-14 -18 -41 -18
q-19 0 -30 11t-11 26q0 51 80 51v2q0 33 -31 33q-16 0 -34 -11l-4 17q20 12 43 12zM1757 -51v24q-57 0 -57 -30q0 -25 22 -25q24 0 33 23q0 2 1 4.5t1 3.5zM1853 72l23 6v-39h37v-19h-37v-73q0 -27 18 -27q4 0 9 1t6 1l2 -18q-4 -2 -23 -2q-18 0 -26 10q-9 9 -9 35v73h-22
v19h22v33zM1980 -125q14 7 21 27q2 2 2 6v6l-51 125h26l31 -80q3 -12 8 -27q5 15 8 27l29 80h25l-37 -96q-22 -64 -45 -84q-17 -17 -31 -17l-6 21q12 4 20 12zM2154 -152h-24v148q0 31 -2 43h22l2 -23q17 27 48 27q25 0 41 -19.5t16 -50.5q0 -35 -17.5 -53t-44.5 -18
q-30 0 -41 20v-74zM2154 -18v-23v-10q3 -12 14 -20.5t23 -8.5q41 0 41 51q0 23 -10.5 37.5t-28.5 14.5q-12 0 -22.5 -9t-13.5 -22q-3 -3 -3 -10zM2427 -23q0 -2 -1 -5.5t-1 -4.5h-94q0 -23 13.5 -35t33.5 -12q22 0 37 6l4 -16q-16 -8 -45 -8q-31 0 -49.5 18t-18.5 49
t17.5 52.5t46.5 21.5q30 0 43.5 -20.5t13.5 -45.5zM2331 -16h71q0 41 -35 41q-31 0 -36 -41zM2509 -82q0 -16 -17 -16q-16 0 -16 16q0 19 16 19q7 0 12 -5.5t5 -13.5zM2630 23q-22 0 -34.5 -14.5t-12.5 -37.5t13 -37t34 -14q6 0 30 6l4 -18q-18 -6 -38 -6q-31 0 -49.5 18
t-18.5 49q0 32 20 52t52 20q25 0 34 -6l-6 -19q-21 7 -28 7zM2841 -27q0 -36 -20 -53.5t-48 -17.5q-27 0 -45 19t-18 50q0 33 18.5 52.5t48.5 19.5q29 0 46.5 -19.5t17.5 -50.5zM2734 -29q0 -23 11 -37t30 -14q18 0 29.5 14t11.5 37q0 20 -10.5 37t-30.5 17t-30.5 -16.5
t-10.5 -37.5zM3095 -96h-25v76q0 43 -31 43q-20 0 -28 -23q0 -2 -1 -6t-1 -6v-84h-23v82q0 16 -8 26.5t-21 10.5q-22 0 -30 -25q-2 -4 -2 -12v-82h-25v98v37h20l2 -23q15 27 44 27q27 0 38 -29q7 14 15 19q13 10 30 10t31.5 -13.5t14.5 -45.5v-80z" />
    <glyph glyph-name="colon" unicode=":" horiz-adv-x="395" 
d="M274 903q-50 0 -84 34t-34 83q0 50 34.5 84.5t83.5 34.5q50 0 84.5 -34.5t34.5 -84.5q0 -49 -34.5 -83t-84.5 -34zM274 532q49 0 84 -34.5t35 -81.5q0 -50 -34.5 -84.5t-84.5 -34.5q-49 0 -83.5 34.5t-34.5 84.5q0 48 34.5 82t83.5 34z" />
    <glyph glyph-name="semicolon" unicode=";" horiz-adv-x="399" 
d="M274 903q-50 0 -84 34t-34 83q0 50 34.5 84.5t83.5 34.5q50 0 84.5 -34.5t34.5 -84.5q0 -49 -34.5 -83t-84.5 -34zM274 524q46 0 78.5 -32t32.5 -78q0 -9 -0.5 -25.5t-6.5 -62t-18 -85.5t-38 -86t-62 -75l-27 12q2 2 4.5 5t11 14.5t15 23.5t15 32t11.5 39.5t4.5 46
t-5.5 52.5q-53 0 -89 28t-36 81q0 46 32 78t78 32z" />
    <glyph glyph-name="less" unicode="&#x3c;" horiz-adv-x="546" 
d="M530 930l-290 -217l297 -224l-95 -94l-319 320l311 311z" />
    <glyph glyph-name="equal" unicode="=" horiz-adv-x="827" 
d="M827 772h-684v123h684v-123zM827 524h-684v125h684v-125z" />
    <glyph glyph-name="greater" unicode="&#x3e;" horiz-adv-x="548" 
d="M242 1026l311 -311l-320 -320l-94 94l297 224l-291 217z" />
    <glyph glyph-name="question" unicode="?" horiz-adv-x="1163" 
d="M705 1438q66 0 127.5 -7.5t130.5 -30.5t119 -59.5t83 -100.5t33 -148q0 -89 -27 -157.5t-70 -112t-95 -80t-104.5 -73.5t-95.5 -80.5t-70 -112t-27 -157.5h-60q0 87 18 154.5t46 111t62.5 80l69 73t62.5 80t46 111t18 154.5q0 99 -21.5 167t-60.5 102.5t-82.5 48.5
t-99.5 14q-53 0 -100 -15t-90 -48t-73 -93.5t-41 -142.5l-198 51q24 76 80.5 131.5t130 84.5t145.5 42t144 13zM682 279q57 0 97 -41.5t40 -98.5q0 -58 -40 -98.5t-97 -40.5q-58 0 -98.5 40t-40.5 99q0 57 40.5 98.5t98.5 41.5z" />
    <glyph glyph-name="at" unicode="@" horiz-adv-x="1177" 
d="M668 1206q143 0 258 -59t184.5 -177.5t65.5 -277.5q-1 -47 -7 -91t-21 -91t-37 -81.5t-58 -56.5t-82 -22q-70 0 -113 40t-43 108q-38 -121 -205 -121q-154 0 -231.5 61t-77.5 154q1 53 20 93.5t50 66t74 41.5t87 22t93 6q109 0 149 13t41 57q-2 80 -36 120t-109 40
q-40 0 -69.5 -12.5t-45.5 -31.5t-26 -47.5t-12.5 -53t-2.5 -54.5l-133 51q18 77 103 119.5t190 42.5q156 0 220 -52.5t64 -162.5v-303q0 -68 9.5 -102.5t36.5 -34.5q33 0 57.5 27.5t38 71t20 90t6.5 93.5q0 151 -62 259.5t-164.5 161t-231.5 52.5q-190 0 -324.5 -138
t-134.5 -333t134.5 -333t324.5 -138q139 0 258 82l32 -33q-132 -92 -290 -92q-138 0 -255 68.5t-185 186.5t-68 257q0 140 68 258.5t185 187t255 68.5zM815 575v222q-12 -1 -67.5 5.5t-92.5 6.5q-51 0 -89.5 -13.5t-61 -34.5t-36.5 -50t-19 -55.5t-5 -55.5q0 -61 17 -103.5
t46.5 -63.5t59 -29.5t64.5 -8.5q47 0 83 16.5t54.5 38.5t30 49.5t14 45t2.5 30.5z" />
    <glyph glyph-name="A" unicode="A" horiz-adv-x="1208" 
d="M152 240q-18 -56 -25 -101.5t-4 -70t9 -41.5t12 -22l6 -5h-191q4 2 10.5 5.5t25.5 21t37 41.5t42 70t43 102l401 1194h131l404 -1205q17 -50 39 -92t41.5 -66t36 -41t26.5 -24l10 -6h-377q2 2 5.5 7t10.5 24t9 42.5t-3.5 65t-21.5 90.5l-88 265h-503zM489 1243l-241 -723
h483z" />
    <glyph glyph-name="B" unicode="B" horiz-adv-x="1257" 
d="M98 0q3 2 8.5 6.5t19 22.5t23.5 41t18.5 65t8.5 92v979q0 50 -8 91.5t-19.5 66t-23 41.5t-19.5 23l-8 6h510q256 0 371 -72t115 -221q0 -141 -75.5 -214.5t-234.5 -92.5q227 -5 357.5 -115t130.5 -301t-138 -304.5t-368 -113.5h-668zM399 1413v-571h181q70 0 123 18.5
t84 47.5t50.5 69.5t26 79t6.5 82.5t-6 80t-24.5 73.5t-49 63t-84.5 41.5t-126 16h-181zM399 817v-797h234q77 0 138 11.5t114 40t88.5 73t55.5 113t20 158.5q0 403 -431 403q-4 0 -38 -0.5t-84.5 -1t-96.5 -0.5z" />
    <glyph glyph-name="C" unicode="C" horiz-adv-x="1130" 
d="M674 -8q-66 0 -122.5 8.5t-114.5 30t-104.5 56.5t-88 91.5t-69.5 130.5t-44 178t-16 230q0 176 31 307.5t81.5 210t125.5 126.5t151 64.5t170 16.5q63 0 120 -8.5t115 -30.5t105 -55.5t86.5 -86.5t62.5 -122l-196 -58q-24 169 -100 253.5t-193 84.5q-336 0 -336 -700
q0 -703 336 -703q119 0 193 80t98 258l198 -59q-30 -84 -82.5 -145t-119.5 -94.5t-137.5 -48.5t-149.5 -15z" />
    <glyph glyph-name="D" unicode="D" horiz-adv-x="1243" 
d="M98 0q3 2 8.5 6.5t19 22.5t23.5 41t18.5 65t8.5 92v979q0 50 -8 91.5t-19.5 66t-23 41.5t-19.5 23l-8 6h555q124 0 224 -39t167.5 -106t112.5 -159.5t65.5 -195.5t20.5 -219q0 -114 -21.5 -218t-67.5 -195t-112 -158t-161.5 -105.5t-210.5 -38.5h-572zM399 1413v-1393
h199q75 0 137.5 22.5t115.5 74t89.5 131t57 197.5t20.5 268q0 187 -32.5 324.5t-93 218.5t-137.5 119t-173 38h-183z" />
    <glyph glyph-name="E" unicode="E" horiz-adv-x="1105" 
d="M98 0q3 2 8.5 6.5t19 22.5t23.5 41t18.5 65t8.5 92v979q0 50 -8 91.5t-19.5 66t-23 41.5t-19.5 23l-8 6h959l24 -236q-1 4 -4.5 12t-19.5 29.5t-38 41.5t-64 44.5t-94 42t-131.5 29.5t-172.5 12h-158v-475h191q82 0 143 12t90 29.5t46 34.5t19 29l3 12v-263q0 5 -2.5 13
t-20 28t-46 35.5t-90 28t-142.5 12.5h-191v-878h195q90 0 168 11.5t130 30t93.5 40.5t65.5 44.5t40 41t21 29.5l6 12l-24 -236h-996z" />
    <glyph glyph-name="F" unicode="F" horiz-adv-x="1044" 
d="M98 0q3 2 8.5 6.5t19 22.5t23.5 41t18.5 65t8.5 92v979q0 50 -8 91.5t-19.5 66t-23 41.5t-19.5 23l-8 6h959l24 -236q-3 9 -9.5 23t-42 50.5t-87 64t-153.5 50.5t-232 23h-158v-569h191q82 0 143 11.5t90 28.5t46 34t19 28l3 12v-262q0 5 -2.5 13t-19.5 28.5t-46 36
t-90 28.5t-143 13h-191v-582q0 -49 8 -90.5t19.5 -66t23 -42t19.5 -24.5l8 -6h-379z" />
    <glyph glyph-name="G" unicode="G" horiz-adv-x="1181" 
d="M664 -8q-93 0 -168.5 17.5t-149 66t-122.5 127.5t-79 209.5t-30 304.5q0 146 20 261.5t58.5 193.5t87 132t113 83.5t129 42t141.5 12.5q63 0 119.5 -8.5t114.5 -30.5t105 -55.5t86.5 -86.5t63.5 -122l-205 -58q-24 180 -94.5 259t-189.5 79q-59 0 -105.5 -18.5t-89 -66.5
t-70.5 -126t-44.5 -201.5t-16.5 -287.5q0 -166 14.5 -288.5t41 -201.5t67.5 -127t90 -67t113 -19q108 0 193 84.5t85 214.5v191q0 69 -13 116t-28 62h-102q-57 0 -106 -18.5t-77.5 -44.5t-49 -52t-28.5 -45l-8 -18l25 211h612v-717h-229v90q-48 -51 -123 -74.5t-151 -23.5z
" />
    <glyph glyph-name="H" unicode="H" horiz-adv-x="1216" 
d="M98 0q3 2 8.5 6.5t19 22.5t23.5 41t18.5 65t8.5 92v979q0 50 -8 91.5t-19.5 66t-23 41.5t-19.5 23l-8 6h379q-3 -2 -8.5 -7t-19 -23.5t-23.5 -42t-18.5 -65t-8.5 -90.5v-469h514v469q0 50 -8 91.5t-19.5 66t-22.5 41.5t-19 23l-8 6h378q-3 -2 -8.5 -7t-18.5 -23.5
t-23 -42t-18.5 -65t-8.5 -90.5v-979q0 -49 8 -90t19.5 -65.5t22.5 -41.5t19 -24l8 -6h-378q3 2 8.5 6.5t18.5 22.5t23 41t18.5 65t8.5 92v471h-514v-471q0 -49 8 -90t19.5 -65.5t23 -41.5t19.5 -24l8 -6h-379z" />
    <glyph glyph-name="I" unicode="I" horiz-adv-x="479" 
d="M98 0q3 2 8.5 6.5t19 22.5t23.5 41t18.5 65t8.5 92v979q0 50 -8 91.5t-19.5 66t-23 41.5t-19.5 23l-8 6h379q-3 -2 -8.5 -7t-19 -23.5t-23.5 -42t-18.5 -65t-8.5 -90.5v-979q0 -49 8 -90t19.5 -65.5t23 -41.5t19.5 -24l8 -6h-379z" />
    <glyph glyph-name="J" unicode="J" horiz-adv-x="1069" 
d="M473 -8q-54 0 -105 5.5t-106.5 18t-102 35.5t-84 55t-58.5 80.5t-21 108.5l199 59q0 -181 76 -259.5t202 -78.5q60 0 104 17t78.5 57t52 112.5t17.5 178.5v825q0 50 -8 91.5t-19.5 66t-23 41.5t-19.5 23l-8 6h379q-3 -2 -8.5 -7t-19 -23.5t-23.5 -42t-18.5 -65
t-8.5 -90.5v-788q0 -102 -29 -179.5t-75 -123t-110.5 -74.5t-127 -39t-133.5 -10z" />
    <glyph glyph-name="K" unicode="K" horiz-adv-x="1202" 
d="M98 0q3 2 8.5 6.5t19 22.5t23.5 41t18.5 65t8.5 92v979q0 50 -8 91.5t-19.5 66t-23 41.5t-19.5 23l-8 6h379q-3 -2 -8.5 -7t-19 -23.5t-23.5 -42t-18.5 -65t-8.5 -90.5v-788q206 314 535 776q39 56 60.5 101t24.5 70t0.5 41.5t-9.5 21.5l-6 6h219q-4 -1 -11 -3.5
t-31.5 -17.5t-52 -38.5t-71 -71.5t-88.5 -111q-73 -103 -145.5 -209t-109.5 -161l-36 -54q129 -189 373 -553q36 -54 72.5 -96t62.5 -63.5t46.5 -35t31.5 -16.5l10 -4h-414q2 2 5.5 7t8 23.5t2.5 41t-17.5 61t-45.5 82.5l-260 381l-154 -223v-146q0 -49 8 -90t19.5 -65.5
t23 -41.5t19.5 -24l8 -6h-379z" />
    <glyph glyph-name="L" unicode="L" horiz-adv-x="1058" 
d="M98 0q3 2 8.5 6.5t19 22.5t23.5 41t18.5 65t8.5 92v979q0 50 -8 91.5t-19.5 66t-23 41.5t-19.5 23l-8 6h379q-3 -2 -8.5 -7t-19 -23.5t-23.5 -42t-18.5 -65t-8.5 -90.5v-1179h168q92 0 172 11.5t133 29.5t96 40t67.5 44t41 40t21.5 30l6 11l-25 -233h-981z" />
    <glyph glyph-name="M" unicode="M" horiz-adv-x="1642" 
d="M98 0q3 2 8.5 6.5t19 23.5t23.5 43.5t18.5 69t8.5 97.5v954q0 53 -8 97.5t-19.5 69.5t-23 42.5t-19.5 24.5l-8 6h383q-2 -2 -6 -7t-10.5 -23.5t-8.5 -42t5.5 -65t25.5 -90.5l379 -1013l377 1001q20 53 28.5 97t6.5 69t-7 43t-11 25l-5 6h383q-3 -2 -8 -7t-18 -23.5
t-23 -42t-18 -65t-8 -90.5v-977q0 -49 7.5 -90.5t18.5 -66t22.5 -42t18.5 -24.5l8 -6h-376q3 2 8 6.5t18 22.5t23 41t18 65t8 92v979q0 61 -8 97q-32 -58 -51 -109l-444 -1194h-119l-451 1206q-15 41 -43 94q-10 -48 -10 -106v-954q0 -53 8 -97t19.5 -69t23 -43t19.5 -25
l8 -6h-191z" />
    <glyph glyph-name="N" unicode="N" horiz-adv-x="1118" 
d="M98 0q3 2 8.5 6.5t19 23.5t23.5 43.5t18.5 69t8.5 97.5v954q0 53 -8 97.5t-19.5 69.5t-23 42.5t-19.5 24.5l-8 6h394q-6 -3 -12 -11.5t2.5 -58.5t49.5 -127l478 -858v815q0 53 -8 97.5t-19.5 69.5t-23 42.5t-19.5 24.5l-8 6h190q-3 -2 -8.5 -6.5t-19 -24t-23.5 -44
t-18.5 -68.5t-8.5 -97v-1194h-38l-695 1206q-39 71 -84 125q-16 -70 -16 -137v-954q0 -53 8 -97t19.5 -69t23 -43t19.5 -25l8 -6h-191z" />
    <glyph glyph-name="O" unicode="O" horiz-adv-x="1204" 
d="M655 -8q-92 0 -169 20t-149 71t-121.5 131.5t-79.5 208.5t-30 294q0 725 549 725q92 0 168 -19t148 -69t121 -130t78.5 -209t29.5 -298t-29.5 -298t-78.5 -209t-121 -130t-148 -69t-168 -19zM655 1419q-81 0 -138 -31t-101 -108t-65 -216t-21 -345t21.5 -345.5t65 -217
t100.5 -109t138 -31.5q82 0 138 30t99.5 106.5t64 216.5t20.5 350t-20.5 349t-64 215t-99.5 106t-138 30z" />
    <glyph glyph-name="P" unicode="P" horiz-adv-x="1224" 
d="M98 0q3 2 8.5 6.5t19 22.5t23.5 41t18.5 65t8.5 92v979q0 50 -8 91.5t-19.5 66t-23 41.5t-19.5 23l-8 6h627q255 0 388.5 -108.5t133.5 -305.5q0 -193 -138.5 -309.5t-367.5 -116.5h-342v-365q0 -49 8 -90.5t19.5 -66t23 -42t19.5 -24.5l8 -6h-379zM399 1413v-801h254
q190 0 281.5 100.5t91.5 309.5q0 205 -99 298t-290 93h-238z" />
    <glyph glyph-name="Q" unicode="Q" horiz-adv-x="1218" 
d="M655 -8q-92 0 -169 20t-149 71t-121.5 131.5t-79.5 208.5t-30 294q0 725 549 725q92 0 168 -19t148 -69t121 -130t78.5 -209t29.5 -298q0 -472 -225 -635q109 -113 184 -113q39 0 82 27q-123 -109 -225 -109q-110 0 -219 121q-72 -16 -142 -16zM655 1419q-81 0 -138 -31
t-101 -108t-65 -216t-21 -345q0 -272 41 -430q79 65 209 65q45 0 88 -14.5t84 -45t69.5 -57t69.5 -69.5q86 166 86 551q0 210 -20.5 349t-64 215t-99.5 106t-138 30zM655 16q63 0 115 21q-18 21 -52.5 66t-54.5 68.5t-50 52.5t-59.5 42t-61.5 13q-65 0 -113 -29
q38 -127 106.5 -180.5t169.5 -53.5z" />
    <glyph glyph-name="R" unicode="R" horiz-adv-x="1253" 
d="M98 0q3 2 8.5 6.5t19 22.5t23.5 41t18.5 64.5t8.5 90.5v981q0 50 -8 91.5t-19.5 66t-23 41.5t-19.5 23l-8 6h627q252 0 387 -119.5t135 -319.5q0 -175 -111.5 -300.5t-301.5 -149.5l227 -330q30 -45 63.5 -84t60.5 -62t49.5 -39.5t35.5 -23.5l12 -6h-379q2 2 4.5 6.5
t4 21.5t-3 39.5t-22.5 62t-50 85.5l-220 324h-217v-312q0 -49 8 -90t19.5 -65.5t23 -41.5t19.5 -24l8 -6h-379zM399 1413v-856h254q183 0 278 110.5t95 321.5q0 207 -101.5 315.5t-287.5 108.5h-238z" />
    <glyph glyph-name="S" unicode="S" horiz-adv-x="1280" 
d="M680 16q177 0 279 92t102 291q0 78 -30.5 137t-82 96t-118.5 65t-141.5 47.5t-148.5 39t-141 45.5t-118.5 61t-82 90.5t-30.5 129.5t28.5 132.5t75.5 96t111.5 61.5t131.5 34t142 10q71 0 142 -12t143.5 -38t130.5 -75t86 -115l-190 -57q-22 138 -114 206t-206 68
q-58 0 -106 -12t-89 -38t-64 -74.5t-23 -114.5q0 -60 31.5 -105t84.5 -73.5t121.5 -51t145 -42.5t152.5 -43t144.5 -59t121.5 -83.5t84.5 -123t31.5 -171.5q0 -98 -33.5 -175t-89 -125.5t-135 -80t-164 -44.5t-182.5 -13q-56 0 -100 2t-108 11t-113 25t-102.5 47t-89.5 73.5
t-62 107t-31 145.5l215 68q0 -107 25.5 -190t65 -132t93.5 -80t104 -42t103 -11z" />
    <glyph glyph-name="T" unicode="T" horiz-adv-x="1077" 
d="M377 1407q-89 0 -160 -24t-108.5 -57.5t-62 -67.5t-31.5 -58l-7 -24l6 258h1055l6 -258q-2 9 -7.5 25t-31.5 55.5t-62.5 70t-108 55.5t-160.5 25h-50v-1180q0 -49 8 -90t19 -65.5t22 -41.5t19 -24l8 -6h-377q3 2 8.5 6.5t19 22.5t23.5 41t18.5 65t8.5 92l-2 1180h-53z
" />
    <glyph glyph-name="U" unicode="U" horiz-adv-x="1253" 
d="M160 1204q0 50 -8 92t-19.5 66.5t-23 41.5t-19.5 24l-8 6h379q-3 -2 -8.5 -7t-19 -24t-23.5 -42.5t-18.5 -65.5t-8.5 -91v-809q0 -98 13 -167.5t35 -110.5t59 -64t76 -30t96 -7t96.5 7t78 30t61 64.5t36.5 112.5t14 171l2 803q0 50 -8 92t-19.5 66.5t-23 41.5t-19.5 24
l-8 6h379q-3 -2 -8.5 -7t-18.5 -24t-23 -42.5t-18.5 -65.5t-8.5 -91v-768q0 -95 -14.5 -166t-46 -119.5t-72.5 -80t-102 -48.5t-125 -23.5t-152 -6.5q-72 0 -126.5 4t-109.5 16t-94 32t-73.5 53t-55.5 78.5t-33 109.5t-12 145z" />
    <glyph glyph-name="V" unicode="V" horiz-adv-x="1200" 
d="M100 1208q-20 59 -43.5 103.5t-42 66.5t-34 36t-24.5 17l-9 3h379q-2 -2 -6 -7t-11 -23.5t-9.5 -42t3 -65t21.5 -90.5l340 -1013l337 1003q19 56 26.5 101t4 69.5t-9 41t-12.5 21.5l-6 5h190q-4 -2 -10.5 -5.5t-25.5 -21t-37 -41.5t-42 -70t-43 -102l-401 -1194h-131
q-216 642 -404 1208z" />
    <glyph glyph-name="W" unicode="W" horiz-adv-x="2185" 
d="M100 1208q-20 59 -43.5 103.5t-42 66.5t-34 36t-24.5 17l-9 3h379q-2 -2 -6 -7t-11 -23.5t-9.5 -42t3 -65t21.5 -90.5l340 -1013l376 1120q-25 49 -53 79.5t-43 35.5l-16 6h340q-2 -6 -3 -20t9 -72.5t35 -135.5l340 -1013l338 1003q19 56 26 101t4 69.5t-9 41t-12 21.5
l-7 5h190q-4 -2 -10.5 -5.5t-25.5 -21t-37 -41.5t-42 -70t-43 -102l-401 -1194h-131l-404 1208q-10 28 -24 60l-426 -1268h-131q-216 642 -404 1208z" />
    <glyph glyph-name="X" unicode="X" horiz-adv-x="1189" 
d="M168 1206q-47 79 -100.5 136t-83.5 74l-29 18h379q-2 -2 -4.5 -7t-4.5 -23.5t1.5 -42t19.5 -65t45 -90.5l240 -403l233 391q32 53 50.5 97.5t22 69.5t2.5 42.5t-5 24.5l-4 6h190q-4 -2 -12 -6.5t-33 -24t-49.5 -44t-59.5 -68.5t-67 -97l-250 -420l324 -545
q46 -77 99.5 -134.5t83.5 -76.5l30 -18h-377q2 2 4.5 6.5t5 22.5t-1.5 41t-20.5 65t-46.5 92l-242 410l-236 -397q-32 -53 -50 -97t-21.5 -69t-3 -43t4.5 -25l5 -6h-191q4 2 12 6.5t32.5 23.5t49.5 43.5t59.5 69t66.5 97.5l253 426z" />
    <glyph glyph-name="Y" unicode="Y" horiz-adv-x="1163" 
d="M156 1206q-47 79 -100.5 136t-83.5 74l-29 18h379q-2 -2 -4.5 -7t-4.5 -23.5t1.5 -42t19.5 -65t45 -90.5l270 -442l260 430q33 56 52 101.5t22.5 70t2 41.5t-5.5 22l-5 5h190q-4 -2 -11.5 -5.5t-31.5 -21t-49 -41.5t-60.5 -70t-68.5 -102l-285 -463v-504q0 -49 8 -90
t19.5 -65.5t23 -41.5t19.5 -24l8 -6h-379q3 2 8.5 6.5t19 22.5t23.5 41t18.5 65t8.5 92l-2 508z" />
    <glyph glyph-name="Z" unicode="Z" horiz-adv-x="1060" 
d="M12 0q4 2 11.5 6.5t29.5 23t43 42t49 65t50 90.5q523 1125 548 1180h-192q-100 0 -182.5 -10t-135 -26t-92.5 -35.5t-60 -39t-32 -35.5t-15 -26l-3 -10l26 209h1002q-4 -2 -11.5 -6.5t-29.5 -22.5t-43 -41.5t-49 -65.5t-52 -92q-499 -1081 -546 -1179h186q100 0 183 10.5
t135.5 27t93.5 36.5t61.5 40t33.5 36.5t16 26.5l3 11l-26 -215h-1002z" />
    <glyph glyph-name="bracketleft" unicode="[" horiz-adv-x="456" 
d="M487 1384h-118v-1376h118v-28h-282v1433h282v-29z" />
    <glyph glyph-name="backslash" unicode="\" horiz-adv-x="622" 
d="M150 1563l462 -1723h-127l-465 1723h130z" />
    <glyph glyph-name="bracketright" unicode="]" horiz-adv-x="456" 
d="M139 1413h283v-1433h-283v28h121v1376h-121v29z" />
    <glyph glyph-name="asciicircum" unicode="^" horiz-adv-x="751" 
d="M438 1569l312 -312l-97 -96l-217 291l-223 -297l-94 94z" />
    <glyph glyph-name="underscore" unicode="_" horiz-adv-x="888" 
d="M889 -227h-684v125h684v-125z" />
    <glyph glyph-name="grave" unicode="`" horiz-adv-x="190" 
d="M20 1542q7 -45 31 -163t31 -156h-45l-152 319h135z" />
    <glyph glyph-name="a" unicode="a" horiz-adv-x="1202" 
d="M1202 0h-301v168q-70 -178 -332 -178q-127 0 -224.5 28.5t-155 77.5t-86.5 110.5t-29 131.5q1 85 31.5 150.5t80 105.5t119 66t139 35.5t148.5 9.5q72 1 117.5 4t86 11t61.5 22.5t32.5 38.5t11.5 59q0 124 -56.5 180.5t-180.5 56.5q-64 0 -111.5 -20.5t-74 -51t-42 -75.5
t-20 -85t-4.5 -89l-211 84q16 64 62 114.5t111 81.5t141 47.5t155 16.5q129 0 217 -21.5t140 -66.5t74.5 -108t22.5 -152v-523q0 -49 8 -90.5t19.5 -66t23 -42t19.5 -24.5zM602 20q74 0 131 24t88 57.5t50 77t24.5 75t5.5 59.5v375h-260q-83 0 -146 -22t-99.5 -55.5
t-59.5 -80.5t-31 -90.5t-8 -91.5q0 -78 19 -138t49 -95t72 -57.5t81.5 -30t83.5 -7.5z" />
    <glyph glyph-name="b" unicode="b" horiz-adv-x="1130" 
d="M643 1100q121 0 212 -38.5t147 -110t84 -168t28 -218.5q0 -275 -119 -422t-360 -151q-178 -4 -258 88v-80h-299q3 2 8.5 7t19 23.5t23.5 41t18.5 61t8.5 82.5v967q0 50 -7.5 88.5t-18 57t-21 30t-17.5 14.5l-8 2l293 62v-455q36 57 110.5 88t155.5 31zM621 16
q56 0 99.5 21t72.5 61t49 89.5t30 114t14.5 125.5t4.5 134q0 87 -7 158t-26 139t-50 114.5t-81 74.5t-117 28q-62 0 -108.5 -32.5t-73 -86.5t-39 -116t-12.5 -129v-316q0 -80 13.5 -147t42 -120t76.5 -82.5t112 -29.5z" />
    <glyph glyph-name="c" unicode="c" horiz-adv-x="991" 
d="M664 70q119 0 195.5 58t119.5 181l20 -22q-95 -295 -378 -295q-519 0 -519 555q0 128 28.5 226.5t74.5 159.5t112 99.5t134 53t147 14.5q114 0 197 -28.5t131.5 -75t83.5 -117.5l-215 -84q-21 284 -201 284q-266 0 -266 -499q0 -261 89.5 -385.5t246.5 -124.5z" />
    <glyph glyph-name="d" unicode="d" horiz-adv-x="1128" 
d="M1067 215q0 -44 8 -82t19 -61.5t22 -40.5t19 -24l8 -7h-299v80q-80 -92 -256 -88q-242 4 -362 151t-120 422q0 114 28 209.5t84 169t148 115t212 41.5q81 0 155.5 -31t110.5 -88v455l293 -62l-7.5 -2.5t-16.5 -13.5t-21.5 -30.5t-17 -57t-7.5 -88.5v-967zM844 397v314
q0 92 -23 171.5t-77.5 136t-133.5 56.5q-67 0 -117 -28t-80.5 -74.5t-49.5 -114.5t-26 -139t-7 -158q0 -73 4.5 -134t14.5 -125.5t30 -114t49 -89.5t72.5 -61t99.5 -21q86 0 142 52.5t79 135t23 193.5z" />
    <glyph glyph-name="e" unicode="e" horiz-adv-x="1030" 
d="M672 45q117 0 201 68t122 194l27 -39q-32 -110 -128 -193t-228 -83q-83 0 -154 11.5t-149.5 47.5t-133.5 95t-91 161.5t-36 239.5q0 118 25 212t69.5 157t108 105t137 60.5t160.5 18.5q110 0 197 -29.5t152.5 -101t90.5 -181.5l-716 -237q1 -260 94 -383t252 -123z
M602 1079q-44 0 -80.5 -11t-73.5 -44t-62 -87t-41 -145.5t-17 -213.5l501 165q0 151 -68.5 243.5t-158.5 92.5z" />
    <glyph glyph-name="f" unicode="f" horiz-adv-x="499" 
d="M518 1395q31 0 61.5 -2t53 -4.5t50.5 -9t42.5 -9.5t42 -12t35 -11.5t35 -12.5t30.5 -11l-129 -174q-6 13 -22.5 47.5t-23.5 47t-22.5 38.5t-28 37t-32 25t-42 19t-50.5 5q-38 0 -66 -12t-45.5 -37.5t-28 -52.5t-15 -70.5t-6 -76t-1.5 -83.5v-67h170v-27h-170v-715
q0 -49 8 -90t19.5 -65.5t23 -41.5t19.5 -24l8 -6h-377q3 2 8 6.5t18.5 22.5t23.5 41t18 65t8 92v715h-129v27h129v69q0 357 385 357z" />
    <glyph glyph-name="g" unicode="g" horiz-adv-x="1110" 
d="M684 117q107 0 182 -16.5t119 -49t63.5 -76t20.5 -102.5q1 -68 -33 -129t-102 -112t-184.5 -81t-266.5 -30q-108 0 -195.5 16.5t-145 44t-98.5 65t-61.5 78t-28.5 85t-4.5 83.5t15.5 76l185 -49q-12 -26 -18 -57t-4 -67t13.5 -70.5t38 -66.5t65 -56.5t100.5 -39
t140 -14.5q62 0 113 7t98 26t79.5 49t51.5 78.5t19 112.5q0 70 -52.5 107.5t-146.5 37.5h-397q-110 0 -176 33t-66 100q0 66 48 109.5t116 66.5q-131 118 -131 357q0 91 19 164.5t53.5 123.5t78.5 86t100.5 55.5t112.5 28.5t119 9l230 -2q70 0 134 21.5t93 42.5l29 22
l-37 -107h-268q303 -84 303 -444q0 -90 -19 -162.5t-53.5 -122.5t-79 -86.5t-100.5 -57t-112.5 -29.5t-119.5 -9q-204 0 -321 88q-74 -24 -74 -76q0 -37 37 -49t102 -12h416zM524 1081q-46 0 -83 -11t-71 -41t-56.5 -79.5t-36 -129.5t-13.5 -187t13.5 -187t35.5 -129t56 -79
t71 -41t84 -11q58 0 102.5 20t81.5 68t56.5 138t19.5 221q0 130 -20 221t-57 139t-81 68t-102 20z" />
    <glyph glyph-name="h" unicode="h" horiz-adv-x="1142" 
d="M764 0q3 2 8 6t18.5 22t23.5 41t18 64.5t8 91.5v570q0 149 -51 214.5t-152 65.5q-260 0 -260 -375v-495q0 -43 8 -80t19 -59t22 -38t19 -22l8 -6h-379q3 2 8.5 6t19 20.5t23.5 38t18.5 59t8.5 81.5v973q0 44 -8 82.5t-19.5 62.5t-23 41t-19.5 24l-8 7l301 41v-482
q47 81 122.5 113.5t182.5 32.5q81 0 142 -9.5t103 -30t69.5 -47.5t42.5 -68.5t20.5 -86t5.5 -106.5v-527q0 -49 8 -90t19.5 -65t23 -40.5t19.5 -23.5l8 -6h-377z" />
    <glyph glyph-name="i" unicode="i" horiz-adv-x="456" 
d="M254 1165q-66 0 -112 45.5t-46 110.5t47 111.5t111 46.5t110 -46.5t46 -111.5t-46 -110.5t-110 -45.5zM82 0q3 2 8.5 7t19 23.5t23.5 40.5t18.5 61t8.5 83v621q0 44 -8 82.5t-19.5 62.5t-23 41t-19.5 24l-8 7l301 39v-877q0 -43 8 -81t19.5 -61.5t23 -41t19.5 -24.5l8 -7
h-379z" />
    <glyph glyph-name="j" unicode="j" horiz-adv-x="438" 
d="M8 1165q-64 0 -109.5 45.5t-45.5 110.5t45.5 111.5t109.5 46.5t111 -46.5t47 -111.5q0 -64 -46.5 -110t-111.5 -46zM-80 836q0 44 -8 82.5t-19.5 62.5t-23 41t-19.5 24l-8 7l301 39v-934q0 -93 -19 -165.5t-49.5 -117.5t-73 -74t-85.5 -40t-92 -11q-66 0 -127 19t-94 45
l10 43q61 -43 131 -43q35 0 63.5 15t55.5 51t42 106.5t15 171.5v678z" />
    <glyph glyph-name="k" unicode="k" horiz-adv-x="1046" 
d="M707 0q2 2 3.5 7t2.5 23.5t-4 40.5t-22.5 61t-47.5 83l-164 236l-96 -146v-90q0 -43 8 -81t19.5 -61.5t23 -41t19.5 -24.5l8 -7h-379q3 2 8 7t18.5 23.5t23.5 40.5t18 61t8 83v969q0 44 -8 81.5t-19 60.5t-22 39.5t-19 22.5l-8 7l299 41l2 -1088q12 16 77.5 113
t147.5 215.5t141 200.5q115 157 80 206q-5 7 -12 9h203q-5 -2 -14 -6.5t-36 -22.5t-54 -40t-65 -61.5t-71 -84.5l-178 -265l274 -397q43 -64 99 -117.5t91 -75.5l34 -22h-389z" />
    <glyph glyph-name="l" unicode="l" horiz-adv-x="454" 
d="M78 0l8.5 8.5t19 25t23.5 42.5t18.5 60.5t8.5 78.5v963q0 44 -8 82.5t-19.5 62.5t-23 41t-19.5 24l-8 7l301 41v-1221q0 -43 8 -80.5t19.5 -61t23 -41t19.5 -24.5l8 -8h-379z" />
    <glyph glyph-name="m" unicode="m" horiz-adv-x="1732" 
d="M1362 0q3 2 8.5 6t19 22t23.5 41t18.5 64.5t8.5 91.5v580q0 147 -35 208.5t-131 61.5q-124 0 -184 -99t-60 -267v-484q0 -49 8 -90t19 -65t22 -40.5t19 -23.5l8 -6h-379q3 2 8.5 6t19 22t23.5 41t18.5 64.5t8.5 91.5v529q0 189 -32.5 256t-137.5 67q-113 0 -176.5 -102
t-63.5 -266v-484q0 -49 8 -90t19.5 -65t23 -40.5t19.5 -23.5l8 -6h-379q3 2 8.5 6t19 22t23.5 41t18.5 64.5t8.5 91.5v584q0 50 -8 93t-19.5 69t-23 44.5t-19.5 26.5l-8 7l301 45v-156q65 162 287 162q120 0 193 -23.5t104 -61t43 -97.5q36 95 104.5 138.5t188.5 43.5
q61 0 109 -5t84 -17.5t61.5 -26.5t42.5 -39t27.5 -48t15.5 -60.5t6.5 -70t1.5 -81.5v-527q0 -49 8 -90t19.5 -65t23 -40.5t19.5 -23.5l8 -6h-379z" />
    <glyph glyph-name="n" unicode="n" horiz-adv-x="1171" 
d="M801 0q3 2 8.5 6.5t19 22.5t23.5 41t18.5 65t8.5 92v564q0 157 -52 221.5t-163 64.5q-277 0 -277 -368v-482q0 -48 8 -89t19.5 -65.5t23 -42t19.5 -24.5l8 -6h-379q3 2 8.5 6.5t19 22.5t23.5 41t18.5 65t8.5 92v641q0 50 -8 86.5t-19.5 53.5t-23 27t-19.5 11l-8 1l301 47
v-158q49 95 126 129.5t187 34.5q121 0 200 -21t123.5 -67t61.5 -107.5t17 -152.5v-525q0 -48 8 -89t19.5 -65.5t23 -42t19.5 -24.5l8 -6h-379z" />
    <glyph glyph-name="o" unicode="o" 
d="M598 1100q78 0 146 -15t133.5 -54.5t112 -100t74.5 -159t28 -224.5t-28 -224.5t-74.5 -159.5t-112 -100.5t-133.5 -55t-146 -15.5q-79 0 -147 14.5t-134 53.5t-112 99.5t-74.5 159.5t-28.5 228q0 128 28.5 226.5t74.5 159.5t112 99.5t134 53t147 14.5zM598 14
q49 0 87.5 14t73.5 50.5t58.5 95.5t37 153.5t13.5 219.5q0 156 -19.5 263t-57.5 164.5t-84.5 81t-108.5 23.5q-64 0 -110 -23t-84 -79.5t-57 -164t-19 -265.5q0 -128 13.5 -223t36.5 -153.5t58.5 -94t74 -49t87.5 -13.5z" />
    <glyph glyph-name="p" unicode="p" horiz-adv-x="1120" 
d="M643 1100q230 0 348.5 -144t118.5 -391q0 -277 -114 -420.5t-363 -152.5q-74 -3 -140.5 19.5t-105.5 64.5v-193q0 -49 8 -90t19.5 -65.5t23 -41.5t19.5 -24l8 -6h-379q3 2 8.5 6.5t19 22.5t23.5 41t18.5 65t8.5 92v934q0 50 -8 92t-19.5 66.5t-23 41.5t-19.5 23l-8 7
l301 47v-107q80 113 256 113zM616 16q56 0 100 24.5t72 69t48 96.5t29.5 117t13.5 121t4 117q0 109 -11.5 194t-39.5 161t-82.5 117.5t-133.5 41.5q-112 0 -170.5 -102t-58.5 -268v-334q0 -57 7 -107t23.5 -96.5t42.5 -79.5t65.5 -52.5t90.5 -19.5z" />
    <glyph glyph-name="q" unicode="q" horiz-adv-x="1120" 
d="M1130 -344h-303v420q-40 -43 -104.5 -65t-138.5 -19q-250 9 -364 152.5t-114 420.5q0 247 117.5 391t347.5 144q175 0 258 -113v107l299 -47q-3 -2 -8 -6.5t-18 -23t-23 -42.5t-18 -66t-8 -92v-934q0 -50 8 -91.5t19.5 -65.5t22.5 -41t19 -23zM598 16q63 0 109.5 29.5
t71.5 81.5t36.5 112.5t11.5 133.5v334q0 167 -58 267.5t-171 100.5q-64 0 -112 -28.5t-76.5 -75t-46.5 -115t-24.5 -139t-6.5 -156.5q0 -75 5.5 -142t22.5 -143.5t45 -131.5t77.5 -91.5t115.5 -36.5z" />
    <glyph glyph-name="r" unicode="r" horiz-adv-x="1011" 
d="M659 1100q104 0 177.5 -14t116 -41t64 -57t34.5 -73l-207 -86q-8 122 -53 184t-148 62q-135 0 -192.5 -94.5t-57.5 -282.5l2 -471q0 -48 8 -89t19 -65.5t22 -42t19 -24.5l8 -6h-377q3 2 8.5 6.5t19 22.5t23.5 41t18.5 65t8.5 92v584q0 50 -8 93.5t-19.5 68.5t-23 43.5
t-19.5 25.5l-8 7l299 45v-131q59 137 266 137z" />
    </font>
</defs>
</svg>
